<svg xmlns="http://www.w3.org/2000/svg" width="350.828" height="384.038" viewBox="0 0 350.828 384.038">
  <g id="Grupo_7358" data-name="Grupo 7358" transform="translate(-1812.091 -1690.577)">
    <path id="Trazado_16263" data-name="Trazado 16263" d="M1878.739,1707.217l-.317.043c.027.311.053.624.08.937l.424-.022C1878.864,1707.855,1878.8,1707.536,1878.739,1707.217Z" transform="translate(69.431 17.418)"/>
    <path id="Trazado_16264" data-name="Trazado 16264" d="M2150.114,2036.441c-11.834-18.818-63.074-44.762-63.074-44.762-.63-.262-1.349-.348-1.717-.753-1.091-1.2-2.77-1.349-3.94-2.388-1.209-1.075-2.782-1.57-4.166-2.37s-2.836-1.435-4.255-2.153a30.643,30.643,0,0,0-4.059-2.032c-1.531-.51-2.847-1.4-4.316-2.02-4.458-1.87-8.771-4.085-13.189-6.054-1.795-.8-3.553-1.723-5.369-2.421-4.239-1.629-8.386-3.445-12.508-5.332a32.879,32.879,0,0,0-3.76-1.574c-3.4-1.068-6.578-2.673-9.886-3.962-2.179-.852-4.294-1.869-6.449-2.786-.416-.178-1.077-.1-1.285-.383-.637-.872-1.707-.69-2.47-1.216-.811-.561-1.715-.986-2.567-1.49a52.463,52.463,0,0,1-5.282-3.2c-2.4-1.828-4.648-3.856-6.89-5.878a23.139,23.139,0,0,1-3.678-4.1c-1.144-1.676-2.554-3.177-3.678-4.867-1.038-1.562-1.85-3.273-2.763-4.92-.117,3.277.084,6.464.284,9.652,0,.08-.035.2.006.24,1.148,1.095.125,2.587.743,3.87.549,1.142.428,2.575.671,3.876a57.939,57.939,0,0,1,.541,5.919c.012.162-.07.4.012.479.663.657.4,1.49.493,2.26.1.839.4,1.66.457,2.5a35,35,0,0,0,.413,4.23,35.763,35.763,0,0,1,.563,3.95c.106,1.334.209,2.642.448,3.977a64.333,64.333,0,0,1,.555,6.9c.016.244-.1.567.018.723.823,1.084.332,2.327.477,3.49.156,1.24.422,2.477.467,3.723.078,2.123.029,4.251.014,6.378,0,.356-.09.712-.2,1.517-.612-.714-.974-1.073-1.259-1.484a7.477,7.477,0,0,1-.929-3.277c-.243-1.629-.115-3.287-.479-4.955-.35-1.592-.172-3.281-.483-4.947-.34-1.822-1.079-3.522-1.3-5.381a28.235,28.235,0,0,0-1.26-5.111c-.268-.855-.579-1.734-.866-2.575-.592-1.74-1.859-2.989-2.708-4.521a5.531,5.531,0,0,0-1.76-1.547,43.763,43.763,0,0,0-9.843-5.223,54.76,54.76,0,0,0-5.933-1.64,4.623,4.623,0,0,0-2.823.205c-1.537.673-3.379.46-4.7,1.682-1.58.019-3.154,1.056-4.667.457a12.194,12.194,0,0,0-4.235-.416c-1.361-.063-2.728-.014-4.536-.014l1.826-2.315a4.825,4.825,0,0,0-1.427.335c-2.235.414-4.038,1.715-5.966,2.78-1.24.686-2.274,1.646-3.432,2.395a54.784,54.784,0,0,0-5.313,4.351,59.726,59.726,0,0,0-4.927,4.53c-1.04,1.091-1.967,2.29-2.96,3.426-1.285,1.47-2.585,2.923-3.876,4.384a11.646,11.646,0,0,0,5.633-3.164,4.148,4.148,0,0,0,1.063-.127,6.705,6.705,0,0,1,3.543-.817c.819.119,1.65.328,2.5.45a13.064,13.064,0,0,1,2.591.827,38.109,38.109,0,0,1,7.632,3.5c2.626,1.684,5.383,3.178,8.064,4.789a16.3,16.3,0,0,0,6.239,2.106c1.023.618,1.58.956,2.053,1.24-.733,1.9-1.4,3.588-2.037,5.285a25.705,25.705,0,0,0-1.416,4.063,8.478,8.478,0,0,1-.817,2.607c-.518.894-.086,1.8-.536,2.739-.71,1.48-.61,3.332-1.21,4.89-.632,1.647-.391,3.365-.843,5.035a34.127,34.127,0,0,0-.573,6.153,2.136,2.136,0,0,1-.008.487,20.705,20.705,0,0,0-.982,7.2,10.636,10.636,0,0,1-.166,1.33c-.979-1.06-1.807-1.852-2.513-2.742-2.282-2.888-4.527-5.8-6.767-8.725-.8-1.046-1.512-2.164-2.325-3.2-1.457-1.86-2.966-3.678-4.441-5.524s-2.911-3.7-4.382-5.541c-.6-.743-1.324-1.394-1.844-2.186a47.641,47.641,0,0,0-4.515-5.978,16.532,16.532,0,0,1-1.222-1.7c-.4-.575-.909-1.046-1.306-1.652-1.206-1.834-2.7-3.471-4.067-5.2-.771-.98-1.506-1.99-2.243-2.994a13.574,13.574,0,0,1-1.449-2.1c-.483-1.02-.682-2.178-1.185-3.185-2.194-4.4-3.973-8.989-6.05-13.441-.7-1.508-1.4-3.017-2.11-4.523s-1.351-3.046-2.083-4.529c-3.625-7.336-7.35-14.624-11.073-21.908-1.138-2.227-2.292-4.443-3.275-6.74-.917-2.155-1.754-4.343-2.608-6.525a51.358,51.358,0,0,1-2.509-8.031c-.368-1.734-1.2-3.387-1.011-5.229-1.046-1.9-.579-4-.376-5.917a13.16,13.16,0,0,1,1.429-4.523c.725-1.392,1.476-2.769,2.3-4.3a5.643,5.643,0,0,1,1.7,2c1.16,2.389,2.509,4.685,3.78,7.022a59,59,0,0,0,9.536,12.669c1.8,1.871,4.071,3.283,5.95,5.09a77.675,77.675,0,0,0,7.8,6.132c3.124,2.319,6.283,4.609,9.284,7.074,2.892,2.378,5.559,5.039,8.457,7.432,1.32,1.089,2.364,2.507,3.684,3.592,1.211.995,2.4,2.03,3.5,3.119,3.2,3.158,6.507,6.188,10.007,9.014a27.5,27.5,0,0,0,5.107,3.091,2.685,2.685,0,0,0,2-.068c2.563-.7,4.615-2.313,6.877-3.541,2.636-1.433,4.656-3.68,6.979-5.53a3.514,3.514,0,0,0,1.322-1.649c.18-.534,1.263-.721,1.568-1.271a10.249,10.249,0,0,1,2.135-2.538,41.917,41.917,0,0,0,7.049-8.852,5.766,5.766,0,0,1,5.137-2.859c.43-.44.884-.909,1.416-1.455a3.758,3.758,0,0,0,.878-.008c2.624-.765,5.223-1.623,7.868-2.309,4.331-1.124,7.311-3.946,9.663-7.538a84.224,84.224,0,0,0,5.3-8.347c1.3-2.6,3.258-4.845,4.843-7.309a126.248,126.248,0,0,0,7.542-13.32c.594-1.23,1.316-2.4,1.945-3.612.659-1.277,1.285-2.573,1.91-3.868.589-1.228,1.2-2.448,1.725-3.7.557-1.333,1.746-2.348,1.918-3.866,1.916-2.415,2.872-5.366,4.458-7.976a56.074,56.074,0,0,0,3.662-7.55,25.778,25.778,0,0,0,2.008-8.728c.11-2.366-.113-4.75.059-7.11.178-2.431-.591-4.763-.514-7.159.062-1.922-.862-3.741-.522-5.688.031-.178-.172-.413-.3-.6-.927-1.357-.665-2.9-.649-4.386a8.718,8.718,0,0,0-.287-2.917,3.149,3.149,0,0,1,.01-2.012,6.176,6.176,0,0,0,.043-3.25,5.662,5.662,0,0,1-.18-3.312,42.045,42.045,0,0,0,.854-4.779c.26-1.627.248-3.3.346-4.833.964-1.066,2.1-1.811,2.135-3.223.031-1.363.006-2.726.006-4.022h-1.39c-.071.679-.137,1.285-.213,2-.295-.295-.6-.45-.622-.645-.243-1.693-1.67-2.933-1.754-4.677-1.9-2.908-1.838-6.32-2.36-9.56-.354-2.192-.365-4.439-.526-6.66a1.081,1.081,0,0,0,0-.246,21.8,21.8,0,0,1-.984-7.69c.035-1.308,0-2.617.012-3.926a8.861,8.861,0,0,1,.121-1.03c1.289-.157,1.12,1.06,1.844,1.539.581-.217,1.218-.457,1.83-.688l.739-1.812c-1.316-1.525-.458-2.878.36-4.341v-2.131c-.422-.85-.757-1.527-1.044-2.108.526-1.279.985-2.395,1.457-3.549-.039-.043-.207-.143-.239-.276-.616-2.395-2.151-4.235-3.656-6.091-.641-.792-1.318-1.556-1.953-2.3,1.318-2.6,1.336-2.917.2-4.368h-3.127c.227-.753.421-1.4.6-1.991-.618-.659-1.155-1.232-1.584-1.693.237-1.115.428-2.006.622-2.919-.622-.358-1.083-.626-1.563-.9V1727.2a9.834,9.834,0,0,0-2.227-1.539c-1.091-.391-1.529-1.3-2.507-2.018,1.29-.557.485-1.441.645-2.153a7.731,7.731,0,0,0-.4-2.7l-3.838-.745a12.438,12.438,0,0,0-.532-1.817c-.379-.851-.71-1.944-1.6-2.239-1.777-.589-2.2-2.2-2.7-3.539a4.876,4.876,0,0,0-1.089-1.726c-1.218-.4-2.231-.432-2.767-.954a5.043,5.043,0,0,0-4.345-1.285c-.989-2.19-.989-2.19-2.751-2.778-.528-.907-1.061-1.821-1.658-2.849-1.109.456-2.059.851-3.146,1.3.209-1.109.373-1.987.5-2.681a1.872,1.872,0,0,0-2.483-.663,19.411,19.411,0,0,1-2.722.451c-.131-.36-.309-.846-.44-1.208-1.142.262-2.043.467-2.884.659l-2.528-2.546c-1.312-.059-2.681.221-3.831-.814a1.425,1.425,0,0,0-1.355-.135c-1.132.847-2.014.328-2.921-.3a5.755,5.755,0,0,0-2.241-3.138h-2.442l-2.106,1.429h-1.3c-.389-.358-.786-.727-1.064-.983-.97.172-1.942.657-2.4.358-.9-.585-1.707-.123-2.415-.362-.948.929-1.684,1.893-3.052,1.973-.786-.812-1.574-1.629-2.575-2.667-.51.507-.995.995-1.5,1.5-.579-.371-1.29-.827-2.006-1.273-.059-.037-.16,0-.491,0l-1.257.94h-1.715a10.654,10.654,0,0,0-1.977-1.22,2.369,2.369,0,0,0-1.779,0c-1.5,1-2.71.821-4.259-.083a3.491,3.491,0,0,0-4.308.192,6.689,6.689,0,0,1-1.922.813l-1.816-1.813-6.936,2.423c-.174.209-.639.767-1.069,1.287l-3.991-.682a25.042,25.042,0,0,0-2.984,2.08,7.706,7.706,0,0,1-3.381,1.922,5.353,5.353,0,0,0-3.281,2.448c-.342.528-.753,1.011-1.167,1.557h-5.277c-.549.618-1.142,1.279-1.8,2.018-.585-.2-1.154-.4-1.846-.641l-1.02,1.6-1.562-.446c-.422.305-1.238.592-1.5,1.14a4.431,4.431,0,0,1-4.83,2.653c-.059.272-.106.5-.16.749-.7.36-1.441.745-2.464,1.273l-2.774-.421a3.383,3.383,0,0,0-2.135,2.845,3.834,3.834,0,0,1-2.988,3.43c-.567.125-1.021.77-1.584.88-1.218.242-1.59,1.22-2.022,2.1-.528,1.081-.886,2.248-1.3,3.334a3.046,3.046,0,0,0-2.37.765c.35,1.373-.46,2.583-1.189,3.547a5.268,5.268,0,0,0-1.232,3.811c-.373.373-.661.663-1.038,1.038v2.538c-.532.094-.98.176-1.552.278a9.238,9.238,0,0,1-1.308,2.874,9.126,9.126,0,0,1-2.647,1.449c-.563.757-.929,1.247-1.287,1.725v3.328a23.07,23.07,0,0,1,1.4,2.458c.974,2.325.626,3.138-1.678,4.714-.966.659-1.842,1.449-2.689,2.12a13.71,13.71,0,0,1-.021,2.352,33.549,33.549,0,0,0-.991,5.485,2.388,2.388,0,0,1-.622,1.2c-.761.995-1.568,1.955-2.386,2.964.522,1.994-.6,3.643-1.126,5.4-.192.645-.436,1.388-.158,1.8a4.04,4.04,0,0,1,.3,3.5c-.508,1.682-.258,3.291-.419,4.939a4.422,4.422,0,0,1,2,4.378c-.092,1.459-.019,2.929-.019,4.1.632,1.015,1.117,1.793,1.572,2.523l-.643.835c.862,1.322,1.676,2.575,2.321,3.565a10.258,10.258,0,0,1-.493,1.834,24.134,24.134,0,0,0-2.237,9.612,66.828,66.828,0,0,0-.01,6.867c.078,2.225.262,4.449.491,6.664.111,1.077.663,2.094.5,3.221,1.007.682.35,1.787.618,2.679.477,1.6.952,3.226,1.39,4.841.5,1.84.837,3.723,1.316,5.565a29.137,29.137,0,0,0,5.555,10.942,18.156,18.156,0,0,0,8.637,6.177,25.828,25.828,0,0,1,.628,5.5c-.059,2.061-.317,4.165.46,6.173-.376,3.881.731,7.7.493,11.574-.029.487-.209,1.163.033,1.439.915,1.03.018,2.3.507,3.236.577,1.1.319,2.153.455,3.189-1.955,1.662-2.751,4-3.952,5.975a7.331,7.331,0,0,0-4.325,2.282,32.4,32.4,0,0,0-3.66,5.1,10.262,10.262,0,0,1-1.557,2.049,80.443,80.443,0,0,1-9.245,8.4c-1.7,1.25-3.252,2.742-5.027,3.911a68.64,68.64,0,0,1-6.994,4.417,14.312,14.312,0,0,0-4.362,3.557,19.74,19.74,0,0,0-1.017,1.967c-3.451,1.275-6.8,2.718-10.272,3.733-3.5,1.023-6.808,2.556-10.326,3.516a89.639,89.639,0,0,0-10.275,3.381v140.357c7.64,0,350.828.636,350.828.636A87.849,87.849,0,0,0,2150.114,2036.441Zm-262.7-231.059-1.3.641v-1.873h1.3Zm1.066,22.606h-.489v-.164h.489Zm10.2-25.384c.2-.52.342-.9.507-1.333-.182-.031-.5-.182-.614-.09a3.614,3.614,0,0,0-1.275,2.393,15.826,15.826,0,0,1-.54,1.828c-.53-.725-.852-1.163-1.439-1.963.135-.821.348-2.116.6-3.678l2.2-1.582,2.372.919C1900.829,1801.471,1900.537,1802.085,1898.676,1802.605Zm1.244-5.5a2.252,2.252,0,0,0-2.383.061,6.081,6.081,0,0,1-3.465,1.122c-.149-.018-.342.319-.577.555-.448,1.355.426,2.982-.555,4.224q.295.968.522,1.705c-1.058.426-1.961.786-2.9,1.165a4.421,4.421,0,0,0-.287-1.224,4.975,4.975,0,0,0-.9-.978c.913-1.451,1.687-2.775,2.554-4.036.808-1.177.317-2.482.487-3.6l1.981-1.457v-2.057a1.941,1.941,0,0,1,2.247-.675c.44.931.85,1.723,2.108,1.948a2.992,2.992,0,0,1,2.495,3.279C1900.788,1797.138,1900.266,1797.292,1899.921,1797.108Zm-10.575-46.16,1.912,1.615,1.447.141c-1.146.774-2.024,1.367-3.191,2.157C1889.742,1753.381,1888.363,1752.411,1889.345,1750.948Zm3.348,26.386c.332,1.114.589,1.983.849,2.857-.454.391-.794.686-1.255,1.081-.36-.681-.631-1.2-.915-1.734C1891.777,1778.867,1892.168,1778.214,1892.694,1777.334Zm-1.4-11.359c-.3-.559-.541-.995-.78-1.435l.524-.524.966,1.47Zm1.142-6.722c-.54.44-1.089.884-1.508,1.224v1.257l-.594.2c-.888-.5-.342-2.155,1.222-3.584C1891.9,1758.7,1892.12,1758.934,1892.434,1759.253Zm-.068,32.662c.188.4.446.935.677,1.423-.729.745-1.136,1.629-2.389,1.42-.542-.573-1.177-1.244-2.038-2.151C1889.92,1792.367,1890.919,1792.183,1892.366,1791.915Zm9.114-2.438c-1.189-.237-2.393-.43-3.561-.743-.3-.08-.489-.54-.788-.894,1.138-.723,2.131-1.357,3.291-2.094l1.981,2.884c-.375.176-.745.346-1.113.518Zm6.517-10.936h-1.623l-1.03-.929c-1.162,0-1.713.326-3.324,1.908l-2.03.168a8.331,8.331,0,0,1,1.785,3.95c-.213.237-.42.471-.657.735a2.027,2.027,0,0,1-2.149-.367c-.646.2-1.287.389-2.3.7.254-.987.416-1.617.6-2.332-.557-1.488-2.475-1.371-3.523-2.739.547-.819,1.14-1.707,1.8-2.689l3.67,1.369a5.394,5.394,0,0,0-.7-3.019c.268-.53.452-.892.667-1.316l.817.647,2.689-.6v3.129c2.47-1.889,2.994-1.924,5.315-.415Zm-11.628-19.01h1.785c.2.258.473.614.866,1.124-1.165.471-2.139.178-3.41.346C1895.964,1760.315,1896.159,1759.941,1896.37,1759.531ZM1896,1752.1v-.491h.162v.491Zm31.551,182.53h-.164v-.491h.164Zm7.417-29.279c-1.965-2.077-4.261-3.864-5.72-6.372-.334-.573-.784-.97-1.134-1.478a13.829,13.829,0,0,1-.878-1.109c-1.236-2.278-2.718-4.45-3.829-6.75a68.808,68.808,0,0,1-3.056-6.812c-.833-2.348-1.783-4.654-2.593-7.01a13.829,13.829,0,0,1-.874-3.573c-.043-.622-.637-1.066-.254-1.926.555-1.247.6-2.683,1.768-3.688,1.15-.986,2.256-1.637,3.8-.493a13.622,13.622,0,0,1,1.613,7.46c-.146,3.938,1.113,7.62,2.476,11.218a78.868,78.868,0,0,0,4.345,9.47c1.649,3.058,3.1,6.228,4.6,9.362a7.073,7.073,0,0,1,.36,1.472Zm68.76-5.436c-1.126,1.341-2.2,2.616-3.275,3.9a4.07,4.07,0,0,0-.616,3.115l1.9.688v1.623c-.722.938-1.384,1.922-2.172,2.79a36.968,36.968,0,0,1-4.392,3.531,17.765,17.765,0,0,1-3.8,2.72,11.406,11.406,0,0,1-4.429,1.136c-.653.014-1.308-.014-1.961.006a24.073,24.073,0,0,1-9.648-2.162c-1.474-.585-2.937-1.193-4.421-1.754a3.527,3.527,0,0,0-1.046-.014c.227,1.777,2,2.982,1.386,4.861h-2.376a21.844,21.844,0,0,0-2.133-.923,35.085,35.085,0,0,1-10.4-5.045,11.689,11.689,0,0,1-2.7-3.013c-1.3-2.118-3.031-3.965-4.417-6.034a60.7,60.7,0,0,0-5.891-7.376,19.824,19.824,0,0,1-2.372-3.42,43.369,43.369,0,0,1-2.923-5.407c-1.5-3.635-3.484-7.111-3.961-11.112-1.138-1.787-1.287-3.905-1.785-5.87a27.381,27.381,0,0,1-.631-9.053,17.727,17.727,0,0,1,.952-3.516c.227-.749.27-.747,1.691-1.021a8.34,8.34,0,0,1,2.3,4.145,19.84,19.84,0,0,1,.411,4.965c.037,1.963.1,3.93-.018,5.884a12.166,12.166,0,0,0,.6,4.673,13.755,13.755,0,0,1,.377,2.37,38.67,38.67,0,0,0,3.948,6.869c.289.366.524.778.833,1.124,1.009,1.124,2.082,2.167,3,3.4a19.121,19.121,0,0,0,3.416,2.9c.61.5,1.214,1,1.84,1.482a17.294,17.294,0,0,1,1.688,1.23,37.871,37.871,0,0,0,6.153,4.683,14.949,14.949,0,0,1,1.234,1.187c.2.168.512.2.972.014-.767-.767-1.537-1.529-2.3-2.3a18.128,18.128,0,0,1-2.628-3.074c-.7-1.113-1.629-2.077-2.436-3.123-.858-1.111-1.728-2.217-2.526-3.369-1.756-2.534-3.541-5.055-5.166-7.675a10.474,10.474,0,0,1-.786-2.921c3.394-3.367,7.295-5.217,12.049-4.742a34.008,34.008,0,0,1,4.677,1.107,16.1,16.1,0,0,0,3.582.845,7,7,0,0,1,1.758.467c2.182.657,2.249.6,4.765.072a2.652,2.652,0,0,1,2.508.368,6.542,6.542,0,0,0,2.108.71c.041-.555.07-.933.113-1.533l-2.847-1.877c.2-.526.7-.625,1.367-.712,2.921-.387,5.532.77,8.158,1.654a29.908,29.908,0,0,0,5.823,1.324c1,.127,1.985.383,2.986.465a21.069,21.069,0,0,1,2.931.063c1.095.256,2.362.381,3.074,1.91v1.291a4.862,4.862,0,0,1-2.919.71,28.334,28.334,0,0,0-3.522.688c1.946.737,3.344,1.267,4.826,1.83.213.364.479.825.73,1.259l4.27.776c.466.651-.238,1.056-.62,1.24a40.143,40.143,0,0,1-5.528,2.043,14.282,14.282,0,0,1-5.926.432c-4.183-.487-8.353-1.136-12.086-3.348a20.361,20.361,0,0,1-3.064-2.082c-1.713-1.49-3.51-2.886-5.412-4.433-.274.552-.646.941-.579,1.224a11.031,11.031,0,0,0,1.169,3.666c1.707,2.475,3.023,5.193,4.906,7.571.643.811,1.66,1.9,1.056,3.475l-4.8-2.041a5.323,5.323,0,0,0,.448,1.02c.378.514,1.359.446,1.345,1.365,2.122,1.891,4.341,3.561,7.4,3.447.9-.035,1.8-.035,2.7,0,2.862.113,5.4-1.038,8.044-1.879,3.094-.984,5.649-2.927,8.549-4.233a4.906,4.906,0,0,1,3.332-.675l.659.694c-.34.948-.671,1.875-1.046,2.927.485.313.995.643,1.51.974Zm-55.5-25.042c1.236-.87,2.472-1.742,3.635-2.559.761,0,1.406,0,2.051.006.061,0,.123.09.233.178v1.089a3.472,3.472,0,0,1-2.923,1.191,1.982,1.982,0,0,0-1.764.448C1949.276,1875.416,1948.735,1875.256,1948.23,1874.872Zm55.192.483c-.643-.194-1.3-.393-1.957-.587-.53-.158-1.06-.311-1.936-.569l.759.835c-3.2,1.435-4.718,1.408-8.635.786-1.689-.268-3.322-.673-4.968-1.064a7.07,7.07,0,0,1-1.15-.524c-.186.129-.436.3-.817.571a25.59,25.59,0,0,1-4.779-2.356,7.117,7.117,0,0,0-3.922-1.112,6.462,6.462,0,0,1-2.266-.313l.919-.321-.233-.35c1.617,0,3.346-.356,4.822.1,1.418.44,2.915.086,4.157,1.134.065-.174.133-.35.2-.526-.53-.4-1.06-.794-2.043-1.527l2.806-.207-.061.25q4.283,1.483,8.555,2.964c-.162.278-.344.592-.608,1.05l1.048.235c.067-.33.112-.553.19-.927l1.887-.172c-.17-.293-.3-.506-.421-.72,2.235-.233,4.321.092,7.634,1.312a7.825,7.825,0,0,1,1.641,1.126C2003.926,1874.8,2003.707,1875.037,2003.422,1875.354Zm11.92,22.965h-.164v-.491h.164Zm7.1-17.686a26.505,26.505,0,0,1-3.371,9.411,55.942,55.942,0,0,1-6.543,10.052c-.8.927-1.445,2-2.26,3.142-.072-.26-.162-.577-.272-.968.735-1.5,1.65-3.379,2.566-5.256-.274-1.228,1.363-1.754,1.1-2.98,1.169-.448.712-1.826,1.509-2.6a7.128,7.128,0,0,0,1.252-2.636,26.621,26.621,0,0,0,.87-2.829c.334-1.33.782-2.663.98-3.991.3-2.01,1.5-3.676,1.813-5.645a13.851,13.851,0,0,1,.645-1.9c.522.524.972.788,1.128,1.171.34.841.467,1.769.8,2.612C2023.012,1879.106,2022.545,1879.827,2022.443,1880.633Zm10.878-118.318a3,3,0,0,1-1.105-2.73c2.245.833,2.245.833,2.427,2.143Zm.411-15.295.968,1.013c-.11.227-.16.5-.319.614-.479.354-1,.647-1.5.964-.24-.489-.471-.962-.872-1.779Zm.393,54.953v1.39l-1.064,1.128c3.219,1.723,3.379,4.638,2.785,7.516-.162.387-.321.771-.516,1.234-1.433-1-1.4-2.295-1.781-3.568-1.2-1.257-2.415-2.792-4.325-3.343-1.537-.444-3.037-.972-4.621-1.318-3.707-.813-7.4-.184-11.094-.391-1.122-.063-2.184,1.032-3.432.211a1.961,1.961,0,0,1,.194-.624c1.771-2.341,4.433-3.363,6.981-4.441.843-.358,1.99-.16,2.96-.551a15.847,15.847,0,0,1,1.885-.524l.9-1.468C2027.434,1797.136,2030.793,1799.449,2034.125,1801.973Zm-21.355,7c-1.535,1.324-2.8,2.415-4.061,3.5-.862-.714-.862-.714-1.058-1.684A11.632,11.632,0,0,1,2012.77,1808.973Zm15.207-57.612,1.406-1.713c.213.63.346,1.021.549,1.623C2029.768,1751.625,2029.15,1751.785,2027.977,1751.361Zm1.326-7.878.514.964c-1.083.751-1.074-.135-1.156-.872-.851.42-1.515.745-2.171,1.069-.362-.346-.772-.735-1.181-1.126.248-.248.477-.479.724-.725h1.42c.417-.378.821-.743,1.449-1.314.4.42.7.747,1.058,1.128Zm-3.627-4.814c.293-.082.393-.776.626-1.162.258-.428.569-.823,1.087-1.562.211.638.313.884.373,1.14a6.147,6.147,0,0,1,.082.69c.669.448,1.306.876,1.875,1.259.11,1.408-1.316,1.062-1.668,1.707-.886-.158-1.611-.526-2.02-.3-.624.338-1.085.587-1.813.061C2024.672,1739.86,2024.645,1738.956,2025.676,1738.669Zm-2.935-1.246c.119.776.223,1.447.362,2.366l-1,1-.452-.455c-.332.657-.651,1.294-.935,1.859-1.089-.217-1.568-1.175-2.022-1.959a9.78,9.78,0,0,1-.743-2.794,6.733,6.733,0,0,1,2.141,1.011c.281-.694.545-1.347.839-2.084Zm-4.84-.217.108.127-.067.07C2017.928,1737.335,2017.915,1737.273,2017.9,1737.206Zm-1.025-14.935c.352-.252.727-.516,1.019-.725-.354-.731-.675-1.4-1.125-2.323,1.469.073,2.747,1.181,3.948,0,.278,1.206.5,2.182.723,3.142-.5.3-.96.569-1.564.925v2.767c-.332.018-.491.029-.651.039-.471-.831-.941-1.662-1.6-2.816-.127.856-.194,1.306-.266,1.789h-1.226c-.246-1.247-.483-2.448-.833-4.233C2016.045,1721.511,2016.407,1721.841,2016.876,1722.271Zm.96,14.859c-.088.143-.2.057-.321-.043l.153-.156Zm-3.05-12.01c.381.389.776.8,1.175,1.2-.743,1.073-1.594,1.062-2.98-.113A1.467,1.467,0,0,1,2014.786,1725.12Zm.035,3a1.352,1.352,0,0,1,2.026.635,8.241,8.241,0,0,1-2.286,1.678,5.575,5.575,0,0,0-2.542,1.341l.878.294c.88.956-1.29,2.141.153,3.107-1.136.725-2.6-.381-3.659.688a1.694,1.694,0,0,1-.807-1.1c-.368-2.516-.029-2.937.379-3.4.344.195.657.37,1.079.606.241-.909.477-1.791.771-2.906C2012.029,1728.959,2013.531,1729.182,2014.821,1728.124Zm-6.472,7.737-.153-.156.225-.192C2008.437,1735.742,2008.394,1735.806,2008.349,1735.861Zm-4.957-8.412h-3.025l-.651-.649c.825-1.94,2.656-2.36,4.128-3.267l.895.849-1.856,1.32C2003.054,1726.3,2003.2,1726.8,2003.392,1727.449Zm.606-5.991,3.238-1.754c.352.293.886.735,1.375,1.144-.569.8-1.107,1.558-1.766,2.485C2005.928,1722.731,2005.037,1722.144,2004,1721.458Zm5.864-3.255,1.261,1.288c-.043.46-.08.837-.131,1.38a4.712,4.712,0,0,1-2.534-2.518Zm-5.367-9.311c1.4.194,2.2,1.32,3.248,2.307-.2.676-.422,1.4-.579,1.924.614.61,1.12,1.115,1.431,1.424v1.66h-1.82c-.055.682-.106,1.292-.156,1.883-.195.061-.381.186-.477.137-.95-.471-1.887-.972-2.8-1.449-.391-1.568.714-2.376,1.328-3.246.264-1.025-.483-1.394-.939-1.92v-1.959C2004.077,1709.313,2004.251,1709.139,2004.495,1708.893Zm-5.281-2.249,4.257-.61.837.737c-.123.258-.166.544-.325.649-.7.452-1.427.849-2.276,1.345l.663,2.225c-.3.313-.618.645-1.091,1.14-.027,1.058.225,2.446-1.071,3.252-.69-1.8-1.333-3.469-2.051-5.336l1.664-.242C1999.628,1708.787,1999.429,1707.761,1999.214,1706.644Zm-28.773-6.535h2.6c.679.481,1.156,1.05.46,2.088-.51-.381-1-.745-1.482-1.105l-2.354.716Zm-10.717-.929h1.93c-.461.514-.8.888-1.193,1.33.192.291.358.538.514.771l-.583,1.208h-1.334c-.493-.45-1-.909-1.386-1.259C1958.349,1700.553,1958.961,1699.941,1959.724,1699.179Zm-30.945,31c.26-.262.434-.436.643-.645.3.835.6,1.658.868,2.38l1.062.223-.862,2.008-1.711-.651Zm12.964,69.393,2.382-2.018a7.6,7.6,0,0,1-1.535-.43,8.343,8.343,0,0,1-1.208-.911,6.32,6.32,0,0,1,2.411-3.508c.921-.864,2.315-1.447,2.812-2.485.659-1.374,2.262-1.447,2.728-2.63,3.009-.964,5.991-.676,8.94-.625a42.5,42.5,0,0,1,4.7.561l1.14-.843-.913-1.859c-.356-.182-.757-.405-1.169-.6a9.134,9.134,0,0,0-4.4-1.249,10.343,10.343,0,0,1-1.76-.442,5.108,5.108,0,0,0-1.711,0c-3.482.708-7.151.387-10.479,1.922-1.979-.083-3.711,1.2-5.717,1.032-.243-.021-.518.3-.774.463l-1.985-.643c-.147-.51-.313-1.083-.563-1.948.745-1.8,1.609-3.887,2.493-6.024l-.989-.35a1.355,1.355,0,0,1,.139-.336,24.218,24.218,0,0,1,1.74-2.219,26.1,26.1,0,0,1,11.219-6.66,40.436,40.436,0,0,1,6.253-1.521c2.481-.36,4.951-.706,7.44-1,2.069-.246,4.2-.006,6.163-.483,2.34-.567,4.63-.172,6.818-.432.483-.248.888-.458,1.3-.671a3.565,3.565,0,0,0-2.554-.77c-.749-1.013-2.016-.057-2.872-.776-.751-.633-1.8.1-2.708-.625-.632-.507-1.791.045-2.763-.364a10.753,10.753,0,0,0-2.859-.211c-1-.106-1.986-.376-2.989-.46-.974-.082-1.961-.018-2.941-.018-.98-.677-2.411-.946-2.395-2.509a7.581,7.581,0,0,1,3.7-2.88c1.326-.559,2.642-1.1,4.024-1.554,2.067-.675,4.231-.73,6.292-1.357a1.658,1.658,0,0,0,1.289-1.279l-6.926-3.168v-1.267c.6-.192,1.527-.745,1.772-.526,1.042.927,1.644-.686,2.671-.256a5.484,5.484,0,0,0,2.712.6c3.377-.346,6.7.821,10.093.455,1.6.665,3.363.162,4.931.559,2.888.731,5.77.188,8.639.438,1.073.094,1.928-.528,2.921-.675a4.908,4.908,0,0,0,1.124-.567c-2.329-1.963-4.924-2.781-6.5-5.142.383-.454.831-.989,1.136-1.353l4.705-1.33c-1.252-.733-2.573-1.5-3.926-2.3.284-1.042.923-1.807.448-2.829-.9-1.947-2.921-2.771-4.7-1.251a15.326,15.326,0,0,1-3.883,2.663c-1.834-.235-2.626-1.877-3.416-3.191a9.674,9.674,0,0,0-3.492-3.25c-.567.624-1.05,1.156-1.455,1.6-1.349-.184-2.5.256-3.592-.645-1.248,1.42-2.986,1.011-4.785,1.089v1.973c-1.249-.864-2.469-.346-3.715-.569l-.622.995a12.612,12.612,0,0,1-5.125-.839c-1.265-.409-2.274.3-3.31.684a32.093,32.093,0,0,0-4.706,2.243,2.383,2.383,0,0,1-3.074-.213,7.263,7.263,0,0,1,2.951-3.547c-.115-.5-.217-.939-.385-1.662l1.584-1.586c-.761-.371-1.336-.645-1.908-.929-.616-.307-1.23-.624-1.823-.927v1.353l-1.42.084-1.987-2.014c.151-.3.354-.71.561-1.128-1.06-.833-1.189.477-1.963.547-.137-.231-.518-.6-.557-.993a5.209,5.209,0,0,0-1.478-3.568c1.085-.817,1.543.239,2.338.854-.18-1.134-.346-2.166-.491-3.087l.852-1.052c.735.378,1.341.694,1.854.958.823-.487,1.654-.978,2.692-1.594v1.959c2.331.747,3.584,2.7,5.381,4.3.061-.872.116-1.635.184-2.573h5.268c.01-.106.021-.215.029-.323-1.073-.272-2.145-.544-3.291-.837-.065-.16-.18-.438-.309-.753h-2.88a7.246,7.246,0,0,1-1.249-5.023,5.546,5.546,0,0,1,1.478.465c1.214.819,2.368,1.727,3.707,2.72v-1.871c-.424-.313-.952-.7-1.687-1.242l2.55-1.881h2.133a10.437,10.437,0,0,0,9.037,2.819l1.435-.737q-.378-.59-.735-1.148h-2.683a2.75,2.75,0,0,0-1.193-2.333l-2.759-.782c-1.144-1.238-2.853-2.276-2.538-4.5.368-.544,1.046-.862,1.021-1.779-.018-.641.6-1.116,1.713-.8,1.206.962,2.712,2.094,4.828,1.8.729-.313.936-1.5,2.264-1.441.839.579,1.852,1.279,2.841,1.961.592-.213,1.16-.419,1.674-.608a19.416,19.416,0,0,0,2.389,2.335,13.315,13.315,0,0,0,2.6,1.122c.368-.172.712-.333,1.163-.542V1705.2l-.876-.452c-1.175.127-2.167.233-3.154.338-.258-.3-.467-.555-.671-.8,1.453-1.095,2.89-2.335,5.08-2.7l3.981,2.006c.182.645.346,1.226.559,1.983l-.954,2.593c.262.225.51.436.78.667.528-.311,1.107-.653,1.822-1.077-.2-1-.4-1.969-.639-3.121l1.826-.2a3.585,3.585,0,0,0,.622-2.98c.667-.706,1.224-1.3,1.734-1.84,1.2-.311,1.607.637,2.229,1.216-.463.463-.925.925-1.4,1.406v1.834c.727-.231,1.349-.43,2.139-.68.3.725.581,1.4.876,2.11-.413.475-.772.884-1.212,1.392.4.546.8,1.091,1.384,1.877l-2.579.211-2.194,1.547c.671.659,1.071,1.488,2.264,1.308.389-.473.849-1.034,1.2-1.464,1.769.158,1.769.162,2.01,1.766-.88.807-1.805,1.654-2.921,2.677v.655c.811.954,2.513,1,3.007,2.661h-2.753c-.254.309-.458.561-.747.915v3.878c-.473.309-.982.641-1.494.972l1.756,1.7h2.47c.72-.827,1.47-1.687,2.5-2.865.074,1.239.123,2.086.176,2.956q-1.538,1.526-3.058,3.031c.3.3.473.471.645.645,1.162.2,1.322-1.488,2.663-1.353.243.4.544.882.845,1.371l.3-.217v2.133c.2.012.336.063.43.021,1.59-.708,2.516-2.2,3.8-3.254h2.18c-.266,1.435-.524,2.82-.807,4.343.422.714.958,1.625,1.482,2.515l-1.83,1.345c.237.333.329.577.505.694a29.528,29.528,0,0,1,2.694,1.764c1.695,1.437,2.564,3.414,3.545,5.383,1.42,2.845,2.755,5.735,4.231,8.553a8.367,8.367,0,0,0,1.187,1.42h1.736a30.987,30.987,0,0,1,2.894,3.9,20.732,20.732,0,0,1,1.971,4.323,37.152,37.152,0,0,1,.679,4.658c-.526.457-.956.827-1.484,1.283-2.495.489-4.8-.931-7.292-1.4-.364.416.137.6.293.675a52.521,52.521,0,0,1,6.048,3.735,6.831,6.831,0,0,1,2.747,3.219c.737,2.07,1.511,4.12,2.067,6.271.645,2.495.176,4.957.454,7.35a11.914,11.914,0,0,1-4.531,2.845c-3.389,1.506-6.977,2.456-10.338,4.073a21.349,21.349,0,0,0-6.228,3.9,10.705,10.705,0,0,0-2.5,5.35,31.31,31.31,0,0,0-.416,8.877,37.168,37.168,0,0,0,1.115,7.12,74.88,74.88,0,0,0,4.261,11.73c.821,1.922,2.008,3.69,3.209,5.85.54-2.426-.311-4.288-.927-6.026a50.568,50.568,0,0,0-2.632-6.269,24.42,24.42,0,0,1-2.18-6.461c-.421-2.147-1.079-4.245-.933-6.47a6.245,6.245,0,0,1,.213-.872c1.668,1.5,3.62,1.322,5.479,1.148a14.693,14.693,0,0,0,4.573-1.384h-1.869c.557-1.951,2.673-1.68,3.58-2.962a10.356,10.356,0,0,1,3.479.4,2.758,2.758,0,0,0,2.9-.54,1.555,1.555,0,0,1,1.232,1.977l-2.872.166c-.227.864-.457,1.744-.667,2.552,1.425.657,2.653,1.242,3.895,1.793,1.175.52,2.364,1,3.543,1.5a2.9,2.9,0,0,1-1.6,1.824l-1.22-.491c.072.328.057.5.125.544.583.362,1.2.665,1.768,1.054a16.661,16.661,0,0,1,1.4,1.261,13.218,13.218,0,0,1-6.828-.565c-1.785-.622-3.543-1.324-5.346-1.887-1.322-.411-2.7-.651-4.005-.958l-1.8,2.012c1.658-.045,2.89.874,4.085,2.051a14.288,14.288,0,0,0,3.393,2.427,32.475,32.475,0,0,0,6.194,2.8c.446.125.937.1,1.382.223a7.072,7.072,0,0,1,1.132.565l2.5-1.783c-.352-1.087-.674-2.077-1.023-3.158l.923-.08a15.643,15.643,0,0,1,5.135,6.085,26.968,26.968,0,0,1,2.208,6.451c.27,1.5.747,2.992.9,4.513a25.839,25.839,0,0,1,.012,4.656,20.831,20.831,0,0,1-3.527,10.547c-.667.948-1.179,1.988-1.82,2.949a14.842,14.842,0,0,1-5.256,4.548h-3.056c-2.568-1.226-2.982-3.684-3.885-5.668-1.066-2.349-2.81-4.079-4.272-6.263a2.334,2.334,0,0,0,.023,2.167,1.938,1.938,0,0,1,.225.882c.074,1.985-.254,4,.5,5.929-.358,3.15.542,6.232.485,9.364a8.725,8.725,0,0,1-.432,3.5c-.416.966.219,2.157-.487,3.246-.336.518-.058,1.435-.058,2.01l-1.727,3.913c-.246-1.625-.569-2.734-.8-3.9a67.047,67.047,0,0,0-1.832-8.789,9.626,9.626,0,0,0-2.722-4.357h-1.58c-.18.328-.458.835-.737,1.345l-.5-.268c.223,2.182.446,4.362.69,6.732a20.813,20.813,0,0,0-6.181-1.965c-.937-.164-1.844-1.068-2.845-.164-2.767.2-5.547.541-8.22-.567-.211-.086-.36-.317-.541-.483.317-.315.606-.606.911-.911-.045-.1-.069-.291-.151-.319a6.47,6.47,0,0,0-2.487-.534c-2.8.129-5.555-.8-8.379-.467-1.484.176-2.968.393-4.458.475-1.466.082-3.042-.311-4.386.1-1.767.538-3.484.291-5.217.4a7.038,7.038,0,0,1-3.283-1.2c-.039-.833,1.437-1.865-.485-2.675a15.11,15.11,0,0,0-6.834.917,21.3,21.3,0,0,0-6.318,3.672c-1.969,1.484-2.808,3.852-4.018,6.079.233.823-.465,1.947.467,2.816l-.825.825c-1.05-1.383-2.083-2.749-3.068-4.048,0-.807.024-1.451,0-2.092-.149-3.318,1.29-6.126,2.882-8.864,1.836-3.156,4.56-5.553,7.108-8.091.538-.534,1.588-.88,1.7-1.449.2-1.025,1.525-.424,1.513-1.306-.014-1.11,1.177-.813,1.588-1.509a24.467,24.467,0,0,1,2.213-2.769,28.139,28.139,0,0,0,2.319-2.706c.966-1.533,2.507-2.7,3.545-4.2a43.151,43.151,0,0,1,5.583-6.509,13.538,13.538,0,0,1,3.725-2.169l.2.405c-3.557,2.917-6.01,8.158-4.417,13.424,1.809,2.583,4.566,3.228,7.432,3.832,2.227.469,4.55.325,6.695,1,1.412.444,2.935.667,4.2,1.74a21.406,21.406,0,0,0,4.007,2.137l1.586-1.938a4.37,4.37,0,0,1,2.526.407,8.687,8.687,0,0,0,2.469.536c.831.164,1.668.309,2.493.5.594.135,1.165.391,1.762.467.643.084,1.312-.037,1.959.029,2.108.213,3.913-.7,5.79-1.425a9.756,9.756,0,0,0,5.164-4.906c.6-1.15,1.5-2.282.735-4.006l-.413-.414c-.467.921-.936,1.848-1.466,2.892-2.108-.082-4.358.416-6.181-1.206-.215-1.779,1.8-2.806,1.339-4.879-1.1,2.595-3.346,3.322-5.463,3.981a7.042,7.042,0,0,1-5.262-.651c-1.421-.714-2.851-1.41-4.47-2.206l-1.279,1.142c-.919-.18-1.981-.407-3.05-.6a25.445,25.445,0,0,1-3.265-.371,4.33,4.33,0,0,0-3.944.348c-.213.162-.638.006-.929.106-3.537,1.216-3.535,1.222-6.1-1.369.262-1.046-.014-2.121.317-3.271a5.757,5.757,0,0,1,3.68-4c2.071-.772,3.977-1.854,5.958-2.782a2.6,2.6,0,0,1,2.812.035c.636.4,1.353.676,2.239,1.109.129-.333.282-.73.434-1.127.1.092.194.186.292.28,0-1.226.072-2.458-.016-3.678-.178-2.479.843-4.765,1.052-7.176.88-.9.235-1.983.457-2.9-1.126-1.126-2.133-.77-3.336-.293a13.768,13.768,0,0,1-3.5.381l-.6-.729c.295-.571.606-1.177.979-1.9v-2.112c-.491-.209-.979-.416-1.484-.628-.608.7-1.136,1.314-1.871,2.163a4.662,4.662,0,0,1-1.279,3.5,14.7,14.7,0,0,0-1.672,3.306c.33.661.7,1.406,1.191,2.394l3.164,1.318v1.484a21.545,21.545,0,0,1-2.44,1.916,6.085,6.085,0,0,1-2.915,1.158c-1.948-.08-3.764.625-5.582.606-1.332.9-2.947,1.2-3.993,2.413-.817-.094-1.064.659-1.513,1.07-1.023.935-1.957,1.973-2.964,2.929-2.7,2.558-5.3,5.227-8.148,7.6a76.493,76.493,0,0,1-8.5,6.66c-3.719,2.295-3.719,2.407-7.939,2.3v-3.361a21.531,21.531,0,0,0-1.656-2.278c-.53-.553-1.293-.882-1.842-1.422-.725-.71-1.343-1.531-2.028-2.331a3.937,3.937,0,0,0-1.471-4.044,9.279,9.279,0,0,0-2.432-1.212,23.689,23.689,0,0,1-4.951-2.268,4.384,4.384,0,0,0-.892-.211,12.777,12.777,0,0,1-5.367-4.108,3.616,3.616,0,0,1-.055-.467c0-3.516,0-3.516,2.54-6.06q4.51-4.51,9.012-9.026a11.522,11.522,0,0,0,.874-1.148c-2.342-.4-2.342-.4-8.742,3.631-.88-.925.022-1.81.409-2.266,1.695-1.989,2.9-4.374,4.953-6.083a9.943,9.943,0,0,1,3.563-2.082c2-.594,3.078-.368,4.368,1.177a3.472,3.472,0,0,0,1.815,1.408c2.2-.819,4.4-1.637,6.6-2.46.479.211.964.422,1.545.676-.131.166-.219.391-.375.458-2,.87-3.562,2.407-5.416,3.5a2.554,2.554,0,0,0-.958,1.252c.366-.146.737-.278,1.095-.436a14.074,14.074,0,0,1,6.488-1.527c1.959.1,3.926-.16,5.772.9.77.442,1.912-.2,2.691.594,1.3-.3,2.468.43,3.721.479a36.057,36.057,0,0,0,3.676-.01c.675-.043,1.328-.375,2.008-.45a17.07,17.07,0,0,1,2.055-.018l1.856-1.105c-.182-.7.387-1.545-.755-2.2l-2.147-.446a2.259,2.259,0,0,1-.843.295,83.671,83.671,0,0,1-9.311-.053c-3.033-.311-5.929-1.331-7.4-4.446a4.376,4.376,0,0,1-.2-1.138c1.674-.749,3.25.178,5.158.289L1950.2,1803c.587-.78,1.14-1.073,1.957-.7,2.515,1.134,5.3,1.334,7.894,2.249a8.463,8.463,0,0,0,3.168.043,5.947,5.947,0,0,1,4.2,1.711c.379.312.641.833,1.058,1.005.78.317,1.406,1.175,2.54.452.651-.417,1.707-.2,2.133-.235l7.446,3.522v-5.162c1.707-.669,3.324-1.3,5.258-2.057-1.951-.358-3.815-.078-5.17-1.429l.686-.686c2.9-.317,5.892.514,9.065-.948a24.528,24.528,0,0,0-5.778-2.743c-.182-.2-.569-.62-.954-1.036a7.925,7.925,0,0,1,2.921-3.213,3.714,3.714,0,0,0,1.252-1.564,5.293,5.293,0,0,0,.217-1.644,10.536,10.536,0,0,0-6.052-2.137,52.932,52.932,0,0,0-6.372.021,7.876,7.876,0,0,0-4.753,1.574v1.646a21.021,21.021,0,0,0,1.856,1.633,10.82,10.82,0,0,1,3.707,3.928,6.777,6.777,0,0,1,.295,1.68c-1.122-.5-1.961-.851-2.773-1.252a13.908,13.908,0,0,0-5.059-1.412,7.826,7.826,0,0,1-2.291-.36,3.732,3.732,0,0,0-3.258.223,2.43,2.43,0,0,1-1.158.147,9.241,9.241,0,0,0-3.252.438c-.976.391-2.11.035-3.242.454a13.629,13.629,0,0,1-3.936.485,19.5,19.5,0,0,0-7.687,2.229,38.346,38.346,0,0,1-8.263,3.126,24.258,24.258,0,0,1-6.085.108,3.148,3.148,0,0,1-1.529-.819A38.762,38.762,0,0,0,1941.744,1799.574Zm5.625-69.567c.217-.514.381-.9.552-1.3.927-.6,1.535.334,2.319.514-.422.473-.829.929-1.3,1.457C1948.367,1730.433,1947.884,1730.226,1947.368,1730.007Zm66.339,117.771v-.491h.164v.491Zm-94.412-87.558c.252-.133.383-.262.518-.264,1.815-.014,1.815-.01,3.49,1.193v2.114c-.276.06-.5.106-.89.188-.057.581-.123,1.248-.2,2.086-1.39-.69-2.593-1.29-3.8-1.889v-1.042c.927,0,.964-.939,1.392-1.392ZM1937.689,1810v-.491h.162V1810Zm18.5-9.607c.295-.28.524-.5.8-.759.475.215.95.428,1.341.606l1.318,1.887A4.429,4.429,0,0,1,1956.19,1800.391Zm2.262,2.737v.491h-.164v-.491Zm1.431-3.471c.248-.158.827-.526,1.428-.911a4.376,4.376,0,0,1,3.189.792l-.058.46c-1.666.182-1.666.182-2.708-.332l-.735,1.107Zm11.476,2.876c1.318.944,2.274,2.014,3.768,2.141.6,1.06-.416,1.615-.628,2.919C1973.086,1805.861,1971.319,1805.012,1971.358,1802.531Zm-40.863,3.05v.491h-.164v-.491Zm-5.068-72.62h.164v.491h-.164Zm1.2,71.82a42.172,42.172,0,0,1,4,2.02c.072.037.025.3.041.618-1.818.458-3.359-.19-4.884-.636a8.171,8.171,0,0,1-2.047-1.355A2.184,2.184,0,0,1,1926.625,1804.781Zm-2.88-68.975-.719.147c-.178.487-.366,1-.771,2.1-.594-1.891-.89-3.287-2.292-4.143-.053.8-.1,1.562-.174,2.589a3.987,3.987,0,0,1-1.162-.655,14.735,14.735,0,0,1-.733-1.4c-.24-.368-.606-.954-.9-.941-.995.039-1.381-.71-2.016-1.257l.585-.639,1.443.457c.391-.577.729-1.073,1.208-1.781l3.521,3.6c.477-.149,1.124-.35,2.008-.624Zm-1.682-18.558c.428.426.771.771,1.158,1.158-.207.424-.424.864-.641,1.308h-1.173c-.43-.792-.79-1.455-1.269-2.333Zm-15.985,13.011,1.566-.4c-.352-1.672-1.187-3.453.428-4.943l2.839-1.193c.106-.649.18-1.1.264-1.615.317.088.6.082.739.217,1.113,1.078,2.2,2.182,3.3,3.277a10.757,10.757,0,0,0,1.539-1.578c.647-.99,1.779-.882,2.655-1.324.651-.328,1.167.241,1.449.868-.174,1.083-1.034,1.044-1.844,1.138a5.131,5.131,0,0,1-1.5,3.052c-.823.841-1.49,1.834-2.384,2.958-.1-.641-.162-1.071-.215-1.425l-.5.671h-2.332c.69-1,.371-2.092.422-3.037-1.081-1.94-2.237.152-3.422-.07l2.339,1.742c-1.261.635-2.243,1.128-3.353,1.685.446.323.886.638,1.67,1.2l2.166-.413,1.776,2.919.778-1.22c1.316,1.412.958,2.941.987,4.392-1.232.141-1.232.141-2.655-.9a9.705,9.705,0,0,1-1.238.833,7.168,7.168,0,0,1-1.328.354c-.692-1.7,1.711-2.847.591-4.464-.811.2-1.629.4-2.307.561-1.32-.78-.477-2.937-2.861-2.7Zm.381,1.249c.231.8.44,1.521.677,2.342h-1.175c-.426.735-.608,1.449-1.568,1.678-.487.116-.8.962-1.189,1.478l-.567-.256c.135-.807.272-1.615.44-2.6-.074-.125-.262-.45-.587-1.007C1904.1,1733.057,1904.815,1731.282,1906.458,1731.508Zm-.977,18.627v.491h-.164v-.491Zm-1.547-.61a3.184,3.184,0,0,0,2.315,2.3c-.2.651-.4,1.292-.639,2.086.211-.037.365-.055.512-.088.53-.119,1.058-.241,1.875-.43l1.013-1.216h-1.23l-1.2-2c.763-1.263,1.028-2.824,2.714-3.6.151.364.28.68.469,1.134,1.152-.207,2.366-.268,2.849-1.891h-2.74c-.266-.311-.477-.559-.68-.794.948-1.115,1.928-2.272,3.033-3.573l-1.68-.264c.479-1.04.479-1.04,1.785-1.781.839.195,1.588.369,2.264.524.45-.43.8-.761,1.115-1.06h.97l.9,1.529,1.74-1.725a3.7,3.7,0,0,1,1.542,2.378c.213.8.246.794,1.189,1.281l-1.688,1.688v1.2l-.045-.043-.4.342.156.154.291-.34v.039l2.317-1.015c.121.121.295.295.309.311-.454.456-.927.929-1.119,1.121v4.456a13.252,13.252,0,0,1-4.306,3.49c-.1-.633-.172-1.085-.282-1.785-.618.774-1.5,1.111-1.3,2.386.43.43.986.989,1.656,1.658-.612.647-1.144,1.208-1.83,1.93.446.284.86.544,1.423.9-.7.745-1.234,1.32-1.844,1.971.1.6.219,1.263.352,2.041-.08.086-.3.323-.622.665l-1.4-.995c-.276.426-.61.936-1.1,1.695a3.259,3.259,0,0,0,1.947,1.4c-.217.477-.43.942-.647,1.415.209.133.332.276.467.286a11.536,11.536,0,0,1,3.013.411c.933.323,2.126-.11,3.33-.223-.043-.057.147.141.121.176-1.249,1.666-1.646,3.743-2.661,5.522a4.728,4.728,0,0,1-1.932,2.039c-.442-1.2-.88-2.376-1.294-3.492h-1.742c-.457-.641-.927-1.306-1.541-2.168-.1.714-.168,1.167-.289,2.022-.284-.573-.422-.85-.559-1.128l-.24.154v-1.981a1.7,1.7,0,0,0-1.768-.854,8.316,8.316,0,0,1-1.615-.264c-.534.688-1.2,1.535-1.8,2.311-1.678-.383-.843-2.376-2.112-2.64v-1.92l1.509,1.324c.465-1.1.86-2.032,1.267-2.992-.864-.238-1.8-.5-2.9-.8.841-1.431,1.633-2.773,2.433-4.132-.18-.182-.411-.414-.643-.645-.874,1.991-2.857,2.712-4.456,3.891l-.751-.776c.094-1.007,1.212-1.729,1.073-2.923-.022-.195.71-.5,1.116-.712s.831-.366,1.41-.616c-.188-1.3-.364-2.507-.506-3.467l-2.677-1.435A7.755,7.755,0,0,1,1903.934,1749.525Zm-10.029-18.844,1.848.375c.053-.559.092-.944.131-1.349l3.115-1.422c.184.518.35.982.575,1.611l-.428.733,1.76,1.766c-.383.461-.727.874-1.111,1.339-.027.471-.055,1.021-.1,1.76l-1.815.567v-2.276c-.426-.426-.6-.6-.856-.858l-.751,1.017h-1.67q-.593-.6-1.2-1.214C1893.4,1731.954,1893.134,1731.092,1893.905,1730.681Zm.561,8.987,2.174,1.056c.487-.694,1.255-.338,2.153-.379.217.594.45,1.23.735,2.012.385-.18.778-.366,1.2-.565.874.178,1.06.817,1,1.593-.676.514-1.341,1.023-1.8,1.371.17.792.3,1.388.444,2.069l-1.852,1.854,1.836,1.191-1.728,3.2c-1.891.088-.788-2.264-1.553-2.36-2.121.207-3.584.352-5.045.5l-.19-.411c.4-.229.806-.457,1.109-.628v-2.829l2.063.454c.692-.73,1.334-1.406,2.249-2.372-1.038.106-1.813.43-2.192.17a1.4,1.4,0,0,0-1.928.041c-.223-.389-.477-.829-.737-1.283C1892.821,1742.719,1894.54,1741.7,1894.466,1739.668Zm-4.04-4.01c.208-.872.487-2.037.768-3.211.966.02,1.132.98,1.742,1.271-.2,1.015-.661,1.922-.454,2.638a6.123,6.123,0,0,1,.376,2.45l-2.812-.6c-.219-.577-.458-1.208-.749-1.973Zm-2.037,2.03,2,2.438c-.36.358-.755.755-1.261,1.259-.809-.6-2.292-.487-2.156-1.844Zm2.3,18.539-.913,1.261H1888.1c-.045-.34-.1-.708-.162-1.189-.36-.481-1.523-.35-1.394-1.74C1888.225,1754.486,1889.255,1755.587,1890.69,1756.228Zm-2.976,41.535c1,1,1.975.26,3.1-.176.062.493.106.862.166,1.351l-3.244,1.6q-.829-.553-1.707-1.134C1885.931,1798.211,1887.237,1798.405,1887.714,1797.763Zm-2.014-51.553h.164v.491h-.164Zm-2.843-4.446c.737,1.318-.414,1.764-.987,2.479l-.745-.723C1881.027,1742.278,1882.337,1742.462,1882.857,1741.764Zm-10.77,63.271,3.49,2.03,2.745-1.163c1.146,1.772-1.263,2.08-1.109,3.346l.95,1v1a1.9,1.9,0,0,1-.419.213,14.513,14.513,0,0,0-2.583.251c-1.685.633-1.948,2.047-2.352,3.427a5.6,5.6,0,0,0-.022,1.5l-.708.647c-.074-.063-.24-.133-.262-.235-.687-3-.457-6.044-.516-9.079A4.8,4.8,0,0,1,1872.087,1805.035Zm-1.263,16.18c.289-.563.5-.968.7-1.363l1.9,1.109a15.218,15.218,0,0,0-.653,5.209,4.614,4.614,0,0,0,.489,2.012c.583,1.1.532,1.13.293,2.886-.157.01-.405.09-.465.019a8.6,8.6,0,0,1-2.231-4.675C1870.712,1824.626,1870.824,1822.821,1870.824,1821.214Zm-3.651-14.33c.426.317.991.518,1.113.872a4.649,4.649,0,0,1,.487,2.667,14.218,14.218,0,0,0-.448,3.074C1866.89,1811.938,1866.608,1810.243,1867.173,1806.885Zm3.369,29.649c-.368.471-.717.958-1.142,1.527-1.336-.657-1.613-2.026-1.975-3.207a74.879,74.879,0,0,1-2.114-8.467c-.428-2.327-.458-4.765-1.349-7.012-.029-.07,0-.162,0-.243-.162-1.973-.393-3.946-.473-5.923-.082-2.039-.014-4.083-.019-6.126a3.791,3.791,0,0,1,1.345-2.624c.053.6.063,1.034.133,1.461.338,2.151.592,4.323.86,6.472a25.31,25.31,0,0,1,.616,5.174,4.823,4.823,0,0,0,.481,2.982,7.458,7.458,0,0,1,.528,2.73c.274,1.49.89,2.915,1.175,4.4a15.853,15.853,0,0,0,2.219,5.213A2.967,2.967,0,0,1,1870.542,1836.534Zm7.657.114a12.778,12.778,0,0,1-1.971,7.24,13.241,13.241,0,0,0-.723,1.422h-1.031a7.732,7.732,0,0,1-2.673-5.741c1.74-.589,2.5-2.085,3.285-3.622a18.026,18.026,0,0,1,1.621-2.315h1.823A28.7,28.7,0,0,0,1878.2,1836.648Zm.675-6.463a2.863,2.863,0,0,1-.681-.589,8.334,8.334,0,0,1-.939-5.4c1.033-2.3,2.053-4.575,3.144-7.012l1.732.677a7.934,7.934,0,0,1-.139.829c-.139.481-.3.956-.477,1.5l1.574.184c0,1.343-.391,2.876.106,4.026.516,1.189-.033,2.526.972,3.422-.844.737-1.234.037-1.461-.35-.569-.974-.989-2.036-1.666-3.488v-3.218c-.352.731-.485,1.009-.872,1.812a7.71,7.71,0,0,1-1.521,5.055l.571,2.339Zm1.951,19.536c-.3-.354-.663-.786-1.13-1.334-.119-1.23-.231-2.646.919-3.778-.08-1.109.749-2.037.547-3.218a19.207,19.207,0,0,1-.037-3.187c.4-.391.806-.788,1.359-1.33.348.808.667,1.555.931,2.174-.628,1.74-.051,3.692-1.67,5.522,2.469-.681,2.882-2.957,4.632-3.751a20.3,20.3,0,0,1-.475,4.31,34.534,34.534,0,0,1-2.286,4.593Zm-13.433,55.794h-.491v-.164h.491Zm98.579,142.3h-.491v-.164h.491Zm18.146-45.953v1.447c-1.726-3.441-3.262-6.349-4.646-9.327-.825-1.774-1.41-3.66-2.092-5.5a1.977,1.977,0,0,1-.123-.682,74.461,74.461,0,0,1,.086-7.827c.1-.952.35-1.965.42-3.148.532-.207,1.091-.424,1.586-.614,1.355,1.4,1.719,3.078,2.288,4.638.393,1.068.377,2.294.817,3.336.471,1.111-.3,2.424.677,3.4.041.041,0,.157.006.239.162,2.38.3,4.763.5,7.141.1,1.163.378,2.311.46,3.473C1984.181,1999.567,1984.118,2000.713,1984.118,2001.857Z" transform="translate(0 0)"/>
  </g>
</svg>
