<svg id="Grupo_7586" data-name="Grupo 7586" xmlns="http://www.w3.org/2000/svg" width="133.542" height="172.967" viewBox="0 0 133.542 172.967">
  <path id="Trazado_16512" data-name="Trazado 16512" d="M6469.716,847.466c-3.511,1.125-16.5,5.869-10.09,10.683,1.106.832,3.821.675,5.2.613a56.869,56.869,0,0,0,22.527-5.863,6.388,6.388,0,0,0,2.435-1.682,5.49,5.49,0,0,0,.728-4.145c-.208-1.455-.783-3.051-2.132-3.635a4.869,4.869,0,0,0-2.564-.149C6480.039,844.049,6469.716,847.466,6469.716,847.466Z" transform="translate(-6457.874 -687.322)" fill="#cd7618"/>
  <path id="Trazado_16513" data-name="Trazado 16513" d="M6473.469,836.177a28.99,28.99,0,0,1,.046,9.871c-.692,3.235-2.689,4.935-5.6,6.508-.716.386-6.354,2.738-5.439,5.17,1.448,3.868,13.557.151,17.722-3.107a15.921,15.921,0,0,0,2.605-2.423c1.214-2.069.552-4.882-.073-7.2a12.9,12.9,0,0,1,.973-9.174Z" transform="translate(-6454.181 -693.365)" fill="#dab398"/>
  <path id="Trazado_16514" data-name="Trazado 16514" d="M6498.536,883.574c15.729.816,32.808-19.765,34.259-42.509s-9.444-44.617-25.205-44.63c-20.111-.016-32.379,19.692-33.832,42.436S6479.8,882.6,6498.536,883.574ZM6483.7,839.241c1.265-19.788,13.026-37.309,25.606-36.761s21.212,18.957,19.949,38.745-15,37.629-27.582,37.081S6482.433,859.03,6483.7,839.241Z" transform="translate(-6444.991 -725.675)" fill="#1d555f"/>
  <path id="Trazado_16515" data-name="Trazado 16515" d="M6497.09,871.439c12.679.552,26.427-15.922,27.6-34.242s-7.625-35.4-20.3-35.951-24.438,15.629-25.606,33.95S6484.414,870.885,6497.09,871.439Zm-14.772-35.1c1.017-15.938,12.641-32.469,22.774-32.028s17.759,17.073,16.742,33.011-12.373,32.236-22.505,31.8S6481.3,852.282,6482.318,836.341Z" transform="translate(-6440.833 -721.74)" fill="#e2e3e4"/>
  <path id="Trazado_16516" data-name="Trazado 16516" d="M6478.206,850.1a18.9,18.9,0,0,0-7.51,5.046c-1.178,1.3-2.111,3.493-.775,4.629a3.424,3.424,0,0,0,1.445.613,28.976,28.976,0,0,0,28.672-9.786c1.547-1.924,2.885-4.2,2.843-6.671a1.443,1.443,0,0,0-.213-.854,1.481,1.481,0,0,0-.759-.461c-4.19-1.4-8.673.792-12.416,3.138S6478.206,850.1,6478.206,850.1Z" transform="translate(-6448.53 -688.155)" fill="#f68c1e"/>
  <path id="Trazado_16517" data-name="Trazado 16517" d="M6512.874,798.039a1.731,1.731,0,0,0-.622-1.789,4.575,4.575,0,0,0-1.81-.5c-8.788-1.2-17.684.808-26.6,1.536a6.786,6.786,0,0,0-3.055.735,2.622,2.622,0,0,0-1.026,2.239c-.631,8.259-3.954,27.6-4.585,35.858-.159,2.075-3.739,1.911-3.739,1.911.248-8.486-.9-24.589-.192-38.43.068-1.318-.8-5.139.688-6.009a10.745,10.745,0,0,1,3.312-1.029c11.188-2.144,23.039-2.183,34.706-2.2,1.814,0,3.869.06,5.069.945a3.272,3.272,0,0,1,1.162,2.517c.408,3.473.427,11.5.837,14.972.252,2.142-.275,4.993-3.53,5.382a2.164,2.164,0,0,1-1.362-2.022Z" transform="translate(-6447.096 -730.663)" fill="#48484a"/>
  <path id="Trazado_16518" data-name="Trazado 16518" d="M6517.171,785.873a17.789,17.789,0,0,1,7-2.434,3.65,3.65,0,0,1,2.536.361c2.006,1.374.608,5.341,2.781,6.429a2.434,2.434,0,0,0,3.024-1.159,4.8,4.8,0,0,0,.227-3.482c-.294-1.154-.8-2.248-1.076-3.408-.216-.91-.38-1.986-1.2-2.435a2.67,2.67,0,0,0-.873-.249,25.979,25.979,0,0,0-10.414.451,5.56,5.56,0,0,0-3.367,1.884c-.75,1.081-.506,2.9.739,3.324Z" transform="translate(-6410.698 -739.839)" fill="#4e4f51"/>
  <path id="Trazado_16519" data-name="Trazado 16519" d="M6512.514,807.267l17.4-24.037,19.168,2.8-4.792,52.963-38.7,11.661-20.565-5.5,1.086-25.117Z" transform="translate(-6435.607 -736.507)" fill="#7a7c7f"/>
  <path id="Trazado_16520" data-name="Trazado 16520" d="M6521.366,780.977c-3.23,2.479-5.348,6.244-8.58,8.725a19.413,19.413,0,0,1-3.811,2.479c-2.922,1.3-3.085.042-6.262.277-6.943.512-15.458,2.8-24.521,4.4a20.287,20.287,0,0,0-9.056,6.833c-.924,1.227-1.83,4.793-1.53,4.8,1.029.015,2.344-4.543,2.629-4.185.2.251-1.63,4.867-.8,5.481,2.856,2.122,2.478,1.584,2.923,1.551,1.131-.087,3.029-7.2,3.992-7.363,1.046-.171-.819,3.342-.541,4.194.418,1.282.607,1.06,1.026-.215.74-2.255,3.567-4.676,2.605-7.416.241,0,2.205-.386,2.442-.384,9.06.018,16.815.036,25.872.055,1.457,0,5.471.877,6.866.455a15.19,15.19,0,0,0,5.748-3.983c1.928-1.95.882-4.758,1.816-7.37s.809-5.772-.916-7.915Z" transform="translate(-6449.938 -738.355)" fill="#dab398"/>
  <path id="Trazado_16521" data-name="Trazado 16521" d="M6512.411,775.992c-3.772,2.488-5.3-.042-8.1,3.5-1.391,1.755-5.679,6.748-6.8,8.685-1.576,2.714-4.489,5.137-4.041,8.244a11.192,11.192,0,0,0,1.136,2.963,17.926,17.926,0,0,1,.339,14.049c-1.534,3.8-4.438,7.776-2.866,11.559a1.744,1.744,0,0,0,.785.972,2.5,2.5,0,0,0,1.844-.262c2.747-1,5.768.007,8.548.9a111.114,111.114,0,0,0,23.867,4.866,6.194,6.194,0,0,0,2.463-.113c2.282-.728,2.992-3.712,2.484-6.054s-1.826-4.472-2.149-6.846c-.391-2.865.707-5.7.992-8.583.663-6.731-3.126-13.246-2.811-20.005a59.1,59.1,0,0,0,10.382,3.648c-1.062-4.112-.625-6.131-1.689-10.245-.728-2.812-1.37-5.417-4.062-6.515-2.355-.961-6.993-2.534-8.926-.879s-3.365,3.824-5.251,5.534a15.325,15.325,0,0,1-11.928,3.812,108.037,108.037,0,0,1,5.92-9.125Z" transform="translate(-6430.191 -743.132)" fill="#231f20"/>
  <path id="Trazado_16522" data-name="Trazado 16522" d="M6492.693,806.714c-3.034,1.345-5.829,3.366-9.094,3.977-1.6.3-12.925,5.381-14.648,9.706s-.7,13.7-.926,18.352c-.382,8.017.042,12.358-.34,20.375-.077,1.609-2.965,7.78-2.105,9.143,1.159,1.835,3.544,2.394,5.691,2.712,2.757.409,5.537.684,8.323.824,1.462.073,3.065.068,4.212-.845.941-.748,2.146-7.356,2.491-8.506,1.463-4.88-.859-13.749-.934-18.842-.065-4.571-.741-9.289.742-13.612,2.04-5.958,10.679-6.038,15.7-9.837a133.548,133.548,0,0,0,17.328-15.671,3.482,3.482,0,0,0,1.274-2.676c-.3-1.886-2.99-1.924-4.841-1.454q-5.544,1.409-11.089,2.814Z" transform="translate(-6451.685 -722.66)" fill="#a1475c"/>
  <path id="Trazado_16523" data-name="Trazado 16523" d="M6485.76,842.053c-1.488,3.382-4.341,5.967-7.334,8.137-1.75,1.269-3.731,2.714-4.674,4.543a1.7,1.7,0,0,0,1.444,2.481c5.429.06,10.688-2.639,15.348-5.6q3.057-1.944,5.992-4.074c.963-.7,2.027-1.7,1.762-2.86-.223-.972-1.259-1.471-2.042-2.09-1.6-1.265-2.514-3.5-4.481-4.039a4.157,4.157,0,0,0-3.441.808,12.335,12.335,0,0,0-2.471,2.676Z" transform="translate(-6445.006 -691.213)" fill="#dab398"/>
  <path id="Trazado_16524" data-name="Trazado 16524" d="M6504.275,759.882a32.4,32.4,0,0,0-5.589,20.8A3.609,3.609,0,0,0,6501.71,784a6.621,6.621,0,0,1,2.182.7,4.3,4.3,0,0,1,2.377,3.972c-.2,2.132-6.9,7.545-6.226,9.576.526,1.587,7.019,1.882,8.76,1.1a34.49,34.49,0,0,0,10.989-9.165c2.228-3.062-3.979-2.008-.091-8.326a9.738,9.738,0,0,0,.813-8.887,22.134,22.134,0,0,0-16.368-12.928Z" transform="translate(-6424.475 -755.659)" fill="#dab398"/>
  <path id="Trazado_16525" data-name="Trazado 16525" d="M6504.085,757.569c-2.789.046-3.884,3.608-2.917,6.225.851,2.306,4.762,4.048,5.9,6.226,1.433,2.739.461,6.063.691,9.147.217,2.891,1.843,5.912,4.619,6.75a10.576,10.576,0,0,0,3.381.26l6.215-.191a10.135,10.135,0,0,0,4.923-.992c2.809-1.667,3.319-5.494,3.167-8.758-.3-6.477-2.48-13.517-8.061-16.816a16.517,16.517,0,0,0-4.287-1.709S6506.99,757.524,6504.085,757.569Z" transform="translate(-6422.644 -757.562)" fill="#a24719"/>
  <path id="Trazado_16526" data-name="Trazado 16526" d="M6512.513,803.485l-32.107,16.131a10.631,10.631,0,0,0-3.856,2.731c-1.226,1.6-1.437,3.732-1.556,5.741-.879,14.639,1.564,20.6,3.073,35.186.072.688-1.784,8.584-.166,10.56,1.27,1.549,9.119-.488,12.876-.841,2.31-.217,4.877-.568,6.33-2.377a8.611,8.611,0,0,0,1.406-4.64c.983-9.888-3.382-20.586-3.658-30.517a6.7,6.7,0,0,1,.241-2.5c.786-2.166,8.165-2.13,10.444-2.461a111.64,111.64,0,0,1,15.931-1.16c3.486,0,7.11.129,10.289-1.3,4.8-2.162,7.4-7.3,9.617-12.072a13.724,13.724,0,0,0,1.572-4.96,8.755,8.755,0,0,0-3.976-7.307,17.725,17.725,0,0,0-8.156-2.711,37.361,37.361,0,0,0-18.6,2.576Z" transform="translate(-6443.983 -722.147)" fill="#b85369"/>
  <path id="Trazado_16527" data-name="Trazado 16527" d="M6492.377,838.064c-5.216.641-7.781,5.65-8.312,8.317-3.238,16.242,14.193,17.107,18.25,13.51a13.179,13.179,0,0,0,3.178-14.863A12.637,12.637,0,0,0,6492.377,838.064Z" transform="translate(-6436.717 -691.609)" fill="#4e4f51"/>
  <path id="Trazado_16528" data-name="Trazado 16528" d="M6492.188,842.422c-1.8.073-2.612,1.942-3.034,2.771-.691,1.349-1.033,3.067-.187,4.325a3.325,3.325,0,0,0,.832.835,4.382,4.382,0,1,0,2.39-7.931Z" transform="translate(-6432.777 -687.955)" fill="#d0d2d3"/>
  <path id="Trazado_16529" data-name="Trazado 16529" d="M6491.331,815.462l.8,8.859c.687,7.587,1.351,15.423-1.006,22.668-.175.541-.3,1.276.2,1.555a1.185,1.185,0,0,0,.644.093,15.239,15.239,0,0,0,3.2-.517,1.488,1.488,0,0,0,.761-.39,1.6,1.6,0,0,0,.213-1.2c-.872-10.072.58-20.351-1.483-30.248a3.269,3.269,0,0,0-.913-1.94c-.565-.462-1.6-.379-1.835.313Z" transform="translate(-6430.722 -711.221)" fill="#6f7073"/>
  <path id="Trazado_16530" data-name="Trazado 16530" d="M6489.053,842.762l2.533.14c-.019-1.171.455-4.356.455-4.356a11.221,11.221,0,0,0,1.624-.184,6.55,6.55,0,0,1,2.334.091c-.752,5.985-4.527,17.5-3.37,17.768.945.22,3.733-7.09,4.708-11.042a85.739,85.739,0,0,0,2.007-11.107,1.564,1.564,0,0,0-1.5-1.66l-6.142-.282a1.819,1.819,0,0,0-1.9,1.647C6489.563,836.377,6488.985,841.687,6489.053,842.762Z" transform="translate(-6432.303 -696.396)" fill="#6f7073"/>
  <path id="Trazado_16531" data-name="Trazado 16531" d="M6532.99,802.561a1.727,1.727,0,0,0-.623-1.789,4.569,4.569,0,0,0-1.81-.5c-8.788-1.2-17.682.806-26.595,1.534a6.8,6.8,0,0,0-3.056.737,2.618,2.618,0,0,0-1.027,2.237c-.632,8.26-2.7,28.893-3.327,37.154-.115,1.5-2.658,1.156-4.07.848a1.153,1.153,0,0,1-.9-1.156c.149-8.692-.9-24.152-.213-37.507.067-1.316-.8-5.139.686-6.009a10.82,10.82,0,0,1,3.312-1.027c11.188-2.146,23.039-2.182,34.706-2.2,1.816,0,3.87.058,5.07.943a3.261,3.261,0,0,1,1.161,2.519c.412,3.471.428,11.5.837,14.972.254,2.141-.274,4.993-3.529,5.383a2.169,2.169,0,0,1-1.364-2.022Z" transform="translate(-6430.595 -726.954)" fill="#4e4f51"/>
  <g id="Grupo_7585" data-name="Grupo 7585" transform="translate(79.114 81.516)">
    <rect id="Rectángulo_1546" data-name="Rectángulo 1546" width="1.365" height="66.923" transform="translate(8.276 7.271) rotate(-34.166)" fill="#7a7c7f"/>
    <rect id="Rectángulo_1547" data-name="Rectángulo 1547" width="68.252" height="1.365" transform="translate(4.674 68.235) rotate(-49.571)" fill="#7a7c7f"/>
    <rect id="Rectángulo_1548" data-name="Rectángulo 1548" width="1.365" height="53.739" transform="matrix(0.016, -1, 1, 0.016, 0, 38.292)" fill="#7a7c7f"/>
    <rect id="Rectángulo_1549" data-name="Rectángulo 1549" width="79.896" height="1.365" transform="translate(29.202 79.891) rotate(-89.366)" fill="#7a7c7f"/>
  </g>
  <path id="Trazado_16532" data-name="Trazado 16532" d="M6517.182,826.508c0,3.151,1.189,5.7,2.654,5.7s2.654-2.554,2.654-5.7-1.188-5.7-2.654-5.7S6517.182,823.357,6517.182,826.508Z" transform="translate(-6409.224 -705.686)" fill="#231f20"/>
  <path id="Trazado_16533" data-name="Trazado 16533" d="M6523.2,890.369c16.533.855,34.485-20.777,36.012-44.685s-9.928-46.9-26.494-46.914c-21.142-.018-34.037,20.7-35.563,44.608S6503.5,889.348,6523.2,890.369Zm-15.6-46.6c1.33-20.8,13.693-39.216,26.916-38.641s22.3,19.925,20.969,40.727-15.769,39.553-28.991,38.978S6506.271,864.566,6507.6,843.766Z" transform="translate(-6425.806 -723.76)" fill="#1d555f"/>
  <path id="Trazado_16534" data-name="Trazado 16534" d="M6523.611,877.677c13.326.581,27.779-16.734,29.011-35.993s-8.017-37.209-21.344-37.789-25.685,16.43-26.916,35.687S6510.285,877.1,6523.611,877.677Zm-15.529-36.89c1.071-16.756,13.288-34.132,23.941-33.668s18.667,17.944,17.6,34.7-13,33.885-23.655,33.422S6507.012,857.541,6508.082,840.786Z" transform="translate(-6419.852 -719.568)" fill="#e2e3e4"/>
  <path id="Trazado_16535" data-name="Trazado 16535" d="M6538.844,787.054c-.5,2.614-3.606,15.389-4.823,17.757a4.472,4.472,0,0,1-1.3,1.706,4.668,4.668,0,0,1-2.345.626c-3.954.313-20.605.579-22.661.921a6.358,6.358,0,0,0-4.928,3.4c-.614,1.438-1.619,6.083-2.37,7.452-1.947,3.56.121-5.53-.783-5.05-.5.268-2.138,5.892-3.312,6.753-1.709,1.254-2.889,1.159-3.324.486-1.046-1.615,2.736-7.733,1.99-7.42-1.262.528-2.707,5.839-4.018,7.015-2.222,1.991.7-5.881,1.334-7.381,1.018-2.4,7.576-10.086,9.063-10.261a133.824,133.824,0,0,0,20.81-4.052,3.9,3.9,0,0,0,2-1.079c.352-.435,2.744-11.517,4.123-13.09,1.358-1.547,1.905-2.634,5.428-1.76C6535.724,783.571,6538.844,787.054,6538.844,787.054Z" transform="translate(-6431.399 -736.888)" fill="#dab398"/>
</svg>
