<svg id="Grupo_7655" data-name="Grupo 7655" xmlns="http://www.w3.org/2000/svg" width="88.977" height="212.755" viewBox="0 0 88.977 212.755">
  <g id="Grupo_7599" data-name="Grupo 7599" transform="translate(16.571 0)">
    <g id="Grupo_7587" data-name="Grupo 7587" transform="translate(17.062)">
      <path id="Trazado_16536" data-name="Trazado 16536" d="M345.648,64.256a3.616,3.616,0,0,1,4.265-1.8c2.9.894,3.279,2.657,4.664,3.543s2.933,1.258,3.735,4.158a15.238,15.238,0,0,0,2.031,4.833A10.344,10.344,0,0,1,360,87.118c-2.714,3.626-.669,2.777-1.528,6.038-.376,1.426-4.8,3.853-3.409,5.683,0,0-4.363-2.208-5.5-3.587C348.073,93.444,345.648,64.256,345.648,64.256Z" transform="translate(-345.648 -62.275)" fill="#47250e"/>
    </g>
    <g id="Grupo_7588" data-name="Grupo 7588" transform="translate(0 0.182)">
      <path id="Trazado_16537" data-name="Trazado 16537" d="M350.137,66.076a2.727,2.727,0,0,0,0-2.773c-.9-1.262-6.575-2.143-11.617,4.286S332.214,77.3,333.6,79.314s1.562,8.09,1.27,10.106,2.112,6.988,4.634,7.871,1.387,2.394,1.387,2.394,4.206-3,4.887-4.942S350.137,66.076,350.137,66.076Z" transform="translate(-333.076 -62.41)" fill="#47250e"/>
    </g>
    <g id="Grupo_7589" data-name="Grupo 7589" transform="translate(4.391 1.875)">
      <path id="Trazado_16538" data-name="Trazado 16538" d="M360.075,80.011h-.22c.092-.749.189-1.486.278-2.182.471-3.614,1.532-14.172-11.074-14.172s-11.546,10.558-11.074,14.172c.091.7.185,1.433.277,2.182h-.219c-1.918-1.42-2.079,2.287-1.28,3.554a7.7,7.7,0,0,1,1.078,2.317c.294.852.784.965,1.193.871.053.5.1.945.128,1.293.178,1.947,4.86,5.85,5.921,7.072.995,1.144,2.653.7,3.184.673l.793-.037.793.037c.532.027,2.189.471,3.184-.673,1.063-1.221,5.742-5.124,5.918-7.072.034-.349.077-.79.128-1.293.411.094.9-.019,1.2-.871a7.694,7.694,0,0,1,1.076-2.317C362.155,82.3,361.991,78.592,360.075,80.011Z" transform="translate(-336.311 -63.657)" fill="#ab6224"/>
    </g>
    <g id="Grupo_7596" data-name="Grupo 7596" transform="translate(7.114 21.972)">
      <g id="Grupo_7590" data-name="Grupo 7590">
        <path id="Trazado_16539" data-name="Trazado 16539" d="M343.081,79.724a4.021,4.021,0,0,0,1.22-1.258c-.556.193-1.09.335-1.607.535s-1.029.41-1.532.636a11.061,11.061,0,0,0-2.844,1.828,8.693,8.693,0,0,0,3.292-.878A9.5,9.5,0,0,0,343.081,79.724Z" transform="translate(-338.318 -78.466)" fill="#fff"/>
      </g>
      <g id="Grupo_7591" data-name="Grupo 7591" transform="translate(0.25 1.98)">
        <path id="Trazado_16540" data-name="Trazado 16540" d="M343.016,81.182a4.03,4.03,0,0,0,1.22-1.257c-.556.191-1.09.334-1.607.535-.524.185-1.029.408-1.532.634a11.863,11.863,0,0,0-2.595,1.622c.022.056.047.115.075.174a9.026,9.026,0,0,0,2.968-.843A9.621,9.621,0,0,0,343.016,81.182Z" transform="translate(-338.502 -79.925)" fill="#fff"/>
      </g>
      <g id="Grupo_7592" data-name="Grupo 7592" transform="translate(1.05 3.957)">
        <path id="Trazado_16541" data-name="Trazado 16541" d="M342.8,82.64a4.02,4.02,0,0,0,1.22-1.258c-.556.194-1.09.335-1.607.536s-1.029.407-1.532.635a14.761,14.761,0,0,0-1.794,1.011c.141.19.3.387.459.581a10.655,10.655,0,0,0,1.783-.642A9.614,9.614,0,0,0,342.8,82.64Z" transform="translate(-339.092 -81.382)" fill="#fff"/>
      </g>
      <g id="Grupo_7593" data-name="Grupo 7593" transform="translate(14.067)">
        <path id="Trazado_16542" data-name="Trazado 16542" d="M350.288,79c-.518-.2-1.05-.342-1.6-.535a3.987,3.987,0,0,0,1.219,1.258,9.476,9.476,0,0,0,1.468.863,8.706,8.706,0,0,0,3.292.878,11.031,11.031,0,0,0-2.843-1.828C351.317,79.411,350.812,79.187,350.288,79Z" transform="translate(-348.684 -78.466)" fill="#fff"/>
      </g>
      <g id="Grupo_7594" data-name="Grupo 7594" transform="translate(14.067 1.98)">
        <path id="Trazado_16543" data-name="Trazado 16543" d="M350.288,80.46c-.518-.2-1.05-.343-1.6-.535a4,4,0,0,0,1.219,1.257,9.593,9.593,0,0,0,1.468.864,9.051,9.051,0,0,0,2.971.843,1.846,1.846,0,0,0,.073-.174,11.8,11.8,0,0,0-2.595-1.622C351.317,80.868,350.812,80.644,350.288,80.46Z" transform="translate(-348.684 -79.925)" fill="#fff"/>
      </g>
      <g id="Grupo_7595" data-name="Grupo 7595" transform="translate(14.067 3.957)">
        <path id="Trazado_16544" data-name="Trazado 16544" d="M350.288,81.918c-.518-.2-1.05-.342-1.6-.536A3.987,3.987,0,0,0,349.9,82.64a9.586,9.586,0,0,0,1.468.863,10.745,10.745,0,0,0,1.783.642c.166-.194.319-.391.461-.581a14.88,14.88,0,0,0-1.8-1.011C351.317,82.325,350.812,82.1,350.288,81.918Z" transform="translate(-348.684 -81.382)" fill="#fff"/>
      </g>
    </g>
    <g id="Grupo_7597" data-name="Grupo 7597" transform="translate(2.127 0.618)">
      <path id="Trazado_16545" data-name="Trazado 16545" d="M349.578,69.573a6.065,6.065,0,0,1-3.929,4.915c-3.53,1.135-5.177,3.813-6.3,5.925s-1.544,4.29-1.137,5.422-6.069-9.2-2.479-13.614c1.677-2.064,4.359-6.6,6.922-8.322,2.92-1.962,6.925-.86,6.925-.86Z" transform="translate(-334.643 -62.731)" fill="#47250e"/>
    </g>
    <g id="Grupo_7598" data-name="Grupo 7598" transform="translate(16.908 0.742)">
      <path id="Trazado_16546" data-name="Trazado 16546" d="M345.592,70.055a4.023,4.023,0,0,0,2.013,4.237c2.6,1.425,6.386,3.188,7.138,5.584s1.524,5.238,2.809,6.012,2.36-6.525,1.732-7.593-1.291-7.008-1.893-8.24c-4.413-9.029-11.7-7.049-11.7-7.049Z" transform="translate(-345.535 -62.822)" fill="#47250e"/>
    </g>
  </g>
  <g id="Grupo_7600" data-name="Grupo 7600" transform="translate(2.13 111.528)">
    <path id="Trazado_16547" data-name="Trazado 16547" d="M335.652,148.224s.068,26.642,1.02,33.288-.885,3.158-1.167,9.652.165,11.074,1.048,22.48,2.319,16.1-.673,18-7.461,5.625-9.532,6.126-5.189,1.383-3.359,2.861,2.042,3.26,5.88,2.971,11.11-4.811,14.016-4.933c3.907-.168,4.824-3.083,4.1-5.431s-1.523-1.942-1.006-4.139-.157-.774-.48-4.329,2.364-12.9,3.382-21.314-.687-12.391-.119-16.341,5.7-42.658,5.7-42.658Z" transform="translate(-322.435 -144.458)" fill="#ab6224"/>
  </g>
  <g id="Grupo_7601" data-name="Grupo 7601" transform="translate(33.442 111.528)">
    <path id="Trazado_16548" data-name="Trazado 16548" d="M363.337,144.458s.311,30.408-.641,37.054.882,3.158,1.166,9.652-.167,11.074-1.046,22.48-2.319,16.1.672,18,7.461,5.625,9.532,6.126,5.189,1.383,3.36,2.861-2.044,3.26-5.883,2.971-11.112-4.811-14.013-4.933c-3.908-.168-4.824-3.083-4.1-5.431s1.521-1.942,1-4.139.159-.774.483-4.329-2.365-12.9-3.382-21.314.687-12.391.119-16.341c-.607-4.225.463-7.254-5.1-42.658Z" transform="translate(-345.508 -144.458)" fill="#ab6224"/>
  </g>
  <g id="Grupo_7602" data-name="Grupo 7602" transform="translate(33.856 29.751)">
    <path id="Trazado_16549" data-name="Trazado 16549" d="M345.813,86.379v71.572a29.5,29.5,0,0,0,16.393-3.813s-.791-16.358,0-21.489,4.286-10.876,4.022-13.792,3.421-11.469,4.343-15.02,4.078-2.238,2.631-4.473-4.21-4.6-6.316-4.6-4.736-.263-6.579-1.58-4.789-1.711-6.237-2.631-1.151-3.36-1.5-6.35Z" transform="translate(-345.813 -84.198)" fill="#ab6224"/>
  </g>
  <g id="Grupo_7603" data-name="Grupo 7603" transform="translate(6.094 29.751)">
    <path id="Trazado_16550" data-name="Trazado 16550" d="M353.118,86.379v71.572a29.5,29.5,0,0,1-16.392-3.813s.79-16.358,0-21.489-4.286-10.876-4.022-13.792-3.42-11.469-4.343-15.02-4.079-2.238-2.631-4.473,4.21-4.6,6.316-4.6,4.736-.263,6.579-1.58,4.789-1.711,6.236-2.631,1.154-3.36,1.5-6.35Z" transform="translate(-325.355 -84.198)" fill="#ab6224"/>
  </g>
  <g id="Grupo_7604" data-name="Grupo 7604" transform="translate(0 44.103)">
    <path id="Trazado_16551" data-name="Trazado 16551" d="M327.915,94.774a11.9,11.9,0,0,0-2.554,6.865c-.266,4.341-.266,7.236-1.185,10.392s-.658,10-1.053,10.787-2.895,6.316-2.1,15.393,1.315,14.339,1.185,16.182-1.58,8.683.791,10.657,2.367,5,7.1,5-2.5-3.815-2.367-5,0-5.658.527-5.065,2.3,4.8,3.451,5.2,2.076-.395.628-1.973-1.448-2.5-2.1-4.21a24.793,24.793,0,0,0-1.975-4.473c-.657-.921-.921-8.554-.527-10.262s2.763-10.525,2.763-13.947,2.815-9.988,3.908-13.018,2.277-8.031,1.354-11.583S327.915,94.774,327.915,94.774Z" transform="translate(-320.865 -94.774)" fill="#ab6224"/>
  </g>
  <g id="Grupo_7605" data-name="Grupo 7605" transform="translate(14.109 98.108)">
    <path id="Trazado_16552" data-name="Trazado 16552" d="M367.4,134.569s-9.243,3.056-16.394,2.793c-7.149.263-16.392-2.793-16.392-2.793l-3.355,25.822,19.389,2.239,19.309-1.977Z" transform="translate(-331.262 -134.569)" fill="#c1ecfa"/>
  </g>
  <g id="Grupo_7608" data-name="Grupo 7608" transform="translate(18.559 39.8)">
    <g id="Grupo_7606" data-name="Grupo 7606">
      <path id="Trazado_16553" data-name="Trazado 16553" d="M334.541,92.245s5.838-1.444,8.691,0a19.931,19.931,0,0,0,6.606,1.885V95s-4.119-.312-6.192-1.624C342.371,92.571,341.32,92.211,334.541,92.245Z" transform="translate(-334.541 -91.603)" fill="#94551e"/>
    </g>
    <g id="Grupo_7607" data-name="Grupo 7607" transform="translate(15.297)">
      <path id="Trazado_16554" data-name="Trazado 16554" d="M361.111,92.245s-5.838-1.444-8.689,0a19.947,19.947,0,0,1-6.609,1.885V95s4.121-.312,6.2-1.624C353.282,92.571,354.334,92.211,361.111,92.245Z" transform="translate(-345.813 -91.603)" fill="#94551e"/>
    </g>
  </g>
  <g id="Grupo_7609" data-name="Grupo 7609" transform="translate(13.785 58.79)">
    <path id="Trazado_16555" data-name="Trazado 16555" d="M340.136,115.528c-5.952,0-8.388-1.357-9.113-1.886.5,1.789,1.437,3.972,2.264,6.26h0c3.147-3.352,17.807-4.235,17.807-4.235V105.6C351.094,111.668,347.524,115.528,340.136,115.528Z" transform="translate(-331.023 -105.596)" fill="#94551e"/>
  </g>
  <g id="Grupo_7610" data-name="Grupo 7610" transform="translate(33.856 58.79)">
    <path id="Trazado_16556" data-name="Trazado 16556" d="M356.775,115.528c5.951,0,8.388-1.357,9.109-1.886-.5,1.789-.882,2.5-1.71,4.781h0a64.374,64.374,0,0,0-18.361-2.756V105.6C345.813,111.668,349.385,115.528,356.775,115.528Z" transform="translate(-345.813 -105.596)" fill="#94551e"/>
  </g>
  <g id="Grupo_7614" data-name="Grupo 7614" transform="translate(11.409 59.893)">
    <g id="Grupo_7611" data-name="Grupo 7611" transform="translate(2.125 6.416)">
      <path id="Trazado_16557" data-name="Trazado 16557" d="M330.949,111.137c-.038.107-.075.217-.111.32.037-.1.073-.213.111-.32Z" transform="translate(-330.838 -111.137)" fill="#ab6224"/>
    </g>
    <g id="Grupo_7612" data-name="Grupo 7612" transform="translate(2.236 6.24)">
      <path id="Trazado_16558" data-name="Trazado 16558" d="M333.676,112.857l-1.713,1.513a27.184,27.184,0,0,1-1.044-3.186c.019-.06.039-.115.061-.176A4,4,0,0,0,333.676,112.857Z" transform="translate(-330.92 -111.007)" fill="#94551e"/>
    </g>
    <g id="Grupo_7613" data-name="Grupo 7613">
      <path id="Trazado_16559" data-name="Trazado 16559" d="M331.57,112.649c-.022.061-.042.117-.061.176h0c-.038.107-.075.217-.111.32-.5,1.375-1.344,3.475-2.125,5.681.242-3.3.528-8.109.528-12.417C329.8,106.409,329.923,110.245,331.57,112.649Z" transform="translate(-329.272 -106.409)" fill="#94551e"/>
    </g>
  </g>
  <g id="Grupo_7615" data-name="Grupo 7615" transform="translate(47.307 65.552)">
    <path id="Trazado_16560" data-name="Trazado 16560" d="M356.022,111.891c.924.674,2.07-.508,1.656-1.128s0,.521-.824.57S355.3,111.365,356.022,111.891Z" transform="translate(-355.725 -110.579)" fill="#94551e"/>
  </g>
  <g id="Grupo_7616" data-name="Grupo 7616" transform="translate(18.367 65.552)">
    <path id="Trazado_16561" data-name="Trazado 16561" d="M336.143,111.891c-.925.674-2.07-.508-1.657-1.128s0,.521.826.57S336.866,111.365,336.143,111.891Z" transform="translate(-334.399 -110.579)" fill="#94551e"/>
  </g>
  <g id="Grupo_7617" data-name="Grupo 7617" transform="translate(32.881 92.492)">
    <path id="Trazado_16562" data-name="Trazado 16562" d="M345.223,130.453s2.333-.326,2.417,1.521-.236-.125-.679-.772S344.582,131.757,345.223,130.453Z" transform="translate(-345.094 -130.431)" fill="#94551e"/>
  </g>
  <g id="Grupo_7618" data-name="Grupo 7618" transform="translate(26.51 79.618)">
    <path id="Trazado_16563" data-name="Trazado 16563" d="M340.4,120.944a24.138,24.138,0,0,1,4.45.468,8.922,8.922,0,0,0,2.9,0V122.5s-3.09-.037-4.241-.776A7.19,7.19,0,0,0,340.4,120.944Z" transform="translate(-340.4 -120.944)" fill="#94551e"/>
  </g>
  <g id="Grupo_7619" data-name="Grupo 7619" transform="translate(33.856 79.618)">
    <path id="Trazado_16564" data-name="Trazado 16564" d="M353.16,120.944a24.1,24.1,0,0,0-4.448.468,8.936,8.936,0,0,1-2.9,0V122.5s3.093-.037,4.242-.776A7.19,7.19,0,0,1,353.16,120.944Z" transform="translate(-345.813 -120.944)" fill="#94551e"/>
  </g>
  <g id="Grupo_7620" data-name="Grupo 7620" transform="translate(25.478 85.666)">
    <path id="Trazado_16565" data-name="Trazado 16565" d="M339.639,125.4a20.738,20.738,0,0,1,5.075.717,7.6,7.6,0,0,0,3.3,0v1.673s-3.526-.057-4.838-1.2A6.471,6.471,0,0,0,339.639,125.4Z" transform="translate(-339.639 -125.401)" fill="#94551e"/>
  </g>
  <g id="Grupo_7621" data-name="Grupo 7621" transform="translate(33.856 85.666)">
    <path id="Trazado_16566" data-name="Trazado 16566" d="M354.194,125.4a20.729,20.729,0,0,0-5.075.717,7.612,7.612,0,0,1-3.306,0v1.673s3.527-.057,4.839-1.2A6.477,6.477,0,0,1,354.194,125.4Z" transform="translate(-345.813 -125.401)" fill="#94551e"/>
  </g>
  <g id="Grupo_7622" data-name="Grupo 7622" transform="translate(43.893 154.868)">
    <path id="Trazado_16567" data-name="Trazado 16567" d="M353.209,177.832a4.733,4.733,0,0,0,4.435-1.1C359.663,174.85,355.781,181.695,353.209,177.832Z" transform="translate(-353.209 -176.394)" fill="#94551e"/>
  </g>
  <g id="Grupo_7623" data-name="Grupo 7623" transform="translate(18.826 154.868)">
    <path id="Trazado_16568" data-name="Trazado 16568" d="M339.732,177.832a4.728,4.728,0,0,1-4.432-1.1C333.278,174.85,337.161,181.695,339.732,177.832Z" transform="translate(-334.737 -176.394)" fill="#94551e"/>
  </g>
  <g id="Grupo_7624" data-name="Grupo 7624" transform="translate(23.34 20.547)">
    <path id="Trazado_16569" data-name="Trazado 16569" d="M357.56,81.535c-1.635,5.016-5,3.657-6.646,3.024a3.762,3.762,0,0,0-4.986,0c-1.643.634-5.009,1.992-6.644-3.024,0,0-1.113-4.505-1.22-4.092.041.315.077.632.117.955,0,0,.231,2.778.407,4,.049.5.081.928.123,1.27a6.015,6.015,0,0,0,1.206,3.211c1.486,1.836,3.385,3.908,4.1,4.733.978,1.121,3.106,1.186,3.626,1.162l.778-.037s.251.011.776.037,2.654-.041,3.628-1.162c.716-.825,2.614-2.9,4.1-4.733a5.981,5.981,0,0,0,1.206-3.211c.043-.342.075-.774.125-1.27.175-1.223.4-4,.4-4,.042-.323.081-.641.119-.955C358.675,77.029,357.56,81.535,357.56,81.535Zm-6.788,6.51a5.578,5.578,0,0,1-1.334.2.95.95,0,0,1-.514-.2c-.432-.419-.5-.351-.5-.351s-.071-.068-.5.351a.95.95,0,0,1-.514.2,5.615,5.615,0,0,1-1.335-.2,1.2,1.2,0,0,1-.693-1.668c.755-1.163,3.045-1.258,3.045-1.258s2.295.095,3.044,1.258A1.2,1.2,0,0,1,350.772,88.045Z" transform="translate(-338.064 -77.416)" fill="#582d11"/>
  </g>
  <g id="Grupo_7625" data-name="Grupo 7625" transform="translate(38.009 44.262)">
    <path id="Trazado_16570" data-name="Trazado 16570" d="M348.873,109.727a48.379,48.379,0,0,0,4.3-3.038,41.989,41.989,0,0,0,3.9-3.459,37.7,37.7,0,0,0,6.272-8.338,21.389,21.389,0,0,1-5.525,9.08A24.03,24.03,0,0,1,348.873,109.727Z" transform="translate(-348.873 -94.891)" fill="#fff"/>
  </g>
  <g id="Grupo_7626" data-name="Grupo 7626" transform="translate(38.274 51.681)">
    <path id="Trazado_16571" data-name="Trazado 16571" d="M349.068,109.43c1.339-.5,2.614-1.091,3.873-1.7a38.175,38.175,0,0,0,3.636-2.037,33.586,33.586,0,0,0,6.431-5.337,16.344,16.344,0,0,1-5.868,6.225A18.233,18.233,0,0,1,349.068,109.43Z" transform="translate(-349.068 -100.358)" fill="#fff"/>
  </g>
  <g id="Grupo_7627" data-name="Grupo 7627" transform="translate(39.552 57.458)">
    <path id="Trazado_16572" data-name="Trazado 16572" d="M350.01,109.384a42.277,42.277,0,0,0,5.926-1.854,31.136,31.136,0,0,0,5.458-2.915,9.6,9.6,0,0,1-2.241,2.3,12.92,12.92,0,0,1-2.823,1.588,13.971,13.971,0,0,1-3.112.851A10.225,10.225,0,0,1,350.01,109.384Z" transform="translate(-350.01 -104.615)" fill="#fff"/>
  </g>
  <g id="Grupo_7628" data-name="Grupo 7628" transform="translate(2.622 65.758)">
    <path id="Trazado_16573" data-name="Trazado 16573" d="M322.8,111.889q.031-.574.072-1.158a30.34,30.34,0,0,0,2.865,2.064,37.841,37.841,0,0,0,3.634,2.038q1.309.631,2.665,1.2c-.038.1-.076.213-.115.322a19,19,0,0,1-6.749-2.672A19.3,19.3,0,0,1,322.8,111.889Z" transform="translate(-322.797 -110.731)" fill="#fff"/>
  </g>
  <g id="Grupo_7629" data-name="Grupo 7629" transform="translate(2.468 69.54)">
    <path id="Trazado_16574" data-name="Trazado 16574" d="M322.684,114.4c.012-.271.029-.567.041-.883a27.419,27.419,0,0,0,3.352,1.638,40.348,40.348,0,0,0,5.347,1.7c-.026.075-.052.151-.079.227a11.018,11.018,0,0,1-2.553-.1,14.248,14.248,0,0,1-3.113-.851,12.973,12.973,0,0,1-2.821-1.589C322.8,114.5,322.742,114.449,322.684,114.4Z" transform="translate(-322.684 -113.518)" fill="#fff"/>
  </g>
  <g id="Grupo_7630" data-name="Grupo 7630" transform="translate(15.236 44.262)">
    <path id="Trazado_16575" data-name="Trazado 16575" d="M346.563,109.727a48.2,48.2,0,0,1-4.3-3.038,41.986,41.986,0,0,1-3.9-3.459,37.776,37.776,0,0,1-6.271-8.338,21.352,21.352,0,0,0,5.526,9.08A24,24,0,0,0,346.563,109.727Z" transform="translate(-332.092 -94.891)" fill="#fff"/>
  </g>
  <g id="Grupo_7631" data-name="Grupo 7631" transform="translate(15.5 51.681)">
    <path id="Trazado_16576" data-name="Trazado 16576" d="M346.227,109.43c-1.339-.5-2.614-1.091-3.873-1.7a38.141,38.141,0,0,1-3.634-2.037,33.551,33.551,0,0,1-6.433-5.337,16.343,16.343,0,0,0,5.868,6.225A18.245,18.245,0,0,0,346.227,109.43Z" transform="translate(-332.287 -100.358)" fill="#fff"/>
  </g>
  <g id="Grupo_7632" data-name="Grupo 7632" transform="translate(16.777 57.458)">
    <path id="Trazado_16577" data-name="Trazado 16577" d="M344.613,109.384a42.162,42.162,0,0,1-5.926-1.854,31.18,31.18,0,0,1-5.458-2.915,9.658,9.658,0,0,0,2.242,2.3,12.911,12.911,0,0,0,2.821,1.588,13.984,13.984,0,0,0,3.113.851A10.217,10.217,0,0,0,344.613,109.384Z" transform="translate(-333.228 -104.615)" fill="#fff"/>
  </g>
  <g id="Grupo_7633" data-name="Grupo 7633" transform="translate(24.059 104.22)">
    <path id="Trazado_16578" data-name="Trazado 16578" d="M358.515,169.895H338.594l2.1-30.822h15.712Z" transform="translate(-338.594 -139.073)" fill="#58bad8"/>
  </g>
  <g id="Grupo_7634" data-name="Grupo 7634" transform="translate(26.942 108.68)">
    <path id="Trazado_16579" data-name="Trazado 16579" d="M354.876,164.262H340.718l1.5-21.9h11.164Z" transform="translate(-340.718 -142.359)" fill="#7ca324"/>
  </g>
  <g id="Grupo_7635" data-name="Grupo 7635" transform="translate(29.374 112.443)">
    <path id="Trazado_16580" data-name="Trazado 16580" d="M351.8,159.509H342.51l.983-14.377h7.326Z" transform="translate(-342.51 -145.132)" fill="#6a8c1f"/>
  </g>
  <g id="Grupo_7636" data-name="Grupo 7636" transform="translate(16.947 98.108)">
    <path id="Trazado_16581" data-name="Trazado 16581" d="M366.656,134.569s-9.243,3.056-16.393,2.793c-7.149.263-16.392-2.793-16.392-2.793l-.517,4.36s5.723,3.224,16.909,3.224,16.909-3.224,16.911-3.224Z" transform="translate(-333.353 -134.569)" fill="#7ca324"/>
  </g>
  <g id="Grupo_7637" data-name="Grupo 7637" transform="translate(20.961 76.022)">
    <path id="Trazado_16582" data-name="Trazado 16582" d="M336.311,118.294a15.67,15.67,0,0,1,3.6,3.884,27.848,27.848,0,0,1,2.553,4.664,33.217,33.217,0,0,1,2.588,10.236c-1.11-3.345-2.171-6.646-3.553-9.818a48.351,48.351,0,0,0-2.283-4.651A27.776,27.776,0,0,0,336.311,118.294Z" transform="translate(-336.311 -118.294)" fill="#fff"/>
  </g>
  <g id="Grupo_7638" data-name="Grupo 7638" transform="translate(21.324 82.785)">
    <path id="Trazado_16583" data-name="Trazado 16583" d="M336.578,123.278a10.647,10.647,0,0,1,2.383,2.513,17.975,17.975,0,0,1,3.235,9.738c-.852-2.146-1.581-4.25-2.493-6.291A45.21,45.21,0,0,0,336.578,123.278Z" transform="translate(-336.578 -123.278)" fill="#fff"/>
  </g>
  <g id="Grupo_7639" data-name="Grupo 7639" transform="translate(20.961 89.407)">
    <path id="Trazado_16584" data-name="Trazado 16584" d="M336.311,128.157a2.418,2.418,0,0,1,1.505.852,4.871,4.871,0,0,1,.912,1.459,5.626,5.626,0,0,1,.307,3.319,25.9,25.9,0,0,1-1.282-2.923c-.181-.476-.387-.931-.6-1.383A6.178,6.178,0,0,0,336.311,128.157Z" transform="translate(-336.311 -128.157)" fill="#fff"/>
  </g>
  <g id="Grupo_7640" data-name="Grupo 7640" transform="translate(38.009 76.022)">
    <path id="Trazado_16585" data-name="Trazado 16585" d="M357.617,118.294a15.72,15.72,0,0,0-3.6,3.884,28.345,28.345,0,0,0-2.554,4.664,33.249,33.249,0,0,0-2.585,10.236c1.107-3.345,2.171-6.646,3.551-9.818a49.01,49.01,0,0,1,2.283-4.651A27.966,27.966,0,0,1,357.617,118.294Z" transform="translate(-348.873 -118.294)" fill="#fff"/>
  </g>
  <g id="Grupo_7641" data-name="Grupo 7641" transform="translate(40.773 82.785)">
    <path id="Trazado_16586" data-name="Trazado 16586" d="M356.527,123.278a10.586,10.586,0,0,0-2.382,2.513,17.943,17.943,0,0,0-3.235,9.738c.851-2.146,1.58-4.25,2.492-6.291A45.039,45.039,0,0,1,356.527,123.278Z" transform="translate(-350.91 -123.278)" fill="#fff"/>
  </g>
  <g id="Grupo_7642" data-name="Grupo 7642" transform="translate(43.902 89.407)">
    <path id="Trazado_16587" data-name="Trazado 16587" d="M356.066,128.157a2.429,2.429,0,0,0-1.5.852,4.872,4.872,0,0,0-.912,1.459,5.615,5.615,0,0,0-.307,3.319,26.165,26.165,0,0,0,1.282-2.923c.18-.476.389-.931.6-1.383A6.231,6.231,0,0,1,356.066,128.157Z" transform="translate(-353.215 -128.157)" fill="#fff"/>
  </g>
  <g id="Grupo_7643" data-name="Grupo 7643" transform="translate(39.614 138.198)">
    <path id="Trazado_16588" data-name="Trazado 16588" d="M361,164.11a10.667,10.667,0,0,0-3.313,1.007,17.287,17.287,0,0,0-2.98,1.785,17.643,17.643,0,0,0-4.649,5.078c1.8-1.447,3.475-2.915,5.278-4.234A45.019,45.019,0,0,1,361,164.11Z" transform="translate(-350.056 -164.11)" fill="#fff"/>
  </g>
  <g id="Grupo_7644" data-name="Grupo 7644" transform="translate(42.444 143.968)">
    <path id="Trazado_16589" data-name="Trazado 16589" d="M357.293,168.525a2.415,2.415,0,0,0-1.728,0,4.881,4.881,0,0,0-1.513.816,5.621,5.621,0,0,0-1.911,2.733,24.757,24.757,0,0,0,2.559-1.907c.392-.322.8-.615,1.212-.9A6.278,6.278,0,0,1,357.293,168.525Z" transform="translate(-352.141 -168.362)" fill="#fff"/>
  </g>
  <g id="Grupo_7645" data-name="Grupo 7645" transform="translate(17.156 138.198)">
    <path id="Trazado_16590" data-name="Trazado 16590" d="M333.507,164.11a10.653,10.653,0,0,1,3.314,1.007A17.228,17.228,0,0,1,339.8,166.9a17.566,17.566,0,0,1,4.649,5.078c-1.8-1.447-3.474-2.915-5.276-4.234A44.839,44.839,0,0,0,333.507,164.11Z" transform="translate(-333.507 -164.11)" fill="#fff"/>
  </g>
  <g id="Grupo_7646" data-name="Grupo 7646" transform="translate(20.117 143.968)">
    <path id="Trazado_16591" data-name="Trazado 16591" d="M335.689,168.525a2.418,2.418,0,0,1,1.729,0,4.9,4.9,0,0,1,1.514.816,5.628,5.628,0,0,1,1.909,2.733,25.05,25.05,0,0,1-2.559-1.907c-.394-.322-.8-.615-1.212-.9A6.29,6.29,0,0,0,335.689,168.525Z" transform="translate(-335.689 -168.362)" fill="#fff"/>
  </g>
  <g id="Grupo_7647" data-name="Grupo 7647" transform="translate(71.116 47.4)">
    <path id="Trazado_16592" data-name="Trazado 16592" d="M376.7,261.633c-.052.588-.862,1-1.81.915h0c-.946-.084-1.673-.628-1.622-1.217l14.423-163.2c.052-.586.863-1,1.809-.912h0c.95.085,1.675.628,1.623,1.217Z" transform="translate(-373.269 -97.203)" fill="#47250e"/>
  </g>
  <g id="Grupo_7648" data-name="Grupo 7648" transform="translate(52.496 44.103)">
    <path id="Trazado_16593" data-name="Trazado 16593" d="M378.8,136.085a76.4,76.4,0,0,0-6.3-13.265c-.395-.788-.133-7.63-1.053-10.787s-.92-6.051-1.183-10.392a11.9,11.9,0,0,0-2.554-6.865s-6.917,7.391-7.84,10.943.263,8.552,1.356,11.583,3.908,9.6,3.908,13.018,5.173,10.283,6.162,11.733c0,0,6.864,10.014,11.361,16.141,1.13,1.54,3.322,4.317,6.405,5.058,3.771.909,4.515-2.027,5.527-5.936,1.228-4.743-.527-5.616-5-6.179a11.992,11.992,0,0,0-2.895,0A75.913,75.913,0,0,1,378.8,136.085Z" transform="translate(-359.548 -94.774)" fill="#ab6224"/>
  </g>
  <g id="Grupo_7652" data-name="Grupo 7652" transform="translate(51.312 59.893)">
    <g id="Grupo_7649" data-name="Grupo 7649" transform="translate(2.756 6.416)">
      <path id="Trazado_16594" data-name="Trazado 16594" d="M360.707,111.137c.039.107.077.217.113.32-.035-.1-.073-.213-.113-.32Z" transform="translate(-360.707 -111.137)" fill="#ab6224"/>
    </g>
    <g id="Grupo_7650" data-name="Grupo 7650" transform="translate(0 6.24)">
      <path id="Trazado_16595" data-name="Trazado 16595" d="M358.676,112.857l1.714,1.513a27.442,27.442,0,0,0,1.042-3.186c-.019-.06-.039-.115-.06-.176A4.009,4.009,0,0,1,358.676,112.857Z" transform="translate(-358.676 -111.007)" fill="#94551e"/>
    </g>
    <g id="Grupo_7651" data-name="Grupo 7651" transform="translate(2.697)">
      <path id="Trazado_16596" data-name="Trazado 16596" d="M360.663,112.649c.02.061.041.117.06.176h0c.039.107.077.217.113.32.494,1.375,1.343,3.475,2.124,5.681-.242-3.3-.527-8.109-.527-12.417C362.433,106.409,362.308,110.245,360.663,112.649Z" transform="translate(-360.663 -106.409)" fill="#94551e"/>
    </g>
  </g>
  <g id="Grupo_7653" data-name="Grupo 7653" transform="translate(55.855 65.758)">
    <path id="Trazado_16597" data-name="Trazado 16597" d="M371.261,111.889q-.03-.574-.07-1.158a30.353,30.353,0,0,1-2.865,2.064,37.863,37.863,0,0,1-3.636,2.038c-.871.421-1.763.821-2.667,1.2.039.1.079.213.117.322a19.01,19.01,0,0,0,6.75-2.672A19.385,19.385,0,0,0,371.261,111.889Z" transform="translate(-362.023 -110.731)" fill="#fff"/>
  </g>
  <g id="Grupo_7654" data-name="Grupo 7654" transform="translate(56.506 69.54)">
    <path id="Trazado_16598" data-name="Trazado 16598" d="M371.243,114.4c-.012-.271-.027-.567-.039-.883a27.591,27.591,0,0,1-3.351,1.638,40.449,40.449,0,0,1-5.35,1.7c.024.075.052.151.077.227a11.009,11.009,0,0,0,2.553-.1,14.239,14.239,0,0,0,3.114-.851,12.959,12.959,0,0,0,2.82-1.589C371.129,114.5,371.184,114.449,371.243,114.4Z" transform="translate(-362.503 -113.518)" fill="#fff"/>
  </g>
</svg>
