<svg xmlns="http://www.w3.org/2000/svg" width="109.62" height="226.051" viewBox="0 0 109.62 226.051">
  <g id="Grupo_7673" data-name="Grupo 7673" transform="translate(-6622.322 -700.227)">
    <g id="Grupo_7658" data-name="Grupo 7658" transform="translate(6667.108 906.57)">
      <path id="Trazado_16599" data-name="Trazado 16599" d="M6663.789,851.809a39.733,39.733,0,0,1,.42-5.83l-7.318-.1c-.3,1.351-.762,4.991-.923,6.3v.006c-.038.3-.06.48-.06.48l-.447,3.634,9.968.139a14.214,14.214,0,0,0-1.334-3.128A3.329,3.329,0,0,1,6663.789,851.809Z" transform="translate(-6653.3 -845.88)" fill="#ff9e6a"/>
      <path id="Trazado_16600" data-name="Trazado 16600" d="M6654.05,860.047c.021.137.05.269.083.4s.071.265.109.4c.05.154.105.3.161.452.082.194.171.381.271.564.513.932,1.969,1.064,2.906,1.136a25.713,25.713,0,0,0,4.38-.139,78.856,78.856,0,0,1,9.47-.3c1.528.044,3.095.067,4.617.259a11.766,11.766,0,0,0,4.329-.006,2.736,2.736,0,0,0,1.666-1.087,1.389,1.389,0,0,0,.188-.375,1.5,1.5,0,0,0,.065-.231,2.027,2.027,0,0,0,.05-.364,1.876,1.876,0,0,0-.006-.392c-.149-1.516-1.786-2.7-3.838-2.995a22.163,22.163,0,0,1-2.781-.618,28.749,28.749,0,0,1-5-1.864c-.21-.11-.442-.231-.69-.37-1.218-.683-2.835-1.687-3.971-2.388-.673-.418-1.18-.733-1.334-.81-.426-.227-.988.044-1.4.2a9.213,9.213,0,0,1-3.756.475,4.175,4.175,0,0,1-2.625-1.058c-.193-.188-.3-.3-.408-.259-.061.021-.121.088-.205.214-.1.15-.176.315-.264.469-.259.486-.5.982-.728,1.49-.244.545-.464,1.108-.658,1.676a13.974,13.974,0,0,0-.644,2.676A9.064,9.064,0,0,0,6654.05,860.047Z" transform="translate(-6653.935 -843.886)" fill="#874c23"/>
      <g id="Grupo_7656" data-name="Grupo 7656" transform="translate(0.306 16.96)">
        <path id="Trazado_16601" data-name="Trazado 16601" d="M6682.141,858.359a1.511,1.511,0,0,1-.187.375,20.637,20.637,0,0,1-3.868.377c-.136,0-.271,0-.405-.013-1.2-.057-2.219-.173-3.2-.285-.96-.11-1.863-.214-2.866-.255-.3-.014-.64-.033-1.01-.051a44.038,44.038,0,0,0-7.969.1,25.738,25.738,0,0,1-4.249.221c-.551-.01-1.109-.045-1.646-.077l-.247-.017a6.379,6.379,0,0,1-2.174-.425c-.058-.15-.113-.3-.163-.455a5.509,5.509,0,0,0,2.356.543l.249.017c.534.031,1.088.065,1.632.077a25.111,25.111,0,0,0,4.192-.217,44.38,44.38,0,0,1,8.032-.1l1.01.051c1.014.045,1.926.149,2.891.256s1.994.227,3.183.283A19.839,19.839,0,0,0,6682.141,858.359Z" transform="translate(-6654.151 -857.852)" fill="#fff"/>
      </g>
      <g id="Grupo_7657" data-name="Grupo 7657" transform="translate(0.116 15.814)">
        <path id="Trazado_16602" data-name="Trazado 16602" d="M6654.017,857.39c.021.137.05.269.083.4.221.021.436.038.646.05l.28.017c.618.038,1.259.076,1.888.088a29.343,29.343,0,0,0,4.876-.254,50.343,50.343,0,0,1,9.134-.11c.43.021.816.044,1.158.061,1.153.044,2.19.166,3.286.292,1.133.128,2.3.259,3.674.326.16.011.314.011.47.016a20.412,20.412,0,0,0,2.8-.176,1.876,1.876,0,0,0-.006-.392,18.653,18.653,0,0,1-3.243.166c-1.362-.065-2.525-.2-3.65-.324-1.1-.128-2.152-.244-3.315-.293-.337-.016-.728-.038-1.158-.061a51.006,51.006,0,0,0-9.212.116,28.384,28.384,0,0,1-4.8.248c-.623-.01-1.258-.05-1.87-.088l-.287-.017C6654.507,857.44,6654.259,857.417,6654.017,857.39Z" transform="translate(-6654.017 -857.043)" fill="#fff"/>
      </g>
      <path id="Trazado_16603" data-name="Trazado 16603" d="M6668.487,856.422a5.044,5.044,0,0,0,3.755-.1,28.749,28.749,0,0,1-5-1.864c-.21-.11-.442-.231-.69-.37-1.218-.683-2.835-1.687-3.971-2.388C6661.139,854.012,6665.226,855.407,6668.487,856.422Z" transform="translate(-6650.455 -843.455)" fill="#7a3f17"/>
    </g>
    <g id="Grupo_7661" data-name="Grupo 7661" transform="translate(6652.341 907.121)">
      <path id="Trazado_16604" data-name="Trazado 16604" d="M6653.365,852.2a39.65,39.65,0,0,1,.419-5.831l-7.32-.1c-.3,1.352-.761,4.992-.92,6.3v.006c-.038.3-.062.48-.062.48l-.446,3.635,9.966.137a14.192,14.192,0,0,0-1.334-3.128A3.356,3.356,0,0,1,6653.365,852.2Z" transform="translate(-6642.875 -846.269)" fill="#ff9e6a"/>
      <path id="Trazado_16605" data-name="Trazado 16605" d="M6643.625,860.436c.022.137.05.271.083.4s.071.265.111.4c.05.154.1.3.159.452.083.193.171.38.271.563.514.932,1.969,1.064,2.906,1.136a25.87,25.87,0,0,0,4.38-.137,78.545,78.545,0,0,1,9.471-.3c1.527.045,3.095.067,4.617.259a11.771,11.771,0,0,0,4.329,0,2.733,2.733,0,0,0,1.666-1.087,1.407,1.407,0,0,0,.188-.375,1.523,1.523,0,0,0,.066-.232,2.008,2.008,0,0,0,.05-.364,1.74,1.74,0,0,0-.006-.391c-.148-1.517-1.787-2.7-3.839-2.995a22.631,22.631,0,0,1-2.779-.618,28.722,28.722,0,0,1-5-1.864c-.21-.11-.442-.232-.69-.37-1.219-.684-2.834-1.689-3.973-2.388-.672-.419-1.18-.734-1.334-.812-.425-.225-.987.045-1.4.2a9.209,9.209,0,0,1-3.755.473,4.175,4.175,0,0,1-2.627-1.058c-.192-.187-.3-.3-.408-.259-.061.023-.12.088-.2.215-.1.149-.176.314-.265.469q-.39.727-.729,1.489c-.242.545-.463,1.109-.655,1.677a13.99,13.99,0,0,0-.646,2.675A9.151,9.151,0,0,0,6643.625,860.436Z" transform="translate(-6643.511 -844.274)" fill="#874c23"/>
      <g id="Grupo_7659" data-name="Grupo 7659" transform="translate(0.306 16.961)">
        <path id="Trazado_16606" data-name="Trazado 16606" d="M6671.717,858.748a1.551,1.551,0,0,1-.187.377,20.807,20.807,0,0,1-3.869.375c-.136,0-.271,0-.406-.013-1.2-.057-2.219-.173-3.2-.283-.959-.112-1.863-.215-2.868-.256l-1.01-.051a44.139,44.139,0,0,0-7.969.1,25.859,25.859,0,0,1-4.249.222c-.55-.011-1.107-.047-1.645-.077l-.246-.017a6.421,6.421,0,0,1-2.175-.426c-.059-.149-.113-.3-.163-.455a5.509,5.509,0,0,0,2.356.543l.249.017c.534.031,1.088.067,1.633.077a25.243,25.243,0,0,0,4.189-.215,44.128,44.128,0,0,1,8.034-.1l1.011.051c1.013.044,1.923.147,2.89.255s1.994.228,3.184.285A19.894,19.894,0,0,0,6671.717,858.748Z" transform="translate(-6643.728 -858.241)" fill="#fff"/>
      </g>
      <g id="Grupo_7660" data-name="Grupo 7660" transform="translate(0.113 15.814)">
        <path id="Trazado_16607" data-name="Trazado 16607" d="M6643.592,857.779c.022.137.05.271.083.4.222.023.436.038.646.05l.282.017c.617.038,1.257.077,1.887.088a29.172,29.172,0,0,0,4.875-.254,50.477,50.477,0,0,1,9.134-.11l1.159.061c1.152.044,2.189.166,3.287.292,1.13.127,2.3.259,3.673.326.16.011.314.011.469.017a20.38,20.38,0,0,0,2.8-.177,1.74,1.74,0,0,0-.006-.391,18.781,18.781,0,0,1-3.243.166c-1.362-.067-2.525-.2-3.652-.326-1.1-.127-2.15-.242-3.314-.292-.336-.017-.729-.04-1.157-.061a50.843,50.843,0,0,0-9.211.115,28.4,28.4,0,0,1-4.806.249c-.623-.011-1.257-.05-1.87-.089l-.286-.016C6644.083,857.829,6643.836,857.806,6643.592,857.779Z" transform="translate(-6643.592 -857.432)" fill="#fff"/>
      </g>
      <path id="Trazado_16608" data-name="Trazado 16608" d="M6658.063,856.812a5.063,5.063,0,0,0,3.757-.1,28.722,28.722,0,0,1-5-1.864c-.21-.11-.442-.232-.69-.37-1.219-.684-2.834-1.689-3.973-2.388C6650.715,854.4,6654.8,855.8,6658.063,856.812Z" transform="translate(-6640.032 -843.843)" fill="#7a3f17"/>
    </g>
    <path id="Trazado_16609" data-name="Trazado 16609" d="M6640.514,818.549v.006c.044,1.319.1,2.653.171,4.011a483.05,483.05,0,0,0,5.588,53.338h12.1s6.365-57.27,6.52-65.8,13.972-37.871,13.972-37.871l-35.543-1.241S6639.492,790.3,6640.514,818.549Z" transform="translate(7.509 29.484)" fill="#637aaf"/>
    <path id="Trazado_16610" data-name="Trazado 16610" d="M6663.195,858.914c-.685,5.654-1.3,11.318-1.814,16.989l10.822,1.527,2.365.337c.023-.088.044-.183.072-.271.032-.143.072-.286.105-.431,3.508-13.756,7.27-27.424,11.081-41.1,2.155-7.722,4.385-14.981,2.868-23.079-.932-4.964-10.707-40.661-10.707-40.661l-35.543-1.241s15.367,36.784,20.485,42.835a17.441,17.441,0,0,1,3.271,5.82l.006.006c1.633,4.893,1.191,10.286.568,15.626C6665.848,843.193,6664.154,851,6663.195,858.914Z" transform="translate(8.385 29.484)" fill="#637aaf"/>
    <path id="Trazado_16611" data-name="Trazado 16611" d="M6657.167,845.172c-.787-.076-12.261-.931-13.348,0s-.466,4.579.466,4.579,10.715.55,12.344.084S6658.02,845.255,6657.167,845.172Z" transform="translate(8.717 60.215)" fill="#5fa365"/>
    <g id="Grupo_7662" data-name="Grupo 7662" transform="translate(6637.244 744.431)">
      <path id="Trazado_16612" data-name="Trazado 16612" d="M6634.006,792.405l-1.151-.194c1.3-7.745,2.492-15.076,3.543-21.546,4.24-26.08,6.2-37.675,8.132-39.235l.732.908c-1.669,1.346-4.335,17.748-7.712,38.515C6636.5,777.322,6635.306,784.656,6634.006,792.405Z" transform="translate(-6632.854 -731.43)" fill="#874c23"/>
    </g>
    <path id="Trazado_16613" data-name="Trazado 16613" d="M6682.119,773.983a18.965,18.965,0,0,0,1.7,2c1.694,2.066,6.573-.293,7.723,3.978.7,2.605-1.482,6.136-3.654,5.978-.24-.017.034-4.348.072-4.522-2.213-.448-.122,3.628-2.1,3.369-4.315-.567-5.521-2.9-6.87-5.635a7.894,7.894,0,0,0-1.07-1.876Z" transform="translate(23.166 30.732)" fill="#ff9e6a"/>
    <path id="Trazado_16614" data-name="Trazado 16614" d="M6667.7,778.845c.437,2.183,2.045,4.793,4.131,7.408,5.313,6.663,13.718,13.386,13.718,13.386l5.587-3.877s-3.568-6.674-9-16.453-4.192-16.449-5.587-32.9c-2.224-13.454-7.542-19.3-8.966-20.021C6657.294,734.163,6666.149,771.083,6667.7,778.845Z" transform="translate(16.818 10.9)" fill="#5fa365"/>
    <path id="Trazado_16615" data-name="Trazado 16615" d="M6646.643,729.053l11.59,6s11.583-1.847,8.069-7.192a6.394,6.394,0,0,1-3.193-2.482,2.787,2.787,0,0,1-.32-1.186c-.028-.707,0-1.683.056-2.72.137-2.631.457-5.664.457-5.664l-10.347.237-.978.023h0a.109.109,0,0,0,0,.027.2.2,0,0,1,.006.033c.022.084.061.265.11.513.006.051.017.1.027.15a23.209,23.209,0,0,1,.4,4.07c0,2.316-.446,4.827-2.206,5.913Z" transform="translate(10.135 6.493)" fill="#ff9e6a"/>
    <path id="Trazado_16616" data-name="Trazado 16616" d="M6650.4,716.069a.109.109,0,0,0,0,.027.2.2,0,0,1,.006.033c.022.084.061.265.11.513.006.051.017.1.027.15a23.209,23.209,0,0,1,.4,4.07c2.487,1.66,6.718,4.11,10.585,4.518a2.787,2.787,0,0,1-.32-1.186c-.028-.707,0-1.683.056-2.72.137-2.631.457-5.664.457-5.664l-10.347.237-.978.023Z" transform="translate(11.702 6.493)" opacity="0.25" style="mix-blend-mode: overlay;isolation: isolate"/>
    <path id="Trazado_16617" data-name="Trazado 16617" d="M6650.432,719.3c0,.01,0,.016,0,.027a.2.2,0,0,1,.006.033,2.825,2.825,0,0,0,.077.524.4.4,0,0,0,.044.116l.017.023a10.839,10.839,0,0,0,6.657,4.787,6.749,6.749,0,0,0,4.066-.1,9.263,9.263,0,0,0,4.545-4.318c1.786-3.029,2.095-10.012,2.095-10.012V708.05h-17.38S6650.2,716.682,6650.432,719.3Z" transform="translate(11.679 3.259)" fill="#ff9e6a"/>
    <path id="Trazado_16618" data-name="Trazado 16618" d="M6667.831,777.44c.437,2.184,2.048,4.793,4.133,7.408a195.773,195.773,0,0,0,2.1-32.422c-.285-7.688-1.148-10.944-5.688-18.016-.65-1.009-.92-5.67-2.906-6.095a17.838,17.838,0,0,0-.9,1.788C6663.021,733.672,6666.281,769.679,6667.831,777.44Z" transform="translate(17.436 11.703)" opacity="0.25" style="mix-blend-mode: overlay;isolation: isolate"/>
    <path id="Trazado_16619" data-name="Trazado 16619" d="M6683.785,769.077c-.046.555-.093,1.074-.14,1.547v.017c-.058.608-.116,1.121-.163,1.489-.151,1.218-.3,2.386-.449,3.495q-.438,3.309-.864,5.963v.018a69.381,69.381,0,0,1-2.182,10.386s-21.986,5.485-35.543-1.237a66.731,66.731,0,0,1-5.054-15.585v-.007a84.291,84.291,0,0,1-1.435-24.309q.218-2.582.625-5.269a39.037,39.037,0,0,1,5.816-16.106c.245-.361.462-.723.678-1.038a3.348,3.348,0,0,1,.693-.8,26.935,26.935,0,0,1,2.266-1.57,17.444,17.444,0,0,1,6.032-2.515,15.765,15.765,0,0,0,3.927,3.536,16.157,16.157,0,0,0,3.023,1.54,15.488,15.488,0,0,0,6.033,1.01c3.14-.1,3-5,3-5a24.323,24.323,0,0,1,7.964,2.928c2.352,1.512,4.3,11.18,5.469,17.12.8,4.026,0,9.92.595,17.775A59.812,59.812,0,0,1,6683.785,769.077Z" transform="translate(6.386 9.719)" fill="#5fa365"/>
    <path id="Trazado_16620" data-name="Trazado 16620" d="M6677.239,757.967c-.112,1.1-.437,7.661-11.741,13.637-6.354,3.366-21.836,8-26.107.63v-.007a84.291,84.291,0,0,1-1.435-24.309c1.435-3.641,3.285-7.2,4.919-10.415,1.827-3.618,4.609-7.014,9.021-6.9,4.516.116,8.3,3.886,9.145,8.193a7.611,7.611,0,0,1-.3,3.758c-.659,2.146-1.576,4.2-2.345,6.307-.548,1.506-2.112,4.726-.794,6.162a3.673,3.673,0,0,0,3.518.612c11.35-3.25,10.288-1.383,13.054-.584C6675.979,755.569,6677.391,756.414,6677.239,757.967Z" transform="translate(6.386 12.654)" opacity="0.25" style="mix-blend-mode: overlay;isolation: isolate"/>
    <path id="Trazado_16621" data-name="Trazado 16621" d="M6650.432,719.3h0a.109.109,0,0,0,0,.027.2.2,0,0,1,.006.033,2.825,2.825,0,0,0,.077.524.077.077,0,0,0,.033-.011,2.906,2.906,0,0,0,.861-.595c1.213-1.191,1.766-3.42,1.438-4.1-.463-.965-1.61-2.206-.463-2.389s3.447-3.309,3.447-3.309c.319,1.092,3.4,2.9,6.618,2.9a8.807,8.807,0,0,0,5.488-2.185V708.05h-17.38S6650.2,716.682,6650.432,719.3Z" transform="translate(11.679 3.259)" opacity="0.25" style="mix-blend-mode: overlay;isolation: isolate"/>
    <path id="Trazado_16622" data-name="Trazado 16622" d="M6657.489,711.081s4.3,7.216,12.369,0l-.234,5.072s5.666-1.735,4.347-7.167-7.373-4.655-7.373-4.655,2.014-3.012-3.237-3.522a8.992,8.992,0,0,0-6.617,2.513,9.2,9.2,0,0,0-4.812.258c-2.869,1.119-5.786,4.766-6.151,9.9a12.56,12.56,0,0,0,1.471,6.936,6.76,6.76,0,0,0,2.34,2.346,32.466,32.466,0,0,0,3.095,1.483s1.963-4.934,1.109-5.787-1.617-1.4-1.526-2.716S6657.3,713.564,6657.489,711.081Z" transform="translate(9.762 0.229)" fill="#dfeb7f"/>
    <g id="Grupo_7666" data-name="Grupo 7666" transform="translate(6703.59 810.697)">
      <rect id="Rectángulo_1550" data-name="Rectángulo 1550" width="3.42" height="34.577" rx="0.87" transform="translate(7.792 34.577) rotate(180)"/>
      <rect id="Rectángulo_1551" data-name="Rectángulo 1551" width="28.35" height="81.121" rx="2.069" transform="translate(28.351 114.45) rotate(180)" fill="#8babf2"/>
      <path id="Trazado_16623" data-name="Trazado 16623" d="M6695.564,803.077a5.7,5.7,0,0,0,5.62,5.773,1.682,1.682,0,0,0,.238-.011v-3.824a3.241,3.241,0,0,0-3.2-3.285h-2.509A6.046,6.046,0,0,0,6695.564,803.077Z" transform="translate(-6673.071 -768.404)"/>
      <path id="Trazado_16624" data-name="Trazado 16624" d="M6679.687,805.015v3.824a2.42,2.42,0,0,0,.286.011,5.693,5.693,0,0,0,5.616-5.773,6.046,6.046,0,0,0-.154-1.347h-2.549A3.245,3.245,0,0,0,6679.687,805.015Z" transform="translate(-6679.687 -768.404)"/>
      <path id="Trazado_16625" data-name="Trazado 16625" d="M6695.564,859.467a5.931,5.931,0,0,0,.26,1.733h2.4a3.236,3.236,0,0,0,3.2-3.28v-4.213a1.682,1.682,0,0,0-.238-.011A5.7,5.7,0,0,0,6695.564,859.467Z" transform="translate(-6673.071 -746.751)"/>
      <path id="Trazado_16626" data-name="Trazado 16626" d="M6679.687,853.706v4.213a3.24,3.24,0,0,0,3.2,3.28h2.443a5.931,5.931,0,0,0,.26-1.733,5.692,5.692,0,0,0-5.616-5.772A2.42,2.42,0,0,0,6679.687,853.706Z" transform="translate(-6679.687 -746.751)"/>
      <g id="Grupo_7663" data-name="Grupo 7663" transform="translate(13.885 37.951)">
        <rect id="Rectángulo_1552" data-name="Rectángulo 1552" width="0.584" height="72.156" fill="#160c0c"/>
      </g>
      <g id="Grupo_7664" data-name="Grupo 7664" transform="translate(16.309 37.951)">
        <rect id="Rectángulo_1553" data-name="Rectángulo 1553" width="0.584" height="72.156" fill="#160c0c"/>
      </g>
      <g id="Grupo_7665" data-name="Grupo 7665" transform="translate(11.252 37.951)">
        <rect id="Rectángulo_1554" data-name="Rectángulo 1554" width="0.584" height="72.156" fill="#160c0c"/>
      </g>
    </g>
    <g id="Grupo_7669" data-name="Grupo 7669" transform="translate(6622.322 803.994)">
      <path id="Trazado_16627" data-name="Trazado 16627" d="M6676.062,789.745a33.472,33.472,0,0,1-2.889,11.833,48.288,48.288,0,0,1-4.96,8.846c-1.143,1.582-2.668,3.783-4.634,4.411a19.037,19.037,0,0,1-.688-6.733c.053-1.429.192-2.988.415-4.657.273-2.112.684-4.4,1.207-6.821,1.757-8.069,9.623-18.007,9.623-18.007.028.041.059.077.087.118C6676.16,781.324,6676.189,786.752,6676.062,789.745Z" transform="translate(-6605.429 -771.331)" fill="#510400"/>
      <path id="Trazado_16628" data-name="Trazado 16628" d="M6691.029,780.76a70.195,70.195,0,0,0-7.568,12.2,28.553,28.553,0,0,0-2.055,5.806c-1.761,8.071-2.176,14.694-.934,18.211-4.55,1.448-28.558,3.723-43.454-2.485-4.533-1.891-9.2-4.324-11.821-8.649a18.144,18.144,0,0,1-1.156-2.251,21.718,21.718,0,0,1-1.581-6.209,22.169,22.169,0,0,1,5.45-17.307,29.348,29.348,0,0,1,5.683-4.954c1.011-.659,2.737-1.9,4.045-1.6a134.1,134.1,0,0,0,33.523,4.142c7.981-.093,12.848.584,15.766,1.33C6690.212,779.832,6691.029,780.76,6691.029,780.76Z" transform="translate(-6622.322 -773.474)" fill="#510400"/>
      <path id="Trazado_16629" data-name="Trazado 16629" d="M6633.013,793.983c2.351,2.719,5.773,3.4,9.153,3.962a126.323,126.323,0,0,0,16.187,1.633c3.708.13,8.954.673,12.338-1.261,5.313-3.032,15.675-15.507,16.317-16.283l.03-.037s-2.905-3.307-19.864-3.1a134.333,134.333,0,0,1-33.524-4.138,2.327,2.327,0,0,0-1.037.031,19.263,19.263,0,0,0-2.377,3.383C6627.7,782.814,6629.72,790.171,6633.013,793.983Z" transform="translate(-6619.501 -772.958)" opacity="0.13" style="mix-blend-mode: overlay;isolation: isolate"/>
      <path id="Trazado_16630" data-name="Trazado 16630" d="M6687.864,780.759a.333.333,0,0,1-.035.041c-.642.776-11,13.252-16.316,16.28-3.384,1.937-8.63,1.394-12.34,1.261a126.61,126.61,0,0,1-16.182-1.629c-3.385-.56-6.8-1.248-9.154-3.967-3.291-3.811-5.316-11.169-2.778-15.809a19.419,19.419,0,0,1,2.374-3.384,2.342,2.342,0,0,1,1.04-.034,133.989,133.989,0,0,0,33.471,4.142H6668c2.438-.028,4.592.011,6.482.111C6685.733,778.338,6687.864,780.759,6687.864,780.759Z" transform="translate(-6619.157 -773.474)" fill="#3d0200"/>
      <g id="Grupo_7667" data-name="Grupo 7667" transform="translate(21.892 4.179)">
        <path id="Trazado_16631" data-name="Trazado 16631" d="M6652.908,786.3a19.464,19.464,0,0,1-12.243-4.553,7.554,7.554,0,0,1-2.891-5.307l.583-.013a7.008,7.008,0,0,0,2.7,4.885,18.944,18.944,0,0,0,13.089,4.351c6.724-.6,13.218-7.011,13.281-7.075l.414.412c-.271.271-6.71,6.62-13.643,7.244C6653.773,786.278,6653.343,786.3,6652.908,786.3Z" transform="translate(-6637.774 -776.424)" fill="#603111"/>
      </g>
      <g id="Grupo_7668" data-name="Grupo 7668" transform="translate(21.892 4.399)">
        <path id="Trazado_16632" data-name="Trazado 16632" d="M6652.908,786.452a19.465,19.465,0,0,1-12.243-4.553,7.554,7.554,0,0,1-2.891-5.307l.583-.013a7.009,7.009,0,0,0,2.7,4.885,18.944,18.944,0,0,0,13.089,4.351c6.724-.6,13.218-7.011,13.281-7.075l.414.412c-.271.271-6.71,6.62-13.643,7.244C6653.773,786.433,6653.343,786.452,6652.908,786.452Z" transform="translate(-6637.774 -776.579)" fill="#773204"/>
      </g>
      <path id="Trazado_16633" data-name="Trazado 16633" d="M6642.993,789.223c0,.772,1.477,1.784,3.3,1.784s3.3-1.011,3.3-1.784-1.478-.813-3.3-.813S6642.993,788.453,6642.993,789.223Z" transform="translate(-6613.708 -767.251)" opacity="0.25" style="mix-blend-mode: overlay;isolation: isolate"/>
      <ellipse id="Elipse_727" data-name="Elipse 727" cx="3.298" cy="1.397" rx="3.298" ry="1.397" transform="translate(29.284 20.576)" fill="#ffc543"/>
      <path id="Trazado_16634" data-name="Trazado 16634" d="M6663.373,776.541c-.157.672-.684,3.547-2.5,3.722-2.061.2-5.343-.164-3.983-3.832v.584C6659.328,776.984,6661.482,776.441,6663.373,776.541Z" transform="translate(-6608.051 -772.242)" opacity="0.25" style="mix-blend-mode: overlay;isolation: isolate"/>
      <path id="Trazado_16635" data-name="Trazado 16635" d="M6663.356,776.543c-.157.672-.864,3.192-2.679,3.367-2.061.2-4.866-.344-3.856-3.478h.053C6659.312,776.4,6661.466,776.444,6663.356,776.543Z" transform="translate(-6608.035 -772.245)" fill="#ffc543"/>
      <path id="Trazado_16636" data-name="Trazado 16636" d="M6643.359,775.557s-.745,3.278-3.434,3.573c-2.093.229-4.619-1.146-2.7-4.727Z" transform="translate(-6616.396 -773.087)" opacity="0.25" style="mix-blend-mode: overlay;isolation: isolate"/>
      <path id="Trazado_16637" data-name="Trazado 16637" d="M6643.292,775.557s-1.333,3.2-3.434,3.063-4.062-1.217-2.7-4.217Z" transform="translate(-6616.328 -773.087)" fill="#ffc543"/>
      <path id="Trazado_16638" data-name="Trazado 16638" d="M6676.062,789.71a33.472,33.472,0,0,1-2.889,11.833,48.288,48.288,0,0,1-4.96,8.846c-1.143,1.582-2.668,3.783-4.634,4.411a19.037,19.037,0,0,1-.688-6.733c.3.181,2.709,2.118,5.152-.851,2.072-2.515,6.787-17.944,6.419-24.286-.11-1.944-.187-3.3-.239-4.23C6676.16,781.29,6676.189,786.717,6676.062,789.71Z" transform="translate(-6605.429 -771.296)" opacity="0.13" style="mix-blend-mode: overlay;isolation: isolate"/>
      <path id="Trazado_16639" data-name="Trazado 16639" d="M6680.9,793.036c-1.761,8.071-2.176,14.694-.934,18.211-4.55,1.448-28.558,3.723-43.454-2.485-4.533-1.891-9.2-4.324-11.821-8.649a18.144,18.144,0,0,1-1.156-2.251v-.007s13.252,12.354,41.553,10.913c16.507-.842,10.591-6.215,13.653-13.975a30.106,30.106,0,0,1,4.214-7.562A28.553,28.553,0,0,0,6680.9,793.036Z" transform="translate(-6621.816 -767.742)" opacity="0.13" style="mix-blend-mode: overlay;isolation: isolate"/>
    </g>
    <path id="Trazado_16640" data-name="Trazado 16640" d="M6655.811,861.591l10.822,1.527,2.438.067.469.011s-.133-.154-.363-.442c-1.838-2.288-9.968-13.121-8.323-23.9,1.847-12.13,3.5-29.8-.216-33.52,1.633,4.893,1.191,10.286.568,15.626-.927,7.921-2.621,15.727-3.58,23.641C6656.94,850.256,6656.323,855.92,6655.811,861.591Z" transform="translate(13.955 43.796)" opacity="0.25" style="mix-blend-mode: overlay;isolation: isolate"/>
    <path id="Trazado_16641" data-name="Trazado 16641" d="M6670.024,846.823c-.772-.174-13.314-2.828-14.509-2.039s-1.076,4.7-.152,4.812,11.877,1.959,13.552,1.7S6670.86,847.011,6670.024,846.823Z" transform="translate(13.469 60.172)" fill="#5fa365"/>
    <path id="Trazado_16642" data-name="Trazado 16642" d="M6640.463,804.564c.044,1.319.1,2.653.171,4.011a483.05,483.05,0,0,0,5.588,53.338h12.1C6648.687,856.573,6640.711,806.136,6640.463,804.564Z" transform="translate(7.559 43.475)" opacity="0.25" style="mix-blend-mode: overlay;isolation: isolate"/>
    <path id="Trazado_16643" data-name="Trazado 16643" d="M6649.919,715.041a1.8,1.8,0,0,0,1.646.975c1.13.067,2.355-.448,2.277-.65-.117-.324,0-4.052,0-4.052l-.011-.017c-.135-.173-1.349-1.74-2.5-1.315C6650.12,710.424,6649.106,713.262,6649.919,715.041Z" transform="translate(11.378 4.034)" fill="#ff9e6a"/>
    <path id="Trazado_16644" data-name="Trazado 16644" d="M6649.919,715.041a1.8,1.8,0,0,0,1.646.975s-1.851-.99-1.034-4.124c.429-1.648,3.312-.578,3.312-.578l-.011-.017c-.135-.173-1.349-1.74-2.5-1.315C6650.12,710.424,6649.106,713.262,6649.919,715.041Z" transform="translate(11.378 4.034)" opacity="0.25" style="mix-blend-mode: overlay;isolation: isolate"/>
    <g id="Grupo_7670" data-name="Grupo 7670" transform="translate(6651.46 735.382)">
      <path id="Trazado_16645" data-name="Trazado 16645" d="M6682.195,800.381l-1.167-.047c.013-.228.474-12.423-.18-25.33-.578-11.356-2.026-23.265-5.41-28.062-12.533-17.785-23.188-24.052-32.548-19.122a3.348,3.348,0,0,1,.693-.8,26.935,26.935,0,0,1,2.266-1.57,15.7,15.7,0,0,1,9.959,1.021,24.207,24.207,0,0,1,3.023,1.54c8.059,4.778,14.629,14.092,17.564,18.258,2.889,4.1,4.417,12.872,5.2,22.191A294.293,294.293,0,0,1,6682.195,800.381Z" transform="translate(-6642.89 -725.042)" fill="#874c23"/>
    </g>
    <path id="Trazado_16646" data-name="Trazado 16646" d="M6667.1,755.867s2.486-4.338,2.641-7.364,1.553-4.423,1.707-5.82-2.161-5.2-4.571-5.351a3.328,3.328,0,0,0-3.5,3.488c0,1.553.7,9.157-1.475,9.932S6666.018,758,6667.1,755.867Z" transform="translate(16.303 15.457)" fill="#ff9e6a"/>
    <path id="Trazado_16647" data-name="Trazado 16647" d="M6660.187,740.464c-.462,1.513-1.235,2.975-1.8,4.419a62.374,62.374,0,0,0-3,9.58c-.509,2.384.212,4.546,3,3.512,2.637-.977,5.382-1.871,8.071-2.741,1.687-.547,4.409-1.7,6.174-.857,3.075,1.465,4.32,2.713,4.175,4.178-.176,1.752-1.858,3.736-3.034,4.957-3.187,3.312-8.083,4.645-12.268,6.222-6.925,2.608-20.158,5.912-22.286-4.026-.806-3.767-.521-7.252-.356-11.071a46.347,46.347,0,0,1,4.464-18.931c1.728-3.416,4.353-6.623,8.51-6.517,4.262.109,7.833,3.666,8.631,7.731A7.206,7.206,0,0,1,6660.187,740.464Z" transform="translate(6.817 12.066)" fill="#5fa365"/>
    <g id="Grupo_7671" data-name="Grupo 7671" transform="translate(6651.574 769.164)" opacity="0.25" style="mix-blend-mode: overlay;isolation: isolate">
      <path id="Trazado_16648" data-name="Trazado 16648" d="M6650.583,749.406a9.335,9.335,0,0,0-4.264,1.251,10.5,10.5,0,0,0-1.725,1.343,4.387,4.387,0,0,0-.4.4l-.406.414c-.264.288-.51.595-.818.881a8.079,8.079,0,0,1,.334-1.187,7.1,7.1,0,0,1,.592-1.094,5.931,5.931,0,0,1,1.824-1.759,5.392,5.392,0,0,1,2.438-.758A4.3,4.3,0,0,1,6650.583,749.406Z" transform="translate(-6642.97 -748.888)"/>
    </g>
    <g id="Grupo_7672" data-name="Grupo 7672" transform="translate(6655.55 770.607)" opacity="0.25" style="mix-blend-mode: overlay;isolation: isolate">
      <path id="Trazado_16649" data-name="Trazado 16649" d="M6651.057,749.92a9.344,9.344,0,0,0-3.332,2.938,10.616,10.616,0,0,0-.994,1.948,4.3,4.3,0,0,0-.191.534l-.192.547c-.117.371-.212.754-.37,1.145a8.218,8.218,0,0,1-.2-1.217,6.983,6.983,0,0,1,.073-1.241,5.909,5.909,0,0,1,.907-2.367,5.4,5.4,0,0,1,1.887-1.718A4.3,4.3,0,0,1,6651.057,749.92Z" transform="translate(-6645.777 -749.907)"/>
    </g>
    <path id="Trazado_16650" data-name="Trazado 16650" d="M6657.285,703.35a6.868,6.868,0,0,0-5.055-.647,8.06,8.06,0,0,0-4.3,2.916,12.324,12.324,0,0,0-2.292,4.8,15.055,15.055,0,0,0-.324,5.359,15.156,15.156,0,0,1,.183-5.393,12.537,12.537,0,0,1,2.2-4.948,9.706,9.706,0,0,1,1.938-1.942,7.82,7.82,0,0,1,2.48-1.216,7.381,7.381,0,0,1,5.445.555Z" transform="translate(9.514 0.739)" fill="#dfeb7f"/>
    <path id="Trazado_16651" data-name="Trazado 16651" d="M6653.071,703.831a9.221,9.221,0,0,1,4.779-3.316,8.669,8.669,0,0,1,2.9-.259,4.417,4.417,0,0,1,2.666,1.024,4.344,4.344,0,0,0-2.675-.878,8.437,8.437,0,0,0-2.811.392,8.8,8.8,0,0,0-4.394,3.382Z" transform="translate(12.812 0)" fill="#dfeb7f"/>
  </g>
</svg>
