<svg xmlns="http://www.w3.org/2000/svg" width="103.269" height="207.979" viewBox="0 0 103.269 207.979">
  <g id="Grupo_7686" data-name="Grupo 7686" transform="translate(-6698.972 -708.05)">
    <g id="Grupo_7676" data-name="Grupo 7676" transform="translate(6779.871 793.405)">
      <path id="Trazado_16652" data-name="Trazado 16652" d="M6772.428,775.425l1.54-1.378v-.014c-.162-.109-3.571-2.754-3.858-2.946a4.7,4.7,0,0,0-3.763-.5l-.724.259-3.521-.9c-1.4,2.873-2.8,5.775-4.351,8.556,1.56.841,3.373,1.742,3.542,1.917l-.088.822,3.354,3.491a1.07,1.07,0,0,0,.272-.709l.11.313a1.475,1.475,0,0,0,.735.805,1.383,1.383,0,0,0,1.091.04l.586-.2a1.538,1.538,0,0,0,1.009-1.487l.3.805a1.368,1.368,0,0,0,.149.286,21.81,21.81,0,0,0,2.92-2.113c.012,0,.026-.014.04-.041.955-.778,1.869-1.637,2.81-2.564.342-.328.683-.683,1.037-1.037Z" transform="translate(-6757.585 -769.94)" fill="#e6b07c"/>
      <g id="Grupo_7674" data-name="Grupo 7674" transform="translate(0 5.933)">
        <path id="Trazado_16653" data-name="Trazado 16653" d="M6760.028,787.732a2.4,2.4,0,0,0,2.4-2.4,6.452,6.452,0,0,1,11.457-3.879c1.212,1.585,1.306,3.368,1.313,5.908q.013,7.019,0,14.04l0,89.168h4.8l0-89.166q.007-7.025,0-14.052c-.006-2.459-.015-5.826-2.3-8.814a11.247,11.247,0,0,0-20.062,6.8A2.4,2.4,0,0,0,6760.028,787.732Z" transform="translate(-6757.631 -774.242)" fill="#323031"/>
      </g>
      <g id="Grupo_7675" data-name="Grupo 7675" transform="translate(3.465 7.26)">
        <path id="Trazado_16654" data-name="Trazado 16654" d="M6767.131,777.5a1.635,1.635,0,0,1,.977-2.095l.283-.1a1.634,1.634,0,0,1,2.1.976l1.13,3.108a1.526,1.526,0,0,1-.912,1.956l-.582.212a1.424,1.424,0,0,1-1.826-.852Z" transform="translate(-6757.532 -775.204)" fill="#ffc78c"/>
        <path id="Trazado_16655" data-name="Trazado 16655" d="M6769.383,781.89a1.53,1.53,0,0,1-.873.805l-.573.2a1.431,1.431,0,0,1-1.677-.532,1.371,1.371,0,0,1-.149-.285l-.3-.805-1.213-3.191a1.594,1.594,0,0,1,.042-1.255,1.6,1.6,0,0,1,.926-.859l.272-.109a1.639,1.639,0,0,1,2.087.956l.163.45.027.054,1.1,2.892.192.5a.3.3,0,0,1,.026.109A1.428,1.428,0,0,1,6769.383,781.89Z" transform="translate(-6758.498 -774.991)" fill="#ffc78c"/>
        <path id="Trazado_16656" data-name="Trazado 16656" d="M6766.731,781.041a1.537,1.537,0,0,1-1.009,1.487l-.586.2a1.385,1.385,0,0,1-1.092-.04,1.474,1.474,0,0,1-.735-.805l-.11-.313-1.048-2.892a.942.942,0,0,1-.056-.218,1.626,1.626,0,0,1,1.023-1.881l.285-.1a1.627,1.627,0,0,1,2.006.778,1.363,1.363,0,0,1,.095.2l1.132,3.1A1.846,1.846,0,0,1,6766.731,781.041Z" transform="translate(-6759.419 -774.757)" fill="#ffc78c"/>
        <path id="Trazado_16657" data-name="Trazado 16657" d="M6763.924,781.138a1.07,1.07,0,0,1-.272.709,1.191,1.191,0,0,1-.572.41l-.478.177a1.143,1.143,0,0,1-1.486-.628l-.9-2.455a1.2,1.2,0,0,1,.083-.994,1.418,1.418,0,0,1,.763-.641l.231-.1a1.341,1.341,0,0,1,1.528.408,1.446,1.446,0,0,1,.178.314l.86,2.386A1.1,1.1,0,0,1,6763.924,781.138Z" transform="translate(-6760.144 -774.321)" fill="#ffc78c"/>
      </g>
      <path id="Trazado_16658" data-name="Trazado 16658" d="M6773.849,777.522l-.1-2.714a1.147,1.147,0,0,0-.328-.764l0,0c-.161-.12-3.567-2.765-3.856-2.949a4.713,4.713,0,0,0-3.758-.508l-.726.255-3.525-.9c-.773,1.585-1.545,3.179-2.342,4.758l2.387.732c3.1,4.089,7.812.441,7.812.441l.459.342a.935.935,0,0,1,.367.708l.036,1.426a2.2,2.2,0,0,0,2.314,2.1l.343-.018a1.045,1.045,0,0,0,.992-1.089Z" transform="translate(-6757.035 -769.94)" fill="#ffc78c"/>
    </g>
    <path id="Rectángulo_1555" data-name="Rectángulo 1555" d="M5.278,0H9.43a5.28,5.28,0,0,1,5.28,5.28v31.11a5.278,5.278,0,0,1-5.278,5.278H5.281A5.281,5.281,0,0,1,0,36.386V5.278A5.278,5.278,0,0,1,5.278,0Z" transform="translate(6741.343 752.29) rotate(-19.106)" fill="#094d61"/>
    <path id="Trazado_16659" data-name="Trazado 16659" d="M6770.919,773.565l-22.051-15.209a7.282,7.282,0,0,0-10,2.463l-.077.125a7.282,7.282,0,0,0,2.462,10l23.192,14.027C6764.756,785.157,6770.582,774.285,6770.919,773.565Z" transform="translate(14.699 18.674)" fill="#094d61"/>
    <g id="Grupo_7678" data-name="Grupo 7678" transform="translate(6743.052 903.573)">
      <path id="Trazado_16660" data-name="Trazado 16660" d="M6737.375,859.167c-2.271.123-4.687.265-6.44-.664v-1.488l6.795-.844Z" transform="translate(-6730.935 -847.414)" fill="#30302f"/>
      <g id="Grupo_7677" data-name="Grupo 7677">
        <path id="Trazado_16661" data-name="Trazado 16661" d="M6730.935,857.422c12.072,3.206,21.043,3.594,26.045,1.746l.158-1.891-26.007-2.18Z" transform="translate(-6730.935 -847.821)" fill="#30302f"/>
        <path id="Trazado_16662" data-name="Trazado 16662" d="M6731.034,857.81c3.811,2.345,23.924,3.72,26.063,1.466,0-4.277-8.784-2.179-14.552-7.141C6734.542,845.25,6731.2,855.721,6731.034,857.81Z" transform="translate(-6730.896 -849.821)" fill="#1d1d1b"/>
      </g>
    </g>
    <path id="Trazado_16663" data-name="Trazado 16663" d="M6742.631,847.083l-.17.021a8.476,8.476,0,0,1-9.425-7.406l-4.369-51.407,17-2.04,4.369,51.408A8.478,8.478,0,0,1,6742.631,847.083Z" transform="translate(11.259 29.649)" fill="#212020"/>
    <path id="Trazado_16664" data-name="Trazado 16664" d="M6741.777,819.058l.17.014a8.475,8.475,0,0,1,7.746,9.146l-3.028,36.539-17.064,4.5,3.029-42.45A8.474,8.474,0,0,1,6741.777,819.058Z" transform="translate(11.614 42.076)" fill="#212020"/>
    <path id="Trazado_16665" data-name="Trazado 16665" d="M6755.926,794.51c-.027.615-.054,1.256-.1,1.9a81.394,81.394,0,0,1-25.445,5.539,57.628,57.628,0,0,1-19.083-2.274l-.085-2.357-.793-20.563-1.033-26.811c1.494-11.272,12.485-24.594,25.542-24.594h.461c10.1,0,18.191,9.18,17.786,20.214C6752.481,764.282,6756.834,773.628,6755.926,794.51Z" transform="translate(3.95 6.558)" fill="#187e89"/>
    <g id="Grupo_7680" data-name="Grupo 7680" transform="translate(6721.919 903.572)">
      <path id="Trazado_16666" data-name="Trazado 16666" d="M6722.405,856.172l-.112.949-.168,1.423-.068.628c-.391.014-.768.041-1.159.055a10.633,10.633,0,0,1-5.286-.726v-1.492l3.6-.447h.015l1.34-.167Z" transform="translate(-6715.611 -847.413)" fill="#3c3c3b"/>
      <g id="Grupo_7679" data-name="Grupo 7679">
        <path id="Trazado_16667" data-name="Trazado 16667" d="M6741.822,857.276l-.167,1.9c-4.046,1.494-10.714,1.521-19.53-.222l-1.34-.294c-1.658-.349-3.374-.767-5.174-1.241l.139-1.6c0-.057.015-.1.015-.168l.041-.543h.057l4.562.39Z" transform="translate(-6715.611 -847.82)" fill="#3c3c3b"/>
        <path id="Trazado_16668" data-name="Trazado 16668" d="M6741.784,859.278c-1.535,1.6-12.165,1.367-19.529.251-.586-.084-1.158-.182-1.688-.28-.487-.083-.948-.181-1.38-.279h-.015a12.793,12.793,0,0,1-3.459-1.157c0-.057.014-.1.014-.168.028-.153.057-.334.1-.543.014-.028.014-.057.027-.084.391-1.771,1.661-5.063,3.976-6.5,1.8-1.116,4.241-1.1,7.394,1.618a13.769,13.769,0,0,0,1.953,1.381C6734.782,856.725,6741.784,855.455,6741.784,859.278Z" transform="translate(-6715.572 -849.821)" fill="#1d1d1b"/>
      </g>
    </g>
    <path id="Trazado_16669" data-name="Trazado 16669" d="M6732.608,803.453a48.24,48.24,0,0,1-8.371-.237c-.53-.043-1.072-.112-1.617-.182a11.7,11.7,0,0,1-7.574-4.031c-6.138-7.129-4.519-20.924-4.519-20.924.11.084.221.153.332.224,4.994,3.557,12.124,4.506,19.5,3.975a73.487,73.487,0,0,0,25.206-6.78S6759.154,801.792,6732.608,803.453Z" transform="translate(4.307 25.571)" fill="#323031"/>
    <path id="Trazado_16670" data-name="Trazado 16670" d="M6734.73,839.425a.02.02,0,0,1,0,.028,8.473,8.473,0,0,1-7.421,7.631l-.167.014a8.3,8.3,0,0,1-4.2-.572,8.426,8.426,0,0,1-5.23-6.821l-.042-.474v-.014l-3.767-44.29-.558-6.641,12.471-1.492,4.533-.543,1.116,13.127,3.25,38.278A7.471,7.471,0,0,1,6734.73,839.425Z" transform="translate(5.449 29.648)" fill="#323031"/>
    <path id="Trazado_16671" data-name="Trazado 16671" d="M6734.374,828.224l-3.028,36.535-1.63.432-8.943,2.358-4.38,1.143-2.106.558,3.028-42.45v-.014a8.451,8.451,0,0,1,7.49-7.7,7.976,7.976,0,0,1,1.646-.028l.181.014a8.462,8.462,0,0,1,7.743,7.923.02.02,0,0,1,0,.027A6.984,6.984,0,0,1,6734.374,828.224Z" transform="translate(5.806 42.077)" fill="#323031"/>
    <path id="Trazado_16672" data-name="Trazado 16672" d="M6743.271,757.615l-19.628-26.884,17.646.822Z" transform="translate(9.353 8.599)" fill="#094d61"/>
    <g id="Grupo_7683" data-name="Grupo 7683" transform="translate(6724.717 708.05)">
      <g id="Grupo_7681" data-name="Grupo 7681" transform="translate(27.744 13.16)">
        <path id="Trazado_16673" data-name="Trazado 16673" d="M6741.094,717.791c-.036-.018-.072-.028-.106-.044a2.308,2.308,0,0,0-2.492.626l-.739,9.164a2.062,2.062,0,0,0,.251.156c1.547.793,3.494-.781,4.345-3.515S6742.642,718.584,6741.094,717.791Z" transform="translate(-6737.757 -717.592)" fill="#ffc78c"/>
      </g>
      <path id="Trazado_16674" data-name="Trazado 16674" d="M6740.824,723.285a18.148,18.148,0,0,0,1.348-3.062,15.164,15.164,0,0,0,.03-3.656c-.8-4.6-3.02-5.181-4-5.027.258.9,2.026,2.424,1.565,3.178a2.255,2.255,0,0,1-1.145.965,1.173,1.173,0,0,0-.544,1.35,33.725,33.725,0,0,1,.289,11.775c.507.56,1.354.21,1.738-.5a5.334,5.334,0,0,0,.435-2.487A7.389,7.389,0,0,1,6740.824,723.285Z" transform="translate(-6709.902 -706.735)" fill="#ededed"/>
      <path id="Trazado_16675" data-name="Trazado 16675" d="M6746.083,728.545a12.911,12.911,0,0,1,.637-3.868,15.989,15.989,0,0,0,.755-4.751c0-7.649-6.084-11.876-13.59-11.876s-13.588,4.227-13.588,11.876a16.612,16.612,0,0,0,1.4,6.492c-.021.17-.046.341-.059.51a23.24,23.24,0,0,0,3.653,12.634c2.151,2.91,3.4,1.466,6.549,3.344,2.217,1.324,6.328,1.216,7.917-.441s2.947-1.407,3.981-3.12C6745.337,736.7,6746.087,733.091,6746.083,728.545Z" transform="translate(-6716.634 -708.05)" fill="#ffc78c"/>
      <path id="Trazado_16676" data-name="Trazado 16676" d="M6721.512,723.16c-.273-.56-1.653-2.322-1.739-3.062-.119-1.019-.039-2.473-.039-3.656,0-4.271,1.446-4.724,2.71-4.57a2.8,2.8,0,0,0,1.911,3.686,1.087,1.087,0,0,1,.7,1.35,26.286,26.286,0,0,0-.372,11.775,1.625,1.625,0,0,1-2.246-.5,4.315,4.315,0,0,1-.561-2.487A5.825,5.825,0,0,0,6721.512,723.16Z" transform="translate(-6716.856 -706.61)" fill="#ededed"/>
      <g id="Grupo_7682" data-name="Grupo 7682" transform="translate(0 13.476)">
        <path id="Trazado_16677" data-name="Trazado 16677" d="M6719.426,718c.039-.017.08-.026.12-.041a2.886,2.886,0,0,1,2.819.681l1.03,9.214a2.418,2.418,0,0,1-.28.15c-1.727.763-3.951-.859-4.97-3.622S6717.7,718.766,6719.426,718Z" transform="translate(-6717.641 -717.821)" fill="#ffc78c"/>
      </g>
    </g>
    <path id="Trazado_16678" data-name="Trazado 16678" d="M6730.8,793.766c-.126.237-.251.488-.362.739-.126.21-.224.433-.336.656a60.473,60.473,0,0,0-3.068,7.937,77.913,77.913,0,0,0-2.722,12.346,78.764,78.764,0,0,0,2.065,32.377,54.441,54.441,0,0,0,2.037,5.817,25,25,0,0,0-4.255,9.192c-1.966,7.171-2.8,17-2.218,28.1.1,1.757.224,3.543.4,5.357.027.53.084,1.074.153,1.618.028.433.084.865.141,1.312,0,.139.027.292.04.445.056.461.112.935.182,1.41.029.321.07.641.112.976a10.631,10.631,0,0,1-5.286-.725v-1.492l.138-1.6c0-.057.015-.1.015-.168l.041-.543h.057c.015-.028.015-.057.027-.084l-2.105.558,3.027-42.45v-.014l-3.767-44.29c-6.139-7.129-4.519-20.924-4.519-20.924.11.084.222.153.332.224l-.793-20.563,11.885-26.728C6721.145,761.529,6722.652,779.873,6730.8,793.766Z" transform="translate(4.234 13.342)" fill="#1d1d1b" opacity="0.2"/>
    <g id="Grupo_7684" data-name="Grupo 7684" transform="translate(6709.488 800.485)">
      <path id="Trazado_16679" data-name="Trazado 16679" d="M6713.213,779.453l.027-.018a1.619,1.619,0,0,1,2.292.639,50.611,50.611,0,0,0,6.546,8.682,1.726,1.726,0,0,1-.037,2.371l-.023.023a1.608,1.608,0,0,1-2.355-.048,53.868,53.868,0,0,1-6.921-9.062A1.951,1.951,0,0,1,6713.213,779.453Z" transform="translate(-6704.378 -773.516)" fill="#e6b07c"/>
      <path id="Trazado_16680" data-name="Trazado 16680" d="M6714.67,781.794l.03-.007a1.536,1.536,0,0,1,1.88,1.092l3.19,12.023a1.537,1.537,0,0,1-1.092,1.881l-.029.008a1.539,1.539,0,0,1-1.882-1.092l-3.19-12.025A1.539,1.539,0,0,1,6714.67,781.794Z" transform="translate(-6703.97 -772.548)" fill="#ffc78c"/>
      <path id="Trazado_16681" data-name="Trazado 16681" d="M6712.763,783.338l.031-.008a1.587,1.587,0,0,1,1.971,1.069l3.19,12.023a1.586,1.586,0,0,1-1.182,1.9l-.031.01a1.588,1.588,0,0,1-1.972-1.069l-3.189-12.025A1.587,1.587,0,0,1,6712.763,783.338Z" transform="translate(-6704.727 -771.966)" fill="#ffc78c"/>
      <path id="Trazado_16682" data-name="Trazado 16682" d="M6710.278,783.123l.031-.008a1.555,1.555,0,0,1,1.912,1.086l3.188,12.023a1.552,1.552,0,0,1-1.122,1.888l-.03.008a1.554,1.554,0,0,1-1.911-1.084l-3.19-12.023A1.554,1.554,0,0,1,6710.278,783.123Z" transform="translate(-6705.646 -772.046)" fill="#ffc78c"/>
      <path id="Trazado_16683" data-name="Trazado 16683" d="M6708.473,784.493l.028-.008a1.366,1.366,0,0,1,1.67.971l2.067,8.029a1.365,1.365,0,0,1-.97,1.67l-.027.008a1.366,1.366,0,0,1-1.67-.971l-2.068-8.029A1.365,1.365,0,0,1,6708.473,784.493Z" transform="translate(-6706.27 -771.523)" fill="#ffc78c"/>
      <rect id="Rectángulo_1556" data-name="Rectángulo 1556" width="7.93" height="8.226" transform="matrix(0.967, -0.256, 0.256, 0.967, 0, 2.033)" fill="#ffc994"/>
      <path id="Trazado_16684" data-name="Trazado 16684" d="M6710.038,791.673l.026-.007a1.367,1.367,0,0,0,.969-1.672l.128.484a1.537,1.537,0,0,0,1.88,1.092l.031-.008a1.538,1.538,0,0,0,1.092-1.881l.12.448a1.536,1.536,0,0,0,1.88,1.092l.029-.008a1.538,1.538,0,0,1,2.973-.789l.031-.007a1.538,1.538,0,0,0,1.092-1.881l-.81-3.049-.144-.542-.805-3.035A4.524,4.524,0,0,0,6713,778.7l-2.928.776a4.526,4.526,0,0,0-3.214,5.534l.805,3.036.144.542.561,2.117A1.368,1.368,0,0,0,6710.038,791.673Z" transform="translate(-6706.557 -773.758)" fill="#ffc78c"/>
    </g>
    <g id="Grupo_7685" data-name="Grupo 7685" transform="translate(6698.972 744.302)">
      <path id="Rectángulo_1557" data-name="Rectángulo 1557" d="M5.281,0H36.388a5.279,5.279,0,0,1,5.279,5.279V9.429a5.281,5.281,0,0,1-5.281,5.281H5.28A5.28,5.28,0,0,1,0,9.43V5.281A5.281,5.281,0,0,1,5.281,0Z" transform="translate(0 37.316) rotate(-63.583)" fill="#094d61"/>
      <path id="Trazado_16685" data-name="Trazado 16685" d="M6707.583,792.417l12.406-4.455-5.046-27.723a7.281,7.281,0,0,0-8.534-5.762l-.144.028a7.281,7.281,0,0,0-5.764,8.534Z" transform="translate(-6698.442 -726.75)" fill="#094d61"/>
    </g>
  </g>
</svg>
