<svg xmlns="http://www.w3.org/2000/svg" width="144.082" height="216.827" viewBox="0 0 144.082 216.827">
  <g id="Grupo_7702" data-name="Grupo 7702" transform="translate(-6754.538 -700.228)">
    <path id="Trazado_16686" data-name="Trazado 16686" d="M6817.17,701.489l-.1.012a14.541,14.541,0,0,1-3.86-.334c-4.2-.624-8.833,1.609-10.427,5.541-.43,1.061-.64,2.2-1.044,3.271a15.664,15.664,0,0,1-4.648,6.006,18.575,18.575,0,0,1-3.61,2.578,27.774,27.774,0,0,0-4.284,2.161,6.481,6.481,0,0,0-2.5,4.6c-.109,1.453.274,2.958-.149,4.352a7.835,7.835,0,0,1-2.966,3.53q-1.432,1.14-2.863,2.275a3.483,3.483,0,0,0-1.212,1.39,2.564,2.564,0,0,0-.042,1.419c.641,3.033,3.829,4.726,6.732,5.813a14.541,14.541,0,0,0,4.78,1.132c2.642.045,5.237-1.205,7.853-.822,2.14.313,3.954,1.667,5.8,2.794a16.371,16.371,0,0,0,6.768,2.547,8.486,8.486,0,0,0,6.748-2.086c1.679-1.636,2.379-4,3.384-6.111a30.581,30.581,0,0,0,2.438-5.374c.39-1.525.367-3.13.715-4.665.812-3.583,3.625-6.919,2.761-10.488a11.5,11.5,0,0,1-.606-4.245,29,29,0,0,0,.057-5.44,16.045,16.045,0,0,0-1.435-5.717,7.75,7.75,0,0,0-4.22-3.946A9.112,9.112,0,0,0,6817.17,701.489Z" transform="translate(8.917 0.3)" fill="#532f14"/>
    <path id="Trazado_16687" data-name="Trazado 16687" d="M6815.7,823.247s-2.582,9.932,4.533,44.682c.952,4.649,5.311.061,5.311.061s3.513-44.5,2.7-49.381S6815.7,823.247,6815.7,823.247Z" transform="translate(21.784 41.985)" fill="#dc9781"/>
    <path id="Trazado_16688" data-name="Trazado 16688" d="M6833.176,858.253q1.877.828,3.736,1.688c.532.247,1.161.738.91,1.254-5.5,2-10.021.61-15.563-.322-1.549-.259-3.343-.64-3.745-2.367a4.43,4.43,0,0,1-.085-1.1,18.551,18.551,0,0,1,.23-4.366c1.748.989,4.414.953,6.284.83.879,1.235.279,1.093,2.125,1.814C6829.482,856.626,6830.806,857.21,6833.176,858.253Z" transform="translate(22.924 54.839)" fill="#1f173b"/>
    <g id="Grupo_7690" data-name="Grupo 7690" transform="translate(6828.826 730.89)">
      <path id="Trazado_16689" data-name="Trazado 16689" d="M6853.79,730.913s-1.49-3.335,4.238-6.96c0,0,.733.508-.77,2.681a37.2,37.2,0,0,1-2.738,3.62A3.979,3.979,0,0,1,6853.79,730.913Z" transform="translate(-6793.27 -722.375)" fill="#dc9781"/>
      <g id="Grupo_7688" data-name="Grupo 7688" transform="translate(38.611 6.265)">
        <g id="Grupo_7687" data-name="Grupo 7687">
          <path id="Trazado_16690" data-name="Trazado 16690" d="M6842.444,752.907c-1.693.742-3.7-1.915-4.614-4.56-.626-1.809.35-2.083.35-2.082,7.271-7.58,14.955-12.347,21.2-17.033,6.14-4.611,4.006.95,4.006.95C6858.329,737.1,6852.782,745.056,6842.444,752.907Z" transform="translate(-6837.62 -727.402)" fill="#dc9781"/>
        </g>
      </g>
      <g id="Grupo_7689" data-name="Grupo 7689" transform="translate(0 7.722)">
        <path id="Trazado_16691" data-name="Trazado 16691" d="M6852.99,748.191c.526-.406,2.886-3.346.676-4.688a218.454,218.454,0,0,0-21.648-11.582c-9.244-4.427-18.5-4.711-22.686-.143-1.712,1.868,14.516,10.129,25.886,13.644,2.417.747,6.416,2.28,16.679,7.146Z" transform="translate(-6809.207 -728.475)" fill="#dc9781"/>
      </g>
      <path id="Trazado_16692" data-name="Trazado 16692" d="M6856.243,733.307a19.261,19.261,0,0,0,5.276-4.165c1.974-2.446,1.581-4.015,1.187-4.818-.269-.548-1.167-2.211-1.822-1.226s-4.832,4.357-5.77,5.317a5.575,5.575,0,0,0-1.375,3.28A24.853,24.853,0,0,0,6856.243,733.307Z" transform="translate(-6793.234 -722.792)" fill="#dc9781"/>
    </g>
    <g id="Grupo_7691" data-name="Grupo 7691" transform="translate(6828.305 737.751)">
      <path id="Trazado_16693" data-name="Trazado 16693" d="M6840.408,750.1c.116-.56,1.227-4.216,1.336-4.778.506-2.586,2.186-6.446,2.627-9.045.042-.243.088-.485.135-.726-4.1-2.2-6.051-2.026-9.973-3.905-9.241-4.426-21.392-5.378-25.578-.811-1.712,1.868,13.519,13.225,24.889,16.741A65.4,65.4,0,0,1,6840.408,750.1Z" transform="translate(-6808.824 -727.841)" fill="#dfcbd9"/>
    </g>
    <g id="Grupo_7695" data-name="Grupo 7695" transform="translate(6754.538 731.538)">
      <path id="Trazado_16694" data-name="Trazado 16694" d="M6762.527,731.391s1.49-3.335-4.238-6.961c0,0-.735.508.772,2.685a37.509,37.509,0,0,0,2.738,3.619A3.851,3.851,0,0,0,6762.527,731.391Z" transform="translate(-6753.255 -722.853)" fill="#dc9781"/>
      <g id="Grupo_7693" data-name="Grupo 7693" transform="translate(5.056 6.265)">
        <g id="Grupo_7692" data-name="Grupo 7692">
          <path id="Trazado_16695" data-name="Trazado 16695" d="M6779.563,753.385c1.692.741,3.7-1.916,4.614-4.562.625-1.809-.353-2.082-.351-2.081-7.271-7.581-14.955-12.348-21.2-17.035-6.141-4.611-4.009.95-4.009.95C6763.676,737.577,6769.223,745.532,6779.563,753.385Z" transform="translate(-6758.259 -727.879)" fill="#dc9781"/>
        </g>
      </g>
      <g id="Grupo_7694" data-name="Grupo 7694" transform="translate(24.405 7.723)">
        <path id="Trazado_16696" data-name="Trazado 16696" d="M6774.1,748.668c-.526-.4-2.884-3.344-.676-4.688a219.659,219.659,0,0,1,21.65-11.582c9.241-4.426,18.5-4.71,22.686-.143,1.712,1.869-14.515,10.129-25.888,13.643-2.416.749-6.415,2.281-16.678,7.148Z" transform="translate(-6772.498 -728.952)" fill="#dc9781"/>
      </g>
      <path id="Trazado_16697" data-name="Trazado 16697" d="M6761.323,733.783a19.312,19.312,0,0,1-5.279-4.163c-1.972-2.446-1.579-4.014-1.183-4.819.266-.548,1.165-2.211,1.82-1.226s4.831,4.355,5.771,5.316a5.584,5.584,0,0,1,1.373,3.282A24.78,24.78,0,0,1,6761.323,733.783Z" transform="translate(-6754.538 -723.269)" fill="#dc9781"/>
    </g>
    <g id="Grupo_7696" data-name="Grupo 7696" transform="translate(6789.167 738.398)">
      <path id="Trazado_16698" data-name="Trazado 16698" d="M6784.121,750.583c-.115-.561-1.226-4.218-1.335-4.778-.505-2.587-2.186-6.448-2.628-9.046-.043-.243-.087-.485-.135-.726,4.1-2.2,6.051-2.026,9.972-3.905,9.241-4.427,21.392-5.38,25.577-.813,1.712,1.87-13.516,13.227-24.887,16.741A65.684,65.684,0,0,0,6784.121,750.583Z" transform="translate(-6780.022 -728.317)" fill="#dfcbd9"/>
    </g>
    <path id="Trazado_16699" data-name="Trazado 16699" d="M6794.223,793.175l33.426.065c.316-12.748,2.512-57.242,1.224-60.827-.918-2.551-2.008-4.942-6.036-5.016-5.827-.1-11.971-.473-19.979-.29-6.335.146-7.37,3.316-7.759,4.983C6793.985,736.869,6794.6,779.9,6794.223,793.175Z" transform="translate(14.242 9.629)" fill="#dc9781"/>
    <path id="Trazado_16700" data-name="Trazado 16700" d="M6804.476,770.2c4.612,27.979,12.449,64.5,14.97,72.236,2.315,7.1,12.676-5.323,12.676-5.323s-5.735-63.243-8.255-68.059S6803.523,764.43,6804.476,770.2Z" transform="translate(17.908 23.476)" fill="#dc9781"/>
    <path id="Trazado_16701" data-name="Trazado 16701" d="M6801.756,772.679c-3.039,6.635-6.794,13.924-7.292,18.337-2.607,22.989-3.171,42.978-2.772,49.808.438,7.472,13.578-1.621,13.578-1.621s14.442-59.4,13.16-64.724S6804.194,767.358,6801.756,772.679Z" transform="translate(13.291 24.851)" fill="#dc9781"/>
    <path id="Trazado_16702" data-name="Trazado 16702" d="M6793.1,821.493s-4.034,9.439-2.176,44.862c.249,4.737,5.241.852,5.241.852s10.109-43.484,10.033-48.429S6793.1,821.493,6793.1,821.493Z" transform="translate(12.882 41.948)" fill="#dc9781"/>
    <path id="Trazado_16703" data-name="Trazado 16703" d="M6811.465,819.476h23.07c-1.885-18.5-8.4-46.361-9.877-49.194-2.522-4.816-18.478-5.039-17.527.732C6809.411,784.848,6808.641,805.979,6811.465,819.476Z" transform="translate(18.86 23.847)" fill="#8d6635"/>
    <path id="Trazado_16704" data-name="Trazado 16704" d="M6809.618,774.8c-3.792.245-4.654-5.722-4.215-3.053,2,12.125,6.706,46.155,6.706,46.155h4.778S6810,784.763,6809.618,774.8Z" transform="translate(18.217 25.42)" fill="#7f5d30"/>
    <path id="Trazado_16705" data-name="Trazado 16705" d="M6788.855,817.557l24.779,1.091c2.177-17.224,6.4-44.43,4.928-47.093-2.639-4.8-21.649-2.417-22.6,3.355-1.186,7.2-4.181,16.471-4.962,20.845C6789.493,804.185,6789.364,812.542,6788.855,817.557Z" transform="translate(12.315 24.675)" fill="#8d6635"/>
    <path id="Trazado_16706" data-name="Trazado 16706" d="M6804.507,858.828q1.732,1.095,3.445,2.226c.486.322,1.036.9.711,1.374-5.734,1.156-10-.89-15.343-2.638-1.494-.488-3.209-1.131-3.35-2.9a4.571,4.571,0,0,1,.08-1.1,18.663,18.663,0,0,1,.881-4.283c1.579,1.238,4.221,1.6,6.089,1.757.685,1.352.111,1.122,1.829,2.11C6801.1,856.665,6802.318,857.442,6804.507,858.828Z" transform="translate(12.712 54.289)" fill="#1f173b"/>
    <path id="Trazado_16707" data-name="Trazado 16707" d="M6792.023,785.231q.044.455.094.909a8.584,8.584,0,0,0,1.2,4.1c1.241,1.766,2.479,1.325,4.171,1.039,1.98-.334,4.227.056,6.239.1q7.534.163,15.068-.092c3.738,0,6.911.882,10.564,1.34a4.122,4.122,0,0,0,1.806-.045,3.506,3.506,0,0,0,1.821-1.893c1.4-2.765,1.637-5.959,1.721-9.058a113.422,113.422,0,0,0-1.7-22.806,121.942,121.942,0,0,1-2.125-13.767c-.249-4.033.327-8.569-1.059-12.424-.918-2.551-2.008-4.942-6.036-5.016-2.138-.037-6.956-2.458-6.62-.181.418,2.829.842,5.445-4.469,5.589-4.492.124-5.5-4.556-5.939-5.743-.4-1.086-1.707.016-2.95.045-6.376.146-9.219,3.287-10.164,9.154-1.249,7.743-1.241,16.9-1.622,24.745C6791.632,769.216,6791.25,777.25,6792.023,785.231Z" transform="translate(13.292 9.413)" fill="#f1dae9"/>
    <path id="Trazado_16708" data-name="Trazado 16708" d="M6798.438,755.434" transform="translate(15.755 19.812)" fill="#dc9781"/>
    <g id="Grupo_7697" data-name="Grupo 7697" transform="translate(6813.852 718.047)">
      <path id="Trazado_16709" data-name="Trazado 16709" d="M6798.535,717.7c.757,1.523,3.667,3.045,3.884,1.51a8.718,8.718,0,0,0-.806-4.4c-.755-1.522-.542-1.8-1.93-1.114A2.957,2.957,0,0,0,6798.535,717.7Z" transform="translate(-6798.188 -713.341)" fill="#dc9781"/>
      <path id="Trazado_16710" data-name="Trazado 16710" d="M6799.973,714.653c.025-.012.05-.018.076-.028a.13.13,0,0,0,.033.034c.643.419.683,1.662.882,2.328a8.635,8.635,0,0,0,.3.828,1.667,1.667,0,0,1-1.9-.944A1.632,1.632,0,0,1,6799.973,714.653Z" transform="translate(-6797.836 -712.88)" fill="#ca8b78"/>
    </g>
    <path id="Trazado_16711" data-name="Trazado 16711" d="M6803.115,719.373c-1.1-2.92,10.385.719,10.385.719l-.419,10.325s-4.272,7.27-9.966,1C6802.615,730.863,6803.525,720.464,6803.115,719.373Z" transform="translate(17.378 6.464)" fill="#dc9781"/>
    <path id="Trazado_16712" data-name="Trazado 16712" d="M6803.818,719.149c-.558.526-.812,4.359-.727,7.587,3.787-.154,7.734.8,9.95,3.628h0l.418-10.325S6806.093,717.01,6803.818,719.149Z" transform="translate(17.419 6.516)" fill="#cc8d7a"/>
    <path id="Trazado_16713" data-name="Trazado 16713" d="M6819.581,727.7c-.737,2.148-1.342,3.562-3.6,4.145-2.966.771-8.374-.818-11.567-2.623-1.409-.794-2.068-5.687-2.9-8.362-.707-2.256-1.506-3.537-1.81-5.88-.152-1.171-.252-2.351-.3-3.53a3.875,3.875,0,0,1,.74-2.655c2.029-3.294,5.708-4.361,9.487-4.922a12.358,12.358,0,0,1,6.034.775c1.652.62,2.891,1.23,3.553,2.964a23.858,23.858,0,0,1,1.242,5.667c.407,3.381.814,6.953.14,10.36A29.165,29.165,0,0,1,6819.581,727.7Z" transform="translate(16.098 1.27)" fill="#dc9781"/>
    <path id="Trazado_16714" data-name="Trazado 16714" d="M6820,720.966c-1.187-.27-2.313-.773-3.5-1.044a9.252,9.252,0,0,0-5.27.549c-2.712.993-5.189,1.145-7.125-1.379a24.889,24.889,0,0,1-2.071-3.643c-.385-.738-.451-1.556-1.554-1.325a1.389,1.389,0,0,0-.307.111c.328.9.68,2.692,1.034,3.825.837,2.674,1.5,7.421,2.906,8.216,3.194,1.8,8.737,2.92,11.7,2.151,2.252-.584,2.747-2.284,3.485-4.433a23.9,23.9,0,0,0,.8-3.006Z" transform="translate(16.378 4.973)" fill="#532f14"/>
    <path id="Trazado_16715" data-name="Trazado 16715" d="M6803.748,717.768a5.9,5.9,0,0,1,2.013-3.063c1.757-1.423,4.226-1.984,5.538-3.825,1.457-2.044.93-4.861.162-7.251-.812-2.523-1.98-4-4.542-3.173-2.343.752-4.6,1.37-6.434,3.138-3.376,3.259-4.624,8.353-4.306,12.917.1,1.4.179,3.664.947,4.881.62.978,1.674,1.087,1.85-.478a6.611,6.611,0,0,1,.189-1.643.688.688,0,0,1,.282-.372c.948-.514,1.9,1.361,2.264,1.887a3.131,3.131,0,0,0,1.17,1.162.392.392,0,0,0,.278.042c.173-.057.207-.285.208-.467A12.414,12.414,0,0,1,6803.748,717.768Z" transform="translate(14.926)" fill="#532f14"/>
    <path id="Trazado_16716" data-name="Trazado 16716" d="M6810.243,709.483c1.625,2.084,5.069,5.052,7.988,4.49a19.4,19.4,0,0,0-.5-3.563,14.6,14.6,0,0,0-1.36-3.61,11.908,11.908,0,0,0-5-5.251c-.866-.432-3.805-1.776-4.712-1C6805.013,701.957,6809.308,708.283,6810.243,709.483Z" transform="translate(18.571 0.03)" fill="#532f14"/>
    <g id="Grupo_7701" data-name="Grupo 7701" transform="translate(6818.298 756.42)">
      <g id="Grupo_7700" data-name="Grupo 7700">
        <g id="Grupo_7698" data-name="Grupo 7698" transform="translate(0.011 0.006)">
          <path id="Trazado_16717" data-name="Trazado 16717" d="M6810.916,757.329l-8.174-7.925a4.632,4.632,0,1,1,6.716-6.38l1.458,1.432,1.741-1.633a4.631,4.631,0,1,1,6.151,6.924Z" transform="translate(-6801.467 -741.584)" fill="#fbf6fa" stroke="#fbf6fa" stroke-linecap="round" stroke-linejoin="round" stroke-width="0.637"/>
        </g>
        <g id="Grupo_7699" data-name="Grupo 7699">
          <path id="Trazado_16718" data-name="Trazado 16718" d="M6804.622,741.591h.66A4.876,4.876,0,0,0,6804.622,741.591Z" transform="translate(-6800.324 -741.58)" fill="none"/>
          <path id="Trazado_16719" data-name="Trazado 16719" d="M6809.325,743.018a4.605,4.605,0,0,0-3.027-1.43h-.66a4.627,4.627,0,0,0-3.847,2.623h8.752Z" transform="translate(-6801.34 -741.577)" fill="#c6454c"/>
          <path id="Trazado_16720" data-name="Trazado 16720" d="M6816.622,743.186a4.633,4.633,0,0,0-6.539-.386l-1.485,1.4h8.708A4.692,4.692,0,0,0,6816.622,743.186Z" transform="translate(-6798.896 -741.562)" fill="#c6454c"/>
          <path id="Trazado_16721" data-name="Trazado 16721" d="M6819.868,743.518h-8.708l-.254.238-.244-.238h-8.752a4.624,4.624,0,0,0-.409,2.623h18.817A4.649,4.649,0,0,0,6819.868,743.518Z" transform="translate(-6801.458 -740.884)" fill="#de9941"/>
          <path id="Trazado_16722" data-name="Trazado 16722" d="M6820.308,745.448H6801.49a4.617,4.617,0,0,0,1.23,2.566l.06.057h16.3A4.612,4.612,0,0,0,6820.308,745.448Z" transform="translate(-6801.448 -740.192)" fill="#ebdf3f"/>
          <path id="Trazado_16723" data-name="Trazado 16723" d="M6818.444,747.661c.1-.091.2-.186.293-.283h-16.3l2.706,2.621h10.866Z" transform="translate(-6801.107 -739.499)" fill="#54914b"/>
          <path id="Trazado_16724" data-name="Trazado 16724" d="M6815.3,749.307h-10.867l2.7,2.622h5.436Z" transform="translate(-6800.394 -738.807)" fill="#5185b3"/>
          <path id="Trazado_16725" data-name="Trazado 16725" d="M6806.42,751.237l2.7,2.622,2.731-2.622Z" transform="translate(-6799.678 -738.114)" fill="#7c448a"/>
        </g>
      </g>
      <path id="Trazado_16726" data-name="Trazado 16726" d="M6811.721,742.261c-.056.008-.114.015-.17.024a1.5,1.5,0,0,0-.586.192.629.629,0,0,0-.309.507c0,.755,1.579.49,2.021.524a3.18,3.18,0,0,1,2.372,1.5c.435.609.8,0,.776-.5a2.36,2.36,0,0,0-.827-1.553A4.066,4.066,0,0,0,6811.721,742.261Z" transform="translate(-6798.159 -741.36)" fill="#fbf6fa"/>
    </g>
    <path id="Trazado_16727" data-name="Trazado 16727" d="M6817.087,718.672a2.17,2.17,0,0,0,1.181.076,1.169,1.169,0,0,0,.84-.587.683.683,0,0,1-.017.416,3.853,3.853,0,0,1-.763,1.762c-.105.115-.227.219-.325.341-1.15,1.431-3.583,1.055-4.875-.054a3.594,3.594,0,0,1-2.158,1.358c-1.421.329-3.282.327-4.325-.832a6.587,6.587,0,0,1-1.154-2.112c.285.741,1.563.707,2.164.588,1.371-.268,2.323-1.469,3.547-2.074a4.479,4.479,0,0,1,3.18-.159C6815.274,717.648,6816.167,718.375,6817.087,718.672Z" transform="translate(18.285 6.084)" fill="#65381b"/>
  </g>
</svg>
