<svg xmlns="http://www.w3.org/2000/svg" xmlns:xlink="http://www.w3.org/1999/xlink" width="168.64" height="168.774" viewBox="0 0 168.64 168.774">
  <defs>
    <linearGradient id="linear-gradient" y1="0.5" x2="1" y2="0.5" gradientUnits="objectBoundingBox">
      <stop offset="0" stop-color="#d26e94"/>
      <stop offset="1" stop-color="#bc3b5a"/>
    </linearGradient>
    <linearGradient id="linear-gradient-7" x1="0" y1="0.5" x2="1" y2="0.5" xlink:href="#linear-gradient"/>
  </defs>
  <g id="Grupo_7714" data-name="Grupo 7714" transform="translate(-6932.418 -753.296)">
    <g id="Grupo_7713" data-name="Grupo 7713" transform="translate(6932.418 753.296)">
      <path id="Trazado_16764" data-name="Trazado 16764" d="M6986.438,799.742c-.018.05-.033.1-.05.153a5.772,5.772,0,0,0-.018,3.9,2.957,2.957,0,0,0,3.16,1.863,6.567,6.567,0,0,0,2.435-1.632c1.673-1.351,3.424-1.563,5.476-1.713a26.26,26.26,0,0,0,6.467-1.48,4.094,4.094,0,0,1,2.075-.3c.461.1.766.556,1.163.65,1.066.253,2.207-.7,2.759-1.582a5.846,5.846,0,0,0-.1-5.754,11.671,11.671,0,0,1-1.32-2.589,7.68,7.68,0,0,1,.205-3.265,28.681,28.681,0,0,0,.5-5.581c-.015-1.607-.449-3.264-.374-4.85.125.523.512,1.373,1.182,1.266.436-.069.681-.529.836-.942a14.012,14.012,0,0,0-5.114-16.112,10.431,10.431,0,0,1,6.876,2.647c.362-1.952-.953-3.832-2.462-5.122a14.632,14.632,0,0,0-6.707-3.232c-.154-.717,1.113-.938,1.288-1.652a.889.889,0,0,0-.531-.939,2.607,2.607,0,0,0-1.142-.18c-2.85-.014-5.876.017-8.286,1.538a12.508,12.508,0,0,1-2.41,1.479c-1.609.564-3.3.228-4.924.592a22.785,22.785,0,0,0-4.174,1.5,4.614,4.614,0,0,0-2.661,2.369,9.59,9.59,0,0,1,6.713.412,36.433,36.433,0,0,0-4.976,4.3,2.636,2.636,0,0,0-.768,1.173,3.846,3.846,0,0,0,.081,1.319c.323,2.394-1.153,4.622-1.726,6.971a9.644,9.644,0,0,0,1.839,8.215,8.82,8.82,0,0,1,.933-2.5,29.481,29.481,0,0,0,2.192,6.391c1.081,2.258,3.477,3.176,3.435,5.818a11.711,11.711,0,0,1-.524,3.279C6987.4,797.38,6986.824,798.529,6986.438,799.742Z" transform="translate(-6905.901 -753.296)" fill="url(#linear-gradient)"/>
      <path id="Trazado_16765" data-name="Trazado 16765" d="M7025.922,846.682c-5.081-1.938-7.2-4.658-10.688-6.811s-9.218,1.724-9.218,1.724-1.467-.172-3.831-.44a44.637,44.637,0,0,1-.189,8.1c3.611-.3,6.115-.526,6.777-.686,5.039-1.205,17.247,3.335,20.414,3.1S7031.007,848.619,7025.922,846.682Z" transform="translate(-6893.351 -705.048)" fill="#e0a67d"/>
      <path id="Trazado_16766" data-name="Trazado 16766" d="M7031.307,853.323c-3.978-.45-10.5-1.174-16.881-1.819,6.7-1.886,9.357-3.495,9.357-3.495,11.777-8.512,4.714-25.725,4.714-25.725-3.694-9.923-20-2-29.188,3.306-5.494,3.172-41.933,21.056-46.784,26.568-4.528,5.147-3.107,12.683,8.467,14.071,3.077.369,11.785.835,22.073,1.295a76.854,76.854,0,0,1,9.6-6.173,11.011,11.011,0,0,1-3.458,5.234c11.71-2.717,31.464-4.282,41.905-5.159A44.724,44.724,0,0,0,7031.307,853.323Zm-37.1,2.422c-1.608.033-3.166.091-4.612.169q2.476-.258,4.743-.547C6994.289,855.492,6994.244,855.619,6994.2,855.745Z" transform="translate(-6922.471 -717.218)" fill="#a097d5"/>
      <path id="Trazado_16767" data-name="Trazado 16767" d="M6950.234,844.072a1.65,1.65,0,0,0-1.972-.344c1.206,2.394-.542,2.736-2.281,3.2a51.215,51.215,0,0,0-5.086,1.994c-2.233.86-4.725,2.027-5.192,4.644a4.064,4.064,0,0,0,2.612,4.5c2.685,1.167,7.493-.3,7.046,4.238.138-1.4,1.615-2.361,1.423-4.169-.168-1.6-.661-1.921-1.952-2.551-.942-.459-3.68-.985-3.233-2.363.353-1.084,4-1.715,4.927-2.03a4.789,4.789,0,0,0,3.313-1.676,4.484,4.484,0,0,0,.777-4.967A2.02,2.02,0,0,0,6950.234,844.072Z" transform="translate(-6930.613 -702.628)" fill="url(#linear-gradient)"/>
      <path id="Trazado_16768" data-name="Trazado 16768" d="M7050.121,853.443c-3.627-.682-8.139.657-11.572-.723-1.229-.494-1.826-1.054-1.725-2.317.042-.532.523-.828.551-1.535a2.078,2.078,0,0,0-.61-1.764c-1.365-1.5-4.473-1.179-6.219-1-2.972.306-6.237,1.245-8.294,3.507a.65.65,0,0,0,.628,1.077c1.769-.373,3.416-1.137,5.193-1.5a28.5,28.5,0,0,1,2.936-.519.882.882,0,0,0,.085.048c1.67.653,1.021,3.345,1.663,4.742a6.274,6.274,0,0,0,2.571,2.748c2.764,1.619,5.729.932,8.514-.1a14.684,14.684,0,0,0,6.476-1.157A.834.834,0,0,0,7050.121,853.443Z" transform="translate(-6882.077 -701.271)" fill="url(#linear-gradient)"/>
      <path id="Trazado_16769" data-name="Trazado 16769" d="M6950.726,850.028a.657.657,0,0,0-.329,1.213c6.146,3.42-.39,7.744-3.682,8.759a77.754,77.754,0,0,1-7.93,1.8c-2.826.554-6.694,1.448-6.344,5.1.074.774,1.153,1.237,1.583.429,1.8-3.382,7.639-3.4,11.023-4.308,2.952-.788,6.117-1.633,8.228-3.991C6955.829,856.183,6955.724,849.772,6950.726,850.028Z" transform="translate(-6932.419 -698.983)" fill="url(#linear-gradient)"/>
      <path id="Trazado_16770" data-name="Trazado 16770" d="M7031.459,853.807c-4.613-2.88-6.167-5.957-9.176-8.743s-9.377-.083-9.377-.083-3.659.27-11.521-1.491a25.662,25.662,0,0,1-3,9.494c8.123-.309,14.322-.561,15.884-.625,5.178-.214,16.282,6.594,19.434,6.971S7036.074,856.688,7031.459,853.807Z" transform="translate(-6895.378 -702.65)" fill="#f2cf9a"/>
      <path id="Trazado_16771" data-name="Trazado 16771" d="M6984.71,842.558c-5.331.686-9.2,1.476-9.2,1.476C6978.808,843.567,6981.863,843.07,6984.71,842.558Z" transform="translate(-6908.219 -703.173)" fill="#f2cf9a"/>
      <path id="Trazado_16772" data-name="Trazado 16772" d="M7019.842,857.318c-6.668-1.858-15.609-.564-24.334-.153,25.258-4.538,33.513-10.417,33.513-10.417,11.114-9.361,2.792-26,2.792-26-4.42-9.622-20.1-.509-28.862,5.461-5.243,3.57-40.257,24.1-44.687,29.961-4.134,5.469-2.157,12.88,9.485,13.406,6.26.283,35.461-.742,54.273-1.458a25.664,25.664,0,0,0,3-9.494C7023.461,858.27,7021.747,857.847,7019.842,857.318Z" transform="translate(-6919.017 -717.78)" fill="#8984c1"/>
      <path id="Trazado_16773" data-name="Trazado 16773" d="M7007.6,758.119q.233,3.518.467,7.035a25.428,25.428,0,0,0,.989,6.446,8.544,8.544,0,0,0,3.948,5.006,19.37,19.37,0,0,1-2.231-7.428,6.854,6.854,0,0,1,1.068-4.963,5.552,5.552,0,0,1,4.382-1.8,16.424,16.424,0,0,1,4.778,1,14.8,14.8,0,0,0-5.126-2.072,7.725,7.725,0,0,1,8.169-.009,8.755,8.755,0,0,0-5.65-3.237,26.04,26.04,0,0,0-6.66-.042,5.887,5.887,0,0,0-2.379.531,2,2,0,0,0-1.126,2Z" transform="translate(-6890.205 -750.735)" fill="url(#linear-gradient)"/>
      <path id="Trazado_16774" data-name="Trazado 16774" d="M6995.293,757.893c.61.284,8.673,3.27,8.189,15.4s-8.649,15.384-12.539,13.684-6.226-3.631-7.549-14.129S6988.209,754.617,6995.293,757.893Z" transform="translate(-6903.896 -751.142)" fill="#f2cf9a"/>
      <path id="Trazado_16775" data-name="Trazado 16775" d="M7036.218,794.018c-.06,1.562-.134,3.106-.209,4.636-1.036,20.918-2.838,39.419-2.987,47.7-9.272,4.216-26.063,1.44-26.063,1.44-.405-10.818-7.112-31.271-7.112-31.271s-11.434,25.479-17.917,26.02c-3.855.315-11.929-7.1-18.591-14.525-5.643-6.273-10.264-12.559-10.55-14.24-.584-3.677.408-2,3.331-1.651,1.426.164,6.858,4.321,12.1,8.568,5.566,4.5,10.894,9.093,10.894,9.093,1.65-6.318,13.07-35.1,21.532-37.319a12.839,12.839,0,0,0,2.4-.87c10.909-5.056,2.79-20.962,2.79-20.962l11.1-.946s-.6,13.715,5.117,16.162a4.658,4.658,0,0,0,1.979.375C7030.681,786.126,7036.218,794.018,7036.218,794.018Z" transform="translate(-6921.07 -744.088)" fill="#f2cf9a"/>
      <path id="Trazado_16776" data-name="Trazado 16776" d="M7044.506,790.274a7.171,7.171,0,0,1-2.64,2.7c-6.618,4.636-23.44,10.443-30.865,12.889-2.237.722-3.616,1.156-3.616,1.156s-11.569-2.43-10.085-13.039a6.64,6.64,0,0,1,1.77-.54c5.479-1.366,22.5-4.756,33.854-6.091.3-.045.6-.077.9-.106q-4.884-4.973-9.6-10.112c-3.946-4.307-10.337-10.023-11.537-16a4.35,4.35,0,0,1,.163-2.731,3.043,3.043,0,0,1,4.457-.99,4.143,4.143,0,0,1,1.5,2.1c.136.406.045,2.926.106,2.972C7018.908,762.485,7046.879,784.287,7044.506,790.274Z" transform="translate(-6896.062 -751.298)" fill="#f2cf9a"/>
      <path id="Trazado_16777" data-name="Trazado 16777" d="M6986.959,760.078c-2.39,2.091-4.614,4.127-4.136,7.848a9.485,9.485,0,0,1,3.3-4.613,2.232,2.232,0,0,0-.219,1.532,15.955,15.955,0,0,0,2.23-2.363.743.743,0,0,0,.4.96,1.165,1.165,0,0,0,1.1-.173,2.87,2.87,0,0,0,.75-.884c.191-.309,1.427-2.142,1.232-2.5.187.345.067.8.278,1.129a.9.9,0,0,0,1.375-.053,2.6,2.6,0,0,0,.46-1.5,12.356,12.356,0,0,0,2.341,1.513,4.193,4.193,0,0,0-.109-1.458,3.584,3.584,0,0,0,3.916,1.132,3.483,3.483,0,0,0-1.17-2.322,8.787,8.787,0,0,0-2.413-2.125,5.458,5.458,0,0,0-5.091.3,13.838,13.838,0,0,0-2.612,2.1C6988.066,759.113,6987.508,759.6,6986.959,760.078Z" transform="translate(-6904.151 -751.945)" fill="url(#linear-gradient)"/>
      <path id="Trazado_16778" data-name="Trazado 16778" d="M6999.011,764.981a2.6,2.6,0,0,1,.8,2.252,6.074,6.074,0,0,1-2.354,4.443c-.526.4-1.312.695-1.806.259C6993.439,769.989,6995.8,762.563,6999.011,764.981Z" transform="translate(-6897.398 -747.003)" fill="#f2cf9a"/>
      <path id="Trazado_16779" data-name="Trazado 16779" d="M6952.347,804.151c-1.021,2.713-.205,5.737.7,8.49a14.5,14.5,0,0,0,1.783,3.972,5.256,5.256,0,0,0,3.554,2.316,10.6,10.6,0,0,1-1.194-13.554c1.092-1.471,2.615-2.722,3.081-4.492a5.38,5.38,0,0,0,.128-1.854,4.927,4.927,0,0,0-1.361-3.173,2.662,2.662,0,0,0-4.615,1.526,21.366,21.366,0,0,1-.207,2.945C6953.8,801.688,6952.848,802.823,6952.347,804.151Z" transform="translate(-6921.494 -729.884)" fill="url(#linear-gradient-7)"/>
      <path id="Trazado_16780" data-name="Trazado 16780" d="M6960.354,797.331c.688,2.06-1.165,4.205-3.171,4.672-3.4.793-6.656-3.649-4.2-6.454a4.234,4.234,0,0,1,4.193-1.2A4.667,4.667,0,0,1,6960.354,797.331Z" transform="translate(-6921.354 -730.321)" fill="#f2cf9a"/>
      <path id="Trazado_16781" data-name="Trazado 16781" d="M6988.854,763.331c-1.121-1.06-3.649-.209-4.677.625a.336.336,0,0,0-.093.345.267.267,0,0,0,.072.151l.091.061a.354.354,0,0,0,.358,0,5.541,5.541,0,0,1,2.26-.742,12.8,12.8,0,0,0,1.852.08A.313.313,0,0,0,6988.854,763.331Z" transform="translate(-6903.415 -747.939)" fill="#bd8074"/>
      <path id="Trazado_16782" data-name="Trazado 16782" d="M6995.934,762.828a4.123,4.123,0,0,0-5.127.476c-.1.117-.012.348.164.284a8.118,8.118,0,0,1,2.289-.676,7.024,7.024,0,0,1,2.35.475C6995.907,763.466,6996.208,763.045,6995.934,762.828Z" transform="translate(-6899.655 -748.324)" fill="#bd8074"/>
      <path id="Trazado_16783" data-name="Trazado 16783" d="M6993.413,764.579a2,2,0,0,0-2.555,2,.4.4,0,0,0,.671.278c.347-.414.66-1.354,1.3-1.385.033,0,.05.011.078.011a3.4,3.4,0,0,0,.235,2.353.46.46,0,0,0,.652.158.33.33,0,0,0,.187-.173C6994.447,766.789,6994.759,765.123,6993.413,764.579Z" transform="translate(-6899.603 -747.029)" fill="#bd8074"/>
      <path id="Trazado_16784" data-name="Trazado 16784" d="M6988.584,765.856a.469.469,0,0,0-.434-.234,2.059,2.059,0,0,0-.8-.618c-1.293-.545-3.1.579-2.667,2.053a.272.272,0,0,0,.52,0c.26-.668,1.02-1.5,1.806-1.129a.939.939,0,0,1,.149.13,2.626,2.626,0,0,0,.142,2.208.521.521,0,0,0,.512.234.5.5,0,0,0,.562-.228,2.19,2.19,0,0,0,.3-.812A2.123,2.123,0,0,0,6988.584,765.856Z" transform="translate(-6903.105 -746.8)" fill="#bd8074"/>
      <path id="Trazado_16785" data-name="Trazado 16785" d="M6991.94,771.919c-.754-1.81-3.529-.392-4.057.873a.161.161,0,0,0,.2.2c.6-.226,1-.729,1.585-.987a2.015,2.015,0,0,1,1.907.2C6991.743,772.292,6992.033,772.139,6991.94,771.919Z" transform="translate(-6901.279 -743.321)" fill="#bd8074"/>
      <path id="Trazado_16786" data-name="Trazado 16786" d="M6989.9,772.163c-.552-.062-.744.1-1-.448-.279-.6-.094-.251-.022-.732.1-.706.408-1.387.5-2.111a7.685,7.685,0,0,0-.423-3.985c-.1-.241-.51-.117-.489.133a24.423,24.423,0,0,1,.209,3.078c-.066,1.313-.661,2.373-.833,3.62-.177,1.3,1.072,1.127,2.059,1.032A.293.293,0,0,0,6989.9,772.163Z" transform="translate(-6901.308 -746.86)" fill="#bd8074"/>
      <path id="Trazado_16787" data-name="Trazado 16787" d="M7066.037,794.223a12.139,12.139,0,0,1-6.227,1.7c-.3.014-.6.03-.915.03a68.385,68.385,0,0,1-8.51-.511l-1.215-.134c-4.923-.57-9.844-1.231-13.431-.87a5.02,5.02,0,0,0-.719.089,8.5,8.5,0,0,0-1.74.375c-.062,1.262-.12,2.522-.2,3.752-.015.2-.015.39-.03.586-.239,4.457-.525,8.777-.795,12.873-.03.495-.074.976-.1,1.455-.24,3.453-.48,6.738-.691,9.814-.028.345-.044.675-.074,1.006-.226,3.122-.436,5.987-.6,8.568-.028.4-.059.81-.088,1.2-.212,3.421-.36,6.288-.406,8.449-9.272,4.216-26.063,1.44-26.063,1.44a59.72,59.72,0,0,0-1.1-8.493c-.06-.315-.119-.615-.2-.931-.66-3.376-1.516-6.886-2.355-10.069-.029-.089-.045-.15-.075-.225-1.711-6.452-3.391-11.554-3.391-11.554s-2.267,5.072-5.372,10.743c-.166.316-.346.631-.525.946-2.4,4.321-5.237,8.838-7.862,11.629-.3.3-.585.6-.871.856a6.11,6.11,0,0,1-3.286,1.846c-2.5.209-8.133-.69-13.595-3.407-.194-.089-.405-.194-.6-.3a26.65,26.65,0,0,1-7.518-5.7c.812-1.426,4.787-7.939,5.7-9.288a24.851,24.851,0,0,1,2.3-3.151c1.8,1.455,3.572,2.925,5.146,4.246.3.241.6.5.887.735,2.849,2.37,4.86,4.112,4.86,4.112.046-.15.091-.315.134-.5.076-.24.152-.51.24-.81.645-2.025,1.756-5.1,3.2-8.629.092-.2.166-.389.255-.584.992-2.416,2.132-4.983,3.377-7.578.045-.136.105-.255.151-.361a81.042,81.042,0,0,1,7.982-13.64c.149-.194.3-.389.465-.584,1.951-2.447,3.916-4.157,5.73-4.638a12.853,12.853,0,0,0,2.4-.87,29.137,29.137,0,0,0,5.537,10.369c.254.315.509.631.749.915,1.712,2,2.986,3.151,2.747,3.466q.989-1.3,1.845-2.611c.151-.24.3-.481.451-.706a71.086,71.086,0,0,0,7.682-17.18,4.664,4.664,0,0,0,1.98.375c1.637-.39,4.172-.96,7.278-1.591.2-.045.4-.089.615-.134,3.481-.706,7.577-1.485,11.765-2.221.163-.031.345-.061.509-.091,3.526-.6,7.083-1.171,10.354-1.621.254-.03.5-.075.749-.1.9-.12,1.786-.225,2.627-.329C7056.509,777.012,7066.937,786.346,7066.037,794.223Z" transform="translate(-6918.341 -740.332)" fill="#2d295b"/>
      <path id="Trazado_16788" data-name="Trazado 16788" d="M6985.157,843.152a.29.29,0,0,0-.151-.134,21.7,21.7,0,0,0-13.633-.506c-.246.075-.215.506.064.472a39.7,39.7,0,0,1,10.338.058,9.716,9.716,0,0,0-5.493,1.813c-.046.041,0,.133.063.108a23.288,23.288,0,0,1,8.226-1.473c.1.019.192.028.292.048a.251.251,0,0,0,.259-.1A.171.171,0,0,0,6985.157,843.152Z" transform="translate(-6910.638 -703.682)" fill="#a097d5"/>
      <path id="Trazado_16789" data-name="Trazado 16789" d="M7015.4,821.048c-.134-.328-.676-.19-.543.15a10.335,10.335,0,0,1-.1,8.4.332.332,0,0,0-.291-.408,11,11,0,0,1-8.5-6.666c-.159-.339-.706-.1-.6.253a10.9,10.9,0,0,0,8.865,7.25.435.435,0,0,0,.375-.134c-2.546,5.114-9.1,8.576-14.3,10.643-7.5,2.975-15.427,5.312-22.682,8.83-.163.08-.049.339.121.289,5.5-1.588,10.844-4.033,16.189-6.089a116.039,116.039,0,0,0,12.7-5.2C7012.893,835.061,7018.425,828.419,7015.4,821.048Z" transform="translate(-6907.079 -715.356)" fill="#a097d5"/>
      <path id="Trazado_16790" data-name="Trazado 16790" d="M6968.817,805.812a53.649,53.649,0,0,1-5.915,13.459c-.193-.089-.4-.194-.6-.3,1.215-2.386,2.341-4.786,3.332-7.292.871-2.161,1.515-4.411,2.3-6.6C6968.231,805.317,6968.531,805.571,6968.817,805.812Z" transform="translate(-6915.638 -724.22)" fill="#a097d5"/>
      <path id="Trazado_16791" data-name="Trazado 16791" d="M6976.516,818.7c-.3.3-.585.6-.871.856a44.577,44.577,0,0,1-5.973-11.4c.076-.24.152-.511.241-.81a65.918,65.918,0,0,0,4.1,7.848A36.775,36.775,0,0,0,6976.516,818.7Z" transform="translate(-6911.5 -722.947)" fill="#a097d5"/>
      <path id="Trazado_16792" data-name="Trazado 16792" d="M6983.668,809.441c-.166.316-.346.631-.525.946a26.569,26.569,0,0,1-11.27-8.359c.092-.2.166-.389.255-.584A31.686,31.686,0,0,0,6983.668,809.441Z" transform="translate(-6910.263 -726.26)" fill="#a097d5"/>
      <path id="Trazado_16793" data-name="Trazado 16793" d="M6993.543,792.112c.254.315.509.631.749.915-5.117-1.035-10.474-2.4-14.884-5.192.149-.194.3-.389.465-.584A44.778,44.778,0,0,0,6993.543,792.112Z" transform="translate(-6906.034 -734.229)" fill="#a097d5"/>
      <path id="Trazado_16794" data-name="Trazado 16794" d="M7020.368,794.7l-1.215-.134c-2.836-5.553-6.9-10.789-8.207-16.776.163-.031.345-.061.508-.091C7013.8,783.627,7018,788.833,7020.368,794.7Z" transform="translate(-6888.325 -739.593)" fill="#a097d5"/>
      <path id="Trazado_16795" data-name="Trazado 16795" d="M7025.886,795.8c-.3.014-.6.03-.914.03a41.842,41.842,0,0,0-1.682-8.073c-.842-2.6-2.717-8.343-5.387-11.059.254-.03.5-.075.749-.1,2.1,2.071,3.513,5.9,4.353,7.862A37.56,37.56,0,0,1,7025.886,795.8Z" transform="translate(-6884.418 -740.214)" fill="#a097d5"/>
      <g id="Grupo_7712" data-name="Grupo 7712" transform="translate(103.145 47.107)">
        <path id="Trazado_16796" data-name="Trazado 16796" d="M7005.614,791.681c-.051.08-.155.256-.194.329.006.044.078.072.181.083.154.017.166.033.394-.247a1.825,1.825,0,0,1,.122-.136c.008-.142.016-.278.023-.42.015-.2.015-.39.03-.585,0-.056,0-.116.008-.173a6.243,6.243,0,0,1-.287.634A5.684,5.684,0,0,1,7005.614,791.681Z" transform="translate(-6994.572 -779.494)" fill="#26223d"/>
        <path id="Trazado_16797" data-name="Trazado 16797" d="M7000.793,799.688a.15.15,0,0,0,.16.212c.122-.027.1-.261-.032-.276A.13.13,0,0,0,7000.793,799.688Z" transform="translate(-6997.178 -774.389)" fill="#26223d"/>
        <path id="Trazado_16798" data-name="Trazado 16798" d="M6999.669,793.467c.072.3.072.3.309.192l.237-.108-.1-.222C6999.915,792.868,6999.55,792.978,6999.669,793.467Z" transform="translate(-6997.814 -778.088)" fill="#26223d"/>
        <path id="Trazado_16799" data-name="Trazado 16799" d="M7017.188,789.734c.192-.151.346-.311.34-.354a3.948,3.948,0,0,0-1.022-1.394c-.468-.382-.742-.807-.586-1.048.072-.106.14-.081.421.172.287.283.3.287.374.1.152-.384.145-.675-.068-.821a3.991,3.991,0,0,1-.646-1.4.362.362,0,0,0-.65-.214c-.2.191-.266.2-.528.044a18.226,18.226,0,0,0-2.977-1.182,2.375,2.375,0,0,0-.788-.15,8.423,8.423,0,0,0-4.335.84,9.886,9.886,0,0,1-2.45,1.01,4.237,4.237,0,0,0-1.095.682c-.663.568-.654.612-.75,1.145a4.335,4.335,0,0,1-.632,1.654.95.95,0,0,0-.153.479c-.031.442.027.407.41-.2.531-.795.628-.845.816-.614.188.191.359.17.663-.17a16.81,16.81,0,0,1,1.8-2.044,4.745,4.745,0,0,1,1.562-.96c.83-.3,2.106-.612,2.456-.764a1.374,1.374,0,0,1,1.017,0,6.474,6.474,0,0,0,2.121.217c.25-.022.415.052.76.306a2.5,2.5,0,0,0,1.367.621c.215-.008.258.034.323.318.094.348.328.581.452.386.084-.144.271-.05.326.166a.33.33,0,0,1-.344.414c-.287-.016-.654-.278-1.356-.782-.452-.3-.714-.411-.843-.38a3.432,3.432,0,0,1-1.252-.4c-.1-.272-1.944-.17-1.926.1a3.159,3.159,0,0,0,.237.314c.34.411.421.648.148.753a22.726,22.726,0,0,0-2.229.547,6.261,6.261,0,0,0-1.815,1.051c-.3-.073.235-.846.876-1.181.314-.173.571-.318.549-.369a8.255,8.255,0,0,1,1.137-.753c.785-.434.817-.4.293-.406a2.323,2.323,0,0,0-1.623.659,1.948,1.948,0,0,1-1.01.592,4.284,4.284,0,0,0-2.088,1.382c-.636.79-.6.892-.209.665s1.057-.112,1.073.137a12.322,12.322,0,0,1-.591,1.814,17.91,17.91,0,0,1-.667,1.905c-.123.242-.135.354-.062.492a.522.522,0,0,1-.038.49c-.167.393-.184.4-.584.261a1.03,1.03,0,0,0-.426-.09.21.21,0,0,1-.082.161c-.117.114-.094.357.041.387.043.009.095-.07.113-.178.035-.208.05-.209.574-.077s.56.189.4.675c-.164.515-.034.888.278.809.176-.044.275.016.36.212a.537.537,0,0,0,.292.161c.249.069.249.07.142.818-.112.821-.1.992-.026,1.173.033.075-.021.217-.133.364s-.159.265-.108.312.03.2-.027.372c-.1.281-.118.3-.373.287-.351-.014-.4-.047-.437-.276-.05-.309-.086-.375-.222-.4-.1-.019-.142.053-.181.319-.045.3-.088.361-.312.467-.273.13-.286.272-.029.317.107.019.131.055.085.126a.289.289,0,0,0,.035.269,1.254,1.254,0,0,0,.319-.194.2.2,0,0,0,.126-.222c-.084-.281.344-.4.713-.2.1.058.095.091-.064.226-.178.15-.181.18-.082.5a1.554,1.554,0,0,1,.025.778c-.08.412-.074.448.108.551.243.136.236.256-.018.376-.154.072-.181.123-.132.253.065.169,0,.306-.2.442-.164.109-.36-.025-.4-.275a.69.69,0,0,0-.292-.378c-.142-.1-.255-.214-.251-.25s-.073-.077-.175-.094c-.241-.039-.408,1.554-.176,1.685.114.064.113.088-.017.186-.109.088-.121.142-.052.231a.208.208,0,0,1,.014.237.633.633,0,0,0-.056.608c.059.067.046.123-.039.178s-.1.159-.051.426a1.906,1.906,0,0,1,.04.55c-.024.155,0,.211.1.225a.46.46,0,0,1,.241.13.784.784,0,0,0,.167.12c.089.011.442-.478.378-.521-.029-.02-.007-.073.049-.119.146-.112.394.034.3.18-.046.075-.013.125.121.183.164.07.175.1.1.272a2.494,2.494,0,0,0-.145.526l-.133.692a.683.683,0,0,0,.056.565.592.592,0,0,1-.234.837c-.205.061-.205.061,0,.184.11.069.2.176.191.24a.414.414,0,0,0,.081.239c.131.18-.18.509-.346.365-.077-.069-.133-.083-.181-.05-.09.064,0,.155.176.172.091.011.126.05.1.12a.141.141,0,0,1-.158.08.549.549,0,0,0-.242.012.5.5,0,0,1-.257,0,.212.212,0,0,0-.245.1c-.214.284-.484.067-.452-.376.026-.373-.239-.648-.421-.434a.205.205,0,0,0-.025.259.618.618,0,0,1-.076.676c-.117.072-.136.069-.315-.075a.634.634,0,0,0-.4-.158c-.205,0-.214.014-.26.537-.05.573.012.734.254.65a.57.57,0,0,1,.259-.022.141.141,0,0,0,.158-.08c.046-.141.283-.223.348-.123.089.142-.111.45-.283.434a.418.418,0,0,0-.239.045.35.35,0,0,1-.271.011c-.149-.041-.2-.026-.253.067a.23.23,0,0,0,.171.344.3.3,0,0,1,.218.3c0,.034-.086.055-.187.047-.214-.019-.315.076-.312.293,0,.083-.014.445-.022.806a5.342,5.342,0,0,0,.08,1.059c.078.34.07.423-.053.545-.2.194-.186.262.044.342.144.05.178.1.141.2-.057.142.105.556.222.562.039,0,.077-.078.086-.18.02-.273.127-.42.311-.428.133-.006.159.02.134.13a.243.243,0,0,0,.039.2c.038.036.025.106-.029.156s-.07.127,0,.211c.146.181-.213.467-.563.448-.371-.019-.506.151-.266.345a.441.441,0,0,0,.265.12c.134-.037.1.031-.054.1-.2.1-.174.309.047.35.1.1.017.108-.054.091a.32.32,0,0,0-.245.059c-.172.141-.315.1-.407-.1a.435.435,0,0,0-.288-.248c-.235-.067-.219-.231.053-.5.152-.153.156-.153-.186-.323s-.341-.172-.185-.3a.27.27,0,0,0-.183-.458c-.394-.022-.471.094-.488.756-.012.726-.077.862-.321.6-.158-.172-.16-.173-.27-.067-.165.159.029.461.293.456s.338.159.286.6c-.061.526-.094.581-.313.536-.167-.034-.185-.02-.158.128.022.128.069.165.191.159-.124.086-.361.331-.32.465a.762.762,0,0,0,.3.264c.3.17.354.521.215,1.221-.283.031-.23,1.957-.085,2.081.037.031.018.142-.043.245-.094.161-.087.206.043.3a.428.428,0,0,1,.163.272.279.279,0,0,0,.154.22c.153.067.127.309-.045.431a2.5,2.5,0,0,0-.283,1.387c.016.2.065.266.232.328s.188.094.1.145a.2.2,0,0,0-.105.151c-.415.012-.587,1.023-.3,1.159.064.031.073.072.021.109a1.521,1.521,0,0,0-.062.651c.02.593.02.593.323.682.381.112.414.217.065.212-.221,0-.257.016-.268.147-.149,1.421-.131,1.429-.316,1.438-.075,0-.132.042-.128.087.321,0,.5.117.44.25a1.293,1.293,0,0,0-.052.417,2.627,2.627,0,0,1-.076.581c-.055.2-.046.309.031.384s.077.119-.066.172c-.205.075-.221.192-.032.237.226.053.171.807-.062.859-.157.034-.169.069-.094.259a2.378,2.378,0,0,1,.111.429c.021.169.064.212.215.22.289.017.312.849.029,1.059a.214.214,0,0,0-.057.183.222.222,0,0,1-.07.188.4.4,0,0,0-.1.258c-.056.7-.052.834.028.909.121.109.166.3.455,1.907.107.6.219,1.118.281,1.324a26.986,26.986,0,0,0,7.813-1.983c.046-2.161.2-5.028.406-8.449.029-.389.06-.795.089-1.2.165-2.581.375-5.447.6-8.568.03-.331.046-.661.075-1.006.21-3.076.45-6.362.69-9.814.03-.479.074-.96.105-1.455.261-3.965.535-8.148.771-12.453-.039.039-.077.081-.123.136-.228.279-.239.264-.394.247-.1-.011-.174-.039-.181-.083.039-.073.145-.25.2-.329.126-.209.217-.392.275-.515a5.843,5.843,0,0,0,.287-.634c.071-1.176.131-2.375.188-3.579a8.5,8.5,0,0,1,1.74-.375,5.02,5.02,0,0,1,.719-.089,28.625,28.625,0,0,1,4.177-.048.238.238,0,0,0,.007-.194C7016.845,790.017,7016.851,790,7017.188,789.734Zm-10.459-4.661c-1.085.579-1.341.343-.22-.319.625-.322,1.108-.34.981-.112A3.07,3.07,0,0,1,7006.729,785.073Zm8.865.98c-.1.158-.193.116-.45-.172-.205-.217-.192-.3.11-.412.213-.084.239-.077.333.178A.559.559,0,0,1,7015.594,786.054Zm-13.769,24.53a.2.2,0,0,1,.033.1C7001.688,810.718,7001.739,810.574,7001.825,810.583Zm-2.945,23.7c-.161-.02-.153-.114.013-.158a.091.091,0,0,1,.12.073C6999.022,834.273,6998.98,834.3,6998.88,834.287Zm1.26-16.618c.076,0,.14.039.14.08s-.063.072-.138.069-.139-.039-.139-.08S7000.065,817.667,7000.14,817.67Zm-1.032,7.931c0-.042.064-.066.157-.058.168.016.27.141.162.2C6999.34,825.793,6999.111,825.69,6999.107,825.6Zm.226,1.755a.5.5,0,0,0,.283-.039c.106-.1.309-.064.467.089.282.27.082.345-.515.187C6999.113,827.475,6998.971,827.329,6999.333,827.356Zm.6,2.431a.161.161,0,0,1,.21-.081A.161.161,0,0,1,6999.938,829.787Zm.137-1.3c-.154.006-.163-.019-.051-.147.068-.073.05-.106-.078-.14-.193-.05-.082-.214.173-.248.122-.017.148.02.148.2C7000.266,828.428,7000.235,828.479,7000.074,828.485Zm-.081-2.622c-.166-.083-.1-.432.089-.475s.243.009.138.122c-.071.077-.06.114.047.158.076.033.141.09.143.128C7000.415,825.9,7000.146,825.941,6999.993,825.863Zm.545-7.288a1.1,1.1,0,0,0-.114.365c-.031.284-.033.287-.186.215a.272.272,0,0,1-.14-.22c0-.2-.127-.3-.388-.315-.318-.014-.432-.309-.223-.584.141-.186.143-.212.013-.256-.163-.056-.191-.175-.048-.215s.374.1.313.2.194.3.365.273a.557.557,0,0,1,.262.05A.317.317,0,0,1,7000.538,818.575ZM7001.6,814c-.064-.016-.122-.137-.135-.286-.022-.225-.052-.267-.254-.325s-.213-.077-.116-.13c.142-.078.552-.055.555.031l.031.4C7001.705,813.938,7001.684,814.016,7001.6,814Zm.034-1.665a.208.208,0,0,1-.2-.2c-.022-.161.115-.294.229-.22a.519.519,0,0,1,.1.244C7001.8,812.34,7001.787,812.359,7001.635,812.331Zm6.878-24.126c.333.047.323.05.086.2a2.034,2.034,0,0,0-.338.267c-.174.213-.4.159-.391-.117C7007.884,788.26,7008.074,788.149,7008.513,788.205Zm-1.464.885c.085.09.158.089.235-.006.142-.155.577-.155.672,0,.032.05-.078.216-.237.384a3.447,3.447,0,0,1-1.016.877.972.972,0,0,0-.42.434c-.095.411-.54.125-.5-.422C7005.8,789.594,7006.773,788.757,7007.049,789.091Zm-2.186,20.678c-.181.115-.385-.125-.292-.345a1.933,1.933,0,0,0,.105-.375c.019-.139.07-.189.186-.187C7005.047,808.863,7005.049,809.651,7004.863,809.768Zm.2-1.352c-.1.2-.219.151-.239-.1s.085-.361.246-.289C7005.176,808.074,7005.175,808.2,7005.063,808.416Zm.034-.6c-.1.067-.27-.145-.258-.32.01-.145.2-.322.295-.278C7005.248,807.267,7005.219,807.734,7005.1,807.813Zm-.08-7.08c-.327-.126-.108-.189.233-.066.158.055.26.131.27.2.017.114-.128.125-.221.017A1,1,0,0,0,7005.018,800.734Zm.487,1.167c-.192-.031-.211-.083-.094-.255C7005.74,801.867,7005.714,801.934,7005.5,801.9Zm.31-1.685a.291.291,0,0,0-.218.2c-.032.217-.238.1-.272-.162a2.31,2.31,0,0,1,0-.479.781.781,0,0,0-.087-.442c-.106-.164-.1-.209.052-.417.254-.345.329-.521.23-.54-.072-.13-.007-.15.068-.136s.13.072.118.144a.171.171,0,0,0,.07.164.164.164,0,0,1,.069.161.156.156,0,0,0,.059.155.452.452,0,0,1,.107.256C7006.1,799.706,7006.019,800.159,7005.814,800.215Zm.2-3.749c-.085.009-.352-.17-.343-.229a2.077,2.077,0,0,1,.137-.178l.184-.212C7006.205,795.986,7006.127,796.453,7006.014,796.466Zm1.2-4.542c-.276.086-.589.9-.431,1.062a.639.639,0,0,1,.112.306c.053.589.054.618-.155.607-.291-.016-.414.094-.341.306.119.356-.26.559-.416.223a.337.337,0,0,0-.192-.169c-.158-.034-.22-.156-.185-.362s0-.242-.338-.223c-.275.011-.275.011-.285.4a1.25,1.25,0,0,0,.058.483.293.293,0,0,1-.146.432c-.238.07-.538-.125-.474-.309a4.005,4.005,0,0,0,.14-.667,2.887,2.887,0,0,0-.14-1.1c-.092-.244-.085-.264.128-.34a.293.293,0,0,0,.232-.309c.015-.275.273-.442.471-.3.1.064.1.167.053.353a.37.37,0,0,0,.118.447c.2.2.22.356.033.414-.119.036-.074.167.068.2a1.875,1.875,0,0,1,.794-.579c.231-.039.5-.782.425-1.082-.119-.211.534-1.263,1.01-1.427a1.788,1.788,0,0,0,.525-.3c.149-.2.541-.133.475.048-.021.061-.4.32-.725.671-.437.49-.484.7-.435.788C7007.679,791.639,7007.5,791.823,7007.214,791.923Zm.481,6.212a.158.158,0,0,1,.052-.284.214.214,0,0,1,.175.069C7008.072,798.093,7007.908,798.251,7007.7,798.135Zm.625,1.2c-.193.063-.726-.13-.742-.269-.012-.086.031-.1.2-.065.313.059.539-.042.572-.256.037-.233.188-.333.307-.2C7008.82,798.724,7008.6,799.249,7008.32,799.336Zm1.333-2.142c.246.3-.156.7-.432.431a.305.305,0,0,1-.106-.2c.021-.116-.1-.13-.23-.027a.5.5,0,0,1-.357.05c-.306-.044-.31-.1-.015-.189a1.618,1.618,0,0,0,.328-.141A1.366,1.366,0,0,1,7009.653,797.193Zm.446-7.654c-.124.226-.627.3-.717.061-.044-.127.063-.2.392-.256C7010.111,789.317,7010.182,789.376,7010.1,789.539Zm.03-1.443c-.339.036-.5-.078-.278-.229s.568-.091.564.081C7010.42,788.026,7010.313,788.077,7010.13,788.1Zm.353,1.359c-.081-.162,0-.186.148-.039C7010.577,789.553,7010.509,789.509,7010.482,789.455Zm3.624.57c-.06.022-.174-.062-.3-.226a.648.648,0,0,0-.6-.3,1.791,1.791,0,0,1-.606-.134c-.229-.109-.233-.1-.4.24-.212.429-.342.467-.614.2-.221-.222-.235-.323.011-.342a.255.255,0,0,0,.229-.166.875.875,0,0,1,.221-.319c.255-.229.223-.314-.377-.539a4.092,4.092,0,0,1-.874-.3c-.057-.064.187-.15.673-.109.524.036.653.128.786.276s.179.19.341.158a.6.6,0,0,1,.409.112,8.663,8.663,0,0,1,.858.757l.23.275C7014.271,789.818,7014.261,789.97,7014.106,790.025Zm.084-2.339a2.952,2.952,0,0,1-.993-.489,2.677,2.677,0,0,0-.827-.347c-.774-.2-1.125-.339-.945-.614.063-.1.207-.1.54-.011a7.076,7.076,0,0,1,1.372.557C7014.138,787.214,7014.354,787.581,7014.19,787.685Zm.405.79c-.078.131-.355-.141-.337-.334.02-.175.042-.19.183-.108A.347.347,0,0,1,7014.6,788.476Zm.856-.175c-.125.17-.253.134-.271-.079-.011-.13.02-.208.1-.228C7015.435,787.951,7015.56,788.165,7015.452,788.3Z" transform="translate(-6998.472 -783.463)" fill="#26223d"/>
        <path id="Trazado_16800" data-name="Trazado 16800" d="M7000.131,792.534c-.207,0-.128.15-.027.169S7000.229,792.589,7000.131,792.534Z" transform="translate(-6997.616 -778.37)" fill="#26223d"/>
        <path id="Trazado_16801" data-name="Trazado 16801" d="M7000.257,799.869c.063-.136-.068-.209-.154-.087s.053.506.223.618c.127.084.141.076.153-.084a.292.292,0,0,0-.129-.256A.159.159,0,0,1,7000.257,799.869Z" transform="translate(-6997.572 -774.335)" fill="#26223d"/>
        <path id="Trazado_16802" data-name="Trazado 16802" d="M6999.762,794.179c-.281.217-.286.248-.062.318.12.039.175.1.165.184-.017.128.083.222.194.183.056-.02.05-.128-.036-.656C6999.989,794,6999.989,794,6999.762,794.179Z" transform="translate(-6997.874 -777.519)" fill="#26223d"/>
        <path id="Trazado_16803" data-name="Trazado 16803" d="M7000.077,803.244c-.138-.053-.144-.081-.045-.206s.091-.153-.061-.223c-.105-.048-.164-.126-.146-.2a.1.1,0,0,0-.085-.131c-.221-.038-.113-.069.058-.1.333-.061.331-.05.171-.562-.066-.214-.214-.18-.224.053s-.289.415-.574.394c-.327-.028-.469,1.6-.2,2.409.062.2.062.2.268-.011.182-.184.19-.225.086-.351-.182-.216-.146-.248.158-.147.149.052.272.126.271.167.143.036.186-.092.188-.236s.045-.278.092-.3a.343.343,0,0,0,.129-.187C7000.243,803.337,7000.235,803.3,7000.077,803.244Z" transform="translate(-6998.272 -773.233)" fill="#26223d"/>
        <path id="Trazado_16804" data-name="Trazado 16804" d="M6999.963,801.128a.38.38,0,0,1-.453.094c-.187-.12-.246-.078-.259.188a.45.45,0,0,1-.152.35c-.168.1-.2.306-.045.319.188.016.638-.209.643-.322,0-.059.087-.139.188-.178a.462.462,0,0,0,.227-.175c.066-.159.078-.225.035-.228Z" transform="translate(-6998.202 -773.544)" fill="#26223d"/>
        <path id="Trazado_16805" data-name="Trazado 16805" d="M7010.7,785.54c-.273.083-.291.141-.178.422s.271.3.543.044C7011.279,785.8,7011.021,785.45,7010.7,785.54Z" transform="translate(-6991.744 -782.305)" fill="#26223d"/>
        <path id="Trazado_16806" data-name="Trazado 16806" d="M7000.407,799.254c.045-.145-.13-.189-.216-.053s-.143.621-.081.628l.28-.026c.271-.036.308-.136.113-.316A.268.268,0,0,1,7000.407,799.254Z" transform="translate(-6997.568 -774.672)" fill="#26223d"/>
        <path id="Trazado_16807" data-name="Trazado 16807" d="M7011.085,786.9a.745.745,0,0,1,.064.419c-.067.12.235.433.379.387a.173.173,0,0,0,.093-.186,1.678,1.678,0,0,1,.013-.35c.061-.369-.132-1.109-.273-1.1C7011.082,786.1,7010.955,786.556,7011.085,786.9Z" transform="translate(-6991.419 -782)" fill="#26223d"/>
        <path id="Trazado_16808" data-name="Trazado 16808" d="M7010.546,786.1c-.042-.087-.094-.081-.178.022a.219.219,0,0,0-.038.254,1.158,1.158,0,0,0,.276.226c.181.109.188.1.172-.069a.488.488,0,0,0-.1-.251A.623.623,0,0,1,7010.546,786.1Z" transform="translate(-6991.829 -782.016)" fill="#26223d"/>
        <path id="Trazado_16809" data-name="Trazado 16809" d="M6999.4,803.461c-.175.02-.194.2-.034.283.123.062.142.048.145-.111C6999.513,803.508,6999.476,803.453,6999.4,803.461Z" transform="translate(-6998.033 -772.234)" fill="#26223d"/>
        <path id="Trazado_16810" data-name="Trazado 16810" d="M7000.409,798.861a.133.133,0,0,0,.106-.1C7000.2,798.809,7000.23,798.9,7000.409,798.861Z" transform="translate(-6997.461 -774.874)" fill="#26223d"/>
        <path id="Trazado_16811" data-name="Trazado 16811" d="M7000.3,798.132c-.035.128-.01.175.111.2.177.042.247-.17.1-.323C7000.415,797.9,7000.361,797.931,7000.3,798.132Z" transform="translate(-6997.455 -775.329)" fill="#26223d"/>
        <path id="Trazado_16812" data-name="Trazado 16812" d="M7000.384,796.516c-.07.047.016.261.113.275.045.006.088-.055.095-.136C7000.606,796.514,7000.5,796.441,7000.384,796.516Z" transform="translate(-6997.414 -776.151)" fill="#26223d"/>
        <path id="Trazado_16813" data-name="Trazado 16813" d="M6999.916,793.916c-.159-.075-.134.081-.05.1A.173.173,0,0,0,6999.916,793.916Z" transform="translate(-6997.729 -777.605)" fill="#26223d"/>
        <path id="Trazado_16814" data-name="Trazado 16814" d="M7001.7,798.167c.01-.1-.142-.156-.215-.075-.089.1-.083.108.07.126C7001.636,798.23,7001.7,798.206,7001.7,798.167Z" transform="translate(-6996.811 -775.271)" fill="#26223d"/>
        <path id="Trazado_16815" data-name="Trazado 16815" d="M7001.192,797.876a.121.121,0,0,0-.1.089C7001.227,798.053,7001.271,798.013,7001.192,797.876Z" transform="translate(-6997.003 -775.37)" fill="#26223d"/>
        <path id="Trazado_16816" data-name="Trazado 16816" d="M7001.07,798.192c-.006.072.029.117.082.106a.135.135,0,0,0,.1-.112.1.1,0,0,0-.081-.106C7001.124,798.073,7001.077,798.123,7001.07,798.192Z" transform="translate(-6997.016 -775.256)" fill="#26223d"/>
        <path id="Trazado_16817" data-name="Trazado 16817" d="M7000.991,798.747c.067.1.068.181.007.229-.139.108-.062.226.233.372.345.169.383.169.5,0a.832.832,0,0,0,.078-.458c-.024-.315-.024-.315-.416-.373C7000.939,798.452,7000.838,798.51,7000.991,798.747Z" transform="translate(-6997.097 -775.023)" fill="#26223d"/>
        <path id="Trazado_16818" data-name="Trazado 16818" d="M7001.791,788.656c.053-.392-.082-.437-.21-.056-.109.34-.08.545.045.525C7001.73,789.107,7001.75,789.043,7001.791,788.656Z" transform="translate(-6996.765 -780.727)" fill="#26223d"/>
        <path id="Trazado_16819" data-name="Trazado 16819" d="M7001.292,799.339c-.316-.058-.368-.053-.372.028s.623.251.838.216C7002,799.542,7001.777,799.426,7001.292,799.339Z" transform="translate(-6997.099 -774.57)" fill="#26223d"/>
        <path id="Trazado_16820" data-name="Trazado 16820" d="M7000.829,795.922c-.09.016-.031.169.07.184C7001.117,796.061,7000.93,795.9,7000.829,795.922Z" transform="translate(-6997.174 -776.468)" fill="#26223d"/>
        <path id="Trazado_16821" data-name="Trazado 16821" d="M7000.477,789.869c.079.056.264-.849.217-1.018-.04-.087-.081-.1-.2-.028-.136.075-.157.066-.219-.112-.086-.273-.261-.087-.257.265C7000.021,789.229,7000.355,789.861,7000.477,789.869Z" transform="translate(-6997.605 -780.59)" fill="#26223d"/>
        <path id="Trazado_16822" data-name="Trazado 16822" d="M7000.169,790.306c-.127.084-.1.707.031.762.08.031.108-.044.115-.306C7000.328,790.315,7000.3,790.223,7000.169,790.306Z" transform="translate(-6997.566 -779.636)" fill="#26223d"/>
        <path id="Trazado_16823" data-name="Trazado 16823" d="M6999.494,801.236c.268.052.357.048.437-.016.13-.1.132-.167.011-.245-.07-.047-.067-.091.008-.156.167-.145.142-.3-.047-.3a.192.192,0,0,0-.2.147c-.02.084-.172.208-.366.3C6998.979,801.122,6998.987,801.139,6999.494,801.236Z" transform="translate(-6998.128 -773.888)" fill="#26223d"/>
        <path id="Trazado_16824" data-name="Trazado 16824" d="M6999.291,798.777c.126-.027.134-.1.017-.15C6999.081,798.746,6999.15,798.808,6999.291,798.777Z" transform="translate(-6998.087 -774.948)" fill="#26223d"/>
        <path id="Trazado_16825" data-name="Trazado 16825" d="M6999.049,800.428c.06.006.071.072.034.167-.082.216.071.356.264.242.266-.161.043-.854-.265-.785C6998.95,800.081,6998.922,800.416,6999.049,800.428Z" transform="translate(-6998.195 -774.151)" fill="#26223d"/>
        <path id="Trazado_16826" data-name="Trazado 16826" d="M7001.158,792.55a.393.393,0,0,1,.131-.251.138.138,0,0,0,.061-.164,2.2,2.2,0,0,1-.067-.255c-.036-.222-.159-.2-.268.059-.056.13-.141.226-.192.215-.147-.03-.045.309.143.458C7001.127,792.744,7001.128,792.744,7001.158,792.55Z" transform="translate(-6997.193 -778.822)" fill="#26223d"/>
        <path id="Trazado_16827" data-name="Trazado 16827" d="M7000.912,794.319c-.137.131-.017.339.22.381a4.165,4.165,0,0,0,.041-1.48c-.064-.337-.166-.42-.4-.322-.152.064-.132.456.038.65C7001.021,793.79,7001.07,794.166,7000.912,794.319Z" transform="translate(-6997.237 -778.187)" fill="#26223d"/>
      </g>
      <path id="Trazado_16828" data-name="Trazado 16828" d="M7022.876,800.892c-.03.495-.074.976-.105,1.455-16.07,3.421-34.047.96-48.571-5.626a3.831,3.831,0,0,1,.15-.361,87.67,87.67,0,0,0,28.6,6.332A81.338,81.338,0,0,0,7022.876,800.892Z" transform="translate(-6908.959 -729.114)" fill="#a097d5"/>
      <path id="Trazado_16829" data-name="Trazado 16829" d="M7013.772,790.643c-.015.2-.015.39-.03.586-7.022,2.146-14.644,1.905-21.861.749.15-.24.3-.481.45-.706A60.986,60.986,0,0,0,7013.772,790.643Z" transform="translate(-6899.03 -732.325)" fill="#a097d5"/>
      <path id="Trazado_16830" data-name="Trazado 16830" d="M7010.174,792.864a5.037,5.037,0,0,0-.719.089c-1.755-2.836-3.377-5.792-4.877-8.732a12.18,12.18,0,0,1-1.56-4.908c.194-.045.4-.089.614-.134C7004.262,784.01,7007.8,788.572,7010.174,792.864Z" transform="translate(-6892.776 -738.762)" fill="#a097d5"/>
      <path id="Trazado_16831" data-name="Trazado 16831" d="M7015.994,806.479c-.029.345-.045.675-.075,1.006a74.532,74.532,0,0,1-30.806.164c-.029-.089-.044-.15-.075-.225a137.462,137.462,0,0,0,19.1.661A88.769,88.769,0,0,0,7015.994,806.479Z" transform="translate(-6902.871 -723.432)" fill="#a097d5"/>
      <path id="Trazado_16832" data-name="Trazado 16832" d="M7014.444,812.61c-.029.4-.06.81-.089,1.2-8.793,2.987-18.953,3.677-27.565,1.4-.059-.315-.118-.615-.194-.931,5.867.885,11.585,1.487,17.616.735A51.284,51.284,0,0,0,7014.444,812.61Z" transform="translate(-6901.998 -719.99)" fill="#a097d5"/>
    </g>
  </g>
</svg>
