<svg xmlns="http://www.w3.org/2000/svg" width="67.366" height="206.435" viewBox="0 0 67.366 206.435">
  <g id="Grupo_7711" data-name="Grupo 7711" transform="translate(-6864.373 -711.56)">
    <path id="Trazado_16728" data-name="Trazado 16728" d="M6901.2,723.072a3.943,3.943,0,0,0-.965-1.714,15.336,15.336,0,0,0-11.548-5.334,9.192,9.192,0,0,0-4.471,1,9.042,9.042,0,0,0-2.475,2.132,14.556,14.556,0,0,0-3.37,8.393c-.068,1.077-.016,2.159-.092,3.234-.347,4.863-3.308,9.477-2.581,14.3a16.823,16.823,0,0,0,3.213,6.892,65.7,65.7,0,0,0,13.228,14.03c2.452-6.429,8.587-11.47,9.041-18.334.234-3.529-1.115-6.955-1.52-10.469-.468-4.069.345-8.175,1.337-12.149A4.58,4.58,0,0,0,6901.2,723.072Z" transform="translate(4.405 1.753)" fill="#212020"/>
    <path id="Trazado_16729" data-name="Trazado 16729" d="M6905.406,755.167l-1.211,16.712-2.052-3.578-2.024,1.1-2.636,1.416-1.946,1.061-.434-5.093-.942-11.265a13.743,13.743,0,0,0,3.086.589,15.473,15.473,0,0,0,2.872.019,21.59,21.59,0,0,0,2.948-.393C6903.873,755.579,6904.64,755.383,6905.406,755.167Z" transform="translate(11.697 17.122)" fill="#ffc990"/>
    <path id="Trazado_16730" data-name="Trazado 16730" d="M6899.842,739.433l-.108,0a5.438,5.438,0,0,0-5.6,5.275l.173,19.556a19.586,19.586,0,0,0,11.226.284l.522-14.658C6906.548,744.047,6902.845,739.522,6899.842,739.433Z" transform="translate(11.688 10.942)" fill="#ededed"/>
    <path id="Trazado_16731" data-name="Trazado 16731" d="M6907.363,793.05a5.347,5.347,0,0,1-.385,2.563,18.783,18.783,0,0,1-2.521,4.732c-1.251,1.849-5.026-1.9-5.036-2.359a1.167,1.167,0,0,1,.6-1.1c.9-.383.122,1,.957.469a1.544,1.544,0,0,0,.53-.886,2.6,2.6,0,0,0-.333-2.656c-.468-.412.688-.383.1-.514a5.573,5.573,0,0,1-3.559-4.072c-.194-1.666,1.283-2.808,2.673-3.526a2.22,2.22,0,0,1,2.019-.118C6902.854,785.81,6907.151,792.11,6907.363,793.05Z" transform="translate(13.088 28.989)" fill="#ffc990"/>
    <path id="Trazado_16732" data-name="Trazado 16732" d="M6904.978,796.055,6900.1,797.5l-.424.128-6.837-25.271c1-1.287,1.14-8.136,2.977-8.094,1.219.031,4.663-2.778,5.775-2.366,1.931.713,2.395,4.984,2.412,6.266C6904.071,772.642,6904.978,796.055,6904.978,796.055Z" transform="translate(11.179 19.749)" fill="#ffc990"/>
    <g id="Grupo_7704" data-name="Grupo 7704" transform="translate(6879.057 793.13)">
      <path id="Trazado_16733" data-name="Trazado 16733" d="M6919.323,860.979c.453,1.79-6.685,1.652-7.452,1.652l-13.729-.315c-4.02-.855-1.337-7.648-1.181-7.983a2.81,2.81,0,0,1,1.612-1.632l.021-.02c.649-.216,2.456-.334,6.231,1.259h.021c.038.02.1.039.2.078,3.873,1.613,6.671,2.478,10.19,3.894C6917.18,858.7,6918.693,859.641,6919.323,860.979Z" transform="translate(-6866.662 -737.768)" fill="#094d61"/>
      <path id="Trazado_16734" data-name="Trazado 16734" d="M6921.574,889.522c-2.987,2.163-7.157,1.514-11.482-1.1a12.638,12.638,0,0,0-4.855-1.611.239.239,0,0,0-.021-.118c-.53-6.488-1.179-12.053-1.847-16.87-1.122-7.944-2.3-13.9-2.97-18.857-.157-1.081-.275-2.122-.375-3.106-.077-.709-.117-1.377-.155-2.046a24.676,24.676,0,0,1,2.575-13.134c-3.146-8.082-5.82-22.71-7.708-32.541-.02.313-.02.628-.04.943-.078,1.848-.137,3.657-.216,5.447-.275,7.236-.53,13.744-1.141,21.569-.138,1.828-.295,3.736-.491,5.742-.649,2.615-1.514,6.823-2.438,11.758-.137.746-.294,1.494-.433,2.262-.217,1.081-.433,2.2-.629,3.342-.078.412-.157.806-.237,1.219-2.083,11.443-4.284,24.42-5.309,30.477h-.019l-3.815,2.064-3.224,1.731c0-.511,0-1-.02-1.494v-.237c-.039-5.878-.295-11.049-.591-15.651-.511-7.806-1.18-14-1.218-19.29,0-.746,0-1.454.02-2.161.137-5.821,1.219-10.6,4.4-15.475.021-.039.041-.059.061-.1-.02-.079-.02-.138-.039-.217-1.573-7.9-1.967-16-2.988-32.817-.315-3.323,3.559-27.587,3.577-27.783l.532-.02,5.367-.274,10.422-.551,3.243-.157,6.371-.334h.059q.088.265.178.531c.04.118.1.237.137.355a154.4,154.4,0,0,1,8.928,46.205c.156,5.015.825,9.243.314,14.1l-.826,13.1-.216,3.441-.118,1.906-.059.964-2.026,32.227a2.7,2.7,0,0,0,1.672,2.752C6916.443,886.711,6919.117,888.539,6921.574,889.522Z" transform="translate(-6874.917 -770.132)" fill="#ffc990"/>
      <g id="Grupo_7703" data-name="Grupo 7703" transform="translate(0.801 106.674)">
        <path id="Trazado_16735" data-name="Trazado 16735" d="M6898.876,860.979c.452,1.79-6.686,1.652-7.452,1.652l-13.729-.315c-4.02-.855-1.338-7.648-1.182-7.983a2.812,2.812,0,0,1,1.612-1.632l.02-.02c.648-.216,2.458-.334,6.233,1.259h.021c.038.02.1.039.2.078,3.873,1.613,6.672,2.478,10.192,3.894C6896.732,858.7,6898.246,859.641,6898.876,860.979Z" transform="translate(-6875.492 -844.442)" fill="#094d61"/>
        <path id="Trazado_16736" data-name="Trazado 16736" d="M6883.274,852.88l.587-6.15h-6.749c.353,3.04-1.164,6.316-.877,9.891a.252.252,0,0,1,.02.118,12.439,12.439,0,0,1,4.857,1.613c4.323,2.606,8.491,3.252,11.473,1.1a40.577,40.577,0,0,1-7.639-3.821A3,3,0,0,1,6883.274,852.88Z" transform="translate(-6875.213 -846.73)" fill="#ffc990"/>
      </g>
    </g>
    <path id="Trazado_16737" data-name="Trazado 16737" d="M6874.938,825.944h15.041c-.295,1.475-.57,3.008-.866,4.561-6.546.865-10.518,4.326-12.977,16.89C6875.548,838.507,6874.762,831.724,6874.938,825.944Z" transform="translate(4.139 44.913)" fill="#131313" opacity="0.1"/>
    <path id="Trazado_16738" data-name="Trazado 16738" d="M6907.379,825.944l-.177,2.87c-5.153.727-9.714,6.823-10.912,19.092-1.378-9.673-2.812-16.437-3.345-21.962Z" transform="translate(11.22 44.913)" fill="#131313" opacity="0.1"/>
    <path id="Trazado_16739" data-name="Trazado 16739" d="M6922.942,861.6c-1.266,2.532-18.836,3.544-32.963,3.076-9.506-.305-17.442-1.291-17.785-2.95-.14-13.241.405-24.785,1.278-34.634.621-7,1.418-13.152,2.253-18.418.7-4.469,1.444-8.342,2.166-11.659a.154.154,0,0,1,.024-.1c.178-.811.394-1.748.646-2.748a43.208,43.208,0,0,0-.506-22.987,51,51,0,0,1-1.733-7.633c-.026-.216-.064-.405-.077-.634-.127-.873-.24-1.734-.367-2.607-.164-1.253-.329-2.507-.506-3.773-.671-4.569-2.393-6.456-3.924-11.393,2.076-2.987,15.468-7.531,16.24-7.823a52.536,52.536,0,0,1,13.268.152c3.544,1.278,7.29,2.114,8.911,3.126,1.239,10.406-3.1,17.76,1.418,29.572,8.948,10.265,10.341,21.962,9.911,34.911-.127,4.317-.47,8.772-.811,13.355q-.152,2.2-.3,4.443c-.151,2.216-.278,4.469-.354,6.747C6919.335,839.74,6919.739,850.424,6922.942,861.6Z" transform="translate(2.778 9.976)" fill="#187e89"/>
    <path id="Trazado_16740" data-name="Trazado 16740" d="M6876.8,740.34c-3.6,1.519-4.346,2.028-5.361,3.475a62.606,62.606,0,0,1,2.686,11.644c.334,2.359,1.291,2.571,1.605,4.912a35.653,35.653,0,0,0,1.16,4.858C6882.373,757.01,6881.3,747.6,6876.8,740.34Z" transform="translate(2.776 11.3)" fill="#ededed"/>
    <g id="Grupo_7705" data-name="Grupo 7705" transform="translate(6901.074 756.478)">
      <path id="Trazado_16741" data-name="Trazado 16741" d="M6890.726,758.7c0,4.848,3.652,8.776,8.156,8.776s7.582-2.257,7.864-7.919c.292-5.863-5.785-9.634-6.953-14.805C6898.747,740.125,6890.726,753.854,6890.726,758.7Z" transform="translate(-6890.726 -743.814)" fill="#187e89"/>
      <path id="Trazado_16742" data-name="Trazado 16742" d="M6897.472,762.228c4.754,0,8-2.363,8.3-8.286a8.379,8.379,0,0,0-.109-1.748,8.927,8.927,0,0,1,.807,4.074c-.282,5.661-3.361,7.919-7.864,7.919a8.092,8.092,0,0,1-7.178-4.607A8.312,8.312,0,0,0,6897.472,762.228Z" transform="translate(-6890.45 -740.523)" fill="#1d1d1b" opacity="0.1"/>
    </g>
    <g id="Grupo_7707" data-name="Grupo 7707" transform="translate(6880.684 711.56)">
      <path id="Trazado_16743" data-name="Trazado 16743" d="M6898.673,727.394l-5.589-3.848-2.438-11.846C6900.715,711.072,6906.851,720.982,6898.673,727.394Z" transform="translate(-6870.367 -711.517)" fill="#212020"/>
      <path id="Trazado_16744" data-name="Trazado 16744" d="M6896.184,741.71l-1.088-5.568c-5.347-7.752-6.9-10.191-12.516-10.139l-.293,16.032,10.807,13.452Z" transform="translate(-6873.648 -705.89)" fill="#edbb86"/>
      <g id="Grupo_7706" data-name="Grupo 7706">
        <path id="Trazado_16745" data-name="Trazado 16745" d="M6877.859,726.29c-.2-14.076,9.7-13.851,14.913-14.088,11.274.444,12.044,11.361,10.923,14.983-.634,2.047.036,2.621,1.174,4.053a1.6,1.6,0,0,1-.178,2.567c-.474.382-.961.32-.81,2.155.166,1.987-.27,3.991-1.418,5.062-1.46,1.363-2.612,1.561-5.538,1.478-3.009-.088-5.775-1.292-7.595-7.838C6888.593,730.928,6878.091,729.371,6877.859,726.29Z" transform="translate(-6875.39 -711.308)" fill="#ffc990"/>
        <path id="Trazado_16746" data-name="Trazado 16746" d="M6884.331,742.17c6.788-1.661,2.952-11.51,4.587-11.63,10.71-.786,3.878-10.963,17.214-8.861.028-2.916-.44-11.392-15.658-9.956-7.817.738-13.15,5-14.091,11.981C6875.468,730.5,6876.274,744.141,6884.331,742.17Z" transform="translate(-6876.084 -711.56)" fill="#212020"/>
        <path id="Trazado_16747" data-name="Trazado 16747" d="M6883.118,726.237c.107,2.2,2.091,4.653,3.53,4.582s1.192-1.848,1.106-4.05c-.057-1.458.21-3.546-1.393-3.929C6884.962,722.506,6882.959,723.007,6883.118,726.237Z" transform="translate(-6873.326 -707.166)" fill="#ffc990"/>
      </g>
    </g>
    <g id="Grupo_7708" data-name="Grupo 7708" transform="translate(6887.693 758.914)">
      <path id="Trazado_16748" data-name="Trazado 16748" d="M6897.147,760.449c0,4.848-3.652,8.776-8.155,8.776s-7.583-2.259-7.864-7.919c-.293-5.863,5.784-9.634,6.952-14.805C6889.124,741.874,6897.147,755.6,6897.147,760.449Z" transform="translate(-6881.118 -745.563)" fill="#187e89"/>
      <path id="Trazado_16749" data-name="Trazado 16749" d="M6890.125,763.977c-4.754,0-8-2.363-8.3-8.286a8.44,8.44,0,0,1,.108-1.748,8.922,8.922,0,0,0-.8,4.073c.281,5.66,3.36,7.919,7.864,7.919a8.091,8.091,0,0,0,7.177-4.605A8.316,8.316,0,0,1,6890.125,763.977Z" transform="translate(-6881.118 -742.272)" fill="#1d1d1b" opacity="0.1"/>
    </g>
    <path id="Trazado_16750" data-name="Trazado 16750" d="M6905.595,788.923c-5.267-4.534-12.2-7.374-18.3-11.015a26.726,26.726,0,0,0-2.746-4.635c-4.709-7.253-5.785-16.19-6.735-24.772-.645,2.444-1.366,4.874-2.139,7.279.127.873.24,1.734.367,2.607.013.228.051.418.077.634a51,51,0,0,0,1.733,7.633,43.208,43.208,0,0,1,.506,22.987c-.252,1-.468,1.937-.646,2.748a.154.154,0,0,0-.024.1c-.722,3.317-1.47,7.19-2.166,11.659-.835,5.266-1.632,11.417-2.253,18.418-.873,9.849-1.418,21.392-1.278,34.634.343,1.659,8.279,2.645,17.785,2.95-5.7-4.571-10.76-9.861-12.672-16.761a36.6,36.6,0,0,1-1.05-8.785,110.381,110.381,0,0,1,.355-11.772,112.808,112.808,0,0,1,9.434-36.792,5.663,5.663,0,0,1,1.4.653,17.87,17.87,0,0,1,3.062,3.238,11.754,11.754,0,0,0,11.284,3.412C6903.788,793.014,6906.105,790,6905.595,788.923Z" transform="translate(2.982 14.505)" fill="#1d1d1b" opacity="0.1"/>
    <path id="Trazado_16751" data-name="Trazado 16751" d="M6913.887,785.877c-.127,4.317-.47,8.772-.811,13.355a25.346,25.346,0,0,1-3.507,5.392c-1.405,1.607-3.089,2.975-4.633,4.455-6.659,6.367-10.9,14.8-14.874,23.1a48.762,48.762,0,0,1,8.1-20.71c3.354-4.873,7.594-9.1,10.76-14.1A39.674,39.674,0,0,0,6913.887,785.877Z" transform="translate(10.088 29.181)" fill="#1d1d1b" opacity="0.1"/>
    <path id="Trazado_16752" data-name="Trazado 16752" d="M6910.524,798.657c-.151,2.216-.278,4.469-.354,6.747a20.863,20.863,0,0,1-5.2,5.734c-1.85,1.393-3.95,2.494-5.507,4.19-1.887,2.077-2.81,4.835-3.671,7.506,1-4.76,2.328-9.646,5.468-13.342.912-1.064,1.937-2,2.924-2.987A46.653,46.653,0,0,0,6910.524,798.657Z" transform="translate(12.337 34.199)" fill="#1d1d1b" opacity="0.1"/>
    <path id="Trazado_16753" data-name="Trazado 16753" d="M6884.717,794.86a29.227,29.227,0,0,1-.594-4.429,66.541,66.541,0,0,1,.413-13.545c-.2,6.9.427,13.931,2.935,20.363,1.929,4.951,5.008,9.852,4.357,15.124C6890.557,806.184,6886.123,801.021,6884.717,794.86Z" transform="translate(7.689 25.651)" fill="#1d1d1b" opacity="0.1"/>
    <path id="Trazado_16754" data-name="Trazado 16754" d="M6886,797.615a41.33,41.33,0,0,1,1.938,5.072,8.636,8.636,0,0,1-.095,5.341c-.059-2.438-1.545-4.571-2.584-6.779a19.619,19.619,0,0,1-1.427-12.286A26.94,26.94,0,0,0,6886,797.615Z" transform="translate(7.477 30.392)" fill="#1d1d1b" opacity="0.1"/>
    <path id="Trazado_16755" data-name="Trazado 16755" d="M6897.123,776.572l-2.7,4.991L6866,768.854c-1.689-1.727-2.266-3.519-.737-6.1l.056-.095a5.438,5.438,0,0,1,7.449-1.911Z" transform="translate(0 19.015)" fill="#ffc990"/>
    <path id="Trazado_16756" data-name="Trazado 16756" d="M6878.5,759.475l-5.257,13.513-.868-.719-7.8-6.511,3.334-10.09a18.159,18.159,0,0,0,8.207,3.482C6876.911,759.3,6877.708,759.4,6878.5,759.475Z" transform="translate(0.077 17.319)" fill="#ffc990"/>
    <path id="Trazado_16757" data-name="Trazado 16757" d="M6879.452,760.261l-1.362,3.5-.532,1.37c-.79-.078-1.587-.177-2.387-.324a18.159,18.159,0,0,1-8.207-3.482l5.395-16.383c2.031-4.635,5.377-3.817,6.984-3.225C6881.428,747.128,6881.592,753.26,6879.452,760.261Z" transform="translate(1.017 11.661)" fill="#ededed"/>
    <g id="Grupo_7710" data-name="Grupo 7710" transform="translate(6889.452 794.485)">
      <path id="Trazado_16758" data-name="Trazado 16758" d="M6889.181,774.678a1.448,1.448,0,0,1-1.274-1.6v-.006a1.235,1.235,0,0,1,1.377-1.086,12.715,12.715,0,0,0,6.01,1.018c1.032-.125,2.524.031,1.282,1.518a3.408,3.408,0,0,1-2.649.588Z" transform="translate(-6880.215 -770.763)" fill="#edbb86"/>
      <g id="Grupo_7709" data-name="Grupo 7709">
        <path id="Trazado_16759" data-name="Trazado 16759" d="M6892.055,776.214a1.329,1.329,0,0,1-.262-1.927l.01-.011a1.278,1.278,0,0,1,1.732-.2l4,3.278c.6.44.9.968.394,1.625a1.248,1.248,0,0,1-1.615-.038Z" transform="translate(-6878.803 -770.036)" fill="#edbb86"/>
        <path id="Trazado_16760" data-name="Trazado 16760" d="M6891.3,777.895a1.329,1.329,0,0,1-.484-1.883l.007-.011a1.279,1.279,0,0,1,1.7-.4l4.356,2.787c.645.366,1.04.957.583,1.568a1.248,1.248,0,0,1-1.609.152Z" transform="translate(-6879.153 -769.406)" fill="#edbb86"/>
        <path id="Trazado_16761" data-name="Trazado 16761" d="M6890.283,779.155a1.265,1.265,0,0,1-.614-1.746l.007-.012a1.217,1.217,0,0,1,1.577-.521l4.361,2.288c.643.3,1.127.8.68,1.441a1.186,1.186,0,0,1-1.514.276Z" transform="translate(-6879.576 -768.883)" fill="#edbb86"/>
        <path id="Trazado_16762" data-name="Trazado 16762" d="M6889.279,780.341a1.185,1.185,0,0,1-.689-1.593l.006-.011a1.141,1.141,0,0,1,1.439-.592l4.228,1.851c.62.235,1.162.708.732,1.3a1.112,1.112,0,0,1-1.4.358Z" transform="translate(-6879.983 -768.37)" fill="#edbb86"/>
        <path id="Trazado_16763" data-name="Trazado 16763" d="M6897.979,777.318l-.016.017a1.27,1.27,0,0,1-1.769.234,1.218,1.218,0,0,1,.284,1.726l-.017.017a1.272,1.272,0,0,1-1.764.224l-.306-.216a1.2,1.2,0,0,1,.276,1.713l-.006.021a1.276,1.276,0,0,1-1.769.233l-.332-.245a1.078,1.078,0,0,1,.25,1.529l-.016.017a1.1,1.1,0,0,1-1.527.276l-.379-.283s-4.248-2.883-5.147-5.9a.128.128,0,0,0-.02-.17.157.157,0,0,0-.049-.071l-3.209-2.542a.2.2,0,0,1-.043-.288l.068-.079,1.64-1.984,4.155-.437.921.728.074.057a12.558,12.558,0,0,1,7.756,3.234l.654.478A1.205,1.205,0,0,1,6897.979,777.318Z" transform="translate(-6882.38 -771.105)" fill="#ffc990"/>
      </g>
    </g>
  </g>
</svg>
