<svg xmlns="http://www.w3.org/2000/svg" width="623.442" height="623.442" viewBox="0 0 623.442 623.442">
  <g id="Grupo_7723" data-name="Grupo 7723" transform="translate(-4553.292 2082.017)">
    <rect id="Rectángulo_1559" data-name="Rectángulo 1559" width="220.42" height="220.42" transform="translate(4709.152 -1770.296) rotate(45)" fill="#8cd0ed"/>
    <rect id="Rectángulo_1560" data-name="Rectángulo 1560" width="220.42" height="220.42" transform="translate(5020.873 -1770.296) rotate(45)" fill="#8cd0ed"/>
    <rect id="Rectángulo_1561" data-name="Rectángulo 1561" width="220.42" height="220.42" transform="translate(5020.873 -2082.017) rotate(45)" fill="#8cd0ed"/>
    <rect id="Rectángulo_1562" data-name="Rectángulo 1562" width="220.42" height="220.42" transform="translate(4709.152 -2082.017) rotate(45)" fill="#8cd0ed"/>
    <rect id="Rectángulo_1563" data-name="Rectángulo 1563" width="220.42" height="220.42" transform="translate(4865.013 -1926.157) rotate(45)" fill="#00223d"/>
    <path id="Trazado_16887" data-name="Trazado 16887" d="M6.948-12.6H1.494V0H4.41V-3.474H6.948c3.366,0,5.472-1.746,5.472-4.554C12.42-10.854,10.314-12.6,6.948-12.6ZM6.786-5.85H4.41v-4.374H6.786c1.782,0,2.682.81,2.682,2.2C9.468-6.66,8.568-5.85,6.786-5.85ZM16.974-8.406V-9.684H14.292V0H17.1V-4.572a2.379,2.379,0,0,1,2.574-2.7c.216,0,.4.018.63.036V-9.828A3.908,3.908,0,0,0,16.974-8.406ZM26.5.144a4.97,4.97,0,0,0,5.31-4.986A4.97,4.97,0,0,0,26.5-9.828a4.985,4.985,0,0,0-5.328,4.986A4.985,4.985,0,0,0,26.5.144Zm0-2.3a2.457,2.457,0,0,1-2.484-2.682A2.457,2.457,0,0,1,26.5-7.524a2.444,2.444,0,0,1,2.466,2.682A2.444,2.444,0,0,1,26.5-2.16ZM39.4-9.828a3.76,3.76,0,0,0-2.916,1.17v-4.7H33.678V0H36.36V-1.116A3.763,3.763,0,0,0,39.4.144a4.7,4.7,0,0,0,4.824-4.986A4.7,4.7,0,0,0,39.4-9.828ZM38.916-2.16A2.444,2.444,0,0,1,36.45-4.842a2.444,2.444,0,0,1,2.466-2.682,2.444,2.444,0,0,1,2.466,2.682A2.444,2.444,0,0,1,38.916-2.16ZM46.1,0h2.808V-13.356H46.1ZM61-4.806a4.794,4.794,0,0,0-5.04-5.022A4.93,4.93,0,0,0,50.8-4.842c0,2.88,2.178,4.986,5.526,4.986a5.072,5.072,0,0,0,4-1.566l-1.494-1.62a3.283,3.283,0,0,1-2.43.936A2.582,2.582,0,0,1,53.622-4.05h7.326C60.966-4.284,61-4.59,61-4.806ZM55.98-7.7a2.3,2.3,0,0,1,2.376,2.016h-4.77A2.293,2.293,0,0,1,55.98-7.7Zm19.3-2.124a4.354,4.354,0,0,0-3.492,1.584A3.615,3.615,0,0,0,68.6-9.828a3.922,3.922,0,0,0-3.042,1.26V-9.684H62.874V0h2.808V-4.86c0-1.728.882-2.538,2.124-2.538,1.17,0,1.836.72,1.836,2.286V0H72.45V-4.86c0-1.728.882-2.538,2.142-2.538,1.134,0,1.836.72,1.836,2.286V0h2.808V-5.544C79.236-8.5,77.58-9.828,75.276-9.828Zm10.386,0a7.444,7.444,0,0,0-4.176,1.17L82.494-6.7a4.656,4.656,0,0,1,2.79-.9c1.512,0,2.232.7,2.232,1.908H85.284c-2.952,0-4.158,1.188-4.158,2.9,0,1.674,1.35,2.934,3.618,2.934A3.178,3.178,0,0,0,87.7-1.206V0h2.628V-5.526C90.324-8.46,88.614-9.828,85.662-9.828Zm-.216,8.082c-.99,0-1.584-.468-1.584-1.17,0-.648.414-1.134,1.728-1.134h1.926v.99A2.069,2.069,0,0,1,85.446-1.746ZM96.12.144c2.9,0,4.572-1.278,4.572-3.078,0-3.816-5.85-2.214-5.85-3.87,0-.5.54-.9,1.8-.9a5.561,5.561,0,0,1,2.79.72l.936-2a7.963,7.963,0,0,0-3.726-.846c-2.826,0-4.482,1.3-4.482,3.132,0,3.87,5.85,2.25,5.85,3.834,0,.54-.486.882-1.782.882a6.626,6.626,0,0,1-3.366-.936L91.926-.9A8.313,8.313,0,0,0,96.12.144Zm14.652,0c2.9,0,4.572-1.278,4.572-3.078,0-3.816-5.85-2.214-5.85-3.87,0-.5.54-.9,1.8-.9a5.561,5.561,0,0,1,2.79.72l.936-2a7.963,7.963,0,0,0-3.726-.846c-2.826,0-4.482,1.3-4.482,3.132,0,3.87,5.85,2.25,5.85,3.834,0,.54-.486.882-1.782.882a6.626,6.626,0,0,1-3.366-.936L106.578-.9A8.313,8.313,0,0,0,110.772.144Zm10.908,0a4.97,4.97,0,0,0,5.31-4.986,4.97,4.97,0,0,0-5.31-4.986,4.985,4.985,0,0,0-5.328,4.986A4.985,4.985,0,0,0,121.68.144Zm0-2.3A2.457,2.457,0,0,1,119.2-4.842a2.457,2.457,0,0,1,2.484-2.682,2.444,2.444,0,0,1,2.466,2.682A2.444,2.444,0,0,1,121.68-2.16Zm19.584-7.668a4.354,4.354,0,0,0-3.492,1.584,3.615,3.615,0,0,0-3.186-1.584,3.922,3.922,0,0,0-3.042,1.26V-9.684h-2.682V0h2.808V-4.86c0-1.728.882-2.538,2.124-2.538,1.17,0,1.836.72,1.836,2.286V0h2.808V-4.86c0-1.728.882-2.538,2.142-2.538,1.134,0,1.836.72,1.836,2.286V0h2.808V-5.544C145.224-8.5,143.568-9.828,141.264-9.828Zm14.49-3.69H152.73l-2.43,2.592h2.2Zm-4.1,3.69a7.444,7.444,0,0,0-4.176,1.17L148.482-6.7a4.656,4.656,0,0,1,2.79-.9c1.512,0,2.232.7,2.232,1.908h-2.232c-2.952,0-4.158,1.188-4.158,2.9,0,1.674,1.35,2.934,3.618,2.934a3.178,3.178,0,0,0,2.952-1.35V0h2.628V-5.526C156.312-8.46,154.6-9.828,151.65-9.828Zm-.216,8.082c-.99,0-1.584-.468-1.584-1.17,0-.648.414-1.134,1.728-1.134H153.5v.99A2.069,2.069,0,0,1,151.434-1.746Zm12.906-.7a1.892,1.892,0,0,1-1.134.36A1.129,1.129,0,0,1,162-3.366V-7.308h2.412v-2.16H162v-2.358h-2.808v2.358H157.7v2.16h1.494V-3.33c0,2.3,1.332,3.474,3.618,3.474A4.013,4.013,0,0,0,165.1-.468Zm3.744-8.586a1.615,1.615,0,0,0,1.746-1.62,1.576,1.576,0,0,0-1.746-1.512,1.605,1.605,0,0,0-1.746,1.566A1.605,1.605,0,0,0,168.084-11.034ZM166.68,0h2.808V-9.684H166.68Zm10.1.144A4.493,4.493,0,0,0,181.116-2.3l-2.178-1.188A2.382,2.382,0,0,1,176.76-2.16a2.478,2.478,0,0,1-2.538-2.682,2.478,2.478,0,0,1,2.538-2.682,2.415,2.415,0,0,1,2.178,1.332l2.178-1.17a4.449,4.449,0,0,0-4.338-2.466c-3.15,0-5.4,2.07-5.4,4.986S173.628.144,176.778.144Zm10.44,0a4.97,4.97,0,0,0,5.31-4.986,4.97,4.97,0,0,0-5.31-4.986,4.985,4.985,0,0,0-5.328,4.986A4.985,4.985,0,0,0,187.218.144Zm0-2.3a2.457,2.457,0,0,1-2.484-2.682,2.457,2.457,0,0,1,2.484-2.682,2.444,2.444,0,0,1,2.466,2.682A2.444,2.444,0,0,1,187.218-2.16Zm10.44,2.3c2.9,0,4.572-1.278,4.572-3.078,0-3.816-5.85-2.214-5.85-3.87,0-.5.54-.9,1.8-.9a5.561,5.561,0,0,1,2.79.72l.936-2a7.963,7.963,0,0,0-3.726-.846c-2.826,0-4.482,1.3-4.482,3.132,0,3.87,5.85,2.25,5.85,3.834,0,.54-.486.882-1.782.882a6.625,6.625,0,0,1-3.366-.936L193.464-.9A8.313,8.313,0,0,0,197.658.144Zm7.362-6.462a1.718,1.718,0,0,0,1.746-1.764A1.678,1.678,0,0,0,205.02-9.81a1.678,1.678,0,0,0-1.746,1.728A1.718,1.718,0,0,0,205.02-6.318Zm0,6.462a1.718,1.718,0,0,0,1.746-1.764,1.678,1.678,0,0,0-1.746-1.728,1.678,1.678,0,0,0-1.746,1.728A1.718,1.718,0,0,0,205.02.144ZM5.9,21.744a5,5,0,1,0,0-9.972,5,5,0,1,0,0,9.972Zm0-2.3A2.457,2.457,0,0,1,3.42,16.758,2.457,2.457,0,0,1,5.9,14.076,2.444,2.444,0,0,1,8.37,16.758,2.444,2.444,0,0,1,5.9,19.44Zm14.238-11.2v4.7a3.72,3.72,0,0,0-2.9-1.17A4.708,4.708,0,0,0,12.4,16.758a4.708,4.708,0,0,0,4.842,4.986,3.725,3.725,0,0,0,3.024-1.26V21.6H22.95V8.244ZM17.73,19.44a2.457,2.457,0,0,1-2.484-2.682,2.483,2.483,0,1,1,4.95,0A2.454,2.454,0,0,1,17.73,19.44Zm12.42,2.3a5,5,0,1,0,0-9.972,5,5,0,1,0,0,9.972Zm0-2.3a2.457,2.457,0,0,1-2.484-2.682,2.483,2.483,0,1,1,4.95,0A2.444,2.444,0,0,1,30.15,19.44Zm13.068-7.668a4.24,4.24,0,0,0-3.2,1.278V11.916H37.332V21.6H40.14V16.812c0-1.782.972-2.61,2.322-2.61,1.242,0,1.962.72,1.962,2.286V21.6h2.808V16.056C47.232,13.1,45.5,11.772,43.218,11.772Zm12.042,7.38a1.892,1.892,0,0,1-1.134.36,1.129,1.129,0,0,1-1.206-1.278V14.292h2.412v-2.16H52.92V9.774H50.112v2.358H48.618v2.16h1.494V18.27c0,2.3,1.332,3.474,3.618,3.474a4.013,4.013,0,0,0,2.286-.612ZM61.9,21.744a5,5,0,1,0,0-9.972,5,5,0,1,0,0,9.972Zm0-2.3a2.457,2.457,0,0,1-2.484-2.682,2.483,2.483,0,1,1,4.95,0A2.444,2.444,0,0,1,61.9,19.44Zm7.182,2.16h2.808V8.244H69.084Zm8.352-10.926h2.2L82.89,8.082H79.866Zm1.674,11.07a5,5,0,1,0-5.328-4.986A4.97,4.97,0,0,0,79.11,21.744Zm0-2.3a2.457,2.457,0,0,1-2.484-2.682,2.483,2.483,0,1,1,4.95,0A2.444,2.444,0,0,1,79.11,19.44Zm14.508-7.524v1.242a3.887,3.887,0,0,0-3.2-1.386,4.683,4.683,0,1,0,0,9.36,3.987,3.987,0,0,0,3.06-1.206v.414c0,1.746-.864,2.646-2.844,2.646a5.788,5.788,0,0,1-3.42-1.1L86.094,23.9a7.978,7.978,0,0,0,4.752,1.332c3.492,0,5.436-1.656,5.436-5.256V11.916Zm-2.646,6.912a2.381,2.381,0,1,1,2.538-2.376A2.367,2.367,0,0,1,90.972,18.828Zm9.324-8.262a1.615,1.615,0,0,0,1.746-1.62A1.576,1.576,0,0,0,100.3,7.434a1.575,1.575,0,1,0,0,3.132ZM98.892,21.6H101.7V11.916H98.892Zm10.1.144a4.493,4.493,0,0,0,4.338-2.448l-2.178-1.188a2.382,2.382,0,0,1-2.178,1.332,2.478,2.478,0,0,1-2.538-2.682,2.478,2.478,0,0,1,2.538-2.682,2.415,2.415,0,0,1,2.178,1.332l2.178-1.17a4.449,4.449,0,0,0-4.338-2.466c-3.15,0-5.4,2.07-5.4,4.986S105.84,21.744,108.99,21.744Zm10.44,0a5,5,0,1,0-5.328-4.986A4.97,4.97,0,0,0,119.43,21.744Zm0-2.3a2.457,2.457,0,0,1-2.484-2.682,2.483,2.483,0,1,1,4.95,0A2.444,2.444,0,0,1,119.43,19.44Zm10.44,2.3c2.9,0,4.572-1.278,4.572-3.078,0-3.816-5.85-2.214-5.85-3.87,0-.5.54-.9,1.8-.9a5.561,5.561,0,0,1,2.79.72l.936-2a7.963,7.963,0,0,0-3.726-.846c-2.826,0-4.482,1.3-4.482,3.132,0,3.87,5.85,2.25,5.85,3.834,0,.54-.486.882-1.782.882a6.626,6.626,0,0,1-3.366-.936l-.936,2.016A8.313,8.313,0,0,0,129.87,21.744Zm7.38-3.492A1.668,1.668,0,0,0,135.5,19.98a1.562,1.562,0,0,0,.972,1.53l-.792,2.862h1.782l1.026-2.592a4.185,4.185,0,0,0,.486-1.8A1.654,1.654,0,0,0,137.25,18.252ZM148.788,21.6H151.7V11.376h4.032V9h-10.98v2.376h4.032Zm16.848-2.808a4.629,4.629,0,0,1-2.268.54,3.889,3.889,0,0,1-4.086-4.032,3.879,3.879,0,0,1,4.122-4.032,4.264,4.264,0,0,1,3.258,1.422l1.872-1.728a6.717,6.717,0,0,0-5.274-2.178c-4.014,0-6.93,2.718-6.93,6.516s2.916,6.516,6.876,6.516a8.7,8.7,0,0,0,5.094-1.6V15.1h-2.664ZM171,21.6h2.916V9H171Zm17.748-9.684V16.7c0,1.782-.936,2.61-2.232,2.61-1.242,0-1.962-.72-1.962-2.34V11.916h-2.808v5.472c0,2.988,1.71,4.356,4.14,4.356a3.918,3.918,0,0,0,3.006-1.3V21.6h2.664V11.916ZM5.2,33.372a7.444,7.444,0,0,0-4.176,1.17L2.034,36.5a4.656,4.656,0,0,1,2.79-.9c1.512,0,2.232.7,2.232,1.908H4.824c-2.952,0-4.158,1.188-4.158,2.9,0,1.674,1.35,2.934,3.618,2.934a3.178,3.178,0,0,0,2.952-1.35V43.2H9.864V37.674C9.864,34.74,8.154,33.372,5.2,33.372Zm-.216,8.082c-.99,0-1.584-.468-1.584-1.17,0-.648.414-1.134,1.728-1.134H7.056v.99A2.069,2.069,0,0,1,4.986,41.454ZM12.4,43.2H15.21V29.844H12.4Zm12.744-9.684v1.242a3.887,3.887,0,0,0-3.2-1.386,4.683,4.683,0,1,0,0,9.36A3.987,3.987,0,0,0,25,41.526v.414c0,1.746-.864,2.646-2.844,2.646a5.788,5.788,0,0,1-3.42-1.1L17.622,45.5a7.978,7.978,0,0,0,4.752,1.332c3.492,0,5.436-1.656,5.436-5.256V33.516ZM22.5,40.428a2.382,2.382,0,1,1,0-4.752,2.381,2.381,0,1,1,0,4.752Zm14.868-6.912V38.3c0,1.782-.936,2.61-2.232,2.61-1.242,0-1.962-.72-1.962-2.34V33.516H30.366v5.472c0,2.988,1.71,4.356,4.14,4.356a3.918,3.918,0,0,0,3.006-1.3V43.2h2.664V33.516Zm11.3-.144a4.24,4.24,0,0,0-3.2,1.278V33.516H42.786V43.2h2.808V38.412c0-1.782.972-2.61,2.322-2.61,1.242,0,1.962.72,1.962,2.286V43.2h2.808V37.656C52.686,34.7,50.958,33.372,48.672,33.372Zm10.458,0a7.444,7.444,0,0,0-4.176,1.17L55.962,36.5a4.656,4.656,0,0,1,2.79-.9c1.512,0,2.232.7,2.232,1.908H58.752c-2.952,0-4.158,1.188-4.158,2.9,0,1.674,1.35,2.934,3.618,2.934a3.178,3.178,0,0,0,2.952-1.35V43.2h2.628V37.674C63.792,34.74,62.082,33.372,59.13,33.372Zm-.216,8.082c-.99,0-1.584-.468-1.584-1.17,0-.648.414-1.134,1.728-1.134h1.926v.99A2.069,2.069,0,0,1,58.914,41.454Zm18.234-8.082a3.763,3.763,0,0,0-3.042,1.26V33.516H71.424V46.692h2.808V42.174a3.76,3.76,0,0,0,2.916,1.17,4.7,4.7,0,0,0,4.824-4.986A4.7,4.7,0,0,0,77.148,33.372Zm-.486,7.668A2.444,2.444,0,0,1,74.2,38.358a2.475,2.475,0,1,1,4.932,0A2.444,2.444,0,0,1,76.662,41.04Zm10.926-7.668a7.444,7.444,0,0,0-4.176,1.17L84.42,36.5a4.656,4.656,0,0,1,2.79-.9c1.512,0,2.232.7,2.232,1.908H87.21c-2.952,0-4.158,1.188-4.158,2.9,0,1.674,1.35,2.934,3.618,2.934a3.178,3.178,0,0,0,2.952-1.35V43.2H92.25V37.674C92.25,34.74,90.54,33.372,87.588,33.372Zm-.216,8.082c-.99,0-1.584-.468-1.584-1.17,0-.648.414-1.134,1.728-1.134h1.926v.99A2.069,2.069,0,0,1,87.372,41.454Zm12.906-.7a1.892,1.892,0,0,1-1.134.36,1.129,1.129,0,0,1-1.206-1.278V35.892h2.412v-2.16H97.938V31.374H95.13v2.358H93.636v2.16H95.13V39.87c0,2.3,1.332,3.474,3.618,3.474a4.013,4.013,0,0,0,2.286-.612Zm6.642,2.592a5,5,0,1,0-5.328-4.986A4.97,4.97,0,0,0,106.92,43.344Zm0-2.3a2.457,2.457,0,0,1-2.484-2.682,2.483,2.483,0,1,1,4.95,0A2.444,2.444,0,0,1,106.92,41.04ZM114.1,43.2h2.808V29.844H114.1Zm10.026.144a5,5,0,1,0-5.328-4.986A4.97,4.97,0,0,0,124.128,43.344Zm0-2.3a2.457,2.457,0,0,1-2.484-2.682,2.483,2.483,0,1,1,4.95,0A2.444,2.444,0,0,1,124.128,41.04Zm14.508-7.524v1.242a3.887,3.887,0,0,0-3.2-1.386,4.683,4.683,0,1,0,0,9.36,3.987,3.987,0,0,0,3.06-1.206v.414c0,1.746-.864,2.646-2.844,2.646a5.788,5.788,0,0,1-3.42-1.1L131.112,45.5a7.978,7.978,0,0,0,4.752,1.332c3.492,0,5.436-1.656,5.436-5.256V33.516Zm-2.646,6.912a2.381,2.381,0,1,1,2.538-2.376A2.367,2.367,0,0,1,135.99,40.428Zm7.686-8.154h2.2l3.258-2.592h-3.024ZM143.91,43.2h2.808V33.516H143.91Zm9.324-9.828a7.444,7.444,0,0,0-4.176,1.17l1.008,1.962a4.656,4.656,0,0,1,2.79-.9c1.512,0,2.232.7,2.232,1.908h-2.232c-2.952,0-4.158,1.188-4.158,2.9,0,1.674,1.35,2.934,3.618,2.934a3.178,3.178,0,0,0,2.952-1.35V43.2H157.9V37.674C157.9,34.74,156.186,33.372,153.234,33.372Zm-.216,8.082c-.99,0-1.584-.468-1.584-1.17,0-.648.414-1.134,1.728-1.134h1.926v.99A2.069,2.069,0,0,1,153.018,41.454Zm16.416-8.082a7.444,7.444,0,0,0-4.176,1.17l1.008,1.962a4.656,4.656,0,0,1,2.79-.9c1.512,0,2.232.7,2.232,1.908h-2.232c-2.952,0-4.158,1.188-4.158,2.9,0,1.674,1.35,2.934,3.618,2.934a3.178,3.178,0,0,0,2.952-1.35V43.2H174.1V37.674C174.1,34.74,172.386,33.372,169.434,33.372Zm-.216,8.082c-.99,0-1.584-.468-1.584-1.17,0-.648.414-1.134,1.728-1.134h1.926v.99A2.069,2.069,0,0,1,169.218,41.454Zm14.85-7.938v1.242a3.887,3.887,0,0,0-3.2-1.386,4.683,4.683,0,1,0,0,9.36,3.987,3.987,0,0,0,3.06-1.206v.414c0,1.746-.864,2.646-2.844,2.646a5.788,5.788,0,0,1-3.42-1.1L176.544,45.5a7.978,7.978,0,0,0,4.752,1.332c3.492,0,5.436-1.656,5.436-5.256V33.516Zm-2.646,6.912a2.381,2.381,0,1,1,2.538-2.376A2.367,2.367,0,0,1,181.422,40.428Zm14.868-6.912V38.3c0,1.782-.936,2.61-2.232,2.61-1.242,0-1.962-.72-1.962-2.34V33.516h-2.808v5.472c0,2.988,1.71,4.356,4.14,4.356a3.918,3.918,0,0,0,3.006-1.3V43.2H199.1V33.516Zm12.474-3.672v4.7a3.72,3.72,0,0,0-2.9-1.17,4.708,4.708,0,0,0-4.842,4.986,4.708,4.708,0,0,0,4.842,4.986,3.725,3.725,0,0,0,3.024-1.26V43.2h2.682V29.844Zm-2.412,11.2a2.457,2.457,0,0,1-2.484-2.682,2.483,2.483,0,1,1,4.95,0A2.454,2.454,0,0,1,206.352,41.04Zm11.718-7.668a7.444,7.444,0,0,0-4.176,1.17L214.9,36.5a4.656,4.656,0,0,1,2.79-.9c1.512,0,2.232.7,2.232,1.908h-2.232c-2.952,0-4.158,1.188-4.158,2.9,0,1.674,1.35,2.934,3.618,2.934a3.178,3.178,0,0,0,2.952-1.35V43.2h2.628V37.674C222.732,34.74,221.022,33.372,218.07,33.372Zm-.216,8.082c-.99,0-1.584-.468-1.584-1.17,0-.648.414-1.134,1.728-1.134h1.926v.99A2.069,2.069,0,0,1,217.854,41.454ZM5.976,64.944A4.493,4.493,0,0,0,10.314,62.5L8.136,61.308A2.382,2.382,0,0,1,5.958,62.64a2.686,2.686,0,0,1,0-5.364,2.415,2.415,0,0,1,2.178,1.332l2.178-1.17a4.449,4.449,0,0,0-4.338-2.466c-3.15,0-5.4,2.07-5.4,4.986S2.826,64.944,5.976,64.944Zm10.44,0a5,5,0,1,0,0-9.972,5,5,0,1,0,0,9.972Zm0-2.3a2.691,2.691,0,1,1,2.466-2.682A2.457,2.457,0,0,1,16.416,62.64Zm13.068-7.668a4.24,4.24,0,0,0-3.2,1.278V55.116H23.6V64.8h2.808V60.012c0-1.782.972-2.61,2.322-2.61,1.242,0,1.962.72,1.962,2.286V64.8H33.5V59.256C33.5,56.3,31.77,54.972,29.484,54.972ZM50.94,53.766a1.615,1.615,0,0,0,1.746-1.62,1.576,1.576,0,0,0-1.746-1.512,1.575,1.575,0,1,0,0,3.132Zm-5.454-.252a1.966,1.966,0,0,1,1.134.342l.738-2.034a3.98,3.98,0,0,0-2.142-.522,3.38,3.38,0,0,0-3.744,3.6v.432H39.978v2.16h1.494V64.8H44.28V57.492h2.412v-2.16H44.208v-.414C44.208,53.964,44.658,53.514,45.486,53.514ZM49.536,64.8h2.808V55.116H49.536Zm14.9-4.806a4.794,4.794,0,0,0-5.04-5.022,4.93,4.93,0,0,0-5.166,4.986c0,2.88,2.178,4.986,5.526,4.986a5.072,5.072,0,0,0,4-1.566l-1.494-1.62a3.283,3.283,0,0,1-2.43.936A2.582,2.582,0,0,1,57.06,60.75h7.326C64.4,60.516,64.44,60.21,64.44,59.994Zm-5.022-2.9a2.3,2.3,0,0,1,2.376,2.016h-4.77A2.293,2.293,0,0,1,59.418,57.1Zm12.618-2.124a3.76,3.76,0,0,0-2.916,1.17v-4.7H66.312V64.8h2.682V63.684a3.763,3.763,0,0,0,3.042,1.26,4.989,4.989,0,0,0,0-9.972ZM71.55,62.64a2.691,2.691,0,1,1,2.466-2.682A2.444,2.444,0,0,1,71.55,62.64Zm9.864-6.246V55.116H78.732V64.8H81.54V60.228a2.379,2.379,0,0,1,2.574-2.7c.216,0,.4.018.63.036V54.972A3.908,3.908,0,0,0,81.414,56.394Zm14.4,3.6a4.794,4.794,0,0,0-5.04-5.022,4.93,4.93,0,0,0-5.166,4.986c0,2.88,2.178,4.986,5.526,4.986a5.072,5.072,0,0,0,4-1.566l-1.494-1.62a3.283,3.283,0,0,1-2.43.936,2.582,2.582,0,0,1-2.772-1.944H95.76C95.778,60.516,95.814,60.21,95.814,59.994Zm-5.022-2.9a2.3,2.3,0,0,1,2.376,2.016H88.4A2.293,2.293,0,0,1,90.792,57.1Z" transform="translate(4915.887 -1953.301)"/>
    <path id="Trazado_16889" data-name="Trazado 16889" d="M-60.534,0h2.916V-12.6h-2.916Zm11.592-9.828a4.24,4.24,0,0,0-3.2,1.278V-9.684h-2.682V0h2.808V-4.788c0-1.782.972-2.61,2.322-2.61,1.242,0,1.962.72,1.962,2.286V0h2.808V-5.544C-44.928-8.5-46.656-9.828-48.942-9.828ZM-36.9-2.448a1.892,1.892,0,0,1-1.134.36A1.129,1.129,0,0,1-39.24-3.366V-7.308h2.412v-2.16H-39.24v-2.358h-2.808v2.358h-1.494v2.16h1.494V-3.33c0,2.3,1.332,3.474,3.618,3.474a4.013,4.013,0,0,0,2.286-.612Zm11.52-2.358a4.794,4.794,0,0,0-5.04-5.022,4.93,4.93,0,0,0-5.166,4.986c0,2.88,2.178,4.986,5.526,4.986a5.072,5.072,0,0,0,4-1.566l-1.494-1.62a3.283,3.283,0,0,1-2.43.936A2.582,2.582,0,0,1-32.76-4.05h7.326C-25.416-4.284-25.38-4.59-25.38-4.806ZM-30.4-7.7a2.3,2.3,0,0,1,2.376,2.016H-32.8A2.293,2.293,0,0,1-30.4-7.7Zm12.78-2.124a4.24,4.24,0,0,0-3.2,1.278V-9.684h-2.682V0H-20.7V-4.788c0-1.782.972-2.61,2.322-2.61,1.242,0,1.962.72,1.962,2.286V0h2.808V-5.544C-13.608-8.5-15.336-9.828-17.622-9.828ZM-6.282.144A4.493,4.493,0,0,0-1.944-2.3L-4.122-3.492A2.382,2.382,0,0,1-6.3-2.16,2.478,2.478,0,0,1-8.838-4.842,2.478,2.478,0,0,1-6.3-7.524,2.415,2.415,0,0,1-4.122-6.192l2.178-1.17A4.449,4.449,0,0,0-6.282-9.828c-3.15,0-5.4,2.07-5.4,4.986S-9.432.144-6.282.144ZM1.08-11.034a1.615,1.615,0,0,0,1.746-1.62A1.576,1.576,0,0,0,1.08-14.166,1.605,1.605,0,0,0-.666-12.6,1.605,1.605,0,0,0,1.08-11.034ZM-.324,0H2.484V-9.684H-.324ZM8.028-10.926h2.2l3.258-2.592H10.458ZM9.7.144a4.97,4.97,0,0,0,5.31-4.986A4.97,4.97,0,0,0,9.7-9.828,4.985,4.985,0,0,0,4.374-4.842,4.985,4.985,0,0,0,9.7.144Zm0-2.3A2.457,2.457,0,0,1,7.218-4.842,2.457,2.457,0,0,1,9.7-7.524a2.444,2.444,0,0,1,2.466,2.682A2.444,2.444,0,0,1,9.7-2.16ZM22.77-9.828a4.24,4.24,0,0,0-3.2,1.278V-9.684H16.884V0h2.808V-4.788c0-1.782.972-2.61,2.322-2.61,1.242,0,1.962.72,1.962,2.286V0h2.808V-5.544C26.784-8.5,25.056-9.828,22.77-9.828Zm18.7-3.528v4.7a3.72,3.72,0,0,0-2.9-1.17,4.708,4.708,0,0,0-4.842,4.986A4.708,4.708,0,0,0,38.574.144,3.725,3.725,0,0,0,41.6-1.116V0H44.28V-13.356ZM39.06-2.16a2.457,2.457,0,0,1-2.484-2.682A2.457,2.457,0,0,1,39.06-7.524a2.454,2.454,0,0,1,2.466,2.682A2.454,2.454,0,0,1,39.06-2.16Zm17.3-2.646a4.794,4.794,0,0,0-5.04-5.022,4.93,4.93,0,0,0-5.166,4.986c0,2.88,2.178,4.986,5.526,4.986a5.072,5.072,0,0,0,4-1.566L54.18-3.042a3.283,3.283,0,0,1-2.43.936A2.582,2.582,0,0,1,48.978-4.05H56.3C56.322-4.284,56.358-4.59,56.358-4.806ZM51.336-7.7a2.3,2.3,0,0,1,2.376,2.016h-4.77A2.293,2.293,0,0,1,51.336-7.7ZM-36.45,18.972a3.763,3.763,0,0,0-3.042,1.26V19.116h-2.682V32.292h2.808V27.774a3.76,3.76,0,0,0,2.916,1.17,4.7,4.7,0,0,0,4.824-4.986A4.7,4.7,0,0,0-36.45,18.972Zm-.486,7.668A2.444,2.444,0,0,1-39.4,23.958a2.444,2.444,0,0,1,2.466-2.682,2.444,2.444,0,0,1,2.466,2.682A2.444,2.444,0,0,1-36.936,26.64Zm9.864-6.246V19.116h-2.682V28.8h2.808V24.228a2.379,2.379,0,0,1,2.574-2.7c.216,0,.4.018.63.036V18.972A3.908,3.908,0,0,0-27.072,20.394Zm9.522,8.55a4.97,4.97,0,0,0,5.31-4.986,4.97,4.97,0,0,0-5.31-4.986,4.985,4.985,0,0,0-5.328,4.986A4.985,4.985,0,0,0-17.55,28.944Zm0-2.3a2.457,2.457,0,0,1-2.484-2.682,2.457,2.457,0,0,1,2.484-2.682,2.444,2.444,0,0,1,2.466,2.682A2.444,2.444,0,0,1-17.55,26.64Zm12.672-.288a1.892,1.892,0,0,1-1.134.36,1.129,1.129,0,0,1-1.206-1.278V21.492h2.412v-2.16H-7.218V16.974h-2.808v2.358H-11.52v2.16h1.494V25.47c0,2.3,1.332,3.474,3.618,3.474a4.013,4.013,0,0,0,2.286-.612Zm11.52-2.358A4.794,4.794,0,0,0,1.6,18.972a4.93,4.93,0,0,0-5.166,4.986c0,2.88,2.178,4.986,5.526,4.986a5.072,5.072,0,0,0,4-1.566l-1.494-1.62a3.283,3.283,0,0,1-2.43.936A2.582,2.582,0,0,1-.738,24.75H6.588C6.606,24.516,6.642,24.21,6.642,23.994ZM1.62,21.1A2.3,2.3,0,0,1,4,23.112H-.774A2.293,2.293,0,0,1,1.62,21.1Zm10.152,7.848c2.9,0,4.572-1.278,4.572-3.078,0-3.816-5.85-2.214-5.85-3.87,0-.5.54-.9,1.8-.9a5.561,5.561,0,0,1,2.79.72l.936-2a7.963,7.963,0,0,0-3.726-.846c-2.826,0-4.482,1.3-4.482,3.132,0,3.87,5.85,2.25,5.85,3.834,0,.54-.486.882-1.782.882a6.626,6.626,0,0,1-3.366-.936L7.578,27.9A8.313,8.313,0,0,0,11.772,28.944Zm11.79-2.592a1.892,1.892,0,0,1-1.134.36,1.129,1.129,0,0,1-1.206-1.278V21.492h2.412v-2.16H21.222V16.974H18.414v2.358H16.92v2.16h1.494V25.47c0,2.3,1.332,3.474,3.618,3.474a4.013,4.013,0,0,0,2.286-.612Zm6.246-7.38a7.444,7.444,0,0,0-4.176,1.17L26.64,22.1a4.656,4.656,0,0,1,2.79-.9c1.512,0,2.232.7,2.232,1.908H29.43c-2.952,0-4.158,1.188-4.158,2.9,0,1.674,1.35,2.934,3.618,2.934a3.178,3.178,0,0,0,2.952-1.35V28.8H34.47V23.274C34.47,20.34,32.76,18.972,29.808,18.972Zm-.216,8.082c-.99,0-1.584-.468-1.584-1.17,0-.648.414-1.134,1.728-1.134h1.926v.99A2.069,2.069,0,0,1,29.592,27.054Zm10.1-6.66V19.116H37.008V28.8h2.808V24.228a2.379,2.379,0,0,1,2.574-2.7c.216,0,.4.018.63.036V18.972A3.908,3.908,0,0,0,39.69,20.394Z" transform="translate(5020.873 -1621.216)"/>
    <path id="Trazado_16886" data-name="Trazado 16886" d="M15.7,0,15.66-12.6H13.266L8.622-4.77,3.906-12.6H1.494V0H4.23V-7.4L7.92-1.332H9.234L12.942-7.56,12.96,0Zm7.4.144A4.97,4.97,0,0,0,28.4-4.842a4.97,4.97,0,0,0-5.31-4.986,4.985,4.985,0,0,0-5.328,4.986A4.985,4.985,0,0,0,23.094.144Zm0-2.3A2.457,2.457,0,0,1,20.61-4.842a2.457,2.457,0,0,1,2.484-2.682A2.444,2.444,0,0,1,25.56-4.842,2.444,2.444,0,0,1,23.094-2.16Zm12.672-.288a1.892,1.892,0,0,1-1.134.36,1.129,1.129,0,0,1-1.206-1.278V-7.308h2.412v-2.16H33.426v-2.358H30.618v2.358H29.124v2.16h1.494V-3.33c0,2.3,1.332,3.474,3.618,3.474a4.013,4.013,0,0,0,2.286-.612Zm3.744-8.586a1.615,1.615,0,0,0,1.746-1.62,1.576,1.576,0,0,0-1.746-1.512A1.605,1.605,0,0,0,37.764-12.6,1.605,1.605,0,0,0,39.51-11.034ZM38.106,0h2.808V-9.684H38.106Zm12.33-9.684L47.664-3.1,44.982-9.684h-2.9L46.152,0h2.9l4.086-9.684ZM58.626.144a4.97,4.97,0,0,0,5.31-4.986,4.97,4.97,0,0,0-5.31-4.986A4.985,4.985,0,0,0,53.3-4.842,4.985,4.985,0,0,0,58.626.144Zm0-2.3a2.457,2.457,0,0,1-2.484-2.682,2.457,2.457,0,0,1,2.484-2.682,2.444,2.444,0,0,1,2.466,2.682A2.444,2.444,0,0,1,58.626-2.16Zm10.44,2.3c2.9,0,4.572-1.278,4.572-3.078,0-3.816-5.85-2.214-5.85-3.87,0-.5.54-.9,1.8-.9a5.561,5.561,0,0,1,2.79.72l.936-2a7.963,7.963,0,0,0-3.726-.846c-2.826,0-4.482,1.3-4.482,3.132,0,3.87,5.85,2.25,5.85,3.834,0,.54-.486.882-1.782.882a6.626,6.626,0,0,1-3.366-.936L64.872-.9A8.313,8.313,0,0,0,69.066.144Zm14.076-8.55V-9.684H80.46V0h2.808V-4.572a2.379,2.379,0,0,1,2.574-2.7c.216,0,.4.018.63.036V-9.828A3.908,3.908,0,0,0,83.142-8.406Zm14.4,3.6A4.794,4.794,0,0,0,92.5-9.828a4.93,4.93,0,0,0-5.166,4.986c0,2.88,2.178,4.986,5.526,4.986a5.072,5.072,0,0,0,4-1.566l-1.494-1.62a3.283,3.283,0,0,1-2.43.936A2.582,2.582,0,0,1,90.162-4.05h7.326C97.506-4.284,97.542-4.59,97.542-4.806ZM92.52-7.7A2.3,2.3,0,0,1,94.9-5.688h-4.77A2.293,2.293,0,0,1,92.52-7.7ZM99.414,0h2.808V-13.356H99.414Zm6.822-11.034a1.615,1.615,0,0,0,1.746-1.62,1.576,1.576,0,0,0-1.746-1.512A1.605,1.605,0,0,0,104.49-12.6,1.605,1.605,0,0,0,106.236-11.034ZM104.832,0h2.808V-9.684h-2.808Zm12.744-9.684v1.242a3.887,3.887,0,0,0-3.2-1.386,4.61,4.61,0,0,0-4.842,4.68,4.61,4.61,0,0,0,4.842,4.68,3.987,3.987,0,0,0,3.06-1.206v.414c0,1.746-.864,2.646-2.844,2.646a5.788,5.788,0,0,1-3.42-1.1L110.052,2.3A7.978,7.978,0,0,0,114.8,3.636c3.492,0,5.436-1.656,5.436-5.256V-9.684ZM114.93-2.772a2.367,2.367,0,0,1-2.556-2.376,2.367,2.367,0,0,1,2.556-2.376,2.351,2.351,0,0,1,2.538,2.376A2.351,2.351,0,0,1,114.93-2.772Zm9.324-8.262A1.615,1.615,0,0,0,126-12.654a1.576,1.576,0,0,0-1.746-1.512,1.605,1.605,0,0,0-1.746,1.566A1.605,1.605,0,0,0,124.254-11.034ZM122.85,0h2.808V-9.684H122.85Zm10.026.144a4.97,4.97,0,0,0,5.31-4.986,4.97,4.97,0,0,0-5.31-4.986,4.985,4.985,0,0,0-5.328,4.986A4.985,4.985,0,0,0,132.876.144Zm0-2.3a2.457,2.457,0,0,1-2.484-2.682,2.457,2.457,0,0,1,2.484-2.682,2.444,2.444,0,0,1,2.466,2.682A2.444,2.444,0,0,1,132.876-2.16Zm10.44,2.3c2.9,0,4.572-1.278,4.572-3.078,0-3.816-5.85-2.214-5.85-3.87,0-.5.54-.9,1.8-.9a5.561,5.561,0,0,1,2.79.72l.936-2a7.963,7.963,0,0,0-3.726-.846c-2.826,0-4.482,1.3-4.482,3.132,0,3.87,5.85,2.25,5.85,3.834,0,.54-.486.882-1.782.882a6.625,6.625,0,0,1-3.366-.936L139.122-.9A8.313,8.313,0,0,0,143.316.144Zm10.908,0a4.97,4.97,0,0,0,5.31-4.986,4.97,4.97,0,0,0-5.31-4.986A4.985,4.985,0,0,0,148.9-4.842,4.985,4.985,0,0,0,154.224.144Zm0-2.3a2.457,2.457,0,0,1-2.484-2.682,2.457,2.457,0,0,1,2.484-2.682,2.444,2.444,0,0,1,2.466,2.682A2.444,2.444,0,0,1,154.224-2.16Zm10.44,2.3c2.9,0,4.572-1.278,4.572-3.078,0-3.816-5.85-2.214-5.85-3.87,0-.5.54-.9,1.8-.9a5.561,5.561,0,0,1,2.79.72l.936-2a7.963,7.963,0,0,0-3.726-.846c-2.826,0-4.482,1.3-4.482,3.132,0,3.87,5.85,2.25,5.85,3.834,0,.54-.486.882-1.782.882a6.625,6.625,0,0,1-3.366-.936L160.47-.9A8.313,8.313,0,0,0,164.664.144Z" transform="translate(4621.502 -1920.901)"/>
    <path id="Trazado_16888" data-name="Trazado 16888" d="M4.1,0H7.02V-10.224h4.032V-12.6H.072v2.376H4.1ZM14.886-8.406V-9.684H12.2V0h2.808V-4.572a2.379,2.379,0,0,1,2.574-2.7c.216,0,.4.018.63.036V-9.828A3.908,3.908,0,0,0,14.886-8.406Zm8.856-1.422a7.444,7.444,0,0,0-4.176,1.17L20.574-6.7a4.656,4.656,0,0,1,2.79-.9c1.512,0,2.232.7,2.232,1.908H23.364c-2.952,0-4.158,1.188-4.158,2.9,0,1.674,1.35,2.934,3.618,2.934a3.178,3.178,0,0,0,2.952-1.35V0H28.4V-5.526C28.4-8.46,26.694-9.828,23.742-9.828Zm-.216,8.082c-.99,0-1.584-.468-1.584-1.17,0-.648.414-1.134,1.728-1.134H25.6v.99A2.069,2.069,0,0,1,23.526-1.746ZM34.2.144c2.9,0,4.572-1.278,4.572-3.078,0-3.816-5.85-2.214-5.85-3.87,0-.5.54-.9,1.8-.9a5.561,5.561,0,0,1,2.79.72l.936-2a7.963,7.963,0,0,0-3.726-.846c-2.826,0-4.482,1.3-4.482,3.132,0,3.87,5.85,2.25,5.85,3.834,0,.54-.486.882-1.782.882a6.626,6.626,0,0,1-3.366-.936L30.006-.9A8.313,8.313,0,0,0,34.2.144ZM45.99-2.448a1.892,1.892,0,0,1-1.134.36A1.129,1.129,0,0,1,43.65-3.366V-7.308h2.412v-2.16H43.65v-2.358H40.842v2.358H39.348v2.16h1.494V-3.33c0,2.3,1.332,3.474,3.618,3.474a4.013,4.013,0,0,0,2.286-.612ZM52.632.144a4.97,4.97,0,0,0,5.31-4.986,4.97,4.97,0,0,0-5.31-4.986A4.985,4.985,0,0,0,47.3-4.842,4.985,4.985,0,0,0,52.632.144Zm0-2.3a2.457,2.457,0,0,1-2.484-2.682,2.457,2.457,0,0,1,2.484-2.682A2.444,2.444,0,0,1,55.1-4.842,2.444,2.444,0,0,1,52.632-2.16ZM62.5-8.406V-9.684H59.814V0h2.808V-4.572a2.379,2.379,0,0,1,2.574-2.7c.216,0,.4.018.63.036V-9.828A3.908,3.908,0,0,0,62.5-8.406Zm10.89-1.422a4.24,4.24,0,0,0-3.2,1.278V-9.684H67.5V0h2.808V-4.788c0-1.782.972-2.61,2.322-2.61,1.242,0,1.962.72,1.962,2.286V0H77.4V-5.544C77.4-8.5,75.672-9.828,73.386-9.828ZM84.654.144a4.97,4.97,0,0,0,5.31-4.986,4.97,4.97,0,0,0-5.31-4.986,4.985,4.985,0,0,0-5.328,4.986A4.985,4.985,0,0,0,84.654.144Zm0-2.3A2.457,2.457,0,0,1,82.17-4.842a2.457,2.457,0,0,1,2.484-2.682A2.444,2.444,0,0,1,87.12-4.842,2.444,2.444,0,0,1,84.654-2.16Zm10.44,2.3c2.9,0,4.572-1.278,4.572-3.078,0-3.816-5.85-2.214-5.85-3.87,0-.5.54-.9,1.8-.9a5.561,5.561,0,0,1,2.79.72l.936-2a7.963,7.963,0,0,0-3.726-.846c-2.826,0-4.482,1.3-4.482,3.132,0,3.87,5.85,2.25,5.85,3.834,0,.54-.486.882-1.782.882a6.626,6.626,0,0,1-3.366-.936L90.9-.9A8.313,8.313,0,0,0,95.094.144Zm23.8-9.972A4.354,4.354,0,0,0,115.4-8.244a3.615,3.615,0,0,0-3.186-1.584,3.922,3.922,0,0,0-3.042,1.26V-9.684h-2.682V0H109.3V-4.86c0-1.728.882-2.538,2.124-2.538,1.17,0,1.836.72,1.836,2.286V0h2.808V-4.86c0-1.728.882-2.538,2.142-2.538,1.134,0,1.836.72,1.836,2.286V0h2.808V-5.544C122.85-8.5,121.194-9.828,118.89-9.828Zm16.074,5.022a4.794,4.794,0,0,0-5.04-5.022,4.93,4.93,0,0,0-5.166,4.986c0,2.88,2.178,4.986,5.526,4.986a5.072,5.072,0,0,0,4-1.566l-1.494-1.62a3.283,3.283,0,0,1-2.43.936,2.582,2.582,0,0,1-2.772-1.944h7.326C134.928-4.284,134.964-4.59,134.964-4.806Zm-5.022-2.9a2.3,2.3,0,0,1,2.376,2.016h-4.77A2.293,2.293,0,0,1,129.942-7.7Zm12.78-2.124a4.24,4.24,0,0,0-3.2,1.278V-9.684h-2.682V0h2.808V-4.788c0-1.782.972-2.61,2.322-2.61,1.242,0,1.962.72,1.962,2.286V0h2.808V-5.544C146.736-8.5,145.008-9.828,142.722-9.828Zm12.042,7.38a1.892,1.892,0,0,1-1.134.36,1.129,1.129,0,0,1-1.206-1.278V-7.308h2.412v-2.16h-2.412v-2.358h-2.808v2.358h-1.494v2.16h1.494V-3.33c0,2.3,1.332,3.474,3.618,3.474a4.013,4.013,0,0,0,2.286-.612Zm6.246-7.38a7.444,7.444,0,0,0-4.176,1.17L157.842-6.7a4.656,4.656,0,0,1,2.79-.9c1.512,0,2.232.7,2.232,1.908h-2.232c-2.952,0-4.158,1.188-4.158,2.9,0,1.674,1.35,2.934,3.618,2.934a3.178,3.178,0,0,0,2.952-1.35V0h2.628V-5.526C165.672-8.46,163.962-9.828,161.01-9.828Zm-.216,8.082c-.99,0-1.584-.468-1.584-1.17,0-.648.414-1.134,1.728-1.134h1.926v.99A2.069,2.069,0,0,1,160.794-1.746ZM168.21,0h2.808V-13.356H168.21Zm14.9-4.806a4.794,4.794,0,0,0-5.04-5.022,4.93,4.93,0,0,0-5.166,4.986c0,2.88,2.178,4.986,5.526,4.986a5.072,5.072,0,0,0,4-1.566l-1.494-1.62a3.283,3.283,0,0,1-2.43.936,2.582,2.582,0,0,1-2.772-1.944h7.326C183.078-4.284,183.114-4.59,183.114-4.806Zm-5.022-2.9a2.3,2.3,0,0,1,2.376,2.016H175.7A2.293,2.293,0,0,1,178.092-7.7ZM188.244.144c2.9,0,4.572-1.278,4.572-3.078,0-3.816-5.85-2.214-5.85-3.87,0-.5.54-.9,1.8-.9a5.561,5.561,0,0,1,2.79.72l.936-2a7.963,7.963,0,0,0-3.726-.846c-2.826,0-4.482,1.3-4.482,3.132,0,3.87,5.85,2.25,5.85,3.834,0,.54-.486.882-1.782.882a6.625,6.625,0,0,1-3.366-.936L184.05-.9A8.313,8.313,0,0,0,188.244.144Z" transform="translate(4613.429 -1609.18)"/>
    <path id="Trazado_16885" data-name="Trazado 16885" d="M-105.816,0h3.888V-16.8h-3.888Zm19.44-16.8V-6.6l-8.352-10.2h-3.216V0h3.84V-10.2L-85.728,0h3.192V-16.8ZM-66,0h4.08l-7.512-16.8h-3.84L-80.76,0h3.984l1.488-3.6h7.8Zm-8.04-6.552,2.664-6.432,2.664,6.432ZM-52.9-16.8h-7.272V0h3.888V-4.632H-52.9c4.488,0,7.3-2.328,7.3-6.072C-45.6-14.472-48.408-16.8-52.9-16.8Zm-.216,9H-56.28v-5.832h3.168c2.376,0,3.576,1.08,3.576,2.928C-49.536-8.88-50.736-7.8-53.112-7.8Zm14.136,4.68V-7.008h7.8v-3.024h-7.8V-13.68h8.832V-16.8h-12.7V0h13.008V-3.12ZM-23.256,0h3.888V-13.632h5.376V-16.8h-14.64v3.168h5.376ZM-8.04-3.12V-7.008h7.8v-3.024h-7.8V-13.68H.792V-16.8H-11.9V0H1.1V-3.12ZM15.768-16.8V-6.6L7.416-16.8H4.2V0H8.04V-10.2L16.416,0h3.192V-16.8ZM31.632.288a8.632,8.632,0,0,0,6.936-3l-2.5-2.3a5.354,5.354,0,0,1-4.224,1.992A5.154,5.154,0,0,1,26.472-8.4a5.154,5.154,0,0,1,5.376-5.376,5.405,5.405,0,0,1,4.224,1.968l2.5-2.3a8.673,8.673,0,0,0-6.912-2.976c-5.232,0-9.12,3.624-9.12,8.688S26.424.288,31.632.288ZM41.184,0h3.888V-16.8H41.184ZM61.608,0h4.08L58.176-16.8h-3.84L46.848,0h3.984L52.32-3.6h7.8Zm-8.04-6.552,2.664-6.432L58.9-6.552ZM72.96.288c4.8,0,7.128-2.4,7.128-5.208,0-6.168-9.768-4.032-9.768-7.128,0-1.056.888-1.92,3.192-1.92a9.488,9.488,0,0,1,4.656,1.32l1.2-2.952a11.269,11.269,0,0,0-5.832-1.488c-4.776,0-7.08,2.376-7.08,5.232,0,6.24,9.768,4.08,9.768,7.224,0,1.032-.936,1.8-3.24,1.8A9.882,9.882,0,0,1,67.44-4.584L66.12-1.656A11.974,11.974,0,0,0,72.96.288Zm24.72,0c5.28,0,9.192-3.672,9.192-8.688s-3.912-8.688-9.192-8.688c-5.3,0-9.192,3.7-9.192,8.688S92.376.288,97.68.288Zm0-3.312A5.125,5.125,0,0,1,92.424-8.4a5.125,5.125,0,0,1,5.256-5.376A5.125,5.125,0,0,1,102.936-8.4,5.125,5.125,0,0,1,97.68-3.024ZM-39.06,28.8h4.08L-42.492,12h-3.84L-53.82,28.8h3.984l1.488-3.6h7.8Zm-8.04-6.552,2.664-6.432,2.664,6.432ZM-19.668,12h-3.816l-4.488,7.464L-32.46,12h-4.128l6.5,10.8v6H-26.2V22.848Zm8.856,17.088c4.776,0,7.608-2.736,7.608-7.68V12h-3.84v9.264c0,3.192-1.368,4.512-3.744,4.512-2.352,0-3.744-1.32-3.744-4.512V12H-18.42v9.408C-18.42,26.352-15.588,29.088-10.812,29.088ZM12.2,12V22.2L3.852,12H.636V28.8h3.84V18.6l8.376,10.2h3.192V12Zm15.96,17.088c5.28,0,9.192-3.672,9.192-8.688s-3.912-8.688-9.192-8.688c-5.3,0-9.192,3.7-9.192,8.688S22.86,29.088,28.164,29.088Zm0-3.312A5.125,5.125,0,0,1,22.908,20.4a5.257,5.257,0,1,1,10.512,0A5.125,5.125,0,0,1,28.164,25.776ZM45.8,29.088c4.8,0,7.128-2.4,7.128-5.208,0-6.168-9.768-4.032-9.768-7.128,0-1.056.888-1.92,3.192-1.92a9.488,9.488,0,0,1,4.656,1.32l1.2-2.952a11.269,11.269,0,0,0-5.832-1.488c-4.776,0-7.08,2.376-7.08,5.232,0,6.24,9.768,4.08,9.768,7.224,0,1.032-.936,1.8-3.24,1.8a9.882,9.882,0,0,1-5.544-1.752l-1.32,2.928A11.974,11.974,0,0,0,45.8,29.088ZM-91.416,40.8h-7.272V57.6H-94.8V52.968h3.384c4.488,0,7.3-2.328,7.3-6.072C-84.12,43.128-86.928,40.8-91.416,40.8Zm-.216,9H-94.8V43.968h3.168c2.376,0,3.576,1.08,3.576,2.928C-88.056,48.72-89.256,49.8-91.632,49.8Zm25.152,7.8-3.768-5.4a5.462,5.462,0,0,0,3.456-5.3c0-3.768-2.808-6.1-7.3-6.1H-81.36V57.6h3.888V52.92H-73.9l3.24,4.68Zm-4.248-10.7c0,1.824-1.2,2.928-3.576,2.928h-3.168V43.968H-74.3C-71.928,43.968-70.728,45.048-70.728,46.9Zm15.144,10.992c5.28,0,9.192-3.672,9.192-8.688s-3.912-8.688-9.192-8.688c-5.3,0-9.192,3.7-9.192,8.688S-60.888,57.888-55.584,57.888Zm0-3.312A5.125,5.125,0,0,1-60.84,49.2a5.125,5.125,0,0,1,5.256-5.376A5.125,5.125,0,0,1-50.328,49.2,5.125,5.125,0,0,1-55.584,54.576Zm12.12,3.024h12.312V54.432h-8.424V40.8h-3.888Zm22.344.288c5.28,0,9.192-3.672,9.192-8.688s-3.912-8.688-9.192-8.688c-5.3,0-9.192,3.7-9.192,8.688S-26.424,57.888-21.12,57.888Zm0-3.312A5.125,5.125,0,0,1-26.376,49.2a5.125,5.125,0,0,1,5.256-5.376A5.125,5.125,0,0,1-15.864,49.2,5.125,5.125,0,0,1-21.12,54.576ZM2.568,40.8V51L-5.784,40.8H-9V57.6h3.84V47.4L3.216,57.6H6.408V40.8ZM21.744,53.856a6.172,6.172,0,0,1-3.024.72,5.377,5.377,0,1,1,.048-10.752,5.685,5.685,0,0,1,4.344,1.9l2.5-2.3a8.956,8.956,0,0,0-7.032-2.9c-5.352,0-9.24,3.624-9.24,8.688s3.888,8.688,9.168,8.688A11.593,11.593,0,0,0,25.3,55.752V48.936H21.744Zm19.7,3.744h4.08L38.016,40.8h-3.84L26.688,57.6h3.984L32.16,54h7.8Zm-8.04-6.552,2.664-6.432,2.664,6.432ZM47.28,57.6h7.632c5.5,0,9.264-3.312,9.264-8.4s-3.768-8.4-9.264-8.4H47.28Zm3.888-3.192V43.992H54.72c3.336,0,5.52,1.992,5.52,5.208s-2.184,5.208-5.52,5.208Zm24.072,3.48c5.28,0,9.192-3.672,9.192-8.688s-3.912-8.688-9.192-8.688c-5.3,0-9.192,3.7-9.192,8.688S69.936,57.888,75.24,57.888Zm0-3.312A5.125,5.125,0,0,1,69.984,49.2a5.257,5.257,0,1,1,10.512,0A5.125,5.125,0,0,1,75.24,54.576Zm17.64,3.312c4.8,0,7.128-2.4,7.128-5.208,0-6.168-9.768-4.032-9.768-7.128,0-1.056.888-1.92,3.192-1.92a9.488,9.488,0,0,1,4.656,1.32L99.288,42a11.269,11.269,0,0,0-5.832-1.488c-4.776,0-7.08,2.376-7.08,5.232,0,6.24,9.768,4.08,9.768,7.224,0,1.032-.936,1.8-3.24,1.8a9.882,9.882,0,0,1-5.544-1.752l-1.32,2.928A11.974,11.974,0,0,0,92.88,57.888Z" transform="translate(4865.013 -1792.088)" fill="#fff"/>
  </g>
</svg>
