<svg xmlns="http://www.w3.org/2000/svg" width="74" height="73.943" viewBox="0 0 74 73.943">
  <g id="Grupo_7581" data-name="Grupo 7581" transform="translate(-6859.585 460.453)">
    <path id="Trazado_16480" data-name="Trazado 16480" d="M6865.224-460.453a39.133,39.133,0,0,1,3.611,3.514,5.9,5.9,0,0,0,5.569,2.291c2.512-.2,5.054-.009,7.582.036a2.429,2.429,0,0,0,1.83-.872c.47-.482.89-1.013,1.343-1.512a4.65,4.65,0,0,1,3.97-1.694,9.171,9.171,0,0,0,5.354-1.067,4.54,4.54,0,0,1,4.51.121,7.655,7.655,0,0,0,4.654.947,4.994,4.994,0,0,1,4.683,2.033,6.629,6.629,0,0,0,3.531,2.366,5.076,5.076,0,0,1,3.74,3.762,6.647,6.647,0,0,0,2.652,3.822,3.9,3.9,0,0,1,1.783,2.926c.037.543.4.557.817.556,3.156-.007,6.314.064,9.468-.028a2.935,2.935,0,0,1,3.262,3.29c-.07,3.179-.019,6.36-.021,9.54,0,2.08-1.012,3.142-3.071,3.164-.547.006-.711.183-.692.71.034.938,0,1.879.014,2.818a1.124,1.124,0,0,1-.625,1.195,1.147,1.147,0,0,1-1.351-.4c-1.284-1.305-2.571-2.609-3.894-3.875a1.74,1.74,0,0,0-1-.418,15.663,15.663,0,0,0-2.311,0,.762.762,0,0,0-.568.438,5.278,5.278,0,0,1-2.146,3.315,5.244,5.244,0,0,0-2.087,2.869c-.634,2.963-2.65,4.407-5.42,4.862a8.555,8.555,0,0,0-4.321,1.99,12.708,12.708,0,0,1-5.683,2.541c-.462.1-.758.229-.709.776.045.505-.107.978.645,1.222a28.952,28.952,0,0,1,3.644,1.536.964.964,0,0,1,.525,1.479c-.344.565-.835.627-1.567.262-.8-.4-1.608-.759-2.421-1.117a5.1,5.1,0,0,0-.765-.2c-.247,1.922-1.254,3.035-3.229,3-1.9-.034-2.857-1.151-3.1-3.011a11.131,11.131,0,0,0-4.595,2.314,12.167,12.167,0,0,0-4.556,9.591c-.034,2.529.017,5.06-.033,7.589a1.515,1.515,0,0,1-.572,1.106c-.671.413-1.39-.085-1.407-.944-.037-1.734-.046-3.47-.015-5.2a31.033,31.033,0,0,1,.223-4.9c1.051-5.874,4.533-9.694,10.209-11.476.746-.234.8-.6.826-1.231.025-.656-.319-.793-.829-.929a15.5,15.5,0,0,1-6.234-3.367,2.789,2.789,0,0,0-1.454-.632,15.5,15.5,0,0,1-4.655-1.219,4.39,4.39,0,0,1-2.37-2.407,10.481,10.481,0,0,1-.445-1.219,5.846,5.846,0,0,0-2.073-3.138c-.151-.118-.291-.253-.436-.379a4.781,4.781,0,0,1-1.82-4.2,8.928,8.928,0,0,0-1.053-5.211,13.055,13.055,0,0,1-.784-3.075l.189-.122c-.281-.013-.563-.037-.845-.038-2.337,0-4.677-.075-7.01.018-2.02.08-3.493-.515-4.1-2.581V-443.1c.39-.443.793-.878,1.467-.612s.669.865.665,1.457c0,.795,0,1.59,0,2.384,0,1.242.193,1.442,1.407,1.442q8.887,0,17.775,0c1.168,0,1.409-.236,1.41-1.384q0-5.708,0-11.417c0-1.171-.265-1.432-1.454-1.433-3.131,0-6.263-.027-9.393.013a2.463,2.463,0,0,1-2.036-.83c-.841-.926-1.757-1.784-2.646-2.665-.173-.171-.373-.313-.721-.6,0,1.127.015,2.036,0,2.945a1.021,1.021,0,0,1-1.117,1.129c-.7.02-1.4-.006-2.095.013-.818.022-1.115.333-1.126,1.161-.012.939.055,1.885-.038,2.815a1.307,1.307,0,0,1-.651.972c-.342.1-.807-.188-1.209-.333-.1-.035-.158-.17-.235-.259v-3.9c.359-.809.647-1.723,1.545-2.066a7.62,7.62,0,0,1,2.156-.406c.555-.04.756-.218.743-.77-.024-1.1.032-2.211-.01-3.314a1.545,1.545,0,0,1,.915-1.685Zm18.415,42.635c-.209-.4-.371-.718-.535-1.031a15.257,15.257,0,0,1,6.438-20.658c2.041-1.058,3.826-.15,4.2,2.128a11.331,11.331,0,0,0,2.676,5.754,14.888,14.888,0,0,0,8.211,4.673c1.379.309,2.812.37,4.216.57a3.28,3.28,0,0,1,2.851,3.955c-.3,1.3-.82,2.558-1.246,3.833-.063.189-.15.369-.262.64,1.677-.365,2.973-.958,3.393-2.727a7.774,7.774,0,0,1,2.929-4.437,5.559,5.559,0,0,0,1.094-1.141c.375-.52.179-.863-.469-.885-.721-.025-1.444-.006-2.167-.01a2.715,2.715,0,0,1-2.929-2.861q-.035-5.2,0-10.406a2.784,2.784,0,0,1,2.865-2.973c.7-.039,1.4,0,2.095-.04.242-.013.634-.1.68-.247a.943.943,0,0,0-.174-.777,10.1,10.1,0,0,0-1.485-1.459,5.724,5.724,0,0,1-2.254-3.341,3.909,3.909,0,0,0-3.023-3.136,6.856,6.856,0,0,1-3.768-2.549,3.674,3.674,0,0,0-3.569-1.572,8.207,8.207,0,0,1-4.944-1.028,3.582,3.582,0,0,0-3.719,0,8.078,8.078,0,0,1-5.019.994,3.531,3.531,0,0,0-3.5,1.565,2.154,2.154,0,0,1-.472.544c-1.208.823-1.392,1.9-1.33,3.347.159,3.775.054,7.561.046,11.343,0,2.287-1.186,3.46-3.482,3.466-2.1.006-4.191.019-6.287-.006-.688-.008-1.023.29-.939.942a4.41,4.41,0,0,0,.42,1.579,8.988,8.988,0,0,1,1.166,5.491,3.388,3.388,0,0,0,1.418,3.274,8.188,8.188,0,0,1,2.825,4.262C6880.167-418.86,6881.455-417.938,6883.639-417.818Zm-.154-8.228c.057.691.068,1.345.17,1.984,1.617,10.158,13.221,14.457,21.456,8.466a11.046,11.046,0,0,0,4.391-7.074c.173-.893-.152-1.391-.965-1.546a6.2,6.2,0,0,0-.861-.083,18.974,18.974,0,0,1-6.255-1.349c-5.252-2.131-8.865-5.689-9.857-11.49-.119-.7-.37-.795-1.08-.4A13.047,13.047,0,0,0,6883.484-426.046Zm43.968-.088.268-.128c0-.306,0-.613,0-.919s-.011-.627.008-.939a1.117,1.117,0,0,1,1.225-1.212c.48-.02.962,0,1.444-.006.921-.008,1.066-.142,1.067-1.038q.006-4.875,0-9.751c0-.878-.173-1.065-1.058-1.067q-7.583-.014-15.168,0c-.885,0-1.047.182-1.049,1.073q-.009,4.875,0,9.751c0,.9.145,1.035,1.065,1.038,2.721.006,5.441.018,8.162,0a1.988,1.988,0,0,1,1.6.657C6925.81-427.817,6926.638-426.982,6927.452-426.134Zm-29.846,17.382h.01c0-.216,0-.432,0-.649,0-1.432-.029-1.446-1.451-1.352-.384.025-.579.158-.577.556.006.985-.02,1.97.008,2.954a.928.928,0,0,0,1,1,.938.938,0,0,0,1.006-1C6897.629-407.741,6897.606-408.247,6897.606-408.751Z" fill="#023c7d"/>
    <path id="Trazado_16481" data-name="Trazado 16481" d="M6877.921-206.747c-.358-.022-.6-.026-.837-.052a2.445,2.445,0,0,1-2.334-2.484q-.047-4.478,0-8.956a2.422,2.422,0,0,1,2.55-2.478q6.718-.018,13.435,0a2.438,2.438,0,0,1,2.565,2.6q.012,4.334,0,8.668a2.478,2.478,0,0,1-2.668,2.659c-2.118.018-4.237.025-6.355-.006a1.717,1.717,0,0,0-1.386.589c-.979,1.029-2.008,2.01-3,3.022-.39.4-.883.687-1.336.356a1.836,1.836,0,0,1-.6-1.189A27.1,27.1,0,0,1,6877.921-206.747Zm2.084.238.26.148c.588-.625,1.188-1.241,1.763-1.879a1.881,1.881,0,0,1,1.53-.643c2.287.023,4.573-.005,6.859.014.583,0,.82-.194.816-.793-.019-2.744-.014-5.488,0-8.232,0-.505-.167-.75-.708-.749q-6.5.013-13,0c-.479,0-.7.178-.7.68q.016,4.224,0,8.448c0,.461.206.655.658.644s.915-.017,1.371.009a1.091,1.091,0,0,1,1.142,1.141C6880.024-207.321,6880-206.915,6880-206.509Z" transform="translate(-12.217 -193.424)" fill="#023c7d"/>
    <path id="Trazado_16482" data-name="Trazado 16482" d="M7107.463-156.081c0,1.516.013,3.032-.006,4.547-.01.879-.366,1.271-1.05,1.24-.644-.029-.965-.432-.967-1.254,0-2.406-.013-4.812,0-7.218a12.627,12.627,0,0,0-1.978-7.048c-.487-.759-.407-1.331.184-1.685.533-.32,1.055-.138,1.5.544a14.367,14.367,0,0,1,2.321,8.2c-.009.89,0,1.78,0,2.671Z" transform="translate(-196.516 -236.248)" fill="#023c7d"/>
    <path id="Trazado_16483" data-name="Trazado 16483" d="M7001.9-120.367c0,1.1.009,2.209,0,3.314-.009.793-.37,1.2-1.024,1.206s-1.034-.4-1.04-1.2q-.022-3.35,0-6.7c.006-.786.4-1.214,1.03-1.215.661,0,1.025.44,1.031,1.28C7001.9-122.576,7001.9-121.471,7001.9-120.367Z" transform="translate(-113.149 -270.692)" fill="#023c7d"/>
    <path id="Trazado_16484" data-name="Trazado 16484" d="M7091.836-120.363c0-1.105-.007-2.21,0-3.315.007-.848.361-1.284,1.022-1.288s1.042.435,1.046,1.276q.018,3.279,0,6.557c0,.858-.363,1.28-1.032,1.283s-1.028-.427-1.034-1.271C7091.83-118.2,7091.836-119.282,7091.836-120.363Z" transform="translate(-187.39 -270.689)" fill="#023c7d"/>
    <path id="Trazado_16485" data-name="Trazado 16485" d="M6904.583-400.73c-.892-.866-1.7-1.589-2.424-2.388a1.589,1.589,0,0,1-.418-1.131.989.989,0,0,1,1.706-.451c.656.6,1.266,1.255,1.9,1.882.185.183.38.353.684.635.751-.78,1.459-1.527,2.184-2.258.2-.2.455-.5.677-.5a1.919,1.919,0,0,1,1.134.382.806.806,0,0,1-.044,1.225c-.6.63-1.217,1.235-1.825,1.854-.217.221-.424.451-.707.754.809.811,1.619,1.561,2.344,2.386a1.515,1.515,0,0,1,.377,1.127.991.991,0,0,1-1.717.4c-.618-.573-1.2-1.189-1.795-1.783-.2-.2-.413-.393-.7-.666-.709.7-1.387,1.372-2.062,2.044-.8.794-1.416.94-1.92.453s-.381-1.079.449-1.9C6903.105-399.328,6903.8-399.983,6904.583-400.73Z" transform="translate(-33.958 -44.729)" fill="#023c7d"/>
    <path id="Trazado_16486" data-name="Trazado 16486" d="M7035.2-260.59c.011.93-.358,1.383-1,1.406s-1.02-.373-1.121-1.226a2.9,2.9,0,0,0-2.66-2.683,2.9,2.9,0,0,0-3.083,2.188c-.059.231-.062.476-.1.714a1.049,1.049,0,0,1-1.175,1,1.008,1.008,0,0,1-.93-1.161,4.839,4.839,0,0,1,2.523-4.2,4.783,4.783,0,0,1,5.024,0A4.877,4.877,0,0,1,7035.2-260.59Z" transform="translate(-133.568 -157.488)" fill="#023c7d"/>
    <path id="Trazado_16487" data-name="Trazado 16487" d="M7006.816-301.555a7.409,7.409,0,0,1-.005.865.963.963,0,0,1-.955.915.935.935,0,0,1-1.05-.795,9.514,9.514,0,0,1-.09-1.364c-.022-.5-.22-.868-.758-.868s-.749.363-.765.862c-.012.385.009.773-.034,1.154a1.044,1.044,0,0,1-1.1,1.015,1.013,1.013,0,0,1-.988-1.049,10.9,10.9,0,0,1,.015-1.587,2.856,2.856,0,0,1,3-2.533,2.827,2.827,0,0,1,2.738,2.735c.011.216,0,.433,0,.65Z" transform="translate(-114.141 -125.474)" fill="#023c7d"/>
    <path id="Trazado_16488" data-name="Trazado 16488" d="M7171.043-345.063c-.69.778-1.228,1.423-1.809,2.026-.6.618-1.15.668-1.633.211s-.428-1.066.178-1.692c.435-.449.858-.914,1.33-1.322.445-.386.393-.673-.018-1.041-.5-.449-.966-.939-1.428-1.429a1.025,1.025,0,0,1-.084-1.532.959.959,0,0,1,1.519.056c.627.627,1.206,1.3,1.874,2.032.6-.583,1.054-1.029,1.511-1.473.242-.234.47-.487.732-.695a.949.949,0,0,1,1.369.037.95.95,0,0,1,.055,1.421c-.526.592-1.094,1.15-1.669,1.7-.315.3-.327.528-.007.83.542.511,1.07,1.04,1.578,1.586a1,1,0,0,1,.022,1.526.987.987,0,0,1-1.477-.069C7172.442-343.532,7171.839-344.213,7171.043-345.063Z" transform="translate(-248.259 -88.963)" fill="#023c7d"/>
    <path id="Trazado_16489" data-name="Trazado 16489" d="M6908.919-200.558c.418-.524.8-1.078,1.264-1.563.577-.608,1.177-.636,1.634-.158a1.111,1.111,0,0,1-.162,1.6c-.347.367-.7.729-1.073,1.068-.316.289-.343.526-.01.828.409.371.8.765,1.17,1.174a1.061,1.061,0,0,1,.03,1.545.983.983,0,0,1-1.476-.092c-.506-.507-.948-1.077-1.419-1.62l-.382-.03c-.425.519-.817,1.068-1.282,1.549-.582.6-1.177.625-1.633.144a1.094,1.094,0,0,1,.172-1.593c.432-.452.871-.9,1.3-1.347a2.071,2.071,0,0,1,.261-.345c-.519-.423-1.064-.818-1.548-1.277a1.07,1.07,0,0,1-.151-1.639c.467-.441,1.007-.391,1.591.161.455.428.9.869,1.348,1.3a.411.411,0,0,0,.132.055Z" transform="translate(-36.885 -208.041)" fill="#023c7d"/>
  </g>
</svg>
