<svg xmlns="http://www.w3.org/2000/svg" width="826.123" height="375.012" viewBox="0 0 826.123 375.012">
  <g id="Grupo_7725" data-name="Grupo 7725" transform="translate(-204 -898)">
    <g id="Grupo_7719" data-name="Grupo 7719">
      <path id="Trazado_16877" data-name="Trazado 16877" d="M-134.495-11.7a4.2,4.2,0,0,0-3.344,1.411,5.69,5.69,0,0,0-1.226,3.863,5.8,5.8,0,0,0,1.182,3.9,4.2,4.2,0,0,0,3.371,1.375,11.508,11.508,0,0,0,3.067-.483v1.31a9.446,9.446,0,0,1-3.3.5,5.576,5.576,0,0,1-4.381-1.723,7.094,7.094,0,0,1-1.542-4.9,7.727,7.727,0,0,1,.743-3.48,5.332,5.332,0,0,1,2.145-2.3,6.491,6.491,0,0,1,3.3-.809,7.963,7.963,0,0,1,3.533.738l-.633,1.283A6.81,6.81,0,0,0-134.495-11.7ZM-122.937,0l-.29-1.371h-.07a4.053,4.053,0,0,1-1.437,1.226,4.38,4.38,0,0,1-1.789.321,3.217,3.217,0,0,1-2.246-.738,2.693,2.693,0,0,1-.813-2.1q0-2.918,4.667-3.059l1.635-.053v-.6a2.442,2.442,0,0,0-.488-1.674,2.006,2.006,0,0,0-1.56-.541,6.357,6.357,0,0,0-2.725.738l-.448-1.116a6.856,6.856,0,0,1,1.56-.606,6.757,6.757,0,0,1,1.7-.22,3.669,3.669,0,0,1,2.553.765,3.192,3.192,0,0,1,.831,2.452V0Zm-3.3-1.028a2.961,2.961,0,0,0,2.14-.747,2.764,2.764,0,0,0,.778-2.092v-.87l-1.459.062a5.307,5.307,0,0,0-2.509.541,1.63,1.63,0,0,0-.769,1.49,1.5,1.5,0,0,0,.479,1.2A1.988,1.988,0,0,0-126.233-1.028Zm-.343-10.1q.422-.545.91-1.318a15.088,15.088,0,0,0,.769-1.345h1.775v.185a12.992,12.992,0,0,1-1.151,1.406,13.072,13.072,0,0,1-1.327,1.292h-.976Zm12.12,1.318A5.709,5.709,0,0,1-113.3-9.7l-.2,1.354a4.97,4.97,0,0,0-1.055-.132,2.567,2.567,0,0,0-2,.949,3.461,3.461,0,0,0-.831,2.364V0h-1.459V-9.633h1.2l.167,1.784h.07a4.234,4.234,0,0,1,1.292-1.45A2.908,2.908,0,0,1-114.456-9.809Zm6.442,9.984a4.111,4.111,0,0,1-3.239-1.288A5.3,5.3,0,0,1-112.4-4.755a5.46,5.46,0,0,1,1.165-3.735,4.193,4.193,0,0,1,3.318-1.318,6.584,6.584,0,0,1,1.389.149,4.575,4.575,0,0,1,1.09.352l-.448,1.239a6.86,6.86,0,0,0-1.055-.321,4.709,4.709,0,0,0-1.011-.127q-2.936,0-2.936,3.744a4.458,4.458,0,0,0,.716,2.725,2.492,2.492,0,0,0,2.123.949,6.49,6.49,0,0,0,2.47-.519V-.325A5.264,5.264,0,0,1-108.013.176Zm8.789,0a4.426,4.426,0,0,1-3.371-1.3,5.036,5.036,0,0,1-1.235-3.612,5.585,5.585,0,0,1,1.147-3.7A3.81,3.81,0,0,1-99.6-9.809a3.633,3.633,0,0,1,2.865,1.191,4.564,4.564,0,0,1,1.055,3.142v.923h-6.636a3.818,3.818,0,0,0,.857,2.575,2.964,2.964,0,0,0,2.29.879,7.759,7.759,0,0,0,3.076-.65v1.3a7.721,7.721,0,0,1-1.463.479A8.224,8.224,0,0,1-99.224.176Zm-.4-8.763a2.383,2.383,0,0,0-1.85.756,3.484,3.484,0,0,0-.813,2.092h5.036a3.208,3.208,0,0,0-.615-2.114A2.165,2.165,0,0,0-99.62-8.587ZM-91.736,0h-1.459V-13.676h1.459Zm7.163.176a4.426,4.426,0,0,1-3.371-1.3,5.036,5.036,0,0,1-1.235-3.612,5.585,5.585,0,0,1,1.147-3.7,3.81,3.81,0,0,1,3.081-1.371,3.633,3.633,0,0,1,2.865,1.191,4.564,4.564,0,0,1,1.055,3.142v.923h-6.636a3.818,3.818,0,0,0,.857,2.575,2.964,2.964,0,0,0,2.29.879,7.759,7.759,0,0,0,3.076-.65v1.3a7.721,7.721,0,0,1-1.463.479A8.224,8.224,0,0,1-84.573.176Zm-.4-8.763a2.383,2.383,0,0,0-1.85.756,3.484,3.484,0,0,0-.813,2.092H-82.6a3.208,3.208,0,0,0-.615-2.114A2.165,2.165,0,0,0-84.968-8.587ZM-72.33-2.628a2.413,2.413,0,0,1-1,2.074,4.71,4.71,0,0,1-2.812.729,6.116,6.116,0,0,1-2.988-.606V-1.784a7.227,7.227,0,0,0,1.49.554,6.221,6.221,0,0,0,1.534.2,3.478,3.478,0,0,0,1.758-.365A1.206,1.206,0,0,0-73.736-2.5a1.207,1.207,0,0,0-.488-.962,7.673,7.673,0,0,0-1.9-.945,10.318,10.318,0,0,1-1.912-.875,2.611,2.611,0,0,1-.844-.848,2.212,2.212,0,0,1-.277-1.134A2.161,2.161,0,0,1-78.2-9.127a4.464,4.464,0,0,1,2.628-.681,7.689,7.689,0,0,1,3.041.633l-.519,1.187a6.98,6.98,0,0,0-2.628-.6,3.023,3.023,0,0,0-1.564.325,1.006,1.006,0,0,0-.527.9,1.092,1.092,0,0,0,.2.659,1.952,1.952,0,0,0,.637.519,14.24,14.24,0,0,0,1.688.712,6.3,6.3,0,0,1,2.316,1.257A2.216,2.216,0,0,1-72.33-2.628Zm10.9,2.8A4.111,4.111,0,0,1-64.67-1.112a5.3,5.3,0,0,1-1.147-3.643A5.46,5.46,0,0,1-64.652-8.49a4.193,4.193,0,0,1,3.318-1.318,6.584,6.584,0,0,1,1.389.149,4.575,4.575,0,0,1,1.09.352L-59.3-8.068a6.86,6.86,0,0,0-1.055-.321,4.709,4.709,0,0,0-1.011-.127q-2.936,0-2.936,3.744a4.458,4.458,0,0,0,.716,2.725,2.492,2.492,0,0,0,2.123.949A6.49,6.49,0,0,0-59-1.617V-.325A5.264,5.264,0,0,1-61.431.176Zm13.034-5a5.314,5.314,0,0,1-1.187,3.678A4.179,4.179,0,0,1-52.862.176a4.342,4.342,0,0,1-2.294-.606A4,4,0,0,1-56.7-2.171a6.065,6.065,0,0,1-.545-2.654A5.306,5.306,0,0,1-56.07-8.495,4.165,4.165,0,0,1-52.8-9.809a4.075,4.075,0,0,1,3.212,1.345A5.291,5.291,0,0,1-48.4-4.825Zm-7.339,0A4.572,4.572,0,0,0-55-2.013a2.563,2.563,0,0,0,2.171.967,2.58,2.58,0,0,0,2.175-.962,4.549,4.549,0,0,0,.743-2.817,4.476,4.476,0,0,0-.743-2.791,2.609,2.609,0,0,0-2.193-.954,2.568,2.568,0,0,0-2.162.94A4.526,4.526,0,0,0-55.736-4.825ZM-33.561,0V-6.267a2.6,2.6,0,0,0-.492-1.727,1.9,1.9,0,0,0-1.529-.576,2.469,2.469,0,0,0-2.013.782,3.718,3.718,0,0,0-.65,2.408V0H-39.7V-6.267A2.6,2.6,0,0,0-40.2-7.994a1.915,1.915,0,0,0-1.538-.576,2.382,2.382,0,0,0-2.008.822,4.447,4.447,0,0,0-.637,2.694V0h-1.459V-9.633h1.187l.237,1.318h.07a2.867,2.867,0,0,1,1.165-1.1,3.558,3.558,0,0,1,1.683-.4,2.862,2.862,0,0,1,2.953,1.635h.07a3.072,3.072,0,0,1,1.248-1.2,3.873,3.873,0,0,1,1.863-.439,3.262,3.262,0,0,1,2.448.839A3.755,3.755,0,0,1-32.1-6.284V0Zm12.779-4.825a5.314,5.314,0,0,1-1.187,3.678A4.179,4.179,0,0,1-25.247.176a4.342,4.342,0,0,1-2.294-.606,4,4,0,0,1-1.547-1.74,6.065,6.065,0,0,1-.545-2.654,5.306,5.306,0,0,1,1.178-3.669,4.165,4.165,0,0,1,3.27-1.314,4.075,4.075,0,0,1,3.212,1.345A5.291,5.291,0,0,1-20.782-4.825Zm-7.339,0a4.572,4.572,0,0,0,.738,2.813,2.563,2.563,0,0,0,2.171.967,2.58,2.58,0,0,0,2.175-.962,4.549,4.549,0,0,0,.743-2.817,4.476,4.476,0,0,0-.743-2.791,2.609,2.609,0,0,0-2.193-.954,2.568,2.568,0,0,0-2.162.94A4.526,4.526,0,0,0-28.121-4.825Zm18.642,5a4.426,4.426,0,0,1-3.371-1.3,5.036,5.036,0,0,1-1.235-3.612,5.585,5.585,0,0,1,1.147-3.7A3.81,3.81,0,0,1-9.857-9.809,3.633,3.633,0,0,1-6.992-8.618,4.564,4.564,0,0,1-5.937-5.476v.923h-6.636a3.818,3.818,0,0,0,.857,2.575,2.964,2.964,0,0,0,2.29.879,7.759,7.759,0,0,0,3.076-.65v1.3A7.721,7.721,0,0,1-7.813.031,8.224,8.224,0,0,1-9.479.176Zm-.4-8.763a2.383,2.383,0,0,0-1.85.756,3.484,3.484,0,0,0-.813,2.092H-7.5a3.208,3.208,0,0,0-.615-2.114A2.165,2.165,0,0,0-9.875-8.587ZM3.142,0V-6.231a2.514,2.514,0,0,0-.536-1.758,2.184,2.184,0,0,0-1.679-.58,2.769,2.769,0,0,0-2.215.817,4.127,4.127,0,0,0-.7,2.7V0H-3.45V-9.633h1.187l.237,1.318h.07A2.979,2.979,0,0,1-.7-9.417a4.084,4.084,0,0,1,1.8-.391,3.659,3.659,0,0,1,2.619.839A3.572,3.572,0,0,1,4.6-6.284V0Zm7.567-1.028a4.766,4.766,0,0,0,.747-.057,4.836,4.836,0,0,0,.571-.119V-.088a2.667,2.667,0,0,1-.7.189A5.247,5.247,0,0,1,10.5.176Q7.7.176,7.7-2.769V-8.5H6.324v-.7L7.7-9.809l.615-2.057h.844v2.232h2.795V-8.5H9.163V-2.83a1.95,1.95,0,0,0,.413,1.336A1.438,1.438,0,0,0,10.709-1.028Zm11.558-3.8a5.314,5.314,0,0,1-1.187,3.678A4.179,4.179,0,0,1,17.8.176a4.342,4.342,0,0,1-2.294-.606,4,4,0,0,1-1.547-1.74,6.065,6.065,0,0,1-.545-2.654,5.306,5.306,0,0,1,1.178-3.669,4.165,4.165,0,0,1,3.27-1.314,4.075,4.075,0,0,1,3.212,1.345A5.291,5.291,0,0,1,22.267-4.825Zm-7.339,0a4.572,4.572,0,0,0,.738,2.813,2.563,2.563,0,0,0,2.171.967,2.58,2.58,0,0,0,2.175-.962,4.549,4.549,0,0,0,.743-2.817,4.476,4.476,0,0,0-.743-2.791,2.609,2.609,0,0,0-2.193-.954,2.568,2.568,0,0,0-2.162.94A4.526,4.526,0,0,0,14.928-4.825ZM29.219-9.809a5.709,5.709,0,0,1,1.151.105l-.2,1.354a4.97,4.97,0,0,0-1.055-.132,2.567,2.567,0,0,0-2,.949,3.461,3.461,0,0,0-.831,2.364V0H24.825V-9.633h1.2L26.2-7.849h.07A4.234,4.234,0,0,1,27.558-9.3,2.908,2.908,0,0,1,29.219-9.809ZM38.764,0V-6.231a2.514,2.514,0,0,0-.536-1.758,2.184,2.184,0,0,0-1.679-.58,2.769,2.769,0,0,0-2.215.817,4.127,4.127,0,0,0-.7,2.7V0H32.172V-9.633h1.187L33.6-8.314h.07a2.979,2.979,0,0,1,1.257-1.1,4.084,4.084,0,0,1,1.8-.391,3.659,3.659,0,0,1,2.619.839,3.572,3.572,0,0,1,.879,2.685V0ZM51.535-4.825a5.314,5.314,0,0,1-1.187,3.678A4.179,4.179,0,0,1,47.07.176a4.342,4.342,0,0,1-2.294-.606,4,4,0,0,1-1.547-1.74,6.065,6.065,0,0,1-.545-2.654,5.306,5.306,0,0,1,1.178-3.669,4.165,4.165,0,0,1,3.27-1.314,4.075,4.075,0,0,1,3.212,1.345A5.291,5.291,0,0,1,51.535-4.825Zm-7.339,0a4.572,4.572,0,0,0,.738,2.813,2.563,2.563,0,0,0,2.171.967,2.58,2.58,0,0,0,2.175-.962,4.549,4.549,0,0,0,.743-2.817,4.476,4.476,0,0,0-.743-2.791,2.609,2.609,0,0,0-2.193-.954,2.568,2.568,0,0,0-2.162.94A4.526,4.526,0,0,0,44.2-4.825Zm16.11,2.2a2.413,2.413,0,0,1-1,2.074,4.71,4.71,0,0,1-2.812.729A6.116,6.116,0,0,1,53.5-.431V-1.784a7.227,7.227,0,0,0,1.49.554,6.221,6.221,0,0,0,1.534.2,3.478,3.478,0,0,0,1.758-.365A1.206,1.206,0,0,0,58.9-2.5a1.207,1.207,0,0,0-.488-.962,7.673,7.673,0,0,0-1.9-.945A10.318,10.318,0,0,1,54.6-5.287a2.611,2.611,0,0,1-.844-.848,2.212,2.212,0,0,1-.277-1.134,2.161,2.161,0,0,1,.958-1.859,4.464,4.464,0,0,1,2.628-.681,7.689,7.689,0,0,1,3.041.633l-.519,1.187a6.98,6.98,0,0,0-2.628-.6,3.023,3.023,0,0,0-1.564.325,1.006,1.006,0,0,0-.527.9,1.092,1.092,0,0,0,.2.659,1.952,1.952,0,0,0,.637.519,14.24,14.24,0,0,0,1.688.712A6.3,6.3,0,0,1,59.7-4.219,2.216,2.216,0,0,1,60.306-2.628ZM69.464,0,65.808-9.633h1.564L69.447-3.92a27.04,27.04,0,0,1,.826,2.6h.07a19.65,19.65,0,0,1,.611-1.929q.514-1.463,2.307-6.385h1.564L71.169,0Zm8.367,0H76.373V-9.633h1.459ZM76.25-12.243a.969.969,0,0,1,.246-.734.86.86,0,0,1,.615-.233.86.86,0,0,1,.606.237.951.951,0,0,1,.255.729.966.966,0,0,1-.255.734.851.851,0,0,1-.606.242.843.843,0,0,1-.615-.242A.987.987,0,0,1,76.25-12.243ZM89.24-4.825a5.314,5.314,0,0,1-1.187,3.678A4.179,4.179,0,0,1,84.775.176a4.342,4.342,0,0,1-2.294-.606,4,4,0,0,1-1.547-1.74,6.065,6.065,0,0,1-.545-2.654,5.306,5.306,0,0,1,1.178-3.669,4.165,4.165,0,0,1,3.27-1.314,4.075,4.075,0,0,1,3.212,1.345A5.291,5.291,0,0,1,89.24-4.825Zm-7.339,0a4.572,4.572,0,0,0,.738,2.813,2.563,2.563,0,0,0,2.171.967,2.58,2.58,0,0,0,2.175-.962,4.549,4.549,0,0,0,.743-2.817,4.476,4.476,0,0,0-.743-2.791,2.609,2.609,0,0,0-2.193-.954,2.568,2.568,0,0,0-2.162.94A4.526,4.526,0,0,0,81.9-4.825ZM93.256,0H91.8V-13.676h1.459Zm7.163.176a4.426,4.426,0,0,1-3.371-1.3,5.036,5.036,0,0,1-1.235-3.612,5.585,5.585,0,0,1,1.147-3.7,3.81,3.81,0,0,1,3.081-1.371,3.633,3.633,0,0,1,2.865,1.191,4.564,4.564,0,0,1,1.055,3.142v.923H97.326a3.818,3.818,0,0,0,.857,2.575,2.964,2.964,0,0,0,2.29.879,7.759,7.759,0,0,0,3.076-.65v1.3a7.721,7.721,0,0,1-1.463.479A8.224,8.224,0,0,1,100.419.176Zm-.4-8.763a2.383,2.383,0,0,0-1.85.756,3.484,3.484,0,0,0-.813,2.092H102.4a3.208,3.208,0,0,0-.615-2.114A2.165,2.165,0,0,0,100.024-8.587ZM113.041,0V-6.231a2.514,2.514,0,0,0-.536-1.758,2.184,2.184,0,0,0-1.679-.58,2.769,2.769,0,0,0-2.215.817,4.127,4.127,0,0,0-.7,2.7V0h-1.459V-9.633h1.187l.237,1.318h.07a2.979,2.979,0,0,1,1.257-1.1,4.084,4.084,0,0,1,1.8-.391,3.659,3.659,0,0,1,2.619.839,3.572,3.572,0,0,1,.879,2.685V0Zm7.567-1.028a4.766,4.766,0,0,0,.747-.057,4.836,4.836,0,0,0,.571-.119V-.088a2.667,2.667,0,0,1-.7.189,5.247,5.247,0,0,1-.831.075q-2.795,0-2.795-2.944V-8.5h-1.38v-.7l1.38-.606.615-2.057h.844v2.232h2.795V-8.5h-2.795V-2.83a1.95,1.95,0,0,0,.413,1.336A1.438,1.438,0,0,0,120.608-1.028Zm11.558-3.8a5.314,5.314,0,0,1-1.187,3.678A4.179,4.179,0,0,1,127.7.176a4.342,4.342,0,0,1-2.294-.606,4,4,0,0,1-1.547-1.74,6.065,6.065,0,0,1-.545-2.654,5.306,5.306,0,0,1,1.178-3.669,4.165,4.165,0,0,1,3.27-1.314,4.075,4.075,0,0,1,3.212,1.345A5.291,5.291,0,0,1,132.166-4.825Zm-7.339,0a4.572,4.572,0,0,0,.738,2.813,2.563,2.563,0,0,0,2.171.967,2.58,2.58,0,0,0,2.175-.962,4.549,4.549,0,0,0,.743-2.817,4.476,4.476,0,0,0-.743-2.791,2.609,2.609,0,0,0-2.193-.954,2.568,2.568,0,0,0-2.162.94A4.526,4.526,0,0,0,124.827-4.825Zm16.11,2.2a2.413,2.413,0,0,1-1,2.074,4.71,4.71,0,0,1-2.812.729,6.116,6.116,0,0,1-2.988-.606V-1.784a7.227,7.227,0,0,0,1.49.554,6.221,6.221,0,0,0,1.534.2,3.478,3.478,0,0,0,1.758-.365,1.206,1.206,0,0,0,.615-1.112,1.207,1.207,0,0,0-.488-.962,7.673,7.673,0,0,0-1.9-.945,10.318,10.318,0,0,1-1.912-.875,2.611,2.611,0,0,1-.844-.848,2.212,2.212,0,0,1-.277-1.134,2.161,2.161,0,0,1,.958-1.859,4.464,4.464,0,0,1,2.628-.681,7.689,7.689,0,0,1,3.041.633l-.519,1.187a6.98,6.98,0,0,0-2.628-.6,3.023,3.023,0,0,0-1.564.325,1.006,1.006,0,0,0-.527.9,1.092,1.092,0,0,0,.2.659,1.952,1.952,0,0,0,.637.519,14.24,14.24,0,0,0,1.688.712,6.3,6.3,0,0,1,2.316,1.257A2.216,2.216,0,0,1,140.937-2.628Z" transform="translate(619 993.713)" fill="#023c7d"/>
      <path id="Trazado_16834" data-name="Trazado 16834" d="M3040.889-820.45H2270.6a25.914,25.914,0,0,1-25.914-25.914h0a25.916,25.916,0,0,1,25.914-25.915h770.293a25.916,25.916,0,0,1,25.916,25.915h0A25.915,25.915,0,0,1,3040.889-820.45Z" transform="translate(-2036.681 1780.916)" fill="#023c7d"/>
      <circle id="Elipse_728" data-name="Elipse 728" cx="36.552" cy="36.552" r="36.552" transform="translate(204 898)" fill="#def3f5"/>
      <path id="Trazado_16878" data-name="Trazado 16878" d="M8.947-12.85H11.7L7.33,0H4.359L0-12.85H2.751L5.168-5.2q.2.677.417,1.578t.268,1.252A22.513,22.513,0,0,1,6.513-5.2Zm4.043.483q0-1.31,1.459-1.31t1.459,1.31a1.277,1.277,0,0,1-.365.971,1.533,1.533,0,0,1-1.094.347Q12.99-11.048,12.99-12.366ZM15.785,0H13.1V-9.826h2.681Zm4.948-4.931a4.124,4.124,0,0,0,.479,2.206,1.713,1.713,0,0,0,1.56.747,1.686,1.686,0,0,0,1.542-.743,4.183,4.183,0,0,0,.47-2.21,4.059,4.059,0,0,0-.475-2.188,1.716,1.716,0,0,0-1.556-.729,1.711,1.711,0,0,0-1.547.725A4.055,4.055,0,0,0,20.733-4.931Zm6.794,0a5.28,5.28,0,0,1-1.266,3.753A4.589,4.589,0,0,1,22.737.176a4.93,4.93,0,0,1-2.5-.62,4.123,4.123,0,0,1-1.661-1.78A5.981,5.981,0,0,1,18-4.931a5.251,5.251,0,0,1,1.257-3.744,4.616,4.616,0,0,1,3.533-1.336,4.958,4.958,0,0,1,2.5.615,4.106,4.106,0,0,1,1.661,1.767A5.925,5.925,0,0,1,27.527-4.931ZM32.423,0H29.742V-13.676h2.681ZM39.3-8.1a1.7,1.7,0,0,0-1.336.541,2.5,2.5,0,0,0-.554,1.534h3.762a2.235,2.235,0,0,0-.519-1.534A1.756,1.756,0,0,0,39.3-8.1ZM39.683.176a5.072,5.072,0,0,1-3.709-1.31,4.959,4.959,0,0,1-1.336-3.709,5.454,5.454,0,0,1,1.235-3.819,4.4,4.4,0,0,1,3.415-1.349A4.328,4.328,0,0,1,42.53-8.824a4.489,4.489,0,0,1,1.16,3.278v1.3H37.354a2.58,2.58,0,0,0,.677,1.784,2.381,2.381,0,0,0,1.775.642A7.37,7.37,0,0,0,41.484-2a8.4,8.4,0,0,0,1.652-.589V-.519a6.294,6.294,0,0,1-1.5.523A9.476,9.476,0,0,1,39.683.176ZM54.94,0H52.26V-5.739a2.757,2.757,0,0,0-.378-1.6,1.375,1.375,0,0,0-1.2-.532,1.81,1.81,0,0,0-1.626.751,4.661,4.661,0,0,0-.5,2.492V0H45.87V-9.826h2.048l.36,1.257h.149a2.833,2.833,0,0,1,1.235-1.077,4.2,4.2,0,0,1,1.789-.365,3.436,3.436,0,0,1,2.6.927,3.721,3.721,0,0,1,.888,2.676Zm6.75.176Q57.1.176,57.1-4.86a5.372,5.372,0,0,1,1.248-3.828,4.682,4.682,0,0,1,3.577-1.323,6.819,6.819,0,0,1,3.059.668L64.2-7.269q-.633-.255-1.178-.417a3.8,3.8,0,0,0-1.09-.163q-2.092,0-2.092,2.971Q59.836-2,61.928-2A4.769,4.769,0,0,0,63.36-2.2a5.173,5.173,0,0,0,1.318-.646V-.554a4.32,4.32,0,0,1-1.314.571A7.389,7.389,0,0,1,61.69.176Zm5.15-12.542q0-1.31,1.459-1.31t1.459,1.31a1.277,1.277,0,0,1-.365.971,1.533,1.533,0,0,1-1.094.347Q66.841-11.048,66.841-12.366ZM69.636,0H66.955V-9.826h2.681Zm9.053,0L78.17-1.336H78.1A3.959,3.959,0,0,1,76.707-.154a4.5,4.5,0,0,1-1.868.33,3.02,3.02,0,0,1-2.228-.809,3.105,3.105,0,0,1-.813-2.3,2.593,2.593,0,0,1,1.094-2.307,6.341,6.341,0,0,1,3.3-.822L77.9-6.117v-.431a1.336,1.336,0,0,0-1.529-1.494A6.969,6.969,0,0,0,73.6-7.33l-.888-1.811a7.988,7.988,0,0,1,3.762-.888,4.686,4.686,0,0,1,3.032.861,3.183,3.183,0,0,1,1.055,2.619V0ZM77.9-4.553l-1.037.035a3.321,3.321,0,0,0-1.74.422,1.325,1.325,0,0,0-.571,1.178q0,1.134,1.3,1.134a2.06,2.06,0,0,0,1.49-.536A1.883,1.883,0,0,0,77.9-3.744Zm9.466-2.522V-9h8.728v1.925Zm0,3.4V-5.6h8.728v1.925Zm18.352-1.705h-3.4V-7.3h3.4v-3.428h1.925V-7.3h3.4v1.925h-3.4V-2h-1.925Zm19.723-7.471h2.751L123.82,0H120.85L116.49-12.85h2.751L121.658-5.2q.2.677.417,1.578t.268,1.252A22.513,22.513,0,0,1,123-5.2Zm4.043.483q0-1.31,1.459-1.31t1.459,1.31a1.277,1.277,0,0,1-.365.971,1.533,1.533,0,0,1-1.094.347Q129.48-11.048,129.48-12.366ZM132.275,0h-2.681V-9.826h2.681Zm4.948-4.931a4.124,4.124,0,0,0,.479,2.206,1.713,1.713,0,0,0,1.56.747,1.686,1.686,0,0,0,1.542-.743,4.183,4.183,0,0,0,.47-2.21,4.059,4.059,0,0,0-.475-2.188,1.716,1.716,0,0,0-1.556-.729,1.711,1.711,0,0,0-1.547.725A4.055,4.055,0,0,0,137.224-4.931Zm6.794,0a5.28,5.28,0,0,1-1.266,3.753A4.589,4.589,0,0,1,139.228.176a4.93,4.93,0,0,1-2.5-.62,4.123,4.123,0,0,1-1.661-1.78,5.981,5.981,0,0,1-.58-2.707,5.251,5.251,0,0,1,1.257-3.744,4.616,4.616,0,0,1,3.533-1.336,4.958,4.958,0,0,1,2.5.615,4.106,4.106,0,0,1,1.661,1.767A5.925,5.925,0,0,1,144.018-4.931ZM148.913,0h-2.681V-13.676h2.681Zm6.882-8.1a1.7,1.7,0,0,0-1.336.541,2.5,2.5,0,0,0-.554,1.534h3.762a2.235,2.235,0,0,0-.519-1.534A1.756,1.756,0,0,0,155.795-8.1Zm.378,8.279a5.072,5.072,0,0,1-3.709-1.31,4.959,4.959,0,0,1-1.336-3.709,5.454,5.454,0,0,1,1.235-3.819,4.4,4.4,0,0,1,3.415-1.349,4.328,4.328,0,0,1,3.243,1.187,4.489,4.489,0,0,1,1.16,3.278v1.3h-6.337a2.58,2.58,0,0,0,.677,1.784,2.381,2.381,0,0,0,1.775.642A7.37,7.37,0,0,0,157.975-2a8.4,8.4,0,0,0,1.652-.589V-.519a6.294,6.294,0,0,1-1.5.523A9.476,9.476,0,0,1,156.173.176ZM171.431,0H168.75V-5.739a2.757,2.757,0,0,0-.378-1.6,1.375,1.375,0,0,0-1.2-.532,1.81,1.81,0,0,0-1.626.751,4.661,4.661,0,0,0-.5,2.492V0H162.36V-9.826h2.048l.36,1.257h.149a2.833,2.833,0,0,1,1.235-1.077,4.2,4.2,0,0,1,1.789-.365,3.436,3.436,0,0,1,2.6.927,3.721,3.721,0,0,1,.888,2.676Zm6.75.176q-4.588,0-4.588-5.036a5.372,5.372,0,0,1,1.248-3.828,4.682,4.682,0,0,1,3.577-1.323,6.819,6.819,0,0,1,3.059.668l-.791,2.074q-.633-.255-1.178-.417a3.8,3.8,0,0,0-1.09-.163q-2.092,0-2.092,2.971Q176.326-2,178.418-2a4.769,4.769,0,0,0,1.433-.207,5.173,5.173,0,0,0,1.318-.646V-.554a4.32,4.32,0,0,1-1.314.571A7.389,7.389,0,0,1,178.181.176Zm5.15-12.542q0-1.31,1.459-1.31t1.459,1.31a1.277,1.277,0,0,1-.365.971,1.533,1.533,0,0,1-1.094.347Q183.331-11.048,183.331-12.366ZM186.126,0h-2.681V-9.826h2.681Zm9.053,0-.519-1.336h-.07A3.959,3.959,0,0,1,193.2-.154a4.5,4.5,0,0,1-1.868.33A3.02,3.02,0,0,1,189.1-.633a3.105,3.105,0,0,1-.813-2.3,2.593,2.593,0,0,1,1.094-2.307,6.341,6.341,0,0,1,3.3-.822l1.705-.053v-.431a1.336,1.336,0,0,0-1.529-1.494,6.969,6.969,0,0,0-2.769.712L189.2-9.141a7.988,7.988,0,0,1,3.762-.888A4.686,4.686,0,0,1,196-9.167a3.183,3.183,0,0,1,1.055,2.619V0Zm-.791-4.553-1.037.035a3.321,3.321,0,0,0-1.74.422,1.325,1.325,0,0,0-.571,1.178q0,1.134,1.3,1.134a2.06,2.06,0,0,0,1.49-.536,1.883,1.883,0,0,0,.558-1.424Z" transform="translate(520 942.022)" fill="#fff"/>
      <g id="Grupo_7715" data-name="Grupo 7715" transform="translate(210.726 904.548)">
        <path id="Trazado_16835" data-name="Trazado 16835" d="M2272.613-827.745c-.715-.786-1.335-1.45-1.931-2.135a.822.822,0,0,1-.208-.53,2.587,2.587,0,0,0-1.459-2.4,3.206,3.206,0,0,1-1.459-2.246c-.012-.1-.111-.262-.182-.27-1.241-.122-1.958-1.045-2.865-1.945-.019,2.107-1.229,3.406-2.556,4.642-.53.494-1.024,1.024-1.541,1.533-.611.6-1.189.69-1.634.253-.466-.455-.4-1.013.216-1.63.849-.857,1.744-1.673,2.542-2.575a4.5,4.5,0,0,0,.919-1.6c.307-1,.069-1.453-.8-2.032a4.459,4.459,0,0,1-2.025-4.8,1.036,1.036,0,0,1,1.173-.832.943.943,0,0,1,.76,1.2c-.6,2.063,1.947,3.883,3.888,3.163-.364-1.357-.729-2.723-1.1-4.088a12.147,12.147,0,0,0-.341-1.179c-.219-.573-.037-1.391-1.031-1.5a3.471,3.471,0,0,0-1.893-.012c-.952.4-1.961.67-2.936,1.016a4.4,4.4,0,0,0-3.115,3.961c-.32,3.072-.639,6.143-.942,9.215a2.487,2.487,0,0,1-.775,1.644c-1.679,1.63-3.312,3.312-4.986,4.946a1.606,1.606,0,0,1-.979.5,1.025,1.025,0,0,1-.806-.565,1.476,1.476,0,0,1,.267-1.155,33.369,33.369,0,0,1,3.427-3.426,5.878,5.878,0,0,0,2.171-4.685c.111-2.382.384-4.763.724-7.125a6.075,6.075,0,0,1,3.988-5.019,43.106,43.106,0,0,1,4.242-1.434,2.681,2.681,0,0,1,1.537.134,2.664,2.664,0,0,0,3.383-.844,2.727,2.727,0,0,1,4.02-.048c.639.6,1.173,1.317,1.786,2.016l2.007.369c-.083-.579-.165-1.234-.282-1.88a.839.839,0,0,0-.276-.427,21.028,21.028,0,0,1-1.864-1.568,2.871,2.871,0,0,1,.031-3.948.239.239,0,0,1,.051-.052c1.363-.843,1.371-2.022.84-3.344a2.932,2.932,0,0,1,.077-2.243c.409-1.056.718-2.149,1.119-3.206a6.356,6.356,0,0,1,5.808-4.383c2.93-.262,5.854-.61,8.776-.951a1.59,1.59,0,0,0,.86-.428c1.5-1.465,2.981-2.958,4.466-4.443.171-.17.335-.349.517-.506a.968.968,0,0,1,1.42-.012.947.947,0,0,1-.038,1.42c-.477.511-.985.994-1.48,1.49-1.263,1.263-2.507,2.547-3.8,3.775a2.367,2.367,0,0,1-1.238.624c-2.97.357-5.943.692-8.921.956-2.575.228-3.835,1.142-4.671,3.589-.327.957-.662,1.913-.965,2.878a2.334,2.334,0,0,0-.054.766c.031,1.127.613,1.632,1.732,1.857,1.743.352,3.444.9,5.24,1.388a3.207,3.207,0,0,0-.6-2.942,2.432,2.432,0,0,0-2.484-.983c-.726.134-1.215-.161-1.331-.755-.1-.539.259-1,.923-1.173a4.449,4.449,0,0,1,4.684,2c.617.912,1.131,1.16,2.15.82a4.478,4.478,0,0,0,1.525-.908c.914-.821,1.749-1.731,2.626-2.594.573-.562,1.144-.605,1.58-.144.4.423.346,1-.176,1.531-.915.928-1.842,1.845-2.766,2.763a5.289,5.289,0,0,1-3.435,1.474c.857.9,1.862,1.621,1.859,2.947a4.507,4.507,0,0,1,3.307,2.589c.059.106.205.25.3.241,1.86-.21,2.842,1.037,3.856,2.31.937-.934,1.911-1.836,2.793-2.821a3.838,3.838,0,0,0,.6-1.375c.443-1.375.814-2.777,1.3-4.136a4.311,4.311,0,0,1,.957-1.494c1.785-1.833,3.617-3.62,5.426-5.429.434-.432.9-.679,1.471-.281s.543,1.071-.056,1.67c-1.723,1.726-3.475,3.421-5.17,5.173a4.47,4.47,0,0,0-.957,1.565c-.463,1.291-.747,2.649-1.247,3.923a6.932,6.932,0,0,1-1.37,2.239c-2.374,2.471-4.891,4.809-7.232,7.308-2.045,2.185-4.157,1.8-5.886-.582-.1-.133-.185-.272-.273-.4-2.293.718-3.328-.144-4.821-2.149a3.222,3.222,0,0,1-3.23-.127,3.273,3.273,0,0,1,.121,3.114,23.652,23.652,0,0,1,1.971,2.135,2.682,2.682,0,0,1,.127,2.734c.556.509,1.112.965,1.6,1.482a2.849,2.849,0,0,1,.052,4.054q-4.2,4.3-8.5,8.5a4.25,4.25,0,0,1-1.587.821c-1.252.431-2.522.81-3.8,1.167a4.154,4.154,0,0,0-1.951,1.156c-1.59,1.652-3.224,3.262-4.84,4.889-.1.1-.2.207-.31.3a.966.966,0,0,1-1.424.066.94.94,0,0,1,.035-1.467c1.314-1.348,2.728-2.607,3.957-4.028a9.245,9.245,0,0,1,5.527-3.274,7.931,7.931,0,0,0,4.968-2.958A6.958,6.958,0,0,1,2272.613-827.745Zm10.664-27.042c-.574,1.172-.741,1.258-1.995.9a.929.929,0,0,0-1.074.269c-1.269,1.321-2.584,2.6-3.876,3.9-.755.76-.73,1.172.094,2s1.226.863,2,.1q2.512-2.5,5.014-5.013C2284.29-853.5,2284.262-853.953,2283.277-854.788Zm-16.691,16.73c.721.885,1.246,1,1.9.357q2.7-2.665,5.372-5.369c.571-.577.546-1.034-.016-1.633-.114-.122-.236-.241-.356-.358-.672-.653-1.138-.667-1.789-.022-1.354,1.342-2.708,2.682-4.031,4.051a1.016,1.016,0,0,0-.213.8C2267.774-838.754,2267.793-838.759,2266.586-838.058Zm19.154-13.857a5.453,5.453,0,0,0-.753.536q-1.882,1.85-3.736,3.727c-.722.727-.695,1.141.1,1.942.852.855,1.255.894,1.993.159,1.231-1.223,2.452-2.456,3.679-3.68.374-.372.755-.783.424-1.318A2.58,2.58,0,0,0,2285.739-851.915Zm-9.3,12.9c-.38-.442-.705-.869-1.084-1.246a.951.951,0,0,0-1.471-.016q-2.058,2.029-4.088,4.088a.932.932,0,0,0,0,1.414c.177.2.365.384.559.565.6.563,1.05.584,1.625.017q1.987-1.95,3.937-3.933A4.833,4.833,0,0,0,2276.443-839.018Zm13.516-10.07a4.1,4.1,0,0,0-.764.491c-1.056,1.024-2.092,2.069-3.125,3.115-.709.716-.672,1.142.133,1.945.829.828,1.229.866,1.945.159,1.03-1.016,2.045-2.049,3.074-3.066.38-.377.729-.8.4-1.328A2.444,2.444,0,0,0,2289.958-849.088Zm-11.515,15.2a2.491,2.491,0,0,0-1.307-1.8c-.547-.23-.919.057-1.275.414q-1.378,1.385-2.762,2.763c-1.092,1.09-1.081,1.467.072,2.512a1.013,1.013,0,0,0,1.635-.035q1.623-1.6,3.219-3.227A3.338,3.338,0,0,0,2278.443-833.887Zm-.085-20.764c-.416-.117-.778-.224-1.141-.324-2.289-.635-2.286-.63-3.89,1.091a1.048,1.048,0,0,0-.247,1.365c.5.849,1.338,1.363,1.9,1.178a.8.8,0,0,0,.313-.175C2276.3-852.537,2277.3-853.565,2278.359-854.651Zm-11.646,11.74c1.04-1.041,1.987-1.99,2.938-2.935a1.013,1.013,0,0,0,.25-1.359c-.5-.837-1.338-1.354-1.9-1.179a.637.637,0,0,0-.253.131c-.607.585-1.213,1.17-1.8,1.772a.492.492,0,0,0-.086.4C2266.121-845.067,2266.4-844.054,2266.712-842.91Z" transform="translate(-2246.527 874.928)" fill="#023c7d"/>
        <path id="Trazado_16836" data-name="Trazado 16836" d="M2253.276-865.029a2.959,2.959,0,0,1-2.958-2.928,2.99,2.99,0,0,1,2.969-3,3.01,3.01,0,0,1,2.966,2.944A2.971,2.971,0,0,1,2253.276-865.029Zm.971-2.943a.949.949,0,0,0-.929-.99.946.946,0,0,0-1,.988.949.949,0,0,0,.965.956A.95.95,0,0,0,2254.247-867.972Z" transform="translate(-2244.465 877.084)" fill="#023c7d"/>
        <path id="Trazado_16837" data-name="Trazado 16837" d="M2280.521-840.447c-.454-.668-1.6-1.182-.7-2.112.942-.977,1.479.205,2.143.656.662-.443,1.2-1.633,2.141-.659.9.923-.228,1.45-.69,2.107.428.653,1.564,1.124.681,2.147-.458.531-.852.386-2.127-.687-.665.4-1.156,1.6-2.189.63C2279.277-838.838,2279.437-839.23,2280.521-840.447Z" transform="translate(-2228.604 892.325)" fill="#023c7d"/>
        <path id="Trazado_16838" data-name="Trazado 16838" d="M2272.676-850.225a5.3,5.3,0,0,1,.854.537c.767.73,1.514,1.482,2.254,2.243a1.023,1.023,0,0,1,.082,1.531.973.973,0,0,1-1.471-.131c-.795-.772-1.607-1.534-2.328-2.371a1.382,1.382,0,0,1-.184-1.108C2271.958-849.794,2272.371-849.972,2272.676-850.225Z" transform="translate(-2232.761 888.361)" fill="#023c7d"/>
        <path id="Trazado_16839" data-name="Trazado 16839" d="M2260.513-859.665a6,6,0,0,1-.852-.562c-.749-.715-1.478-1.451-2.2-2.191a1.028,1.028,0,0,1-.122-1.528,1.024,1.024,0,0,1,1.528.139c.771.76,1.575,1.5,2.271,2.322a1.481,1.481,0,0,1,.182,1.167C2261.25-860.058,2260.814-859.893,2260.513-859.665Z" transform="translate(-2240.805 880.746)" fill="#023c7d"/>
        <path id="Trazado_16840" data-name="Trazado 16840" d="M2275.01-849.459a9.719,9.719,0,0,1-1.082-.008.912.912,0,0,1-.863-.912.844.844,0,0,1,.756-.983,10.381,10.381,0,0,1,2.438.034c.289.048.644.568.706.919a.831.831,0,0,1-.8.937,8.444,8.444,0,0,1-1.153.011Z" transform="translate(-2232.097 887.712)" fill="#023c7d"/>
        <path id="Trazado_16841" data-name="Trazado 16841" d="M2270.5-846.877a9.4,9.4,0,0,1,.007-1.082.907.907,0,0,1,.891-.88.866.866,0,0,1,1.028.79,12.778,12.778,0,0,1,0,2.3.872.872,0,0,1-1.011.817.931.931,0,0,1-.917-.937c-.03-.335-.006-.675-.006-1.011Z" transform="translate(-2233.497 889.112)" fill="#023c7d"/>
        <path id="Trazado_16842" data-name="Trazado 16842" d="M2261.9-863.188c0,.337.026.676-.006,1.01a.929.929,0,0,1-.937.919.88.88,0,0,1-.992-.843,14.315,14.315,0,0,1,0-2.232.872.872,0,0,1,.991-.838.906.906,0,0,1,.94.9C2261.926-863.914,2261.9-863.55,2261.9-863.188Z" transform="translate(-2239.246 880.231)" fill="#023c7d"/>
        <path id="Trazado_16843" data-name="Trazado 16843" d="M2258.03-859.4a10.489,10.489,0,0,1-1.081-.008.889.889,0,0,1-.855-.976.852.852,0,0,1,.826-.926,20.327,20.327,0,0,1,2.232,0,.87.87,0,0,1,.86.971.9.9,0,0,1-.9.942c-.36.026-.721,0-1.083,0Z" transform="translate(-2241.324 882.315)" fill="#023c7d"/>
        <path id="Trazado_16844" data-name="Trazado 16844" d="M2273.429-838.617a.978.978,0,0,1-.943.993.987.987,0,0,1-1.035-.976.987.987,0,0,1,.982-.956A.977.977,0,0,1,2273.429-838.617Z" transform="translate(-2232.973 894.162)" fill="#023c7d"/>
      </g>
      <path id="Trazado_16873" data-name="Trazado 16873" d="M-236.142-1.152v-4.68h6.516V-6.966h-6.516v-4.482h7.308V-12.6h-8.64V0h8.91V-1.152ZM-225.7,0h1.278V-13.356H-225.7Zm17.82-4.734a4.512,4.512,0,0,0-4.59-4.806A4.56,4.56,0,0,0-217.1-4.734,4.689,4.689,0,0,0-212.13.09a4.661,4.661,0,0,0,3.654-1.548l-.72-.828a3.732,3.732,0,0,1-2.9,1.242,3.5,3.5,0,0,1-3.726-3.294h7.92C-207.9-4.482-207.882-4.626-207.882-4.734Zm-4.59-3.708a3.293,3.293,0,0,1,3.366,3.15h-6.714A3.289,3.289,0,0,1-212.472-8.442ZM-202.734.09c2.466,0,3.906-1.062,3.906-2.7,0-3.636-6.138-1.71-6.138-4.266,0-.9.756-1.566,2.466-1.566a4.853,4.853,0,0,1,2.79.81l.558-1.026A6.416,6.416,0,0,0-202.5-9.54c-2.412,0-3.744,1.152-3.744,2.7,0,3.744,6.138,1.8,6.138,4.266,0,.936-.738,1.548-2.538,1.548a5.719,5.719,0,0,1-3.366-1.062l-.576,1.008A6.325,6.325,0,0,0-202.734.09Zm10.8-1.584a2.115,2.115,0,0,1-1.4.486,1.516,1.516,0,0,1-1.638-1.728V-8.388h2.88v-1.08h-2.88v-2.07h-1.278v2.07h-1.692v1.08h1.692v5.724A2.508,2.508,0,0,0-193.482.09a3.043,3.043,0,0,0,2-.666Zm6.084-8.046A6.012,6.012,0,0,0-189.7-8.262l.576.954a4.823,4.823,0,0,1,3.15-1.116c1.764,0,2.682.882,2.682,2.5v.576H-186.3c-2.718,0-3.654,1.224-3.654,2.682,0,1.638,1.314,2.754,3.456,2.754a3.555,3.555,0,0,0,3.258-1.566V0h1.224V-5.868C-182.016-8.316-183.4-9.54-185.85-9.54Zm-.45,8.622c-1.512,0-2.394-.684-2.394-1.782,0-.972.594-1.692,2.43-1.692h2.97v1.548A3.029,3.029,0,0,1-186.3-.918Zm15.156-12.438v5.688a4.135,4.135,0,0,0-3.6-1.872,4.58,4.58,0,0,0-4.716,4.806A4.6,4.6,0,0,0-174.744.09a4.1,4.1,0,0,0,3.654-1.962V0h1.224V-13.356Zm-3.492,12.312a3.467,3.467,0,0,1-3.528-3.69,3.467,3.467,0,0,1,3.528-3.69,3.463,3.463,0,0,1,3.51,3.69A3.463,3.463,0,0,1-174.636-1.044Zm12.2,1.134a4.657,4.657,0,0,0,4.806-4.824,4.642,4.642,0,0,0-4.806-4.806,4.657,4.657,0,0,0-4.824,4.806A4.672,4.672,0,0,0-162.432.09Zm0-1.134a3.467,3.467,0,0,1-3.528-3.69,3.467,3.467,0,0,1,3.528-3.69,3.453,3.453,0,0,1,3.51,3.69A3.453,3.453,0,0,1-162.432-1.044Zm16.668-.45a2.115,2.115,0,0,1-1.4.486,1.516,1.516,0,0,1-1.638-1.728V-8.388h2.88v-1.08h-2.88v-2.07h-1.278v2.07h-1.692v1.08h1.692v5.724A2.508,2.508,0,0,0-147.312.09a3.043,3.043,0,0,0,2-.666Zm3.42-10.044a.919.919,0,0,0,.936-.936.908.908,0,0,0-.936-.882.922.922,0,0,0-.936.9A.926.926,0,0,0-142.344-11.538ZM-142.992,0h1.278V-9.468h-1.278Zm13.1-4.734a4.512,4.512,0,0,0-4.59-4.806A4.56,4.56,0,0,0-139.1-4.734,4.689,4.689,0,0,0-134.136.09a4.661,4.661,0,0,0,3.654-1.548l-.72-.828a3.732,3.732,0,0,1-2.9,1.242,3.5,3.5,0,0,1-3.726-3.294h7.92C-129.906-4.482-129.888-4.626-129.888-4.734Zm-4.59-3.708a3.293,3.293,0,0,1,3.366,3.15h-6.714A3.289,3.289,0,0,1-134.478-8.442Zm12.024-1.1a3.979,3.979,0,0,0-3.6,1.818V-9.468h-1.224V0H-126V-4.968a3.1,3.1,0,0,1,3.312-3.42c1.8,0,2.844,1.026,2.844,3.024V0h1.278V-5.49C-118.566-8.208-120.15-9.54-122.454-9.54Zm15.66,4.806a4.512,4.512,0,0,0-4.59-4.806,4.56,4.56,0,0,0-4.626,4.806A4.689,4.689,0,0,0-111.042.09a4.661,4.661,0,0,0,3.654-1.548l-.72-.828a3.732,3.732,0,0,1-2.9,1.242,3.5,3.5,0,0,1-3.726-3.294h7.92C-106.812-4.482-106.794-4.626-106.794-4.734Zm-4.59-3.708a3.293,3.293,0,0,1,3.366,3.15h-6.714A3.289,3.289,0,0,1-111.384-8.442ZM-99.468,0h1.278V-13.356h-1.278Zm8.154-9.54a6.012,6.012,0,0,0-3.852,1.278l.576.954a4.823,4.823,0,0,1,3.15-1.116c1.764,0,2.682.882,2.682,2.5v.576h-3.006c-2.718,0-3.654,1.224-3.654,2.682C-95.418-1.026-94.1.09-91.962.09A3.555,3.555,0,0,0-88.7-1.476V0h1.224V-5.868C-87.48-8.316-88.866-9.54-91.314-9.54Zm-.45,8.622c-1.512,0-2.394-.684-2.394-1.782,0-.972.594-1.692,2.43-1.692h2.97v1.548A3.029,3.029,0,0,1-91.764-.918ZM-75.42.09a4.657,4.657,0,0,0,4.806-4.824A4.642,4.642,0,0,0-75.42-9.54a4.657,4.657,0,0,0-4.824,4.806A4.672,4.672,0,0,0-75.42.09Zm0-1.134a3.467,3.467,0,0,1-3.528-3.69,3.467,3.467,0,0,1,3.528-3.69,3.453,3.453,0,0,1,3.51,3.69A3.453,3.453,0,0,1-75.42-1.044Zm12.294-8.5a4.135,4.135,0,0,0-3.6,1.872v-5.688H-68V0h1.224V-1.872A4.1,4.1,0,0,0-63.126.09,4.6,4.6,0,0,0-58.41-4.734,4.58,4.58,0,0,0-63.126-9.54Zm-.09,8.5a3.467,3.467,0,0,1-3.528-3.69,3.467,3.467,0,0,1,3.528-3.69,3.477,3.477,0,0,1,3.528,3.69A3.477,3.477,0,0,1-63.216-1.044ZM-55.8,0h1.278V-13.356H-55.8Zm5.49-11.538a.919.919,0,0,0,.936-.936.908.908,0,0,0-.936-.882.922.922,0,0,0-.936.9A.926.926,0,0,0-50.31-11.538ZM-50.958,0h1.278V-9.468h-1.278Zm12.384-9.468V-7.65a4.273,4.273,0,0,0-3.744-1.89A4.5,4.5,0,0,0-47.07-4.968,4.531,4.531,0,0,0-42.318-.36,4.261,4.261,0,0,0-38.628-2.2V-.99c0,2.34-1.1,3.438-3.492,3.438a5.635,5.635,0,0,1-3.726-1.3l-.648.972a6.6,6.6,0,0,0,4.41,1.458c3.132,0,4.734-1.476,4.734-4.734V-9.468Zm-3.618,7.974a3.384,3.384,0,0,1-3.582-3.474,3.37,3.37,0,0,1,3.582-3.456,3.385,3.385,0,0,1,3.6,3.456A3.4,3.4,0,0,1-42.192-1.494ZM-30.456-9.54a6.012,6.012,0,0,0-3.852,1.278l.576.954a4.823,4.823,0,0,1,3.15-1.116c1.764,0,2.682.882,2.682,2.5v.576h-3.006c-2.718,0-3.654,1.224-3.654,2.682C-34.56-1.026-33.246.09-31.1.09a3.555,3.555,0,0,0,3.258-1.566V0h1.224V-5.868C-26.622-8.316-28.008-9.54-30.456-9.54Zm-.45,8.622C-32.418-.918-33.3-1.6-33.3-2.7c0-.972.594-1.692,2.43-1.692h2.97v1.548A3.029,3.029,0,0,1-30.906-.918ZM-19.188.09A4.174,4.174,0,0,0-15.48-1.782l-.954-.648a3.2,3.2,0,0,1-2.754,1.386,3.469,3.469,0,0,1-3.582-3.69,3.479,3.479,0,0,1,3.582-3.69,3.219,3.219,0,0,1,2.754,1.4l.954-.648A4.135,4.135,0,0,0-19.188-9.54a4.66,4.66,0,0,0-4.878,4.806A4.675,4.675,0,0,0-19.188.09Zm6.858-11.628a.919.919,0,0,0,.936-.936.908.908,0,0,0-.936-.882.922.922,0,0,0-.936.9A.926.926,0,0,0-12.33-11.538ZM-12.978,0H-11.7V-9.468h-1.278Zm7.524-10.926h1.26l2.916-2.232h-1.71ZM-4.266.09A4.657,4.657,0,0,0,.54-4.734,4.642,4.642,0,0,0-4.266-9.54,4.657,4.657,0,0,0-9.09-4.734,4.672,4.672,0,0,0-4.266.09Zm0-1.134a3.467,3.467,0,0,1-3.528-3.69,3.467,3.467,0,0,1,3.528-3.69,3.453,3.453,0,0,1,3.51,3.69A3.453,3.453,0,0,1-4.266-1.044Zm12.24-8.5a3.979,3.979,0,0,0-3.6,1.818V-9.468H3.15V0H4.428V-4.968A3.1,3.1,0,0,1,7.74-8.388c1.8,0,2.844,1.026,2.844,3.024V0h1.278V-5.49C11.862-8.208,10.278-9.54,7.974-9.54Zm19.44-3.816v5.688a4.135,4.135,0,0,0-3.6-1.872A4.58,4.58,0,0,0,19.1-4.734,4.6,4.6,0,0,0,23.814.09a4.1,4.1,0,0,0,3.654-1.962V0h1.224V-13.356ZM23.922-1.044a3.467,3.467,0,0,1-3.528-3.69,3.467,3.467,0,0,1,3.528-3.69,3.463,3.463,0,0,1,3.51,3.69A3.463,3.463,0,0,1,23.922-1.044Zm16.6-3.69a4.512,4.512,0,0,0-4.59-4.806A4.56,4.56,0,0,0,31.3-4.734,4.689,4.689,0,0,0,36.27.09a4.661,4.661,0,0,0,3.654-1.548l-.72-.828a3.732,3.732,0,0,1-2.9,1.242A3.5,3.5,0,0,1,32.58-4.338H40.5C40.5-4.482,40.518-4.626,40.518-4.734Zm-4.59-3.708a3.293,3.293,0,0,1,3.366,3.15H32.58A3.289,3.289,0,0,1,35.928-8.442ZM55.386-9.468V-7.65a4.273,4.273,0,0,0-3.744-1.89A4.5,4.5,0,0,0,46.89-4.968,4.531,4.531,0,0,0,51.642-.36,4.261,4.261,0,0,0,55.332-2.2V-.99c0,2.34-1.1,3.438-3.492,3.438a5.635,5.635,0,0,1-3.726-1.3l-.648.972a6.6,6.6,0,0,0,4.41,1.458c3.132,0,4.734-1.476,4.734-4.734V-9.468ZM51.768-1.494a3.384,3.384,0,0,1-3.582-3.474,3.37,3.37,0,0,1,3.582-3.456,3.385,3.385,0,0,1,3.6,3.456A3.4,3.4,0,0,1,51.768-1.494ZM63.5-9.54a6.012,6.012,0,0,0-3.852,1.278l.576.954a4.823,4.823,0,0,1,3.15-1.116c1.764,0,2.682.882,2.682,2.5v.576H63.054c-2.718,0-3.654,1.224-3.654,2.682C59.4-1.026,60.714.09,62.856.09a3.555,3.555,0,0,0,3.258-1.566V0h1.224V-5.868C67.338-8.316,65.952-9.54,63.5-9.54Zm-.45,8.622C61.542-.918,60.66-1.6,60.66-2.7c0-.972.594-1.692,2.43-1.692h2.97v1.548A3.029,3.029,0,0,1,63.054-.918Zm8.982-6.7V-9.468H70.812V0H72.09V-4.824c0-2.232,1.206-3.492,3.186-3.492.09,0,.2.018.306.018V-9.54A3.571,3.571,0,0,0,72.036-7.614ZM81.18-9.54a6.012,6.012,0,0,0-3.852,1.278l.576.954a4.823,4.823,0,0,1,3.15-1.116c1.764,0,2.682.882,2.682,2.5v.576H80.73c-2.718,0-3.654,1.224-3.654,2.682C77.076-1.026,78.39.09,80.532.09A3.555,3.555,0,0,0,83.79-1.476V0h1.224V-5.868C85.014-8.316,83.628-9.54,81.18-9.54ZM80.73-.918c-1.512,0-2.394-.684-2.394-1.782,0-.972.594-1.692,2.43-1.692h2.97v1.548A3.029,3.029,0,0,1,80.73-.918ZM93.312-9.54a3.979,3.979,0,0,0-3.6,1.818V-9.468H88.488V0h1.278V-4.968a3.1,3.1,0,0,1,3.312-3.42c1.8,0,2.844,1.026,2.844,3.024V0H97.2V-5.49C97.2-8.208,95.616-9.54,93.312-9.54Zm11.9,8.046a2.115,2.115,0,0,1-1.4.486,1.516,1.516,0,0,1-1.638-1.728V-8.388h2.88v-1.08h-2.88v-2.07H100.89v2.07H99.2v1.08h1.692v5.724A2.508,2.508,0,0,0,103.662.09a3.043,3.043,0,0,0,2-.666Zm3.42-10.044a.919.919,0,0,0,.936-.936.908.908,0,0,0-.936-.882.922.922,0,0,0-.936.9A.926.926,0,0,0,108.63-11.538ZM107.982,0h1.278V-9.468h-1.278Zm5.454-1.062,5.958-7.56v-.846h-7.488v1.08h5.85L111.8-.846V0h7.7V-1.062Zm11.9-8.478a6.012,6.012,0,0,0-3.852,1.278l.576.954a4.823,4.823,0,0,1,3.15-1.116c1.764,0,2.682.882,2.682,2.5v.576h-3.006c-2.718,0-3.654,1.224-3.654,2.682,0,1.638,1.314,2.754,3.456,2.754a3.555,3.555,0,0,0,3.258-1.566V0h1.224V-5.868C129.168-8.316,127.782-9.54,125.334-9.54Zm-.45,8.622c-1.512,0-2.394-.684-2.394-1.782,0-.972.594-1.692,2.43-1.692h2.97v1.548A3.029,3.029,0,0,1,124.884-.918Zm8.982-6.7V-9.468h-1.224V0h1.278V-4.824c0-2.232,1.206-3.492,3.186-3.492.09,0,.2.018.306.018V-9.54A3.571,3.571,0,0,0,133.866-7.614ZM149.454-9.54A4.124,4.124,0,0,0,145.8-7.6V-9.468h-1.224V3.492h1.278V-1.782a4.135,4.135,0,0,0,3.6,1.872,4.585,4.585,0,0,0,4.716-4.824A4.58,4.58,0,0,0,149.454-9.54Zm-.09,8.5a3.467,3.467,0,0,1-3.528-3.69,3.477,3.477,0,0,1,3.528-3.69,3.487,3.487,0,0,1,3.528,3.69A3.477,3.477,0,0,1,149.364-1.044ZM158-7.614V-9.468H156.78V0h1.278V-4.824c0-2.232,1.206-3.492,3.186-3.492.09,0,.2.018.306.018V-9.54A3.571,3.571,0,0,0,158-7.614Zm9.63,7.7a4.657,4.657,0,0,0,4.806-4.824,4.642,4.642,0,0,0-4.806-4.806,4.657,4.657,0,0,0-4.824,4.806A4.672,4.672,0,0,0,167.634.09Zm0-1.134a3.467,3.467,0,0,1-3.528-3.69,3.467,3.467,0,0,1,3.528-3.69,3.453,3.453,0,0,1,3.51,3.69A3.453,3.453,0,0,1,167.634-1.044Zm11.952-.45a2.115,2.115,0,0,1-1.4.486,1.516,1.516,0,0,1-1.638-1.728V-8.388h2.88v-1.08h-2.88v-2.07h-1.278v2.07h-1.692v1.08h1.692v5.724A2.508,2.508,0,0,0,178.038.09a3.043,3.043,0,0,0,2-.666Zm10.692-3.24a4.512,4.512,0,0,0-4.59-4.806,4.56,4.56,0,0,0-4.626,4.806A4.689,4.689,0,0,0,186.03.09a4.661,4.661,0,0,0,3.654-1.548l-.72-.828a3.732,3.732,0,0,1-2.9,1.242,3.5,3.5,0,0,1-3.726-3.294h7.92C190.26-4.482,190.278-4.626,190.278-4.734Zm-4.59-3.708a3.293,3.293,0,0,1,3.366,3.15H182.34A3.289,3.289,0,0,1,185.688-8.442ZM196.812.09a4.174,4.174,0,0,0,3.708-1.872l-.954-.648a3.2,3.2,0,0,1-2.754,1.386,3.469,3.469,0,0,1-3.582-3.69,3.479,3.479,0,0,1,3.582-3.69,3.219,3.219,0,0,1,2.754,1.4l.954-.648a4.135,4.135,0,0,0-3.708-1.872,4.66,4.66,0,0,0-4.878,4.806A4.675,4.675,0,0,0,196.812.09Zm9.972,0a4.174,4.174,0,0,0,3.708-1.872l-.954-.648a3.2,3.2,0,0,1-2.754,1.386,3.469,3.469,0,0,1-3.582-3.69,3.479,3.479,0,0,1,3.582-3.69,3.219,3.219,0,0,1,2.754,1.4l.954-.648a4.135,4.135,0,0,0-3.708-1.872,4.66,4.66,0,0,0-4.878,4.806A4.675,4.675,0,0,0,206.784.09Zm6.858-11.628a.919.919,0,0,0,.936-.936.908.908,0,0,0-.936-.882.922.922,0,0,0-.936.9A.926.926,0,0,0,213.642-11.538ZM212.994,0h1.278V-9.468h-1.278Zm7.524-10.926h1.26l2.916-2.232h-1.71ZM221.706.09a4.657,4.657,0,0,0,4.806-4.824,4.642,4.642,0,0,0-4.806-4.806,4.657,4.657,0,0,0-4.824,4.806A4.672,4.672,0,0,0,221.706.09Zm0-1.134a3.467,3.467,0,0,1-3.528-3.69,3.467,3.467,0,0,1,3.528-3.69,3.453,3.453,0,0,1,3.51,3.69A3.453,3.453,0,0,1,221.706-1.044Zm12.24-8.5a3.979,3.979,0,0,0-3.6,1.818V-9.468h-1.224V0H230.4V-4.968a3.1,3.1,0,0,1,3.312-3.42c1.8,0,2.844,1.026,2.844,3.024V0h1.278V-5.49C237.834-8.208,236.25-9.54,233.946-9.54ZM-138.123,21.09a4.174,4.174,0,0,0,3.708-1.872l-.954-.648a3.2,3.2,0,0,1-2.754,1.386,3.469,3.469,0,0,1-3.582-3.69,3.479,3.479,0,0,1,3.582-3.69,3.219,3.219,0,0,1,2.754,1.4l.954-.648a4.135,4.135,0,0,0-3.708-1.872A4.66,4.66,0,0,0-143,16.266,4.675,4.675,0,0,0-138.123,21.09Zm9.918,0a4.657,4.657,0,0,0,4.806-4.824,4.642,4.642,0,0,0-4.806-4.806,4.657,4.657,0,0,0-4.824,4.806A4.672,4.672,0,0,0-128.205,21.09Zm0-1.134a3.467,3.467,0,0,1-3.528-3.69,3.467,3.467,0,0,1,3.528-3.69,3.453,3.453,0,0,1,3.51,3.69A3.453,3.453,0,0,1-128.205,19.956Zm12.24-8.5a3.979,3.979,0,0,0-3.6,1.818V11.532h-1.224V21h1.278V16.032a3.1,3.1,0,0,1,3.312-3.42c1.8,0,2.844,1.026,2.844,3.024V21h1.278V15.51C-112.077,12.792-113.661,11.46-115.965,11.46Zm11.9,8.046a2.115,2.115,0,0,1-1.4.486,1.516,1.516,0,0,1-1.638-1.728V12.612h2.88v-1.08h-2.88V9.462h-1.278v2.07h-1.692v1.08h1.692v5.724a2.508,2.508,0,0,0,2.772,2.754,3.043,3.043,0,0,0,2-.666Zm4-6.12V11.532H-101.3V21h1.278V16.176c0-2.232,1.206-3.492,3.186-3.492.09,0,.2.018.306.018V11.46A3.571,3.571,0,0,0-100.071,13.386Zm9.144-1.926a6.012,6.012,0,0,0-3.852,1.278l.576.954a4.823,4.823,0,0,1,3.15-1.116c1.764,0,2.682.882,2.682,2.5v.576h-3.006c-2.718,0-3.654,1.224-3.654,2.682,0,1.638,1.314,2.754,3.456,2.754a3.555,3.555,0,0,0,3.258-1.566V21h1.224V15.132C-87.093,12.684-88.479,11.46-90.927,11.46Zm-.45,8.622c-1.512,0-2.394-.684-2.394-1.782,0-.972.594-1.692,2.43-1.692h2.97v1.548A3.029,3.029,0,0,1-91.377,20.082Zm19.17-8.55L-75.789,19.6l-3.546-8.064h-1.332L-76.473,21h1.314l4.212-9.468Zm3.708-2.07a.919.919,0,0,0,.936-.936.908.908,0,0,0-.936-.882.922.922,0,0,0-.936.9A.926.926,0,0,0-68.5,9.462ZM-69.147,21h1.278V11.532h-1.278Zm8.712.09a4.657,4.657,0,0,0,4.806-4.824,4.642,4.642,0,0,0-4.806-4.806,4.657,4.657,0,0,0-4.824,4.806A4.672,4.672,0,0,0-60.435,21.09Zm0-1.134a3.467,3.467,0,0,1-3.528-3.69,3.467,3.467,0,0,1,3.528-3.69,3.453,3.453,0,0,1,3.51,3.69A3.453,3.453,0,0,1-60.435,19.956ZM-53.019,21h1.278V7.644h-1.278Zm8.154-9.54a6.012,6.012,0,0,0-3.852,1.278l.576.954a4.823,4.823,0,0,1,3.15-1.116c1.764,0,2.682.882,2.682,2.5v.576h-3.006c-2.718,0-3.654,1.224-3.654,2.682,0,1.638,1.314,2.754,3.456,2.754a3.555,3.555,0,0,0,3.258-1.566V21h1.224V15.132C-41.031,12.684-42.417,11.46-44.865,11.46Zm-.45,8.622c-1.512,0-2.394-.684-2.394-1.782,0-.972.594-1.692,2.43-1.692h2.97v1.548A3.029,3.029,0,0,1-45.315,20.082ZM-33.6,21.09a4.174,4.174,0,0,0,3.708-1.872l-.954-.648A3.2,3.2,0,0,1-33.6,19.956a3.469,3.469,0,0,1-3.582-3.69,3.479,3.479,0,0,1,3.582-3.69,3.219,3.219,0,0,1,2.754,1.4l.954-.648A4.135,4.135,0,0,0-33.6,11.46a4.66,4.66,0,0,0-4.878,4.806A4.675,4.675,0,0,0-33.6,21.09Zm6.858-11.628a.919.919,0,0,0,.936-.936.908.908,0,0,0-.936-.882.922.922,0,0,0-.936.9A.926.926,0,0,0-26.739,9.462ZM-27.387,21h1.278V11.532h-1.278Zm8.712.09a4.657,4.657,0,0,0,4.806-4.824,4.642,4.642,0,0,0-4.806-4.806A4.657,4.657,0,0,0-23.5,16.266,4.672,4.672,0,0,0-18.675,21.09Zm0-1.134a3.467,3.467,0,0,1-3.528-3.69,3.467,3.467,0,0,1,3.528-3.69,3.453,3.453,0,0,1,3.51,3.69A3.453,3.453,0,0,1-18.675,19.956Zm12.24-8.5a3.979,3.979,0,0,0-3.6,1.818V11.532h-1.224V21h1.278V16.032a3.1,3.1,0,0,1,3.312-3.42c1.8,0,2.844,1.026,2.844,3.024V21h1.278V15.51C-2.547,12.792-4.131,11.46-6.435,11.46Zm15.66,4.806a4.512,4.512,0,0,0-4.59-4.806A4.56,4.56,0,0,0,.009,16.266,4.689,4.689,0,0,0,4.977,21.09a4.661,4.661,0,0,0,3.654-1.548l-.72-.828a3.732,3.732,0,0,1-2.9,1.242,3.5,3.5,0,0,1-3.726-3.294h7.92C9.207,16.518,9.225,16.374,9.225,16.266Zm-4.59-3.708A3.293,3.293,0,0,1,8,15.708H1.287A3.289,3.289,0,0,1,4.635,12.558Zm9.738,8.532c2.466,0,3.906-1.062,3.906-2.7,0-3.636-6.138-1.71-6.138-4.266,0-.9.756-1.566,2.466-1.566a4.853,4.853,0,0,1,2.79.81l.558-1.026a6.416,6.416,0,0,0-3.348-.882c-2.412,0-3.744,1.152-3.744,2.7,0,3.744,6.138,1.8,6.138,4.266,0,.936-.738,1.548-2.538,1.548A5.719,5.719,0,0,1,11.1,18.912l-.576,1.008A6.325,6.325,0,0,0,14.373,21.09ZM32.715,7.644v5.688a4.135,4.135,0,0,0-3.6-1.872A4.58,4.58,0,0,0,24.4,16.266a4.6,4.6,0,0,0,4.716,4.824,4.1,4.1,0,0,0,3.654-1.962V21h1.224V7.644ZM29.223,19.956a3.467,3.467,0,0,1-3.528-3.69,3.523,3.523,0,1,1,7.038,0A3.463,3.463,0,0,1,29.223,19.956Zm16.6-3.69a4.512,4.512,0,0,0-4.59-4.806A4.56,4.56,0,0,0,36.6,16.266a4.689,4.689,0,0,0,4.968,4.824,4.661,4.661,0,0,0,3.654-1.548l-.72-.828a3.732,3.732,0,0,1-2.9,1.242,3.5,3.5,0,0,1-3.726-3.294H45.8C45.8,16.518,45.819,16.374,45.819,16.266Zm-4.59-3.708a3.293,3.293,0,0,1,3.366,3.15H37.881A3.289,3.289,0,0,1,41.229,12.558ZM53.145,21h1.278V7.644H53.145Zm8.712.09a4.657,4.657,0,0,0,4.806-4.824,4.815,4.815,0,0,0-9.63,0A4.672,4.672,0,0,0,61.857,21.09Zm0-1.134a3.467,3.467,0,0,1-3.528-3.69,3.523,3.523,0,1,1,7.038,0A3.453,3.453,0,0,1,61.857,19.956Zm9.954,1.134c2.466,0,3.906-1.062,3.906-2.7,0-3.636-6.138-1.71-6.138-4.266,0-.9.756-1.566,2.466-1.566a4.853,4.853,0,0,1,2.79.81l.558-1.026a6.416,6.416,0,0,0-3.348-.882c-2.412,0-3.744,1.152-3.744,2.7,0,3.744,6.138,1.8,6.138,4.266,0,.936-.738,1.548-2.538,1.548a5.719,5.719,0,0,1-3.366-1.062l-.576,1.008A6.325,6.325,0,0,0,71.811,21.09ZM83.061,21h5.13c4.032,0,6.75-2.592,6.75-6.3s-2.718-6.3-6.75-6.3h-5.13Zm1.332-1.152V9.552h3.726c3.348,0,5.508,2.124,5.508,5.148s-2.16,5.148-5.508,5.148ZM97.929,21h5.13c4.032,0,6.75-2.592,6.75-6.3s-2.718-6.3-6.75-6.3h-5.13Zm1.332-1.152V9.552h3.726c3.348,0,5.508,2.124,5.508,5.148s-2.16,5.148-5.508,5.148ZM122.013,8.4v5.616h-7.884V8.4H112.8V21h1.332V15.186h7.884V21h1.314V8.4Zm14.634,0v5.616h-7.884V8.4h-1.332V21h1.332V15.186h7.884V21h1.314V8.4Zm5.274,12.69a.983.983,0,0,0,.972-.99.968.968,0,0,0-.972-.972.953.953,0,0,0-.954.972A.969.969,0,0,0,141.921,21.09Z" transform="translate(619 1120.924)" fill="#023c7d"/>
      <path id="Trazado_16846" data-name="Trazado 16846" d="M3040.889-731.375H2270.6a25.916,25.916,0,0,1-25.914-25.916h0A25.914,25.914,0,0,1,2270.6-783.2h770.293A25.914,25.914,0,0,1,3066.8-757.29h0A25.916,25.916,0,0,1,3040.889-731.375Z" transform="translate(-2036.681 1829.353)" fill="#023c7d"/>
      <path id="Trazado_16874" data-name="Trazado 16874" d="M6.948-12.6H1.494V0H4.41V-3.474H6.948c3.366,0,5.472-1.746,5.472-4.554C12.42-10.854,10.314-12.6,6.948-12.6ZM6.786-5.85H4.41v-4.374H6.786c1.782,0,2.682.81,2.682,2.2C9.468-6.66,8.568-5.85,6.786-5.85ZM16.974-8.406V-9.684H14.292V0H17.1V-4.572a2.379,2.379,0,0,1,2.574-2.7c.216,0,.4.018.63.036V-9.828A3.908,3.908,0,0,0,16.974-8.406Zm6.408-2.628a1.615,1.615,0,0,0,1.746-1.62,1.576,1.576,0,0,0-1.746-1.512A1.605,1.605,0,0,0,21.636-12.6,1.605,1.605,0,0,0,23.382-11.034ZM21.978,0h2.808V-9.684H21.978Zm11.3-9.828a4.24,4.24,0,0,0-3.2,1.278V-9.684H27.4V0H30.2V-4.788c0-1.782.972-2.61,2.322-2.61,1.242,0,1.962.72,1.962,2.286V0H37.3V-5.544C37.3-8.5,35.568-9.828,33.282-9.828ZM44.622.144A4.493,4.493,0,0,0,48.96-2.3L46.782-3.492A2.382,2.382,0,0,1,44.6-2.16a2.478,2.478,0,0,1-2.538-2.682A2.478,2.478,0,0,1,44.6-7.524a2.415,2.415,0,0,1,2.178,1.332l2.178-1.17a4.449,4.449,0,0,0-4.338-2.466c-3.15,0-5.4,2.07-5.4,4.986S41.472.144,44.622.144Zm7.362-11.178a1.615,1.615,0,0,0,1.746-1.62,1.576,1.576,0,0,0-1.746-1.512A1.605,1.605,0,0,0,50.238-12.6,1.605,1.605,0,0,0,51.984-11.034ZM50.58,0h2.808V-9.684H50.58ZM61.722-9.828a3.763,3.763,0,0,0-3.042,1.26V-9.684H56V3.492h2.808V-1.026A3.76,3.76,0,0,0,61.722.144a4.7,4.7,0,0,0,4.824-4.986A4.7,4.7,0,0,0,61.722-9.828ZM61.236-2.16A2.444,2.444,0,0,1,58.77-4.842a2.444,2.444,0,0,1,2.466-2.682A2.444,2.444,0,0,1,63.7-4.842,2.444,2.444,0,0,1,61.236-2.16Zm8.586-8.874a1.615,1.615,0,0,0,1.746-1.62,1.576,1.576,0,0,0-1.746-1.512A1.605,1.605,0,0,0,68.076-12.6,1.605,1.605,0,0,0,69.822-11.034ZM68.418,0h2.808V-9.684H68.418ZM78.444.144a4.97,4.97,0,0,0,5.31-4.986,4.97,4.97,0,0,0-5.31-4.986,4.985,4.985,0,0,0-5.328,4.986A4.985,4.985,0,0,0,78.444.144Zm0-2.3A2.457,2.457,0,0,1,75.96-4.842a2.457,2.457,0,0,1,2.484-2.682A2.444,2.444,0,0,1,80.91-4.842,2.444,2.444,0,0,1,78.444-2.16Zm16-5.706H93.42l.2-2.394h5.256V-12.6H91.188L90.54-5.508h3.222c2.286,0,2.934.648,2.934,1.638,0,1.026-.9,1.638-2.358,1.638a6.064,6.064,0,0,1-3.582-1.134L89.6-1.134A8.707,8.707,0,0,0,94.41.216c3.6,0,5.238-1.944,5.238-4.176S98.172-7.866,94.446-7.866Zm19.134-5.49v4.7a3.72,3.72,0,0,0-2.9-1.17,4.708,4.708,0,0,0-4.842,4.986A4.708,4.708,0,0,0,110.682.144a3.725,3.725,0,0,0,3.024-1.26V0h2.682V-13.356Zm-2.412,11.2a2.457,2.457,0,0,1-2.484-2.682,2.457,2.457,0,0,1,2.484-2.682,2.454,2.454,0,0,1,2.466,2.682A2.454,2.454,0,0,1,111.168-2.16Zm17.3-2.646a4.794,4.794,0,0,0-5.04-5.022,4.93,4.93,0,0,0-5.166,4.986c0,2.88,2.178,4.986,5.526,4.986a5.072,5.072,0,0,0,4-1.566l-1.494-1.62a3.283,3.283,0,0,1-2.43.936,2.582,2.582,0,0,1-2.772-1.944h7.326C128.43-4.284,128.466-4.59,128.466-4.806Zm-5.022-2.9a2.3,2.3,0,0,1,2.376,2.016h-4.77A2.293,2.293,0,0,1,123.444-7.7ZM135.432,0h2.808V-13.356h-2.808Zm10.026.144a4.97,4.97,0,0,0,5.31-4.986,4.97,4.97,0,0,0-5.31-4.986,4.985,4.985,0,0,0-5.328,4.986A4.985,4.985,0,0,0,145.458.144Zm0-2.3a2.457,2.457,0,0,1-2.484-2.682,2.457,2.457,0,0,1,2.484-2.682,2.444,2.444,0,0,1,2.466,2.682A2.444,2.444,0,0,1,145.458-2.16ZM155.9.144c2.9,0,4.572-1.278,4.572-3.078,0-3.816-5.85-2.214-5.85-3.87,0-.5.54-.9,1.8-.9a5.561,5.561,0,0,1,2.79.72l.936-2a7.963,7.963,0,0,0-3.726-.846c-2.826,0-4.482,1.3-4.482,3.132,0,3.87,5.85,2.25,5.85,3.834,0,.54-.486.882-1.782.882a6.625,6.625,0,0,1-3.366-.936L151.7-.9A8.313,8.313,0,0,0,155.9.144ZM172.944-12.6H167.49V0h2.916V-3.474h2.538c3.366,0,5.472-1.746,5.472-4.554C178.416-10.854,176.31-12.6,172.944-12.6Zm-.162,6.75h-2.376v-4.374h2.376c1.782,0,2.682.81,2.682,2.2C175.464-6.66,174.564-5.85,172.782-5.85ZM182.97-8.406V-9.684h-2.682V0H183.1V-4.572a2.379,2.379,0,0,1,2.574-2.7c.216,0,.4.018.63.036V-9.828A3.908,3.908,0,0,0,182.97-8.406Zm6.408-2.628a1.615,1.615,0,0,0,1.746-1.62,1.576,1.576,0,0,0-1.746-1.512,1.605,1.605,0,0,0-1.746,1.566A1.605,1.605,0,0,0,189.378-11.034ZM187.974,0h2.808V-9.684h-2.808Zm11.3-9.828a4.24,4.24,0,0,0-3.2,1.278V-9.684h-2.682V0H196.2V-4.788c0-1.782.972-2.61,2.322-2.61,1.242,0,1.962.72,1.962,2.286V0h2.808V-5.544C203.292-8.5,201.564-9.828,199.278-9.828ZM210.618.144A4.493,4.493,0,0,0,214.956-2.3l-2.178-1.188A2.382,2.382,0,0,1,210.6-2.16a2.478,2.478,0,0,1-2.538-2.682A2.478,2.478,0,0,1,210.6-7.524a2.415,2.415,0,0,1,2.178,1.332l2.178-1.17a4.449,4.449,0,0,0-4.338-2.466c-3.15,0-5.4,2.07-5.4,4.986S207.468.144,210.618.144Zm7.362-11.178a1.615,1.615,0,0,0,1.746-1.62,1.576,1.576,0,0,0-1.746-1.512,1.605,1.605,0,0,0-1.746,1.566A1.605,1.605,0,0,0,217.98-11.034ZM216.576,0h2.808V-9.684h-2.808Zm11.142-9.828a3.763,3.763,0,0,0-3.042,1.26V-9.684h-2.682V3.492H224.8V-1.026a3.76,3.76,0,0,0,2.916,1.17,4.7,4.7,0,0,0,4.824-4.986A4.7,4.7,0,0,0,227.718-9.828Zm-.486,7.668a2.444,2.444,0,0,1-2.466-2.682,2.444,2.444,0,0,1,2.466-2.682A2.444,2.444,0,0,1,229.7-4.842,2.444,2.444,0,0,1,227.232-2.16Zm8.586-8.874a1.615,1.615,0,0,0,1.746-1.62,1.576,1.576,0,0,0-1.746-1.512,1.605,1.605,0,0,0-1.746,1.566A1.605,1.605,0,0,0,235.818-11.034ZM234.414,0h2.808V-9.684h-2.808ZM244.44.144a4.97,4.97,0,0,0,5.31-4.986,4.97,4.97,0,0,0-5.31-4.986,4.985,4.985,0,0,0-5.328,4.986A4.985,4.985,0,0,0,244.44.144Zm0-2.3a2.457,2.457,0,0,1-2.484-2.682,2.457,2.457,0,0,1,2.484-2.682,2.444,2.444,0,0,1,2.466,2.682A2.444,2.444,0,0,1,244.44-2.16Zm10.44,2.3c2.9,0,4.572-1.278,4.572-3.078,0-3.816-5.85-2.214-5.85-3.87,0-.5.54-.9,1.8-.9a5.561,5.561,0,0,1,2.79.72l.936-2a7.963,7.963,0,0,0-3.726-.846c-2.826,0-4.482,1.3-4.482,3.132,0,3.87,5.85,2.25,5.85,3.834,0,.54-.486.882-1.782.882a6.625,6.625,0,0,1-3.366-.936L250.686-.9A8.313,8.313,0,0,0,254.88.144Zm20.844-6.7A3.029,3.029,0,0,0,277.4-9.324c0-1.962-1.62-3.276-4.77-3.276h-6.156V0h6.516c3.312,0,5.04-1.26,5.04-3.438A3.112,3.112,0,0,0,275.724-6.552ZM272.268-10.4c1.422,0,2.2.486,2.2,1.476s-.774,1.494-2.2,1.494h-2.9V-10.4Zm.5,8.208h-3.4V-5.31h3.4c1.512,0,2.322.5,2.322,1.566C275.094-2.664,274.284-2.2,272.772-2.2Zm15.282-11.322H285.03l-2.43,2.592h2.2Zm-4.1,3.69a7.444,7.444,0,0,0-4.176,1.17L280.782-6.7a4.656,4.656,0,0,1,2.79-.9c1.512,0,2.232.7,2.232,1.908h-2.232c-2.952,0-4.158,1.188-4.158,2.9,0,1.674,1.35,2.934,3.618,2.934a3.178,3.178,0,0,0,2.952-1.35V0h2.628V-5.526C288.612-8.46,286.9-9.828,283.95-9.828Zm-.216,8.082c-.99,0-1.584-.468-1.584-1.17,0-.648.414-1.134,1.728-1.134H285.8v.99A2.069,2.069,0,0,1,283.734-1.746ZM294.408.144c2.9,0,4.572-1.278,4.572-3.078,0-3.816-5.85-2.214-5.85-3.87,0-.5.54-.9,1.8-.9a5.561,5.561,0,0,1,2.79.72l.936-2a7.963,7.963,0,0,0-3.726-.846c-2.826,0-4.482,1.3-4.482,3.132,0,3.87,5.85,2.25,5.85,3.834,0,.54-.486.882-1.782.882a6.626,6.626,0,0,1-3.366-.936L290.214-.9A8.313,8.313,0,0,0,294.408.144Zm7.7-11.178a1.615,1.615,0,0,0,1.746-1.62,1.576,1.576,0,0,0-1.746-1.512,1.605,1.605,0,0,0-1.746,1.566A1.605,1.605,0,0,0,302.112-11.034ZM300.708,0h2.808V-9.684h-2.808Zm10.1.144A4.492,4.492,0,0,0,315.144-2.3l-2.178-1.188a2.382,2.382,0,0,1-2.178,1.332,2.478,2.478,0,0,1-2.538-2.682,2.478,2.478,0,0,1,2.538-2.682,2.415,2.415,0,0,1,2.178,1.332l2.178-1.17a4.449,4.449,0,0,0-4.338-2.466c-3.15,0-5.4,2.07-5.4,4.986S307.656.144,310.806.144Zm10.44,0a4.97,4.97,0,0,0,5.31-4.986,4.97,4.97,0,0,0-5.31-4.986,4.985,4.985,0,0,0-5.328,4.986A4.985,4.985,0,0,0,321.246.144Zm0-2.3a2.457,2.457,0,0,1-2.484-2.682,2.457,2.457,0,0,1,2.484-2.682,2.444,2.444,0,0,1,2.466,2.682A2.444,2.444,0,0,1,321.246-2.16Zm10.44,2.3c2.9,0,4.572-1.278,4.572-3.078,0-3.816-5.85-2.214-5.85-3.87,0-.5.54-.9,1.8-.9a5.561,5.561,0,0,1,2.79.72l.936-2a7.963,7.963,0,0,0-3.726-.846c-2.826,0-4.482,1.3-4.482,3.132,0,3.87,5.85,2.25,5.85,3.834,0,.54-.486.882-1.782.882a6.626,6.626,0,0,1-3.366-.936L327.492-.9A8.313,8.313,0,0,0,331.686.144Zm18.45-13.5v4.7a3.72,3.72,0,0,0-2.9-1.17A4.708,4.708,0,0,0,342.4-4.842,4.708,4.708,0,0,0,347.238.144a3.725,3.725,0,0,0,3.024-1.26V0h2.682V-13.356Zm-2.412,11.2a2.457,2.457,0,0,1-2.484-2.682,2.457,2.457,0,0,1,2.484-2.682,2.454,2.454,0,0,1,2.466,2.682A2.454,2.454,0,0,1,347.724-2.16Zm17.3-2.646a4.794,4.794,0,0,0-5.04-5.022,4.93,4.93,0,0,0-5.166,4.986c0,2.88,2.178,4.986,5.526,4.986a5.072,5.072,0,0,0,4-1.566l-1.494-1.62a3.283,3.283,0,0,1-2.43.936,2.582,2.582,0,0,1-2.772-1.944h7.326C364.986-4.284,365.022-4.59,365.022-4.806ZM360-7.7a2.3,2.3,0,0,1,2.376,2.016h-4.77A2.293,2.293,0,0,1,360-7.7ZM371.988,0H374.8V-13.356h-2.808Zm9.324-9.828a7.444,7.444,0,0,0-4.176,1.17L378.144-6.7a4.656,4.656,0,0,1,2.79-.9c1.512,0,2.232.7,2.232,1.908h-2.232c-2.952,0-4.158,1.188-4.158,2.9,0,1.674,1.35,2.934,3.618,2.934a3.178,3.178,0,0,0,2.952-1.35V0h2.628V-5.526C385.974-8.46,384.264-9.828,381.312-9.828ZM381.1-1.746c-.99,0-1.584-.468-1.584-1.17,0-.648.414-1.134,1.728-1.134h1.926v.99A2.069,2.069,0,0,1,381.1-1.746ZM399.906.216c3.96,0,6.894-2.754,6.894-6.516s-2.934-6.516-6.894-6.516c-3.978,0-6.894,2.772-6.894,6.516S395.928.216,399.906.216Zm0-2.484A3.844,3.844,0,0,1,395.964-6.3a3.844,3.844,0,0,1,3.942-4.032A3.844,3.844,0,0,1,403.848-6.3,3.844,3.844,0,0,1,399.906-2.268ZM417.672-12.6v7.65l-6.264-7.65H409V0h2.88V-7.65L418.158,0h2.394V-12.6ZM429.138.216c3.582,0,5.706-2.052,5.706-5.76V-12.6h-2.88v6.948c0,2.394-1.026,3.384-2.808,3.384-1.764,0-2.808-.99-2.808-3.384V-12.6h-2.916v7.056C423.432-1.836,425.556.216,429.138.216ZM448.344-9.828a3.763,3.763,0,0,0-3.042,1.26V-9.684H442.62V3.492h2.808V-1.026a3.76,3.76,0,0,0,2.916,1.17,4.7,4.7,0,0,0,4.824-4.986A4.7,4.7,0,0,0,448.344-9.828Zm-.486,7.668a2.444,2.444,0,0,1-2.466-2.682,2.444,2.444,0,0,1,2.466-2.682,2.444,2.444,0,0,1,2.466,2.682A2.444,2.444,0,0,1,447.858-2.16Zm10.926-7.668a7.444,7.444,0,0,0-4.176,1.17L455.616-6.7a4.656,4.656,0,0,1,2.79-.9c1.512,0,2.232.7,2.232,1.908h-2.232c-2.952,0-4.158,1.188-4.158,2.9,0,1.674,1.35,2.934,3.618,2.934a3.178,3.178,0,0,0,2.952-1.35V0h2.628V-5.526C463.446-8.46,461.736-9.828,458.784-9.828Zm-.216,8.082c-.99,0-1.584-.468-1.584-1.17,0-.648.414-1.134,1.728-1.134h1.926v.99A2.069,2.069,0,0,1,458.568-1.746Zm10.1-6.66V-9.684h-2.682V0h2.808V-4.572a2.379,2.379,0,0,1,2.574-2.7c.216,0,.4.018.63.036V-9.828A3.908,3.908,0,0,0,468.666-8.406Zm8.856-1.422a7.444,7.444,0,0,0-4.176,1.17L474.354-6.7a4.656,4.656,0,0,1,2.79-.9c1.512,0,2.232.7,2.232,1.908h-2.232c-2.952,0-4.158,1.188-4.158,2.9,0,1.674,1.35,2.934,3.618,2.934a3.178,3.178,0,0,0,2.952-1.35V0h2.628V-5.526C482.184-8.46,480.474-9.828,477.522-9.828Zm-.216,8.082c-.99,0-1.584-.468-1.584-1.17,0-.648.414-1.134,1.728-1.134h1.926v.99A2.069,2.069,0,0,1,477.306-1.746Zm22-3.06a4.794,4.794,0,0,0-5.04-5.022A4.93,4.93,0,0,0,489.1-4.842c0,2.88,2.178,4.986,5.526,4.986a5.072,5.072,0,0,0,4-1.566l-1.494-1.62a3.283,3.283,0,0,1-2.43.936,2.582,2.582,0,0,1-2.772-1.944h7.326C499.266-4.284,499.3-4.59,499.3-4.806ZM494.28-7.7a2.3,2.3,0,0,1,2.376,2.016h-4.77A2.293,2.293,0,0,1,494.28-7.7ZM501.174,0h2.808V-13.356h-2.808Zm13.32,0h2.916V-10.224h4.032V-12.6h-10.98v2.376h4.032Zm10.782-8.406V-9.684h-2.682V0H525.4V-4.572a2.379,2.379,0,0,1,2.574-2.7c.216,0,.4.018.63.036V-9.828A3.908,3.908,0,0,0,525.276-8.406Zm8.856-1.422a7.444,7.444,0,0,0-4.176,1.17L530.964-6.7a4.656,4.656,0,0,1,2.79-.9c1.512,0,2.232.7,2.232,1.908h-2.232c-2.952,0-4.158,1.188-4.158,2.9,0,1.674,1.35,2.934,3.618,2.934a3.178,3.178,0,0,0,2.952-1.35V0h2.628V-5.526C538.794-8.46,537.084-9.828,534.132-9.828Zm-.216,8.082c-.99,0-1.584-.468-1.584-1.17,0-.648.414-1.134,1.728-1.134h1.926v.99A2.069,2.069,0,0,1,533.916-1.746Zm12.906-.7a1.893,1.893,0,0,1-1.134.36,1.129,1.129,0,0,1-1.206-1.278V-7.308h2.412v-2.16h-2.412v-2.358h-2.808v2.358H540.18v2.16h1.494V-3.33c0,2.3,1.332,3.474,3.618,3.474a4.013,4.013,0,0,0,2.286-.612Zm6.246-7.38a7.444,7.444,0,0,0-4.176,1.17L549.9-6.7a4.656,4.656,0,0,1,2.79-.9c1.512,0,2.232.7,2.232,1.908H552.69c-2.952,0-4.158,1.188-4.158,2.9,0,1.674,1.35,2.934,3.618,2.934a3.178,3.178,0,0,0,2.952-1.35V0h2.628V-5.526C557.73-8.46,556.02-9.828,553.068-9.828Zm-.216,8.082c-.99,0-1.584-.468-1.584-1.17,0-.648.414-1.134,1.728-1.134h1.926v.99A2.069,2.069,0,0,1,552.852-1.746ZM572.67-9.828a4.354,4.354,0,0,0-3.492,1.584,3.615,3.615,0,0,0-3.186-1.584,3.922,3.922,0,0,0-3.042,1.26V-9.684h-2.682V0h2.808V-4.86c0-1.728.882-2.538,2.124-2.538,1.17,0,1.836.72,1.836,2.286V0h2.808V-4.86c0-1.728.882-2.538,2.142-2.538,1.134,0,1.836.72,1.836,2.286V0h2.808V-5.544C576.63-8.5,574.974-9.828,572.67-9.828Zm7.884-1.206a1.615,1.615,0,0,0,1.746-1.62,1.576,1.576,0,0,0-1.746-1.512,1.605,1.605,0,0,0-1.746,1.566A1.605,1.605,0,0,0,580.554-11.034ZM579.15,0h2.808V-9.684H579.15Zm14.9-4.806a4.794,4.794,0,0,0-5.04-5.022,4.93,4.93,0,0,0-5.166,4.986c0,2.88,2.178,4.986,5.526,4.986a5.072,5.072,0,0,0,4-1.566l-1.494-1.62a3.283,3.283,0,0,1-2.43.936,2.582,2.582,0,0,1-2.772-1.944H594C594.018-4.284,594.054-4.59,594.054-4.806Zm-5.022-2.9a2.3,2.3,0,0,1,2.376,2.016h-4.77A2.293,2.293,0,0,1,589.032-7.7Zm12.78-2.124a4.24,4.24,0,0,0-3.2,1.278V-9.684h-2.682V0h2.808V-4.788c0-1.782.972-2.61,2.322-2.61,1.242,0,1.962.72,1.962,2.286V0h2.808V-5.544C605.826-8.5,604.1-9.828,601.812-9.828Zm12.042,7.38a1.893,1.893,0,0,1-1.134.36,1.129,1.129,0,0,1-1.206-1.278V-7.308h2.412v-2.16h-2.412v-2.358h-2.808v2.358h-1.494v2.16h1.494V-3.33c0,2.3,1.332,3.474,3.618,3.474a4.013,4.013,0,0,0,2.286-.612ZM620.5.144a4.97,4.97,0,0,0,5.31-4.986,4.97,4.97,0,0,0-5.31-4.986,4.985,4.985,0,0,0-5.328,4.986A4.985,4.985,0,0,0,620.5.144Zm0-2.3a2.457,2.457,0,0,1-2.484-2.682A2.457,2.457,0,0,1,620.5-7.524a2.444,2.444,0,0,1,2.466,2.682A2.444,2.444,0,0,1,620.5-2.16Zm19.332-11.2v4.7a3.72,3.72,0,0,0-2.9-1.17,4.708,4.708,0,0,0-4.842,4.986A4.708,4.708,0,0,0,636.93.144a3.725,3.725,0,0,0,3.024-1.26V0h2.682V-13.356Zm-2.412,11.2a2.457,2.457,0,0,1-2.484-2.682,2.457,2.457,0,0,1,2.484-2.682,2.454,2.454,0,0,1,2.466,2.682A2.454,2.454,0,0,1,637.416-2.16Zm17.3-2.646a4.794,4.794,0,0,0-5.04-5.022,4.93,4.93,0,0,0-5.166,4.986c0,2.88,2.178,4.986,5.526,4.986a5.072,5.072,0,0,0,4-1.566l-1.494-1.62a3.283,3.283,0,0,1-2.43.936,2.582,2.582,0,0,1-2.772-1.944h7.326C654.678-4.284,654.714-4.59,654.714-4.806Zm-5.022-2.9a2.3,2.3,0,0,1,2.376,2.016H647.3A2.293,2.293,0,0,1,649.692-7.7Zm17.64-4.9h-5.454V0h2.916V-3.474h2.538c3.366,0,5.472-1.746,5.472-4.554C672.8-10.854,670.7-12.6,667.332-12.6Zm-.162,6.75h-2.376v-4.374h2.376c1.782,0,2.682.81,2.682,2.2C669.852-6.66,668.952-5.85,667.17-5.85ZM684.4-10.26V-12.6h-9.522V0h2.916V-4.59h5.832V-6.93H677.79v-3.33ZM686.376,0h9.234V-2.376h-6.318V-12.6h-2.916Z" transform="translate(298 1079.533)" fill="#fff"/>
      <circle id="Elipse_729" data-name="Elipse 729" cx="36.552" cy="36.552" r="36.552" transform="translate(204 1035.511)" fill="#def3f5"/>
      <path id="Trazado_16847" data-name="Trazado 16847" d="M2248.528-761.35h1.419C2249.444-761.35,2248.983-761.351,2248.528-761.35Z" transform="translate(-2034.712 1841.237)" fill="#ff591e"/>
      <g id="Grupo_7716" data-name="Grupo 7716" transform="translate(211.22 1052.488)">
        <path id="Trazado_16848" data-name="Trazado 16848" d="M2299.6-745.86V-742h-9.71c-.082-1.5-.284-1.931-.971-1.893-1.281.074-.942,1.122-1.037,1.945v2h13.75v-5.913c.293,0,.552.008.812,0a.99.99,0,0,0,1.093-1.1q.016-3.786,0-7.574a.989.989,0,0,0-1.105-1.088c-.275-.009-.548,0-.848,0,0-.684-.028-1.275.016-1.86a.788.788,0,0,1,.329-.551,6.63,6.63,0,0,0,3.539-6.011c.08-3.662.028-7.327.021-10.992,0-.767-.369-1.15-1.135-1.093-.917.069-1.826.231-2.739.352-.266-3.027-2.118-4.017-4.963-2.592-1.391-.96-2.24-.96-3.875,0-1.537-.951-2.065-.951-3.944,0a2.834,2.834,0,0,0-3.194-.4,2.76,2.76,0,0,0-1.627,2.473c-.048,1.4-.04,2.81,0,4.213a2.9,2.9,0,0,0,2.151,2.665,3.018,3.018,0,0,0,2.721-.622c1.48.977,2.327.977,3.91.022,1.583.957,2.178.959,3.955,0a2.953,2.953,0,0,0,2.842.568v2.166c-2.6.659-3.879,2.262-3.865,4.792a.944.944,0,0,0,.61,1.014c.733.273,1.315-.185,1.343-1.056a2.581,2.581,0,0,1,2.772-2.861c.8-.046,1.132-.377,1.133-1.189.006-1.873,0-3.745.006-5.618a1.681,1.681,0,0,1,1.9-1.862.376.376,0,0,1,.039.114c0,3.359.063,6.719-.027,10.075a4.468,4.468,0,0,1-3.132,4.366,1.055,1.055,0,0,0-.744,1.125c.014.908,0,1.816,0,2.711h-9.779c0-.9-.015-1.755,0-2.609a1.192,1.192,0,0,0-.885-1.28,4.09,4.09,0,0,1-2.759-3.1,28.109,28.109,0,0,1-.261-3.635c-.038-.665-.415-1.078-1-1.064a.961.961,0,0,0-.951,1.05c-.014.732-.031,1.467.006,2.2a6.762,6.762,0,0,0,3.554,6.066.659.659,0,0,1,.321.434c.037.644.016,1.289.016,1.819-.622.179-1.3.184-1.632.526s-.307,1.025-.447,1.593c-.264,0-.569-.008-.873,0a2.417,2.417,0,0,0-2.192,1.112,1.6,1.6,0,0,1-1.831.837,2.973,2.973,0,0,0-.55,0,.584.584,0,0,1-.656-.383,2.842,2.842,0,0,0-2.635-1.568q-.945-.014-1.893,0a2.478,2.478,0,0,0-2.24,1.144,1.515,1.515,0,0,1-1.723.806,3.653,3.653,0,0,1-.667-.017,1.042,1.042,0,0,1-.585-.364,2.967,2.967,0,0,0-2.708-1.572h-.71c-.164-.622-.148-1.292-.476-1.61-.346-.335-1.016-.337-1.62-.5,0-.472.017-1.039-.008-1.6a.661.661,0,0,1,.411-.709,6.394,6.394,0,0,0,3.16-3.93,13.962,13.962,0,0,0,.332-4.241.964.964,0,0,0-.973-1.087.971.971,0,0,0-.974,1.087c-.012.753.025,1.508-.017,2.259a4.69,4.69,0,0,1-2.972,4.441c-.783.327-.916.5-.917,1.368,0,.846,0,1.693,0,2.529h-9.771c0-.9-.019-1.755.006-2.609a1.183,1.183,0,0,0-.875-1.284,5.206,5.206,0,0,1-1.448-.874,4.7,4.7,0,0,1-1.586-3.756c-.023-3.176-.009-6.351-.009-9.527,0-.119.019-.238.028-.357,1.337.067,1.919.653,1.923,1.941.006,1.771,0,3.542,0,5.314,0,1.118.222,1.355,1.322,1.436a2.536,2.536,0,0,1,2.583,2.674c.006.162-.008.327.012.488a.942.942,0,0,0,.976.828.959.959,0,0,0,.965-.844,4.558,4.558,0,0,0-3.167-4.86c-.23-.068-.463-.124-.69-.184v-2.1a7.9,7.9,0,0,0,1.548-.022,7.621,7.621,0,0,0,1.4-.585c1.4.931,2.223.931,3.867-.036a2.943,2.943,0,0,0,3.892-.011,2.882,2.882,0,0,0,3.23.418,2.753,2.753,0,0,0,1.628-2.472c.05-1.4.042-2.81,0-4.213a2.9,2.9,0,0,0-2.151-2.666,2.989,2.989,0,0,0-2.729.628,2.925,2.925,0,0,0-3.9,0,2.941,2.941,0,0,0-3.915,0,2.864,2.864,0,0,0-3.381-.352,3.02,3.02,0,0,0-1.522,2.922c-.928-.13-1.8-.295-2.686-.363-.846-.063-1.2.307-1.2,1.149,0,3.582-.039,7.166.014,10.748a6.743,6.743,0,0,0,3.546,6.2.665.665,0,0,1,.329.429c.037.644.017,1.289.017,1.982-.219,0-.378,0-.537,0-1.127.006-1.417.292-1.417,1.4q0,3.48,0,6.961c0,1.125.287,1.419,1.4,1.419q5.8,0,11.6,0h.645v3.876h-9.712c-.1-.786.258-1.921-1.025-1.9-1.226.02-.877,1.121-.984,1.928v1.985h13.769v-5.741c.588-.168,1.257-.167,1.568-.5.329-.352.32-1.024.474-1.61.234,0,.535.006.838,0a2.444,2.444,0,0,0,2.239-1.142,1.539,1.539,0,0,1,1.78-.815,2.905,2.905,0,0,1,.606.015,1.088,1.088,0,0,1,.59.357,2.994,2.994,0,0,0,2.759,1.592c.489,0,.977-.014,1.465,0a3,3,0,0,0,2.95-1.675c.229-.428,2.341-.428,2.569,0a2.992,2.992,0,0,0,2.945,1.678c.2-.006.4,0,.63,0,.01.171.02.289.023.407.032,1.346.234,1.542,1.578,1.542H2299.6Zm-11.7-26.482a.959.959,0,0,1-.985,1.07c-.583-.008-.948-.417-.96-1.1-.011-.61,0-1.218,0-1.828s-.009-1.218,0-1.826c.012-.684.377-1.091.959-1.1a.963.963,0,0,1,.989,1.068Q2287.917-774.2,2287.9-772.342Zm3.91.037a.954.954,0,0,1-.958,1.036.94.94,0,0,1-.984-1.008q-.026-1.917,0-3.838a.946.946,0,0,1,.985-1.01.963.963,0,0,1,.954,1.044c.016.628,0,1.258,0,1.888h0C2291.813-773.563,2291.824-772.934,2291.808-772.305Zm2.932,1.036c-.588,0-.956-.406-.968-1.09-.012-.61,0-1.22,0-1.829,0-.63-.011-1.26,0-1.888a.961.961,0,0,1,.951-1.048.962.962,0,0,1,.994,1.062q.019,1.86,0,3.719A.959.959,0,0,1,2294.74-771.269Zm4.88-1.039a.945.945,0,0,1-.954,1.036.942.942,0,0,1-.984-1.01q-.026-1.917,0-3.836a.947.947,0,0,1,.987-1.006.943.943,0,0,1,.952.98c.025.648.006,1.3.006,1.948C2299.625-773.568,2299.637-772.938,2299.62-772.308Zm-35.164-3.793a.948.948,0,0,1,.966-1.025.951.951,0,0,1,.977,1.017c.019.628,0,1.258,0,1.888h0c0,.628.011,1.258,0,1.887a.962.962,0,0,1-1,1.059.956.956,0,0,1-.945-1.05Q2264.435-774.215,2264.456-776.1Zm-2.928-1.025c.585,0,.952.409.966,1.093.011.608,0,1.218,0,1.828,0,.63.012,1.26,0,1.89a.96.96,0,0,1-.953,1.045.962.962,0,0,1-.994-1.064q-.016-1.857,0-3.717A.962.962,0,0,1,2261.527-777.126Zm-4.892,1.068a.96.96,0,0,1,.986-1.068.956.956,0,0,1,.956,1.041c.017.628,0,1.258,0,1.888h0c0,.61.008,1.22,0,1.828-.012.685-.376,1.091-.96,1.1a.961.961,0,0,1-.988-1.07Q2256.618-774.2,2256.635-776.058Zm-3.9-.037a.947.947,0,0,1,.962-1.031.965.965,0,0,1,.983,1.073c.012.608,0,1.218,0,1.826h0c0,.63.009,1.26,0,1.888a.964.964,0,0,1-.993,1.064.951.951,0,0,1-.949-1.043Q2252.711-774.206,2252.732-776.1Zm11.688,28.256h-13.61v-5.8h13.61Zm3.753-2.385c-.378.686-1.093.394-1.735.457v-1.937c.634.017,1.335-.242,1.726.42A1.26,1.26,0,0,1,2268.173-750.225Zm9.016.44c-.343.025-.689,0-1.034,0s-.69.023-1.033,0a.938.938,0,0,1-.894-.969.923.923,0,0,1,.9-.959q1.033-.046,2.067,0a.935.935,0,0,1,.928,1A.937.937,0,0,1,2277.189-749.785Zm8.738-.022c-.623.012-1.3.252-1.721-.383a1.222,1.222,0,0,1-.065-1.01c.351-.769,1.1-.474,1.786-.531Zm2.006-3.832h13.619v5.781h-13.619Z" transform="translate(-2246.846 779.098)" fill="#023c7d"/>
      </g>
      <path id="Trazado_16849" data-name="Trazado 16849" d="M3040.889-642.076H2270.6a25.916,25.916,0,0,1-25.914-25.916h0a25.914,25.914,0,0,1,25.914-25.914h770.293a25.915,25.915,0,0,1,25.916,25.914h0A25.916,25.916,0,0,1,3040.889-642.076Z" transform="translate(-2036.681 1877.912)" fill="#023c7d"/>
      <path id="Trazado_16875" data-name="Trazado 16875" d="M4.392-2.34V-5.256h5.85V-7.524H4.392V-10.26h6.624V-12.6H1.494V0H11.25V-2.34ZM16.56.144c2.9,0,4.572-1.278,4.572-3.078,0-3.816-5.85-2.214-5.85-3.87,0-.5.54-.9,1.8-.9a5.561,5.561,0,0,1,2.79.72l.936-2a7.963,7.963,0,0,0-3.726-.846c-2.826,0-4.482,1.3-4.482,3.132,0,3.87,5.85,2.25,5.85,3.834,0,.54-.486.882-1.782.882A6.626,6.626,0,0,1,13.3-2.916L12.366-.9A8.313,8.313,0,0,0,16.56.144ZM28.35-2.448a1.892,1.892,0,0,1-1.134.36A1.129,1.129,0,0,1,26.01-3.366V-7.308h2.412v-2.16H26.01v-2.358H23.2v2.358H21.708v2.16H23.2V-3.33c0,2.3,1.332,3.474,3.618,3.474a4.013,4.013,0,0,0,2.286-.612ZM34.6-9.828a7.444,7.444,0,0,0-4.176,1.17L31.428-6.7a4.656,4.656,0,0,1,2.79-.9c1.512,0,2.232.7,2.232,1.908H34.218c-2.952,0-4.158,1.188-4.158,2.9,0,1.674,1.35,2.934,3.618,2.934a3.178,3.178,0,0,0,2.952-1.35V0h2.628V-5.526C39.258-8.46,37.548-9.828,34.6-9.828ZM34.38-1.746c-.99,0-1.584-.468-1.584-1.17,0-.648.414-1.134,1.728-1.134H36.45v.99A2.069,2.069,0,0,1,34.38-1.746ZM47.52-9.828A3.76,3.76,0,0,0,44.6-8.658v-4.7H41.8V0h2.682V-1.116A3.763,3.763,0,0,0,47.52.144a4.7,4.7,0,0,0,4.824-4.986A4.7,4.7,0,0,0,47.52-9.828ZM47.034-2.16a2.444,2.444,0,0,1-2.466-2.682,2.444,2.444,0,0,1,2.466-2.682A2.444,2.444,0,0,1,49.5-4.842,2.444,2.444,0,0,1,47.034-2.16ZM54.216,0h2.808V-13.356H54.216Zm14.9-4.806a4.794,4.794,0,0,0-5.04-5.022,4.93,4.93,0,0,0-5.166,4.986c0,2.88,2.178,4.986,5.526,4.986a5.072,5.072,0,0,0,4-1.566l-1.494-1.62a3.283,3.283,0,0,1-2.43.936A2.582,2.582,0,0,1,61.74-4.05h7.326C69.084-4.284,69.12-4.59,69.12-4.806ZM64.1-7.7a2.3,2.3,0,0,1,2.376,2.016H61.7A2.293,2.293,0,0,1,64.1-7.7ZM75.672.144A4.493,4.493,0,0,0,80.01-2.3L77.832-3.492A2.382,2.382,0,0,1,75.654-2.16a2.478,2.478,0,0,1-2.538-2.682,2.478,2.478,0,0,1,2.538-2.682,2.415,2.415,0,0,1,2.178,1.332l2.178-1.17a4.449,4.449,0,0,0-4.338-2.466c-3.15,0-5.4,2.07-5.4,4.986S72.522.144,75.672.144Zm7.362-11.178a1.615,1.615,0,0,0,1.746-1.62,1.576,1.576,0,0,0-1.746-1.512A1.605,1.605,0,0,0,81.288-12.6,1.605,1.605,0,0,0,83.034-11.034ZM81.63,0h2.808V-9.684H81.63ZM99.45-9.828a4.354,4.354,0,0,0-3.492,1.584,3.615,3.615,0,0,0-3.186-1.584,3.922,3.922,0,0,0-3.042,1.26V-9.684H87.048V0h2.808V-4.86c0-1.728.882-2.538,2.124-2.538,1.17,0,1.836.72,1.836,2.286V0h2.808V-4.86c0-1.728.882-2.538,2.142-2.538,1.134,0,1.836.72,1.836,2.286V0h2.808V-5.544C103.41-8.5,101.754-9.828,99.45-9.828Zm7.884-1.206a1.615,1.615,0,0,0,1.746-1.62,1.576,1.576,0,0,0-1.746-1.512,1.605,1.605,0,0,0-1.746,1.566A1.605,1.605,0,0,0,107.334-11.034ZM105.93,0h2.808V-9.684H105.93Zm14.9-4.806a4.794,4.794,0,0,0-5.04-5.022,4.93,4.93,0,0,0-5.166,4.986c0,2.88,2.178,4.986,5.526,4.986a5.072,5.072,0,0,0,4-1.566l-1.494-1.62a3.283,3.283,0,0,1-2.43.936,2.582,2.582,0,0,1-2.772-1.944h7.326C120.8-4.284,120.834-4.59,120.834-4.806Zm-5.022-2.9a2.3,2.3,0,0,1,2.376,2.016h-4.77A2.293,2.293,0,0,1,115.812-7.7Zm12.78-2.124a4.24,4.24,0,0,0-3.2,1.278V-9.684h-2.682V0h2.808V-4.788c0-1.782.972-2.61,2.322-2.61,1.242,0,1.962.72,1.962,2.286V0h2.808V-5.544C132.606-8.5,130.878-9.828,128.592-9.828Zm12.042,7.38a1.892,1.892,0,0,1-1.134.36,1.129,1.129,0,0,1-1.206-1.278V-7.308h2.412v-2.16h-2.412v-2.358h-2.808v2.358h-1.494v2.16h1.494V-3.33c0,2.3,1.332,3.474,3.618,3.474a4.013,4.013,0,0,0,2.286-.612ZM147.276.144a4.97,4.97,0,0,0,5.31-4.986,4.97,4.97,0,0,0-5.31-4.986,4.985,4.985,0,0,0-5.328,4.986A4.985,4.985,0,0,0,147.276.144Zm0-2.3a2.457,2.457,0,0,1-2.484-2.682,2.457,2.457,0,0,1,2.484-2.682,2.444,2.444,0,0,1,2.466,2.682A2.444,2.444,0,0,1,147.276-2.16Zm19.188-7.524L163.692-3.1,161.01-9.684h-2.9L162.18,0h2.9l4.086-9.684Zm5.256-1.35a1.615,1.615,0,0,0,1.746-1.62,1.576,1.576,0,0,0-1.746-1.512,1.605,1.605,0,0,0-1.746,1.566A1.605,1.605,0,0,0,171.72-11.034ZM170.316,0h2.808V-9.684h-2.808Zm10.026.144a4.97,4.97,0,0,0,5.31-4.986,4.97,4.97,0,0,0-5.31-4.986,4.985,4.985,0,0,0-5.328,4.986A4.985,4.985,0,0,0,180.342.144Zm0-2.3a2.457,2.457,0,0,1-2.484-2.682,2.457,2.457,0,0,1,2.484-2.682,2.444,2.444,0,0,1,2.466,2.682A2.444,2.444,0,0,1,180.342-2.16ZM187.524,0h2.808V-13.356h-2.808Zm14.9-4.806a4.794,4.794,0,0,0-5.04-5.022,4.93,4.93,0,0,0-5.166,4.986c0,2.88,2.178,4.986,5.526,4.986a5.072,5.072,0,0,0,4-1.566l-1.494-1.62a3.283,3.283,0,0,1-2.43.936,2.582,2.582,0,0,1-2.772-1.944h7.326C202.392-4.284,202.428-4.59,202.428-4.806Zm-5.022-2.9a2.3,2.3,0,0,1,2.376,2.016h-4.77A2.293,2.293,0,0,1,197.406-7.7Zm12.78-2.124a4.24,4.24,0,0,0-3.2,1.278V-9.684H204.3V0h2.808V-4.788c0-1.782.972-2.61,2.322-2.61,1.242,0,1.962.72,1.962,2.286V0H214.2V-5.544C214.2-8.5,212.472-9.828,210.186-9.828Zm12.042,7.38a1.892,1.892,0,0,1-1.134.36,1.129,1.129,0,0,1-1.206-1.278V-7.308H222.3v-2.16h-2.412v-2.358H217.08v2.358h-1.494v2.16h1.494V-3.33c0,2.3,1.332,3.474,3.618,3.474a4.013,4.013,0,0,0,2.286-.612ZM228.87.144a4.97,4.97,0,0,0,5.31-4.986,4.97,4.97,0,0,0-5.31-4.986,4.985,4.985,0,0,0-5.328,4.986A4.985,4.985,0,0,0,228.87.144Zm0-2.3a2.457,2.457,0,0,1-2.484-2.682,2.457,2.457,0,0,1,2.484-2.682,2.444,2.444,0,0,1,2.466,2.682A2.444,2.444,0,0,1,228.87-2.16Z" transform="translate(502 1217.392)" fill="#fff"/>
      <path id="Trazado_16850" data-name="Trazado 16850" d="M2248.528-672.051h1.419C2249.444-672.051,2248.983-672.052,2248.528-672.051Z" transform="translate(-2034.712 1889.796)" fill="#ff591e"/>
      <circle id="Elipse_730" data-name="Elipse 730" cx="36.552" cy="36.552" r="36.552" transform="translate(204 1173.37)" fill="#def3f5"/>
      <g id="Grupo_7718" data-name="Grupo 7718" transform="translate(215.852 1185.224)">
        <path id="Trazado_16852" data-name="Trazado 16852" d="M2253.964-650.992h2.473c.094-.52.162-1.042.284-1.552a10.469,10.469,0,0,1,5.121-6.888.675.675,0,0,0,.36-.7q-.01-13.711,0-27.422c0-.154-.006-.31,0-.463a.787.787,0,0,1,.838-.837.786.786,0,0,1,.806.817c.009.154,0,.309,0,.463q0,7.436,0,14.87a3.424,3.424,0,0,0,.032.565,2.894,2.894,0,0,1,2.169-1.891,1.966,1.966,0,0,1-1.357-2.292c.022-.307,0-.618,0-.925a1.673,1.673,0,0,1,1.777-1.72q3.319-.007,6.637,0h.583v-2.421a1.739,1.739,0,0,0-.278-.043c-1.715,0-3.431-.011-5.146.011a.734.734,0,0,0-.5.3c-.337.486-.724.639-1.169.4a.794.794,0,0,1-.3-1.153,8.928,8.928,0,0,1,6.975-5.224c.133-.022.266-.046.411-.073.137-.661-.271-1.7.914-1.652,1.055.043.678.988.8,1.632.473.1.959.177,1.434.3a9.047,9.047,0,0,1,6.7,7.645,1.366,1.366,0,0,0,.372.727c.756.764.784,3.3,0,4.029a5.562,5.562,0,0,1-.714.485,2.958,2.958,0,0,1,2.037,1.856c.007-.156.02-.312.02-.468q0-7.588,0-15.177c0-.653.211-.973.678-1.043.568-.088.963.269.966.906.008,1.921,0,3.841,0,5.763q0,11.034-.009,22.072a.678.678,0,0,0,.384.684,10.5,10.5,0,0,1,5.3,8.066c.016.116.052.229.082.354h2.475v-36.534c0-.188-.009-.378.008-.565a.777.777,0,0,1,.815-.753.773.773,0,0,1,.816.75c.017.187.008.377.008.565v36.56c.5,0,.992,0,1.482,0,.676.008.979.3.985.966.009,1,.006,1.99,0,2.984,0,.707-.311.986-1.07.986q-5.995,0-11.987,0h-35.141c-.956,0-1.193-.232-1.193-1.17,0-.909,0-1.819,0-2.728,0-.764.286-1.037,1.065-1.042.443,0,.888,0,1.4,0v-36.585c0-.171-.008-.344.006-.514a.773.773,0,0,1,.792-.775.78.78,0,0,1,.844.776c.017.188.008.378.008.567q0,17.9,0,35.81Zm43.587,3.3v-1.6h-46.014v1.6Zm-33.691-12.783c1.108-.13,2.172-.283,3.242-.366a.767.767,0,0,1,.858.9c-.046.472-.355.719-.943.732a8.671,8.671,0,0,0-3.143.624v2.621h9.468c-1.148-1.146-2.222-2.228-3.312-3.293a1.335,1.335,0,0,1-.43-1.048c.018-1.234.02-2.467-.006-3.7a1.33,1.33,0,0,0-.273-.659c-.472-.688-1.037-1.325-1.436-2.05a1.538,1.538,0,0,0-1.07-.914,3.975,3.975,0,0,1-2.954-3.1Zm21.372-10.252a4.134,4.134,0,0,1-3.338,3.219,1,1,0,0,0-.489.423q-.836,1.19-1.629,2.411a1.507,1.507,0,0,0-.278.712c-.029,1.166-.039,2.331,0,3.5a1.656,1.656,0,0,1-.572,1.354c-.941.9-1.849,1.834-2.769,2.757-.114.114-.219.239-.363.4h9.456c0-.775-.02-1.511.009-2.246.012-.327-.11-.474-.408-.525-.908-.157-1.811-.355-2.723-.463-.671-.082-1-.3-1-.844s.343-.865,1.01-.807c1.033.089,2.06.252,3.1.383Zm-11.549,6.513V-674h-4.9c0,1.414-.057,2.8.023,4.182a6.715,6.715,0,0,0,.513,2.282A5.555,5.555,0,0,0,2273.683-664.217Zm1.709-9.792v9.761a2.858,2.858,0,0,0,.379-.037,5.488,5.488,0,0,0,4.308-4.153,15.2,15.2,0,0,0,.222-3.055c.032-.832.006-1.666.006-2.516Zm-1.7,19.764h-9.821v3.231h9.821Zm11.527.012h-9.815V-651h9.815Zm-3.25-24.761c-.219-.727-.427-1.389-.616-2.056-.091-.321-.28-.4-.6-.4-1.66.017-3.319.009-4.977.012a3.777,3.777,0,0,0-.391.037v2.4Zm-19.787,24.725c-1,0-1.953-.008-2.907.008a.417.417,0,0,0-.3.2,8.155,8.155,0,0,0-.848,3.043h4.057Zm28.759,3.27a8.058,8.058,0,0,0-.851-3.1.319.319,0,0,0-.221-.162c-.983-.011-1.968-.008-2.944-.008V-651Zm-24.58-24.714h7.327v-1.578h-7.327Zm16.389-1.573h-7.347v1.585h7.347Zm-11.5,14.084c0,.9,0,1.781,0,2.668a.353.353,0,0,0,.081.23c.762.769,1.531,1.533,2.345,2.342v-4.52Zm4.139,5.275c.821-.823,1.57-1.572,2.316-2.322a.372.372,0,0,0,.119-.216c.009-.912.006-1.826.006-2.731l-2.441.716Zm0-27.57v2.38h4.64A7.328,7.328,0,0,0,2275.4-685.5Zm-6.238,2.377h4.536v-2.333A6.6,6.6,0,0,0,2269.158-683.121Zm-2.025,13.848c0-.906.009-1.775-.009-2.645a.521.521,0,0,0-.211-.361.972.972,0,0,0-1.41.692A2.224,2.224,0,0,0,2267.133-669.273Zm14.822-.022a2.192,2.192,0,0,0,1.63-2.345.982.982,0,0,0-1.371-.647.563.563,0,0,0-.247.391C2281.944-671.042,2281.955-670.187,2281.955-669.295Zm4.97,11.473v1.854h2.087Zm-24.766,1.874v-1.859l-1.968,1.748.076.111Z" transform="translate(-2249.847 695.433)" fill="#023c7d"/>
        <path id="Trazado_16853" data-name="Trazado 16853" d="M2274.6-693.117h23.452c.952,0,1.19.235,1.19,1.173,0,.892,0,1.783,0,2.675,0,.814-.269,1.09-1.069,1.09q-16.3,0-32.606,0-7.276,0-14.553,0c-.917,0-1.167-.245-1.167-1.147,0-.84,0-1.68,0-2.519,0-1.059.208-1.272,1.249-1.272h23.5Zm-23.084,3.256h46.051v-1.579h-46.051Z" transform="translate(-2249.847 693.117)" fill="#023c7d"/>
      </g>
      <path id="Trazado_16876" data-name="Trazado 16876" d="M-145.116-9.54a4.123,4.123,0,0,0-3.744,2,3.4,3.4,0,0,0-3.366-2,3.829,3.829,0,0,0-3.474,1.8V-9.468h-1.224V0h1.278V-4.968c0-2.16,1.242-3.42,3.168-3.42,1.728,0,2.736,1.026,2.736,3.024V0h1.278V-4.968c0-2.16,1.224-3.42,3.168-3.42,1.71,0,2.718,1.026,2.718,3.024V0h1.278V-5.49C-141.3-8.208-142.812-9.54-145.116-9.54Zm13.644-3.618h-1.71l-2.466,2.232h1.26Zm-3.042,3.618a6.012,6.012,0,0,0-3.852,1.278l.576.954a4.823,4.823,0,0,1,3.15-1.116c1.764,0,2.682.882,2.682,2.5v.576h-3.006c-2.718,0-3.654,1.224-3.654,2.682,0,1.638,1.314,2.754,3.456,2.754A3.555,3.555,0,0,0-131.9-1.476V0h1.224V-5.868C-130.68-8.316-132.066-9.54-134.514-9.54Zm-.45,8.622c-1.512,0-2.394-.684-2.394-1.782,0-.972.594-1.692,2.43-1.692h2.97v1.548A3.029,3.029,0,0,1-134.964-.918Zm10.3,1.008c2.466,0,3.906-1.062,3.906-2.7,0-3.636-6.138-1.71-6.138-4.266,0-.9.756-1.566,2.466-1.566a4.853,4.853,0,0,1,2.79.81l.558-1.026a6.416,6.416,0,0,0-3.348-.882c-2.412,0-3.744,1.152-3.744,2.7,0,3.744,6.138,1.8,6.138,4.266,0,.936-.738,1.548-2.538,1.548a5.719,5.719,0,0,1-3.366-1.062l-.576,1.008A6.325,6.325,0,0,0-124.668.09Zm18.342-13.446v5.688a4.135,4.135,0,0,0-3.6-1.872,4.58,4.58,0,0,0-4.716,4.806A4.6,4.6,0,0,0-109.926.09a4.1,4.1,0,0,0,3.654-1.962V0h1.224V-13.356Zm-3.492,12.312a3.467,3.467,0,0,1-3.528-3.69,3.467,3.467,0,0,1,3.528-3.69,3.463,3.463,0,0,1,3.51,3.69A3.463,3.463,0,0,1-109.818-1.044Zm8.982-10.494a.919.919,0,0,0,.936-.936.908.908,0,0,0-.936-.882.922.922,0,0,0-.936.9A.926.926,0,0,0-100.836-11.538ZM-101.484,0h1.278V-9.468h-1.278Zm5.058-10.638v1.17h-1.692v1.08h1.692V0h1.278V-8.388h2.88v-1.08h-2.916v-1.116c0-1.17.576-1.782,1.674-1.782a2.165,2.165,0,0,1,1.4.468l.432-.954a3,3,0,0,0-1.89-.594A2.607,2.607,0,0,0-96.426-10.638Zm7.974-2.718a.922.922,0,0,0-.936.9.926.926,0,0,0,.936.918.919.919,0,0,0,.936-.936A.908.908,0,0,0-88.452-13.356ZM-89.1,0h1.278V-9.468H-89.1Zm8.766.09a4.174,4.174,0,0,0,3.708-1.872l-.954-.648a3.2,3.2,0,0,1-2.754,1.386,3.469,3.469,0,0,1-3.582-3.69,3.479,3.479,0,0,1,3.582-3.69,3.219,3.219,0,0,1,2.754,1.4l.954-.648A4.135,4.135,0,0,0-80.334-9.54a4.66,4.66,0,0,0-4.878,4.806A4.675,4.675,0,0,0-80.334.09Zm6.858-11.628a.919.919,0,0,0,.936-.936.908.908,0,0,0-.936-.882.922.922,0,0,0-.936.9A.926.926,0,0,0-73.476-11.538ZM-74.124,0h1.278V-9.468h-1.278Zm4.842,0H-68V-13.356h-1.278Zm16.254-9.468-3.564,8.046-3.564-8.046h-1.332l4.23,9.45L-57.672.9c-.54,1.188-1.116,1.584-1.962,1.584a2.364,2.364,0,0,1-1.728-.72l-.594.954a3.24,3.24,0,0,0,2.3.864c1.35,0,2.358-.594,3.15-2.448l4.734-10.6ZM-41.328.09A4.174,4.174,0,0,0-37.62-1.782l-.954-.648a3.2,3.2,0,0,1-2.754,1.386,3.469,3.469,0,0,1-3.582-3.69,3.479,3.479,0,0,1,3.582-3.69,3.219,3.219,0,0,1,2.754,1.4l.954-.648A4.135,4.135,0,0,0-41.328-9.54a4.66,4.66,0,0,0-4.878,4.806A4.675,4.675,0,0,0-41.328.09Zm9.918,0A4.657,4.657,0,0,0-26.6-4.734,4.642,4.642,0,0,0-31.41-9.54a4.657,4.657,0,0,0-4.824,4.806A4.672,4.672,0,0,0-31.41.09Zm0-1.134a3.467,3.467,0,0,1-3.528-3.69,3.467,3.467,0,0,1,3.528-3.69,3.453,3.453,0,0,1,3.51,3.69A3.453,3.453,0,0,1-31.41-1.044ZM-21.456.09c2.466,0,3.906-1.062,3.906-2.7,0-3.636-6.138-1.71-6.138-4.266,0-.9.756-1.566,2.466-1.566a4.853,4.853,0,0,1,2.79.81l.558-1.026a6.416,6.416,0,0,0-3.348-.882c-2.412,0-3.744,1.152-3.744,2.7,0,3.744,6.138,1.8,6.138,4.266,0,.936-.738,1.548-2.538,1.548a5.719,5.719,0,0,1-3.366-1.062l-.576,1.008A6.325,6.325,0,0,0-21.456.09Zm10.8-1.584a2.115,2.115,0,0,1-1.4.486A1.516,1.516,0,0,1-13.7-2.736V-8.388h2.88v-1.08H-13.7v-2.07h-1.278v2.07h-1.692v1.08h1.692v5.724A2.508,2.508,0,0,0-12.2.09a3.043,3.043,0,0,0,2-.666ZM-4.356.09A4.657,4.657,0,0,0,.45-4.734,4.642,4.642,0,0,0-4.356-9.54,4.657,4.657,0,0,0-9.18-4.734,4.672,4.672,0,0,0-4.356.09Zm0-1.134a3.467,3.467,0,0,1-3.528-3.69,3.467,3.467,0,0,1,3.528-3.69,3.453,3.453,0,0,1,3.51,3.69A3.453,3.453,0,0,1-4.356-1.044ZM5.6.09C8.064.09,9.5-.972,9.5-2.61c0-3.636-6.138-1.71-6.138-4.266,0-.9.756-1.566,2.466-1.566a4.853,4.853,0,0,1,2.79.81L9.18-8.658A6.416,6.416,0,0,0,5.832-9.54c-2.412,0-3.744,1.152-3.744,2.7,0,3.744,6.138,1.8,6.138,4.266,0,.936-.738,1.548-2.538,1.548A5.719,5.719,0,0,1,2.322-2.088L1.746-1.08A6.325,6.325,0,0,0,5.6.09Zm10.134,0a4.657,4.657,0,0,0,4.806-4.824A4.642,4.642,0,0,0,15.732-9.54a4.657,4.657,0,0,0-4.824,4.806A4.672,4.672,0,0,0,15.732.09Zm0-1.134A3.467,3.467,0,0,1,12.2-4.734a3.467,3.467,0,0,1,3.528-3.69,3.453,3.453,0,0,1,3.51,3.69A3.453,3.453,0,0,1,15.732-1.044ZM35.226-13.356v5.688a4.135,4.135,0,0,0-3.6-1.872A4.58,4.58,0,0,0,26.91-4.734,4.6,4.6,0,0,0,31.626.09,4.1,4.1,0,0,0,35.28-1.872V0H36.5V-13.356ZM31.734-1.044a3.467,3.467,0,0,1-3.528-3.69,3.467,3.467,0,0,1,3.528-3.69,3.463,3.463,0,0,1,3.51,3.69A3.463,3.463,0,0,1,31.734-1.044Zm16.6-3.69A4.512,4.512,0,0,0,43.74-9.54a4.56,4.56,0,0,0-4.626,4.806A4.689,4.689,0,0,0,44.082.09a4.661,4.661,0,0,0,3.654-1.548l-.72-.828a3.732,3.732,0,0,1-2.9,1.242,3.5,3.5,0,0,1-3.726-3.294h7.92C48.312-4.482,48.33-4.626,48.33-4.734ZM43.74-8.442a3.293,3.293,0,0,1,3.366,3.15H40.392A3.289,3.289,0,0,1,43.74-8.442Zm15.228-1.1a6.012,6.012,0,0,0-3.852,1.278l.576.954a4.823,4.823,0,0,1,3.15-1.116c1.764,0,2.682.882,2.682,2.5v.576H58.518c-2.718,0-3.654,1.224-3.654,2.682C54.864-1.026,56.178.09,58.32.09a3.555,3.555,0,0,0,3.258-1.566V0H62.8V-5.868C62.8-8.316,61.416-9.54,58.968-9.54Zm-.45,8.622c-1.512,0-2.394-.684-2.394-1.782,0-.972.594-1.692,2.43-1.692h2.97v1.548A3.029,3.029,0,0,1,58.518-.918ZM73.674-13.356v5.688a4.135,4.135,0,0,0-3.6-1.872,4.58,4.58,0,0,0-4.716,4.806A4.6,4.6,0,0,0,70.074.09a4.1,4.1,0,0,0,3.654-1.962V0h1.224V-13.356ZM70.182-1.044a3.467,3.467,0,0,1-3.528-3.69,3.467,3.467,0,0,1,3.528-3.69,3.463,3.463,0,0,1,3.51,3.69A3.463,3.463,0,0,1,70.182-1.044Zm20.142-8.5a4.123,4.123,0,0,0-3.744,2,3.4,3.4,0,0,0-3.366-2,3.829,3.829,0,0,0-3.474,1.8V-9.468H78.516V0h1.278V-4.968c0-2.16,1.242-3.42,3.168-3.42,1.728,0,2.736,1.026,2.736,3.024V0h1.278V-4.968c0-2.16,1.224-3.42,3.168-3.42,1.71,0,2.718,1.026,2.718,3.024V0H94.14V-5.49C94.14-8.208,92.628-9.54,90.324-9.54Zm7.938-2a.919.919,0,0,0,.936-.936.908.908,0,0,0-.936-.882.922.922,0,0,0-.936.9A.926.926,0,0,0,98.262-11.538ZM97.614,0h1.278V-9.468H97.614Zm9.666-9.54a3.979,3.979,0,0,0-3.6,1.818V-9.468h-1.224V0h1.278V-4.968a3.1,3.1,0,0,1,3.312-3.42c1.8,0,2.844,1.026,2.844,3.024V0h1.278V-5.49C111.168-8.208,109.584-9.54,107.28-9.54Zm8.01-2a.919.919,0,0,0,.936-.936.908.908,0,0,0-.936-.882.922.922,0,0,0-.936.9A.926.926,0,0,0,115.29-11.538ZM114.642,0h1.278V-9.468h-1.278Zm7.38.09c2.466,0,3.906-1.062,3.906-2.7,0-3.636-6.138-1.71-6.138-4.266,0-.9.756-1.566,2.466-1.566a4.853,4.853,0,0,1,2.79.81l.558-1.026a6.416,6.416,0,0,0-3.348-.882c-2.412,0-3.744,1.152-3.744,2.7,0,3.744,6.138,1.8,6.138,4.266,0,.936-.738,1.548-2.538,1.548a5.719,5.719,0,0,1-3.366-1.062L118.17-1.08A6.325,6.325,0,0,0,122.022.09Zm10.8-1.584a2.115,2.115,0,0,1-1.4.486,1.516,1.516,0,0,1-1.638-1.728V-8.388h2.88v-1.08h-2.88v-2.07H128.5v2.07H126.81v1.08H128.5v5.724A2.508,2.508,0,0,0,131.274.09a3.043,3.043,0,0,0,2-.666Zm4-6.12V-9.468h-1.224V0h1.278V-4.824c0-2.232,1.206-3.492,3.186-3.492.09,0,.2.018.306.018V-9.54A3.571,3.571,0,0,0,136.818-7.614Zm9.144-1.926a6.012,6.012,0,0,0-3.852,1.278l.576.954a4.823,4.823,0,0,1,3.15-1.116c1.764,0,2.682.882,2.682,2.5v.576h-3.006c-2.718,0-3.654,1.224-3.654,2.682,0,1.638,1.314,2.754,3.456,2.754a3.555,3.555,0,0,0,3.258-1.566V0H149.8V-5.868C149.8-8.316,148.41-9.54,145.962-9.54Zm-.45,8.622c-1.512,0-2.394-.684-2.394-1.782,0-.972.594-1.692,2.43-1.692h2.97v1.548A3.029,3.029,0,0,1,145.512-.918Zm8.982-6.7V-9.468H153.27V0h1.278V-4.824c0-2.232,1.206-3.492,3.186-3.492.09,0,.2.018.306.018V-9.54A3.571,3.571,0,0,0,154.494-7.614Z" transform="translate(619 1269.429)" fill="#023c7d"/>
    </g>
  </g>
</svg>
