<?xml version="1.0" encoding="utf-8"?>
<!-- Generator: Adobe Illustrator 24.1.2, SVG Export Plug-In . SVG Version: 6.00 Build 0)  -->
<svg version="1.1" id="Capa_1" xmlns="http://www.w3.org/2000/svg" xmlns:xlink="http://www.w3.org/1999/xlink" x="0px" y="0px"
	 viewBox="0 0 623.4 623.7" style="enable-background:new 0 0 623.4 623.7;" xml:space="preserve">
<style type="text/css">
	.st0{fill:#8CD0ED;}
	.st1{fill:#7CB342;}
	.st2{fill:#00223D;}
	.st3{enable-background:new    ;}
	.st4{fill:#FFFFFF;}
</style>
<g id="Grupo_7723" transform="translate(-4553.292 2082.017)">
	
		<rect id="Rectángulo_1559" x="4598.9" y="-1724.6" transform="matrix(0.7071 -0.7071 0.7071 0.7071 2520.8569 2857.0159)" class="st0" width="220.4" height="220.4"/>
	
		<rect id="Rectángulo_1560" x="4910.7" y="-1724.4" transform="matrix(0.7071 -0.7071 0.7071 0.7071 2611.9607 3077.5178)" class="st1" width="220.4" height="220.4"/>
	
		<rect id="Rectángulo_1561" x="4910.7" y="-2036.4" transform="matrix(0.7071 -0.7071 0.7071 0.7071 2832.5781 2986.1353)" class="st0" width="220.4" height="220.4"/>
	
		<rect id="Rectángulo_1562" x="4598.9" y="-2036.4" transform="matrix(0.7071 -0.7071 0.7071 0.7071 2741.2771 2765.7151)" class="st0" width="220.4" height="220.4"/>
	
		<rect id="Rectángulo_1563" x="4754.8" y="-1880.5" transform="matrix(0.7071 -0.7071 0.7071 0.7071 2676.718 2921.5759)" class="st2" width="220.4" height="220.4"/>
	<g class="st3">
		<path d="M4921.3-1961.3c0,2.8-2.1,4.6-5.5,4.6h-2.5v3.5h-2.9v-12.6h5.5C4919.2-1965.9,4921.3-1964.2,4921.3-1961.3z
			 M4918.4-1961.3c0-1.4-0.9-2.2-2.7-2.2h-2.4v4.4h2.4C4917.5-1959.2,4918.4-1960,4918.4-1961.3z"/>
		<path d="M4929.2-1963.1v2.6c-0.2,0-0.4,0-0.6,0c-1.5,0-2.6,0.8-2.6,2.7v4.6h-2.8v-9.7h2.7v1.3
			C4926.5-1962.6,4927.7-1963.1,4929.2-1963.1z"/>
		<path d="M4930.1-1958.1c0-2.9,2.2-5,5.3-5c3.1,0,5.3,2.1,5.3,5s-2.2,5-5.3,5C4932.3-1953.2,4930.1-1955.2,4930.1-1958.1z
			 M4937.9-1958.1c0-1.7-1.1-2.7-2.5-2.7s-2.5,1-2.5,2.7c0,1.7,1.1,2.7,2.5,2.7S4937.9-1956.5,4937.9-1958.1z"/>
		<path d="M4953.1-1958.1c0,3-2.1,5-4.8,5c-1.3,0-2.3-0.4-3-1.3v1.1h-2.7v-13.4h2.8v4.7c0.7-0.8,1.7-1.2,2.9-1.2
			C4951-1963.1,4953.1-1961.2,4953.1-1958.1z M4950.3-1958.1c0-1.7-1.1-2.7-2.5-2.7s-2.5,1-2.5,2.7c0,1.7,1.1,2.7,2.5,2.7
			S4950.3-1956.5,4950.3-1958.1z"/>
		<path d="M4955-1966.7h2.8v13.4h-2.8V-1966.7z"/>
		<path d="M4969.8-1957.4h-7.3c0.3,1.2,1.3,1.9,2.8,1.9c1,0,1.8-0.3,2.4-0.9l1.5,1.6c-0.9,1-2.2,1.6-4,1.6c-3.3,0-5.5-2.1-5.5-5
			c0-2.9,2.2-5,5.2-5c2.8,0,5,1.9,5,5C4969.9-1957.9,4969.9-1957.6,4969.8-1957.4z M4962.5-1959h4.8c-0.2-1.2-1.1-2-2.4-2
			C4963.6-1961,4962.7-1960.2,4962.5-1959z"/>
		<path d="M4988.1-1958.8v5.5h-2.8v-5.1c0-1.6-0.7-2.3-1.8-2.3c-1.3,0-2.1,0.8-2.1,2.5v4.9h-2.8v-5.1c0-1.6-0.7-2.3-1.8-2.3
			c-1.2,0-2.1,0.8-2.1,2.5v4.9h-2.8v-9.7h2.7v1.1c0.7-0.8,1.8-1.3,3-1.3c1.3,0,2.5,0.5,3.2,1.6c0.8-1,2-1.6,3.5-1.6
			C4986.5-1963.1,4988.1-1961.8,4988.1-1958.8z"/>
		<path d="M4999.2-1958.8v5.5h-2.6v-1.2c-0.5,0.9-1.5,1.4-3,1.4c-2.3,0-3.6-1.3-3.6-2.9c0-1.7,1.2-2.9,4.2-2.9h2.2
			c0-1.2-0.7-1.9-2.2-1.9c-1,0-2.1,0.3-2.8,0.9l-1-2c1.1-0.8,2.6-1.2,4.2-1.2C4997.5-1963.1,4999.2-1961.8,4999.2-1958.8z
			 M4996.4-1956.4v-1h-1.9c-1.3,0-1.7,0.5-1.7,1.1c0,0.7,0.6,1.2,1.6,1.2C4995.3-1955,4996.1-1955.5,4996.4-1956.4z"/>
		<path d="M5000.8-1954.2l0.9-2c0.9,0.6,2.2,0.9,3.4,0.9c1.3,0,1.8-0.3,1.8-0.9c0-1.6-5.9,0-5.9-3.8c0-1.8,1.7-3.1,4.5-3.1
			c1.3,0,2.8,0.3,3.7,0.8l-0.9,2c-1-0.5-1.9-0.7-2.8-0.7c-1.3,0-1.8,0.4-1.8,0.9c0,1.7,5.9,0.1,5.9,3.9c0,1.8-1.7,3.1-4.6,3.1
			C5003.4-1953.2,5001.7-1953.6,5000.8-1954.2z"/>
		<path d="M5015.5-1954.2l0.9-2c0.9,0.6,2.2,0.9,3.4,0.9c1.3,0,1.8-0.3,1.8-0.9c0-1.6-5.9,0-5.9-3.8c0-1.8,1.7-3.1,4.5-3.1
			c1.3,0,2.8,0.3,3.7,0.8l-0.9,2c-1-0.5-1.9-0.7-2.8-0.7c-1.3,0-1.8,0.4-1.8,0.9c0,1.7,5.9,0.1,5.9,3.9c0,1.8-1.7,3.1-4.6,3.1
			C5018-1953.2,5016.4-1953.6,5015.5-1954.2z"/>
		<path d="M5025.2-1958.1c0-2.9,2.3-5,5.3-5c3.1,0,5.3,2.1,5.3,5s-2.2,5-5.3,5C5027.5-1953.2,5025.2-1955.2,5025.2-1958.1z
			 M5033-1958.1c0-1.7-1.1-2.7-2.5-2.7s-2.5,1-2.5,2.7c0,1.7,1.1,2.7,2.5,2.7S5033-1956.5,5033-1958.1z"/>
		<path d="M5054.1-1958.8v5.5h-2.8v-5.1c0-1.6-0.7-2.3-1.8-2.3c-1.3,0-2.1,0.8-2.1,2.5v4.9h-2.8v-5.1c0-1.6-0.7-2.3-1.8-2.3
			c-1.2,0-2.1,0.8-2.1,2.5v4.9h-2.8v-9.7h2.7v1.1c0.7-0.8,1.8-1.3,3-1.3c1.4,0,2.5,0.5,3.2,1.6c0.8-1,2-1.6,3.5-1.6
			C5052.5-1963.1,5054.1-1961.8,5054.1-1958.8z"/>
		<path d="M5065.2-1958.8v5.5h-2.6v-1.2c-0.5,0.9-1.5,1.4-3,1.4c-2.3,0-3.6-1.3-3.6-2.9c0-1.7,1.2-2.9,4.2-2.9h2.2
			c0-1.2-0.7-1.9-2.2-1.9c-1,0-2.1,0.3-2.8,0.9l-1-2c1.1-0.8,2.6-1.2,4.2-1.2C5063.5-1963.1,5065.2-1961.8,5065.2-1958.8z
			 M5062.4-1956.4v-1h-1.9c-1.3,0-1.7,0.5-1.7,1.1c0,0.7,0.6,1.2,1.6,1.2C5061.3-1955,5062.1-1955.5,5062.4-1956.4z M5061.4-1964.2
			h-2.2l2.4-2.6h3L5061.4-1964.2z"/>
		<path d="M5074-1953.8c-0.6,0.4-1.4,0.6-2.3,0.6c-2.3,0-3.6-1.2-3.6-3.5v-4h-1.5v-2.2h1.5v-2.4h2.8v2.4h2.4v2.2h-2.4v3.9
			c0,0.8,0.4,1.3,1.2,1.3c0.4,0,0.8-0.1,1.1-0.4L5074-1953.8z"/>
		<path d="M5075.2-1965.9c0-0.9,0.7-1.6,1.7-1.6s1.7,0.6,1.7,1.5c0,0.9-0.7,1.6-1.7,1.6S5075.2-1965,5075.2-1965.9z M5075.6-1963
			h2.8v9.7h-2.8V-1963z"/>
		<path d="M5080.3-1958.1c0-2.9,2.2-5,5.4-5c2,0,3.6,0.9,4.3,2.5l-2.2,1.2c-0.5-0.9-1.3-1.3-2.2-1.3c-1.4,0-2.5,1-2.5,2.7
			s1.1,2.7,2.5,2.7c0.9,0,1.7-0.4,2.2-1.3l2.2,1.2c-0.7,1.5-2.3,2.4-4.3,2.4C5082.5-1953.2,5080.3-1955.2,5080.3-1958.1z"/>
		<path d="M5090.8-1958.1c0-2.9,2.2-5,5.3-5s5.3,2.1,5.3,5s-2.2,5-5.3,5S5090.8-1955.2,5090.8-1958.1z M5098.6-1958.1
			c0-1.7-1.1-2.7-2.5-2.7s-2.5,1-2.5,2.7c0,1.7,1.1,2.7,2.5,2.7S5098.6-1956.5,5098.6-1958.1z"/>
		<path d="M5102.4-1954.2l0.9-2c0.9,0.6,2.2,0.9,3.4,0.9c1.3,0,1.8-0.3,1.8-0.9c0-1.6-5.9,0-5.9-3.8c0-1.8,1.7-3.1,4.5-3.1
			c1.3,0,2.8,0.3,3.7,0.8l-0.9,2c-1-0.5-1.9-0.7-2.8-0.7c-1.3,0-1.8,0.4-1.8,0.9c0,1.7,5.9,0.1,5.9,3.9c0,1.8-1.7,3.1-4.6,3.1
			C5104.9-1953.2,5103.2-1953.6,5102.4-1954.2z"/>
		<path d="M5112.2-1961.4c0-1,0.8-1.7,1.7-1.7c1,0,1.7,0.7,1.7,1.7c0,1-0.8,1.8-1.7,1.8C5112.9-1959.6,5112.2-1960.4,5112.2-1961.4z
			 M5112.2-1954.9c0-1,0.8-1.7,1.7-1.7c1,0,1.7,0.7,1.7,1.7c0,1-0.8,1.8-1.7,1.8C5112.9-1953.2,5112.2-1953.9,5112.2-1954.9z"/>
	</g>
	<g class="st3">
		<path d="M4909.5-1936.5c0-2.9,2.2-5,5.3-5s5.3,2.1,5.3,5s-2.2,5-5.3,5S4909.5-1933.6,4909.5-1936.5z M4917.3-1936.5
			c0-1.7-1.1-2.7-2.5-2.7s-2.5,1-2.5,2.7c0,1.7,1.1,2.7,2.5,2.7S4917.3-1934.9,4917.3-1936.5z"/>
		<path d="M4931.8-1945.1v13.4h-2.7v-1.1c-0.7,0.8-1.7,1.3-3,1.3c-2.7,0-4.8-1.9-4.8-5s2.1-5,4.8-5c1.2,0,2.2,0.4,2.9,1.2v-4.7
			H4931.8z M4929.1-1936.5c0-1.7-1.1-2.7-2.5-2.7c-1.4,0-2.5,1-2.5,2.7c0,1.7,1.1,2.7,2.5,2.7
			C4928-1933.9,4929.1-1934.9,4929.1-1936.5z"/>
		<path d="M4933.7-1936.5c0-2.9,2.3-5,5.3-5c3.1,0,5.3,2.1,5.3,5s-2.2,5-5.3,5C4936-1931.6,4933.7-1933.6,4933.7-1936.5z
			 M4941.5-1936.5c0-1.7-1.1-2.7-2.5-2.7s-2.5,1-2.5,2.7c0,1.7,1.1,2.7,2.5,2.7S4941.5-1934.9,4941.5-1936.5z"/>
		<path d="M4956.1-1937.2v5.5h-2.8v-5.1c0-1.6-0.7-2.3-2-2.3c-1.3,0-2.3,0.8-2.3,2.6v4.8h-2.8v-9.7h2.7v1.1c0.8-0.8,1.9-1.3,3.2-1.3
			C4954.4-1941.5,4956.1-1940.2,4956.1-1937.2z"/>
		<path d="M4964.9-1932.2c-0.6,0.4-1.4,0.6-2.3,0.6c-2.3,0-3.6-1.2-3.6-3.5v-4h-1.5v-2.2h1.5v-2.4h2.8v2.4h2.4v2.2h-2.4v3.9
			c0,0.8,0.5,1.3,1.2,1.3c0.4,0,0.8-0.1,1.1-0.4L4964.9-1932.2z"/>
		<path d="M4965.5-1936.5c0-2.9,2.3-5,5.3-5c3.1,0,5.3,2.1,5.3,5s-2.2,5-5.3,5C4967.7-1931.6,4965.5-1933.6,4965.5-1936.5z
			 M4973.3-1936.5c0-1.7-1.1-2.7-2.5-2.7s-2.5,1-2.5,2.7c0,1.7,1.1,2.7,2.5,2.7S4973.3-1934.9,4973.3-1936.5z"/>
		<path d="M4978-1945.1h2.8v13.4h-2.8V-1945.1z"/>
		<path d="M4982.7-1936.5c0-2.9,2.2-5,5.3-5c3.1,0,5.3,2.1,5.3,5s-2.2,5-5.3,5C4984.9-1931.6,4982.7-1933.6,4982.7-1936.5z
			 M4990.5-1936.5c0-1.7-1.1-2.7-2.5-2.7s-2.5,1-2.5,2.7c0,1.7,1.1,2.7,2.5,2.7S4990.5-1934.9,4990.5-1936.5z M4988.8-1945.2h3
			l-3.3,2.6h-2.2L4988.8-1945.2z"/>
		<path d="M5005.2-1941.4v8.1c0,3.6-1.9,5.3-5.4,5.3c-1.8,0-3.6-0.5-4.8-1.3l1.1-2c0.8,0.7,2.2,1.1,3.4,1.1c2,0,2.8-0.9,2.8-2.6
			v-0.4c-0.7,0.8-1.8,1.2-3.1,1.2c-2.7,0-4.8-1.9-4.8-4.7s2.2-4.7,4.8-4.7c1.4,0,2.5,0.5,3.2,1.4v-1.2H5005.2z M5002.4-1936.9
			c0-1.4-1.1-2.4-2.5-2.4s-2.6,1-2.6,2.4c0,1.4,1.1,2.4,2.6,2.4S5002.4-1935.4,5002.4-1936.9z"/>
		<path d="M5007.4-1944.3c0-0.9,0.7-1.6,1.7-1.6c1,0,1.7,0.6,1.7,1.5c0,0.9-0.7,1.6-1.7,1.6
			C5008.1-1942.7,5007.4-1943.4,5007.4-1944.3z M5007.8-1941.4h2.8v9.7h-2.8V-1941.4z"/>
		<path d="M5012.5-1936.5c0-2.9,2.3-5,5.4-5c2,0,3.6,0.9,4.3,2.5l-2.2,1.2c-0.5-0.9-1.3-1.3-2.2-1.3c-1.4,0-2.5,1-2.5,2.7
			s1.1,2.7,2.5,2.7c0.9,0,1.7-0.4,2.2-1.3l2.2,1.2c-0.7,1.5-2.3,2.4-4.3,2.4C5014.7-1931.6,5012.5-1933.6,5012.5-1936.5z"/>
		<path d="M5023-1936.5c0-2.9,2.2-5,5.3-5s5.3,2.1,5.3,5s-2.2,5-5.3,5S5023-1933.6,5023-1936.5z M5030.8-1936.5
			c0-1.7-1.1-2.7-2.5-2.7s-2.5,1-2.5,2.7c0,1.7,1.1,2.7,2.5,2.7S5030.8-1934.9,5030.8-1936.5z"/>
		<path d="M5034.6-1932.6l0.9-2c0.9,0.6,2.2,0.9,3.4,0.9c1.3,0,1.8-0.3,1.8-0.9c0-1.6-5.9,0-5.9-3.8c0-1.8,1.7-3.1,4.5-3.1
			c1.3,0,2.8,0.3,3.7,0.8l-0.9,2c-1-0.5-1.9-0.7-2.8-0.7c-1.3,0-1.8,0.4-1.8,0.9c0,1.7,5.9,0.1,5.9,3.9c0,1.8-1.7,3.1-4.6,3.1
			C5037.1-1931.6,5035.5-1932,5034.6-1932.6z"/>
		<path d="M5047.9-1933.3c0,0.5-0.1,0.8-0.5,1.8l-1,2.6h-1.8l0.8-2.9c-0.6-0.2-1-0.8-1-1.5c0-1,0.8-1.7,1.7-1.7
			C5047.1-1935,5047.9-1934.3,5047.9-1933.3z"/>
		<path d="M5057.7-1941.9h-4v-2.4h11v2.4h-4v10.2h-2.9V-1941.9z"/>
		<path d="M5074.5-1938.2h2.7v5.1c-1.4,1-3.3,1.6-5.1,1.6c-4,0-6.9-2.7-6.9-6.5s2.9-6.5,6.9-6.5c2.2,0,4.1,0.8,5.3,2.2l-1.9,1.7
			c-0.9-1-2-1.4-3.3-1.4c-2.4,0-4.1,1.6-4.1,4c0,2.4,1.7,4,4.1,4c0.8,0,1.5-0.1,2.3-0.5V-1938.2z"/>
		<path d="M5079.9-1944.3h2.9v12.6h-2.9V-1944.3z"/>
		<path d="M5100.4-1941.4v9.7h-2.7v-1.2c-0.7,0.8-1.8,1.3-3,1.3c-2.4,0-4.1-1.4-4.1-4.4v-5.5h2.8v5.1c0,1.6,0.7,2.3,2,2.3
			c1.3,0,2.2-0.8,2.2-2.6v-4.8H5100.4z"/>
	</g>
	<g class="st3">
		<path d="M4918.8-1915.6v5.5h-2.6v-1.2c-0.5,0.9-1.5,1.4-3,1.4c-2.3,0-3.6-1.3-3.6-2.9c0-1.7,1.2-2.9,4.2-2.9h2.2
			c0-1.2-0.7-1.9-2.2-1.9c-1,0-2.1,0.3-2.8,0.9l-1-2c1.1-0.8,2.6-1.2,4.2-1.2C4917-1919.9,4918.8-1918.6,4918.8-1915.6z
			 M4915.9-1913.2v-1h-1.9c-1.3,0-1.7,0.5-1.7,1.1c0,0.7,0.6,1.2,1.6,1.2C4914.8-1911.8,4915.6-1912.3,4915.9-1913.2z"/>
		<path d="M4921.3-1923.5h2.8v13.4h-2.8V-1923.5z"/>
		<path d="M4936.7-1919.8v8.1c0,3.6-1.9,5.3-5.4,5.3c-1.8,0-3.6-0.5-4.8-1.3l1.1-2c0.8,0.7,2.2,1.1,3.4,1.1c2,0,2.8-0.9,2.8-2.6
			v-0.4c-0.7,0.8-1.8,1.2-3.1,1.2c-2.7,0-4.8-1.9-4.8-4.7s2.2-4.7,4.8-4.7c1.3,0,2.5,0.5,3.2,1.4v-1.2H4936.7z M4933.9-1915.3
			c0-1.4-1.1-2.4-2.5-2.4c-1.5,0-2.6,1-2.6,2.4c0,1.4,1.1,2.4,2.6,2.4C4932.9-1912.9,4933.9-1913.8,4933.9-1915.3z"/>
		<path d="M4949.1-1919.8v9.7h-2.7v-1.2c-0.7,0.8-1.8,1.3-3,1.3c-2.4,0-4.1-1.4-4.1-4.4v-5.5h2.8v5.1c0,1.6,0.7,2.3,2,2.3
			c1.3,0,2.2-0.8,2.2-2.6v-4.8H4949.1z"/>
		<path d="M4961.6-1915.6v5.5h-2.8v-5.1c0-1.6-0.7-2.3-2-2.3c-1.4,0-2.3,0.8-2.3,2.6v4.8h-2.8v-9.7h2.7v1.1c0.8-0.8,1.9-1.3,3.2-1.3
			C4959.8-1919.9,4961.6-1918.6,4961.6-1915.6z"/>
		<path d="M4972.7-1915.6v5.5h-2.6v-1.2c-0.5,0.9-1.5,1.4-3,1.4c-2.3,0-3.6-1.3-3.6-2.9c0-1.7,1.2-2.9,4.2-2.9h2.2
			c0-1.2-0.7-1.9-2.2-1.9c-1,0-2.1,0.3-2.8,0.9l-1-2c1.1-0.8,2.6-1.2,4.2-1.2C4971-1919.9,4972.7-1918.6,4972.7-1915.6z
			 M4969.9-1913.2v-1h-1.9c-1.3,0-1.7,0.5-1.7,1.1c0,0.7,0.6,1.2,1.6,1.2C4968.7-1911.8,4969.5-1912.3,4969.9-1913.2z"/>
		<path d="M4990.9-1914.9c0,3-2.1,5-4.8,5c-1.2,0-2.2-0.4-2.9-1.2v4.5h-2.8v-13.2h2.7v1.1c0.7-0.8,1.7-1.3,3-1.3
			C4988.8-1919.9,4990.9-1918,4990.9-1914.9z M4988-1914.9c0-1.7-1.1-2.7-2.5-2.7s-2.5,1-2.5,2.7c0,1.7,1.1,2.7,2.5,2.7
			S4988-1913.3,4988-1914.9z"/>
		<path d="M5001.1-1915.6v5.5h-2.6v-1.2c-0.5,0.9-1.5,1.4-3,1.4c-2.3,0-3.6-1.3-3.6-2.9c0-1.7,1.2-2.9,4.2-2.9h2.2
			c0-1.2-0.7-1.9-2.2-1.9c-1,0-2.1,0.3-2.8,0.9l-1-2c1.1-0.8,2.6-1.2,4.2-1.2C4999.4-1919.9,5001.1-1918.6,5001.1-1915.6z
			 M4998.3-1913.2v-1h-1.9c-1.3,0-1.7,0.5-1.7,1.1c0,0.7,0.6,1.2,1.6,1.2C4997.2-1911.8,4998-1912.3,4998.3-1913.2z"/>
		<path d="M5009.9-1910.6c-0.6,0.4-1.4,0.6-2.3,0.6c-2.3,0-3.6-1.2-3.6-3.5v-4h-1.5v-2.2h1.5v-2.4h2.8v2.4h2.4v2.2h-2.4v3.9
			c0,0.8,0.5,1.3,1.2,1.3c0.4,0,0.8-0.1,1.1-0.4L5009.9-1910.6z"/>
		<path d="M5010.5-1914.9c0-2.9,2.3-5,5.3-5s5.3,2.1,5.3,5s-2.2,5-5.3,5S5010.5-1912,5010.5-1914.9z M5018.3-1914.9
			c0-1.7-1.1-2.7-2.5-2.7s-2.5,1-2.5,2.7c0,1.7,1.1,2.7,2.5,2.7S5018.3-1913.3,5018.3-1914.9z"/>
		<path d="M5023-1923.5h2.8v13.4h-2.8V-1923.5z"/>
		<path d="M5027.7-1914.9c0-2.9,2.2-5,5.3-5s5.3,2.1,5.3,5s-2.2,5-5.3,5S5027.7-1912,5027.7-1914.9z M5035.5-1914.9
			c0-1.7-1.1-2.7-2.5-2.7s-2.5,1-2.5,2.7c0,1.7,1.1,2.7,2.5,2.7S5035.5-1913.3,5035.5-1914.9z"/>
		<path d="M5050.2-1919.8v8.1c0,3.6-1.9,5.3-5.4,5.3c-1.8,0-3.6-0.5-4.8-1.3l1.1-2c0.8,0.7,2.2,1.1,3.4,1.1c2,0,2.8-0.9,2.8-2.6
			v-0.4c-0.7,0.8-1.8,1.2-3.1,1.2c-2.7,0-4.8-1.9-4.8-4.7s2.2-4.7,4.8-4.7c1.4,0,2.5,0.5,3.2,1.4v-1.2H5050.2z M5047.4-1915.3
			c0-1.4-1.1-2.4-2.5-2.4s-2.6,1-2.6,2.4c0,1.4,1.1,2.4,2.6,2.4S5047.4-1913.8,5047.4-1915.3z"/>
		<path d="M5055-1923.6h3l-3.3,2.6h-2.2L5055-1923.6z M5052.8-1919.8h2.8v9.7h-2.8V-1919.8z"/>
		<path d="M5066.8-1915.6v5.5h-2.6v-1.2c-0.5,0.9-1.5,1.4-3,1.4c-2.3,0-3.6-1.3-3.6-2.9c0-1.7,1.2-2.9,4.2-2.9h2.2
			c0-1.2-0.7-1.9-2.2-1.9c-1,0-2.1,0.3-2.8,0.9l-1-2c1.1-0.8,2.6-1.2,4.2-1.2C5065.1-1919.9,5066.8-1918.6,5066.8-1915.6z
			 M5064-1913.2v-1h-1.9c-1.3,0-1.7,0.5-1.7,1.1c0,0.7,0.6,1.2,1.6,1.2C5062.8-1911.8,5063.7-1912.3,5064-1913.2z"/>
		<path d="M5083-1915.6v5.5h-2.6v-1.2c-0.5,0.9-1.5,1.4-3,1.4c-2.3,0-3.6-1.3-3.6-2.9c0-1.7,1.2-2.9,4.2-2.9h2.2
			c0-1.2-0.7-1.9-2.2-1.9c-1,0-2.1,0.3-2.8,0.9l-1-2c1.1-0.8,2.6-1.2,4.2-1.2C5081.3-1919.9,5083-1918.6,5083-1915.6z
			 M5080.2-1913.2v-1h-1.9c-1.3,0-1.7,0.5-1.7,1.1c0,0.7,0.6,1.2,1.6,1.2C5079-1911.8,5079.9-1912.3,5080.2-1913.2z"/>
		<path d="M5095.6-1919.8v8.1c0,3.6-1.9,5.3-5.4,5.3c-1.8,0-3.6-0.5-4.8-1.3l1.1-2c0.8,0.7,2.2,1.1,3.4,1.1c2,0,2.8-0.9,2.8-2.6
			v-0.4c-0.7,0.8-1.8,1.2-3.1,1.2c-2.7,0-4.8-1.9-4.8-4.7s2.2-4.7,4.8-4.7c1.3,0,2.5,0.5,3.2,1.4v-1.2H5095.6z M5092.8-1915.3
			c0-1.4-1.1-2.4-2.5-2.4c-1.5,0-2.6,1-2.6,2.4c0,1.4,1.1,2.4,2.6,2.4C5091.8-1912.9,5092.8-1913.8,5092.8-1915.3z"/>
		<path d="M5108-1919.8v9.7h-2.7v-1.2c-0.7,0.8-1.8,1.3-3,1.3c-2.4,0-4.1-1.4-4.1-4.4v-5.5h2.8v5.1c0,1.6,0.7,2.3,2,2.3
			c1.3,0,2.2-0.8,2.2-2.6v-4.8H5108z"/>
		<path d="M5120.5-1923.5v13.4h-2.7v-1.1c-0.7,0.8-1.7,1.3-3,1.3c-2.7,0-4.8-1.9-4.8-5s2.1-5,4.8-5c1.2,0,2.2,0.4,2.9,1.2v-4.7
			H5120.5z M5117.7-1914.9c0-1.7-1.1-2.7-2.5-2.7c-1.4,0-2.5,1-2.5,2.7c0,1.7,1.1,2.7,2.5,2.7
			C5116.6-1912.3,5117.7-1913.3,5117.7-1914.9z"/>
		<path d="M5131.6-1915.6v5.5h-2.6v-1.2c-0.5,0.9-1.5,1.4-3,1.4c-2.3,0-3.6-1.3-3.6-2.9c0-1.7,1.2-2.9,4.2-2.9h2.2
			c0-1.2-0.7-1.9-2.2-1.9c-1,0-2.1,0.3-2.8,0.9l-1-2c1.1-0.8,2.6-1.2,4.2-1.2C5129.9-1919.9,5131.6-1918.6,5131.6-1915.6z
			 M5128.8-1913.2v-1h-1.9c-1.3,0-1.7,0.5-1.7,1.1c0,0.7,0.6,1.2,1.6,1.2C5127.7-1911.8,5128.5-1912.3,5128.8-1913.2z"/>
	</g>
	<g class="st3">
		<path d="M4909.5-1893.3c0-2.9,2.2-5,5.4-5c2,0,3.6,0.9,4.3,2.5l-2.2,1.2c-0.5-0.9-1.3-1.3-2.2-1.3c-1.4,0-2.5,1-2.5,2.7
			s1.1,2.7,2.5,2.7c0.9,0,1.7-0.4,2.2-1.3l2.2,1.2c-0.7,1.5-2.3,2.4-4.3,2.4C4911.7-1888.4,4909.5-1890.4,4909.5-1893.3z"/>
		<path d="M4920-1893.3c0-2.9,2.2-5,5.3-5c3.1,0,5.3,2.1,5.3,5s-2.2,5-5.3,5C4922.2-1888.4,4920-1890.4,4920-1893.3z M4927.8-1893.3
			c0-1.7-1.1-2.7-2.5-2.7s-2.5,1-2.5,2.7c0,1.7,1.1,2.7,2.5,2.7S4927.8-1891.7,4927.8-1893.3z"/>
		<path d="M4942.4-1894v5.5h-2.8v-5.1c0-1.6-0.7-2.3-2-2.3c-1.3,0-2.3,0.8-2.3,2.6v4.8h-2.8v-9.7h2.7v1.1c0.8-0.8,1.9-1.3,3.2-1.3
			C4940.7-1898.3,4942.4-1897,4942.4-1894z"/>
		<path d="M4953.1-1898.4v0.4h2.5v2.2h-2.4v7.3h-2.8v-7.3h-1.5v-2.2h1.5v-0.4c0-2.2,1.3-3.6,3.7-3.6c0.8,0,1.6,0.2,2.1,0.5l-0.7,2
			c-0.3-0.2-0.7-0.3-1.1-0.3C4953.5-1899.8,4953.1-1899.3,4953.1-1898.4z M4958.1-1901.1c0-0.9,0.7-1.6,1.7-1.6s1.7,0.6,1.7,1.5
			c0,0.9-0.7,1.6-1.7,1.6S4958.1-1900.2,4958.1-1901.1z M4958.4-1898.2h2.8v9.7h-2.8V-1898.2z"/>
		<path d="M4973.3-1892.6h-7.3c0.3,1.2,1.3,1.9,2.8,1.9c1,0,1.8-0.3,2.4-0.9l1.5,1.6c-0.9,1-2.2,1.6-4,1.6c-3.3,0-5.5-2.1-5.5-5
			c0-2.9,2.2-5,5.2-5c2.8,0,5,1.9,5,5C4973.3-1893.1,4973.3-1892.8,4973.3-1892.6z M4965.9-1894.2h4.8c-0.2-1.2-1.1-2-2.4-2
			C4967-1896.2,4966.1-1895.4,4965.9-1894.2z"/>
		<path d="M4985.8-1893.3c0,3-2.1,5-4.8,5c-1.3,0-2.3-0.4-3-1.3v1.1h-2.7v-13.4h2.8v4.7c0.7-0.8,1.7-1.2,2.9-1.2
			C4983.6-1898.3,4985.8-1896.4,4985.8-1893.3z M4982.9-1893.3c0-1.7-1.1-2.7-2.5-2.7s-2.5,1-2.5,2.7c0,1.7,1.1,2.7,2.5,2.7
			S4982.9-1891.7,4982.9-1893.3z"/>
		<path d="M4993.6-1898.3v2.6c-0.2,0-0.4,0-0.6,0c-1.5,0-2.6,0.8-2.6,2.7v4.6h-2.8v-9.7h2.7v1.3
			C4991-1897.8,4992.1-1898.3,4993.6-1898.3z"/>
		<path d="M5004.6-1892.6h-7.3c0.3,1.2,1.3,1.9,2.8,1.9c1,0,1.8-0.3,2.4-0.9l1.5,1.6c-0.9,1-2.3,1.6-4,1.6c-3.3,0-5.5-2.1-5.5-5
			c0-2.9,2.2-5,5.2-5c2.8,0,5,1.9,5,5C5004.7-1893.1,5004.7-1892.8,5004.6-1892.6z M4997.3-1894.2h4.8c-0.2-1.2-1.1-2-2.4-2
			C4998.4-1896.2,4997.5-1895.4,4997.3-1894.2z"/>
	</g>
	<g class="st3">
		<path d="M4962.9-1631.6h2.9v12.6h-2.9V-1631.6z"/>
		<path d="M4978.5-1624.6v5.5h-2.8v-5.1c0-1.6-0.7-2.3-2-2.3c-1.4,0-2.3,0.8-2.3,2.6v4.8h-2.8v-9.7h2.7v1.1c0.8-0.8,1.9-1.3,3.2-1.3
			C4976.8-1628.8,4978.5-1627.5,4978.5-1624.6z"/>
		<path d="M4987.3-1619.5c-0.6,0.4-1.4,0.6-2.3,0.6c-2.3,0-3.6-1.2-3.6-3.5v-4h-1.5v-2.2h1.5v-2.4h2.8v2.4h2.4v2.2h-2.4v3.9
			c0,0.8,0.5,1.3,1.2,1.3c0.4,0,0.8-0.1,1.1-0.4L4987.3-1619.5z"/>
		<path d="M4998-1623.1h-7.3c0.3,1.2,1.3,1.9,2.8,1.9c1,0,1.8-0.3,2.4-0.9l1.5,1.6c-0.9,1-2.3,1.6-4,1.6c-3.3,0-5.5-2.1-5.5-5
			c0-2.9,2.2-5,5.2-5c2.8,0,5,1.9,5,5C4998-1623.6,4998-1623.3,4998-1623.1z M4990.6-1624.7h4.8c-0.2-1.2-1.1-2-2.4-2
			C4991.7-1626.7,4990.8-1625.9,4990.6-1624.7z"/>
		<path d="M5009.8-1624.6v5.5h-2.8v-5.1c0-1.6-0.7-2.3-2-2.3c-1.3,0-2.3,0.8-2.3,2.6v4.8h-2.8v-9.7h2.7v1.1c0.8-0.8,1.9-1.3,3.2-1.3
			C5008.1-1628.8,5009.8-1627.5,5009.8-1624.6z"/>
		<path d="M5011.7-1623.9c0-2.9,2.3-5,5.4-5c2,0,3.6,0.9,4.3,2.5l-2.2,1.2c-0.5-0.9-1.3-1.3-2.2-1.3c-1.4,0-2.5,1-2.5,2.7
			s1.1,2.7,2.5,2.7c0.9,0,1.7-0.4,2.2-1.3l2.2,1.2c-0.7,1.5-2.3,2.4-4.3,2.4C5014-1618.9,5011.7-1620.9,5011.7-1623.9z"/>
		<path d="M5022.8-1631.6c0-0.9,0.7-1.6,1.7-1.6c1,0,1.7,0.6,1.7,1.5c0,0.9-0.7,1.6-1.7,1.6
			C5023.5-1630.1,5022.8-1630.7,5022.8-1631.6z M5023.1-1628.7h2.8v9.7h-2.8V-1628.7z"/>
		<path d="M5027.8-1623.9c0-2.9,2.3-5,5.3-5s5.3,2.1,5.3,5s-2.2,5-5.3,5S5027.8-1620.9,5027.8-1623.9z M5035.6-1623.9
			c0-1.7-1.1-2.7-2.5-2.7s-2.5,1-2.5,2.7c0,1.7,1.1,2.7,2.5,2.7S5035.6-1622.2,5035.6-1623.9z M5033.9-1632.5h3l-3.3,2.6h-2.2
			L5033.9-1632.5z"/>
		<path d="M5050.2-1624.6v5.5h-2.8v-5.1c0-1.6-0.7-2.3-2-2.3c-1.3,0-2.3,0.8-2.3,2.6v4.8h-2.8v-9.7h2.7v1.1c0.8-0.8,1.9-1.3,3.2-1.3
			C5048.5-1628.8,5050.2-1627.5,5050.2-1624.6z"/>
		<path d="M5067.7-1632.4v13.4h-2.7v-1.1c-0.7,0.8-1.7,1.3-3,1.3c-2.7,0-4.8-1.9-4.8-5s2.1-5,4.8-5c1.2,0,2.2,0.4,2.9,1.2v-4.7
			H5067.7z M5064.9-1623.9c0-1.7-1.1-2.7-2.5-2.7c-1.4,0-2.5,1-2.5,2.7c0,1.7,1.1,2.7,2.5,2.7
			C5063.9-1621.2,5064.9-1622.2,5064.9-1623.9z"/>
		<path d="M5079.7-1623.1h-7.3c0.3,1.2,1.3,1.9,2.8,1.9c1,0,1.8-0.3,2.4-0.9l1.5,1.6c-0.9,1-2.3,1.6-4,1.6c-3.3,0-5.5-2.1-5.5-5
			c0-2.9,2.2-5,5.2-5c2.8,0,5,1.9,5,5C5079.8-1623.6,5079.7-1623.3,5079.7-1623.1z M5072.4-1624.7h4.8c-0.2-1.2-1.1-2-2.4-2
			C5073.5-1626.7,5072.6-1625.9,5072.4-1624.7z"/>
	</g>
	<g class="st3">
		<path d="M4989.3-1602.3c0,3-2.1,5-4.8,5c-1.2,0-2.2-0.4-2.9-1.2v4.5h-2.8v-13.2h2.7v1.1c0.7-0.8,1.7-1.3,3-1.3
			C4987.1-1607.2,4989.3-1605.3,4989.3-1602.3z M4986.4-1602.3c0-1.7-1.1-2.7-2.5-2.7c-1.4,0-2.5,1-2.5,2.7c0,1.7,1.1,2.7,2.5,2.7
			C4985.3-1599.6,4986.4-1600.6,4986.4-1602.3z"/>
		<path d="M4997.1-1607.2v2.6c-0.2,0-0.4,0-0.6,0c-1.5,0-2.6,0.8-2.6,2.7v4.6h-2.8v-9.7h2.7v1.3
			C4994.5-1606.8,4995.6-1607.2,4997.1-1607.2z"/>
		<path d="M4998-1602.3c0-2.9,2.3-5,5.3-5s5.3,2.1,5.3,5s-2.2,5-5.3,5S4998-1599.3,4998-1602.3z M5005.8-1602.3
			c0-1.7-1.1-2.7-2.5-2.7s-2.5,1-2.5,2.7c0,1.7,1.1,2.7,2.5,2.7S5005.8-1600.6,5005.8-1602.3z"/>
		<path d="M5016.8-1597.9c-0.6,0.4-1.4,0.6-2.3,0.6c-2.3,0-3.6-1.2-3.6-3.5v-4h-1.5v-2.2h1.5v-2.4h2.8v2.4h2.4v2.2h-2.4v3.9
			c0,0.8,0.5,1.3,1.2,1.3c0.4,0,0.8-0.1,1.1-0.4L5016.8-1597.9z"/>
		<path d="M5027.5-1601.5h-7.3c0.3,1.2,1.3,1.9,2.8,1.9c1,0,1.8-0.3,2.4-0.9l1.5,1.6c-0.9,1-2.2,1.6-4,1.6c-3.3,0-5.5-2.1-5.5-5
			c0-2.9,2.2-5,5.2-5c2.8,0,5,1.9,5,5C5027.5-1602,5027.5-1601.7,5027.5-1601.5z M5020.1-1603.1h4.8c-0.2-1.2-1.1-2-2.4-2
			C5021.2-1605.1,5020.3-1604.3,5020.1-1603.1z"/>
		<path d="M5028.5-1598.3l0.9-2c0.9,0.6,2.2,0.9,3.4,0.9c1.3,0,1.8-0.3,1.8-0.9c0-1.6-5.9,0-5.9-3.8c0-1.8,1.7-3.1,4.5-3.1
			c1.3,0,2.8,0.3,3.7,0.8l-0.9,2c-1-0.5-1.9-0.7-2.8-0.7c-1.3,0-1.8,0.4-1.8,0.9c0,1.7,5.9,0.1,5.9,3.9c0,1.8-1.7,3.1-4.6,3.1
			C5031-1597.3,5029.4-1597.7,5028.5-1598.3z"/>
		<path d="M5045.2-1597.9c-0.6,0.4-1.4,0.6-2.3,0.6c-2.3,0-3.6-1.2-3.6-3.5v-4h-1.5v-2.2h1.5v-2.4h2.8v2.4h2.4v2.2h-2.4v3.9
			c0,0.8,0.5,1.3,1.2,1.3c0.4,0,0.8-0.1,1.1-0.4L5045.2-1597.9z"/>
		<path d="M5055.3-1602.9v5.5h-2.6v-1.2c-0.5,0.9-1.5,1.4-3,1.4c-2.3,0-3.6-1.3-3.6-2.9c0-1.7,1.2-2.9,4.2-2.9h2.2
			c0-1.2-0.7-1.9-2.2-1.9c-1,0-2.1,0.3-2.8,0.9l-1-2c1.1-0.8,2.6-1.2,4.2-1.2C5053.6-1607.2,5055.3-1605.9,5055.3-1602.9z
			 M5052.5-1600.5v-1h-1.9c-1.3,0-1.7,0.5-1.7,1.1c0,0.7,0.6,1.2,1.6,1.2C5051.4-1599.2,5052.2-1599.6,5052.5-1600.5z"/>
		<path d="M5063.9-1607.2v2.6c-0.2,0-0.4,0-0.6,0c-1.5,0-2.6,0.8-2.6,2.7v4.6h-2.8v-9.7h2.7v1.3
			C5061.2-1606.8,5062.4-1607.2,5063.9-1607.2z"/>
	</g>
	<g class="st3">
		<path d="M4634.5-1920.9l0-7.6l-3.7,6.2h-1.3l-3.7-6.1v7.4h-2.7v-12.6h2.4l4.7,7.8l4.6-7.8h2.4l0,12.6H4634.5z"/>
		<path d="M4639.3-1925.7c0-2.9,2.3-5,5.3-5s5.3,2.1,5.3,5s-2.2,5-5.3,5S4639.3-1922.8,4639.3-1925.7z M4647.1-1925.7
			c0-1.7-1.1-2.7-2.5-2.7s-2.5,1-2.5,2.7c0,1.7,1.1,2.7,2.5,2.7S4647.1-1924.1,4647.1-1925.7z"/>
		<path d="M4658-1921.4c-0.6,0.4-1.4,0.6-2.3,0.6c-2.3,0-3.6-1.2-3.6-3.5v-4h-1.5v-2.2h1.5v-2.4h2.8v2.4h2.4v2.2h-2.4v3.9
			c0,0.8,0.5,1.3,1.2,1.3c0.4,0,0.8-0.1,1.1-0.4L4658-1921.4z"/>
		<path d="M4659.3-1933.5c0-0.9,0.7-1.6,1.7-1.6s1.7,0.6,1.7,1.5c0,0.9-0.7,1.6-1.7,1.6S4659.3-1932.6,4659.3-1933.5z
			 M4659.6-1930.6h2.8v9.7h-2.8V-1930.6z"/>
		<path d="M4674.6-1930.6l-4.1,9.7h-2.9l-4.1-9.7h2.9l2.7,6.6l2.8-6.6H4674.6z"/>
		<path d="M4674.8-1925.7c0-2.9,2.3-5,5.3-5s5.3,2.1,5.3,5s-2.2,5-5.3,5S4674.8-1922.8,4674.8-1925.7z M4682.6-1925.7
			c0-1.7-1.1-2.7-2.5-2.7s-2.5,1-2.5,2.7c0,1.7,1.1,2.7,2.5,2.7S4682.6-1924.1,4682.6-1925.7z"/>
		<path d="M4686.4-1921.8l0.9-2c0.9,0.6,2.2,0.9,3.4,0.9c1.3,0,1.8-0.3,1.8-0.9c0-1.6-5.9,0-5.9-3.8c0-1.8,1.7-3.1,4.5-3.1
			c1.3,0,2.8,0.3,3.7,0.8l-0.9,2c-1-0.5-1.9-0.7-2.8-0.7c-1.3,0-1.8,0.4-1.8,0.9c0,1.7,5.9,0.1,5.9,3.9c0,1.8-1.7,3.1-4.6,3.1
			C4688.9-1920.8,4687.3-1921.2,4686.4-1921.8z"/>
		<path d="M4708-1930.7v2.6c-0.2,0-0.4,0-0.6,0c-1.5,0-2.6,0.8-2.6,2.7v4.6h-2.8v-9.7h2.7v1.3
			C4705.3-1930.2,4706.5-1930.7,4708-1930.7z"/>
		<path d="M4719-1925h-7.3c0.3,1.2,1.3,1.9,2.8,1.9c1,0,1.8-0.3,2.4-0.9l1.5,1.6c-0.9,1-2.3,1.6-4,1.6c-3.3,0-5.5-2.1-5.5-5
			c0-2.9,2.2-5,5.2-5c2.8,0,5,1.9,5,5C4719-1925.5,4719-1925.2,4719-1925z M4711.6-1926.6h4.8c-0.2-1.2-1.1-2-2.4-2
			C4712.7-1928.6,4711.8-1927.8,4711.6-1926.6z"/>
		<path d="M4720.9-1934.3h2.8v13.4h-2.8V-1934.3z"/>
		<path d="M4726-1933.5c0-0.9,0.7-1.6,1.7-1.6s1.7,0.6,1.7,1.5c0,0.9-0.7,1.6-1.7,1.6S4726-1932.6,4726-1933.5z M4726.3-1930.6h2.8
			v9.7h-2.8V-1930.6z"/>
		<path d="M4741.7-1930.6v8.1c0,3.6-1.9,5.3-5.4,5.3c-1.8,0-3.6-0.5-4.8-1.3l1.1-2c0.8,0.7,2.2,1.1,3.4,1.1c2,0,2.8-0.9,2.8-2.6
			v-0.4c-0.7,0.8-1.8,1.2-3.1,1.2c-2.7,0-4.8-1.9-4.8-4.7s2.2-4.7,4.8-4.7c1.4,0,2.5,0.5,3.2,1.4v-1.2H4741.7z M4739-1926.1
			c0-1.4-1.1-2.4-2.5-2.4c-1.5,0-2.6,1-2.6,2.4c0,1.4,1.1,2.4,2.6,2.4C4737.9-1923.7,4739-1924.6,4739-1926.1z"/>
		<path d="M4744-1933.5c0-0.9,0.7-1.6,1.7-1.6c1,0,1.7,0.6,1.7,1.5c0,0.9-0.7,1.6-1.7,1.6C4744.7-1931.9,4744-1932.6,4744-1933.5z
			 M4744.4-1930.6h2.8v9.7h-2.8V-1930.6z"/>
		<path d="M4749-1925.7c0-2.9,2.3-5,5.3-5s5.3,2.1,5.3,5s-2.2,5-5.3,5S4749-1922.8,4749-1925.7z M4756.8-1925.7
			c0-1.7-1.1-2.7-2.5-2.7s-2.5,1-2.5,2.7c0,1.7,1.1,2.7,2.5,2.7S4756.8-1924.1,4756.8-1925.7z"/>
		<path d="M4760.6-1921.8l0.9-2c0.9,0.6,2.2,0.9,3.4,0.9c1.3,0,1.8-0.3,1.8-0.9c0-1.6-5.9,0-5.9-3.8c0-1.8,1.7-3.1,4.5-3.1
			c1.3,0,2.8,0.3,3.7,0.8l-0.9,2c-1-0.5-1.9-0.7-2.8-0.7c-1.3,0-1.8,0.4-1.8,0.9c0,1.7,5.9,0.1,5.9,3.9c0,1.8-1.7,3.1-4.6,3.1
			C4763.2-1920.8,4761.5-1921.2,4760.6-1921.8z"/>
		<path d="M4770.4-1925.7c0-2.9,2.3-5,5.3-5s5.3,2.1,5.3,5s-2.2,5-5.3,5S4770.4-1922.8,4770.4-1925.7z M4778.2-1925.7
			c0-1.7-1.1-2.7-2.5-2.7s-2.5,1-2.5,2.7c0,1.7,1.1,2.7,2.5,2.7S4778.2-1924.1,4778.2-1925.7z"/>
		<path d="M4782-1921.8l0.9-2c0.9,0.6,2.2,0.9,3.4,0.9c1.3,0,1.8-0.3,1.8-0.9c0-1.6-5.9,0-5.9-3.8c0-1.8,1.7-3.1,4.5-3.1
			c1.3,0,2.8,0.3,3.7,0.8l-0.9,2c-1-0.5-1.9-0.7-2.8-0.7c-1.3,0-1.8,0.4-1.8,0.9c0,1.7,5.9,0.1,5.9,3.9c0,1.8-1.7,3.1-4.6,3.1
			C4784.5-1920.8,4782.9-1921.2,4782-1921.8z"/>
	</g>
	<g class="st3">
		<path d="M4617.5-1619.4h-4v-2.4h11v2.4h-4v10.2h-2.9V-1619.4z"/>
		<path d="M4631.6-1619v2.6c-0.2,0-0.4,0-0.6,0c-1.5,0-2.6,0.8-2.6,2.7v4.6h-2.8v-9.7h2.7v1.3C4629-1618.5,4630.2-1619,4631.6-1619z
			"/>
		<path d="M4641.8-1614.7v5.5h-2.6v-1.2c-0.5,0.9-1.5,1.4-3,1.4c-2.3,0-3.6-1.3-3.6-2.9c0-1.7,1.2-2.9,4.2-2.9h2.2
			c0-1.2-0.7-1.9-2.2-1.9c-1,0-2.1,0.3-2.8,0.9l-1-2c1.1-0.8,2.6-1.2,4.2-1.2C4640.1-1619,4641.8-1617.6,4641.8-1614.7z
			 M4639-1612.2v-1h-1.9c-1.3,0-1.7,0.5-1.7,1.1c0,0.7,0.6,1.2,1.6,1.2C4637.9-1610.9,4638.7-1611.4,4639-1612.2z"/>
		<path d="M4643.4-1610.1l0.9-2c0.9,0.6,2.2,0.9,3.4,0.9c1.3,0,1.8-0.3,1.8-0.9c0-1.6-5.9,0-5.9-3.8c0-1.8,1.7-3.1,4.5-3.1
			c1.3,0,2.8,0.3,3.7,0.8l-0.9,2c-1-0.5-1.9-0.7-2.8-0.7c-1.3,0-1.8,0.4-1.8,0.9c0,1.7,5.9,0.1,5.9,3.9c0,1.8-1.7,3.1-4.6,3.1
			C4646-1609,4644.3-1609.5,4643.4-1610.1z"/>
		<path d="M4660.2-1609.6c-0.6,0.4-1.4,0.6-2.3,0.6c-2.3,0-3.6-1.2-3.6-3.5v-4h-1.5v-2.2h1.5v-2.4h2.8v2.4h2.4v2.2h-2.4v3.9
			c0,0.8,0.5,1.3,1.2,1.3c0.4,0,0.8-0.1,1.1-0.4L4660.2-1609.6z"/>
		<path d="M4660.7-1614c0-2.9,2.3-5,5.3-5s5.3,2.1,5.3,5s-2.2,5-5.3,5S4660.7-1611.1,4660.7-1614z M4668.5-1614
			c0-1.7-1.1-2.7-2.5-2.7s-2.5,1-2.5,2.7c0,1.7,1.1,2.7,2.5,2.7S4668.5-1612.3,4668.5-1614z"/>
		<path d="M4679.3-1619v2.6c-0.2,0-0.4,0-0.6,0c-1.5,0-2.6,0.8-2.6,2.7v4.6h-2.8v-9.7h2.7v1.3
			C4676.6-1618.5,4677.8-1619,4679.3-1619z"/>
		<path d="M4690.8-1614.7v5.5h-2.8v-5.1c0-1.6-0.7-2.3-2-2.3c-1.4,0-2.3,0.8-2.3,2.6v4.8h-2.8v-9.7h2.7v1.1c0.8-0.8,1.9-1.3,3.2-1.3
			C4689.1-1619,4690.8-1617.7,4690.8-1614.7z"/>
		<path d="M4692.8-1614c0-2.9,2.3-5,5.3-5s5.3,2.1,5.3,5s-2.2,5-5.3,5S4692.8-1611.1,4692.8-1614z M4700.6-1614
			c0-1.7-1.1-2.7-2.5-2.7s-2.5,1-2.5,2.7c0,1.7,1.1,2.7,2.5,2.7S4700.6-1612.3,4700.6-1614z"/>
		<path d="M4704.3-1610.1l0.9-2c0.9,0.6,2.2,0.9,3.4,0.9c1.3,0,1.8-0.3,1.8-0.9c0-1.6-5.9,0-5.9-3.8c0-1.8,1.7-3.1,4.5-3.1
			c1.3,0,2.8,0.3,3.7,0.8l-0.9,2c-1-0.5-1.9-0.7-2.8-0.7c-1.3,0-1.8,0.4-1.8,0.9c0,1.7,5.9,0.1,5.9,3.9c0,1.8-1.7,3.1-4.6,3.1
			C4706.9-1609,4705.2-1609.5,4704.3-1610.1z"/>
		<path d="M4736.3-1614.7v5.5h-2.8v-5.1c0-1.6-0.7-2.3-1.8-2.3c-1.3,0-2.1,0.8-2.1,2.5v4.9h-2.8v-5.1c0-1.6-0.7-2.3-1.8-2.3
			c-1.2,0-2.1,0.8-2.1,2.5v4.9h-2.8v-9.7h2.7v1.1c0.7-0.8,1.8-1.3,3-1.3c1.4,0,2.5,0.5,3.2,1.6c0.8-1,2-1.6,3.5-1.6
			C4734.6-1619,4736.3-1617.7,4736.3-1614.7z"/>
		<path d="M4748.3-1613.2h-7.3c0.3,1.2,1.3,1.9,2.8,1.9c1,0,1.8-0.3,2.4-0.9l1.5,1.6c-0.9,1-2.3,1.6-4,1.6c-3.3,0-5.5-2.1-5.5-5
			c0-2.9,2.2-5,5.2-5c2.8,0,5,1.9,5,5C4748.4-1613.8,4748.4-1613.5,4748.3-1613.2z M4741-1614.9h4.8c-0.2-1.2-1.1-2-2.4-2
			C4742.1-1616.9,4741.2-1616.1,4741-1614.9z"/>
		<path d="M4760.2-1614.7v5.5h-2.8v-5.1c0-1.6-0.7-2.3-2-2.3c-1.4,0-2.3,0.8-2.3,2.6v4.8h-2.8v-9.7h2.7v1.1c0.8-0.8,1.9-1.3,3.2-1.3
			C4758.4-1619,4760.2-1617.7,4760.2-1614.7z"/>
		<path d="M4769-1609.6c-0.6,0.4-1.4,0.6-2.3,0.6c-2.3,0-3.6-1.2-3.6-3.5v-4h-1.5v-2.2h1.5v-2.4h2.8v2.4h2.4v2.2h-2.4v3.9
			c0,0.8,0.5,1.3,1.2,1.3c0.4,0,0.8-0.1,1.1-0.4L4769-1609.6z"/>
		<path d="M4779.1-1614.7v5.5h-2.6v-1.2c-0.5,0.9-1.5,1.4-3,1.4c-2.3,0-3.6-1.3-3.6-2.9c0-1.7,1.2-2.9,4.2-2.9h2.2
			c0-1.2-0.7-1.9-2.2-1.9c-1,0-2.1,0.3-2.8,0.9l-1-2c1.1-0.8,2.6-1.2,4.2-1.2C4777.4-1619,4779.1-1617.6,4779.1-1614.7z
			 M4776.3-1612.2v-1h-1.9c-1.3,0-1.7,0.5-1.7,1.1c0,0.7,0.6,1.2,1.6,1.2C4775.2-1610.9,4776-1611.4,4776.3-1612.2z"/>
		<path d="M4781.6-1622.5h2.8v13.4h-2.8V-1622.5z"/>
		<path d="M4796.5-1613.2h-7.3c0.3,1.2,1.3,1.9,2.8,1.9c1,0,1.8-0.3,2.4-0.9l1.5,1.6c-0.9,1-2.3,1.6-4,1.6c-3.3,0-5.5-2.1-5.5-5
			c0-2.9,2.2-5,5.2-5c2.8,0,5,1.9,5,5C4796.5-1613.8,4796.5-1613.5,4796.5-1613.2z M4789.1-1614.9h4.8c-0.2-1.2-1.1-2-2.4-2
			C4790.2-1616.9,4789.3-1616.1,4789.1-1614.9z"/>
		<path d="M4797.5-1610.1l0.9-2c0.9,0.6,2.2,0.9,3.4,0.9c1.3,0,1.8-0.3,1.8-0.9c0-1.6-5.9,0-5.9-3.8c0-1.8,1.7-3.1,4.5-3.1
			c1.3,0,2.8,0.3,3.7,0.8l-0.9,2c-1-0.5-1.9-0.7-2.8-0.7c-1.3,0-1.8,0.4-1.8,0.9c0,1.7,5.9,0.1,5.9,3.9c0,1.8-1.7,3.1-4.6,3.1
			C4800-1609,4798.4-1609.5,4797.5-1610.1z"/>
	</g>
	<g class="st3">
		<path class="st4" d="M4774.8-1808.9h3.9v16.8h-3.9V-1808.9z"/>
		<path class="st4" d="M4795.6-1799.5v7.4h-3.7v-6.8c0-2.1-1-3-2.6-3c-1.8,0-3.1,1.1-3.1,3.5v6.4h-3.7v-12.9h3.6v1.5
			c1-1.1,2.5-1.7,4.3-1.7C4793.3-1805.2,4795.6-1803.4,4795.6-1799.5z"/>
		<path class="st4" d="M4810.5-1799.5v7.4h-3.5v-1.6c-0.7,1.2-2,1.8-3.9,1.8c-3,0-4.8-1.7-4.8-3.9c0-2.3,1.6-3.9,5.5-3.9h3
			c0-1.6-1-2.5-3-2.5c-1.4,0-2.8,0.5-3.7,1.2l-1.3-2.6c1.4-1,3.5-1.6,5.6-1.6C4808.2-1805.2,4810.5-1803.4,4810.5-1799.5z
			 M4806.7-1796.2v-1.3h-2.6c-1.8,0-2.3,0.6-2.3,1.5c0,0.9,0.8,1.6,2.1,1.6C4805.2-1794.4,4806.3-1795,4806.7-1796.2z"/>
		<path class="st4" d="M4827.9-1798.5c0,4.1-2.8,6.6-6.4,6.6c-1.6,0-2.9-0.5-3.9-1.6v6h-3.7v-17.6h3.6v1.5c0.9-1.1,2.3-1.7,4.1-1.7
			C4825.1-1805.2,4827.9-1802.6,4827.9-1798.5z M4824.1-1798.5c0-2.2-1.4-3.6-3.3-3.6s-3.3,1.3-3.3,3.6c0,2.2,1.4,3.6,3.3,3.6
			S4824.1-1796.3,4824.1-1798.5z"/>
		<path class="st4" d="M4843-1797.5h-9.8c0.4,1.6,1.7,2.6,3.7,2.6c1.4,0,2.4-0.4,3.2-1.2l2,2.2c-1.2,1.4-3,2.1-5.3,2.1
			c-4.5,0-7.4-2.8-7.4-6.6c0-3.9,3-6.6,6.9-6.6c3.8,0,6.7,2.5,6.7,6.7C4843-1798.2,4843-1797.8,4843-1797.5z M4833.2-1799.7h6.4
			c-0.3-1.6-1.5-2.7-3.2-2.7C4834.6-1802.4,4833.4-1801.3,4833.2-1799.7z"/>
		<path class="st4" d="M4853.9-1792.7c-0.8,0.6-1.9,0.8-3,0.8c-3,0-4.8-1.6-4.8-4.6v-5.3h-2v-2.9h2v-3.1h3.7v3.1h3.2v2.9h-3.2v5.3
			c0,1.1,0.6,1.7,1.6,1.7c0.6,0,1.1-0.2,1.5-0.5L4853.9-1792.7z"/>
		<path class="st4" d="M4868.1-1797.5h-9.8c0.4,1.6,1.7,2.6,3.7,2.6c1.4,0,2.4-0.4,3.2-1.2l2,2.2c-1.2,1.4-3,2.1-5.3,2.1
			c-4.5,0-7.4-2.8-7.4-6.6c0-3.9,3-6.6,6.9-6.6c3.8,0,6.7,2.5,6.7,6.7C4868.2-1798.2,4868.2-1797.8,4868.1-1797.5z M4858.3-1799.7
			h6.4c-0.3-1.6-1.5-2.7-3.2-2.7C4859.8-1802.4,4858.6-1801.3,4858.3-1799.7z"/>
		<path class="st4" d="M4883.9-1799.5v7.4h-3.7v-6.8c0-2.1-1-3-2.6-3c-1.8,0-3.1,1.1-3.1,3.5v6.4h-3.7v-12.9h3.6v1.5
			c1-1.1,2.5-1.7,4.3-1.7C4881.6-1805.2,4883.9-1803.4,4883.9-1799.5z"/>
		<path class="st4" d="M4886.5-1798.5c0-3.9,3-6.6,7.2-6.6c2.7,0,4.8,1.2,5.8,3.3l-2.9,1.6c-0.7-1.2-1.7-1.8-2.9-1.8
			c-1.9,0-3.4,1.3-3.4,3.6c0,2.3,1.5,3.6,3.4,3.6c1.2,0,2.2-0.5,2.9-1.8l2.9,1.6c-0.9,2.1-3.1,3.3-5.8,3.3
			C4889.5-1791.9,4886.5-1794.7,4886.5-1798.5z"/>
		<path class="st4" d="M4901.2-1808.9c0-1.2,0.9-2.1,2.3-2.1c1.4,0,2.3,0.9,2.3,2c0,1.2-0.9,2.2-2.3,2.2
			C4902.1-1806.8,4901.2-1807.7,4901.2-1808.9z M4901.6-1805h3.7v12.9h-3.7V-1805z"/>
		<path class="st4" d="M4920.3-1799.5v7.4h-3.5v-1.6c-0.7,1.2-2,1.8-3.9,1.8c-3,0-4.8-1.7-4.8-3.9c0-2.3,1.6-3.9,5.5-3.9h3
			c0-1.6-1-2.5-3-2.5c-1.4,0-2.8,0.5-3.7,1.2l-1.3-2.6c1.4-1,3.5-1.6,5.6-1.6C4918-1805.2,4920.3-1803.4,4920.3-1799.5z
			 M4916.5-1796.2v-1.3h-2.6c-1.8,0-2.3,0.6-2.3,1.5c0,0.9,0.8,1.6,2.1,1.6C4915-1794.4,4916.1-1795,4916.5-1796.2z"/>
		<path class="st4" d="M4922.4-1793.3l1.2-2.7c1.2,0.7,2.9,1.2,4.5,1.2c1.7,0,2.4-0.5,2.4-1.2c0-2.1-7.8,0-7.8-5.1
			c0-2.4,2.2-4.2,6-4.2c1.8,0,3.7,0.4,5,1.1l-1.2,2.7c-1.3-0.7-2.5-1-3.7-1c-1.7,0-2.4,0.5-2.4,1.2c0,2.2,7.8,0.1,7.8,5.2
			c0,2.4-2.2,4.1-6.1,4.1C4925.8-1791.9,4923.6-1792.5,4922.4-1793.3z"/>
		<path class="st4" d="M4942.2-1798.5c0-3.9,3-6.6,7.1-6.6c4.1,0,7.1,2.8,7.1,6.6c0,3.9-3,6.6-7.1,6.6
			C4945.2-1791.9,4942.2-1794.7,4942.2-1798.5z M4952.6-1798.5c0-2.2-1.4-3.6-3.3-3.6s-3.3,1.3-3.3,3.6c0,2.2,1.4,3.6,3.3,3.6
			S4952.6-1796.3,4952.6-1798.5z"/>
	</g>
	<g class="st3">
		<path class="st4" d="M4832.9-1770.7v7.4h-3.5v-1.6c-0.7,1.2-2,1.8-3.9,1.8c-3,0-4.8-1.7-4.8-3.9c0-2.3,1.6-3.9,5.5-3.9h3
			c0-1.6-1-2.5-3-2.5c-1.4,0-2.8,0.5-3.7,1.2l-1.3-2.6c1.4-1,3.5-1.6,5.6-1.6C4830.6-1776.4,4832.9-1774.6,4832.9-1770.7z
			 M4829.1-1767.4v-1.3h-2.6c-1.8,0-2.3,0.6-2.3,1.5c0,0.9,0.8,1.6,2.1,1.6C4827.6-1765.6,4828.7-1766.2,4829.1-1767.4z"/>
		<path class="st4" d="M4848.8-1776.2l-5.8,13.7c-1.2,3.1-3,4.1-5.4,4.1c-1.3,0-2.8-0.4-3.6-1.2l1.4-2.7c0.6,0.5,1.4,0.8,2.1,0.8
			c1,0,1.6-0.5,2.1-1.6l0-0.1l-5.6-13h3.9l3.6,8.8l3.6-8.8H4848.8z"/>
		<path class="st4" d="M4863.4-1776.2v12.9h-3.6v-1.5c-1,1.1-2.4,1.7-4,1.7c-3.2,0-5.5-1.8-5.5-5.8v-7.3h3.7v6.7
			c0,2.2,1,3.1,2.6,3.1c1.7,0,3-1.1,3-3.5v-6.4H4863.4z"/>
		<path class="st4" d="M4880-1770.7v7.4h-3.7v-6.8c0-2.1-1-3-2.6-3c-1.8,0-3.1,1.1-3.1,3.5v6.4h-3.7v-12.9h3.6v1.5
			c1-1.1,2.5-1.7,4.3-1.7C4877.7-1776.4,4880-1774.6,4880-1770.7z"/>
		<path class="st4" d="M4882.6-1769.7c0-3.9,3-6.6,7.1-6.6c4.1,0,7.1,2.8,7.1,6.6c0,3.9-3,6.6-7.1,6.6
			C4885.6-1763.1,4882.6-1765.9,4882.6-1769.7z M4893-1769.7c0-2.2-1.4-3.6-3.3-3.6s-3.3,1.3-3.3,3.6c0,2.2,1.4,3.6,3.3,3.6
			S4893-1767.5,4893-1769.7z"/>
		<path class="st4" d="M4898-1764.5l1.2-2.7c1.2,0.7,2.9,1.2,4.5,1.2c1.7,0,2.4-0.5,2.4-1.2c0-2.1-7.8,0-7.8-5.1
			c0-2.4,2.2-4.2,6-4.2c1.8,0,3.7,0.4,5,1.1l-1.2,2.7c-1.3-0.7-2.5-1-3.7-1c-1.7,0-2.4,0.5-2.4,1.2c0,2.2,7.8,0.1,7.8,5.2
			c0,2.4-2.2,4.1-6.1,4.1C4901.5-1763.1,4899.2-1763.7,4898-1764.5z"/>
	</g>
	<g class="st3">
		<path class="st4" d="M4801.4-1740.9c0,4.1-2.8,6.6-6.4,6.6c-1.6,0-2.9-0.5-3.9-1.6v6h-3.7v-17.6h3.6v1.5c0.9-1.1,2.3-1.7,4.1-1.7
			C4798.5-1747.6,4801.4-1745,4801.4-1740.9z M4797.6-1740.9c0-2.2-1.4-3.6-3.3-3.6s-3.3,1.3-3.3,3.6c0,2.2,1.4,3.6,3.3,3.6
			S4797.6-1738.7,4797.6-1740.9z"/>
		<path class="st4" d="M4811.9-1747.6v3.5c-0.3,0-0.6,0-0.8,0c-2.1,0-3.4,1.1-3.4,3.6v6.1h-3.7v-12.9h3.6v1.7
			C4808.3-1746.9,4809.9-1747.6,4811.9-1747.6z"/>
		<path class="st4" d="M4813-1740.9c0-3.9,3-6.6,7.1-6.6c4.1,0,7.1,2.8,7.1,6.6c0,3.9-3,6.6-7.1,6.6
			C4816-1734.3,4813-1737.1,4813-1740.9z M4823.4-1740.9c0-2.2-1.4-3.6-3.3-3.6s-3.3,1.3-3.3,3.6c0,2.2,1.4,3.6,3.3,3.6
			S4823.4-1738.7,4823.4-1740.9z"/>
		<path class="st4" d="M4829.7-1752.3h3.7v17.8h-3.7V-1752.3z"/>
		<path class="st4" d="M4836-1740.9c0-3.9,3-6.6,7.1-6.6c4.1,0,7.1,2.8,7.1,6.6c0,3.9-3,6.6-7.1,6.6
			C4839-1734.3,4836-1737.1,4836-1740.9z M4846.4-1740.9c0-2.2-1.4-3.6-3.3-3.6s-3.3,1.3-3.3,3.6c0,2.2,1.4,3.6,3.3,3.6
			S4846.4-1738.7,4846.4-1740.9z"/>
		<path class="st4" d="M4865.8-1741.9v7.4h-3.7v-6.8c0-2.1-1-3-2.6-3c-1.8,0-3.1,1.1-3.1,3.5v6.4h-3.7v-12.9h3.6v1.5
			c1-1.1,2.5-1.7,4.3-1.7C4863.5-1747.6,4865.8-1745.8,4865.8-1741.9z"/>
		<path class="st4" d="M4882.7-1747.4v10.8c0,4.8-2.6,7-7.2,7c-2.4,0-4.8-0.6-6.3-1.8l1.5-2.7c1.1,0.9,2.9,1.5,4.6,1.5
			c2.6,0,3.8-1.2,3.8-3.5v-0.6c-1,1.1-2.4,1.6-4.1,1.6c-3.6,0-6.5-2.5-6.5-6.2c0-3.8,2.9-6.2,6.5-6.2c1.8,0,3.3,0.6,4.3,1.8v-1.7
			H4882.7z M4879-1741.4c0-1.9-1.4-3.2-3.4-3.2c-2,0-3.4,1.3-3.4,3.2c0,1.9,1.4,3.2,3.4,3.2C4877.6-1738.2,4879-1739.5,4879-1741.4z
			"/>
		<path class="st4" d="M4897.6-1741.9v7.4h-3.5v-1.6c-0.7,1.2-2,1.8-3.9,1.8c-3,0-4.8-1.7-4.8-3.9c0-2.3,1.6-3.9,5.5-3.9h3
			c0-1.6-1-2.5-3-2.5c-1.4,0-2.8,0.5-3.7,1.2l-1.3-2.6c1.4-1,3.5-1.6,5.6-1.6C4895.3-1747.6,4897.6-1745.8,4897.6-1741.9z
			 M4893.8-1738.6v-1.3h-2.6c-1.8,0-2.3,0.6-2.3,1.5c0,0.9,0.8,1.6,2.1,1.6C4892.3-1736.8,4893.4-1737.4,4893.8-1738.6z"/>
		<path class="st4" d="M4914.3-1752.3v17.8h-3.6v-1.5c-0.9,1.1-2.3,1.7-4,1.7c-3.6,0-6.5-2.6-6.5-6.6c0-4.1,2.8-6.6,6.5-6.6
			c1.6,0,2.9,0.5,3.9,1.6v-6.3H4914.3z M4910.6-1740.9c0-2.2-1.4-3.6-3.3-3.6c-1.9,0-3.3,1.3-3.3,3.6c0,2.2,1.4,3.6,3.3,3.6
			C4909.2-1737.4,4910.6-1738.7,4910.6-1740.9z"/>
		<path class="st4" d="M4916.8-1740.9c0-3.9,3-6.6,7.1-6.6s7.1,2.8,7.1,6.6c0,3.9-3,6.6-7.1,6.6S4916.8-1737.1,4916.8-1740.9z
			 M4927.2-1740.9c0-2.2-1.4-3.6-3.3-3.6s-3.3,1.3-3.3,3.6c0,2.2,1.4,3.6,3.3,3.6S4927.2-1738.7,4927.2-1740.9z"/>
		<path class="st4" d="M4932.2-1735.7l1.2-2.7c1.2,0.7,2.9,1.2,4.5,1.2c1.7,0,2.4-0.5,2.4-1.2c0-2.1-7.8,0-7.8-5.1
			c0-2.4,2.2-4.2,6-4.2c1.8,0,3.7,0.4,5,1.1l-1.2,2.7c-1.3-0.7-2.5-1-3.7-1c-1.7,0-2.4,0.5-2.4,1.2c0,2.2,7.8,0.1,7.8,5.2
			c0,2.4-2.2,4.1-6.1,4.1C4935.6-1734.3,4933.4-1734.9,4932.2-1735.7z"/>
	</g>
</g>
</svg>
