<svg id="Grupo_7578" data-name="Grupo 7578" xmlns="http://www.w3.org/2000/svg" width="58.128" height="73.141" viewBox="0 0 58.128 73.141">
  <path id="Trazado_16490" data-name="Trazado 16490" d="M6500.289-286.54c.141.807.305,1.521.382,2.244.1.933-.5,1.394-1.308.936a31.888,31.888,0,0,1-3.435-2.238,3.587,3.587,0,0,0-2.282-.745,26.781,26.781,0,0,1-5.327-.3,10.564,10.564,0,0,1-8.29-10.1,12.88,12.88,0,0,1,.639-5.28c1.693-4.268,4.843-6.74,9.413-7.042a64.708,64.708,0,0,1,9.311.083,10.522,10.522,0,0,1,9.264,9.517,12.967,12.967,0,0,1-1.155,7.357,10.711,10.711,0,0,1-6.637,5.4C6500.68-286.648,6500.494-286.6,6500.289-286.54Zm2.167-20.13a14.76,14.76,0,0,0-3.086-.836c-3.1-.128-6.218-.252-9.312-.081a8.554,8.554,0,0,0-7.644,5.258,10.967,10.967,0,0,0,.126,9.515,7.789,7.789,0,0,0,2.659,3.147l3.762-3.784c-1.184-.841-2.511-1.707-3.748-2.687a1.448,1.448,0,0,1-.128-2.362,16.373,16.373,0,0,1,2.789-2.352,12.6,12.6,0,0,1,9.41-1.414c.257.049.643.081.793-.063C6499.5-303.7,6500.891-305.108,6502.455-306.671Zm-3.622,21.333.138-.11c-.109-.37-.216-.74-.327-1.109-.268-.887-.115-1.155.768-1.338a9.22,9.22,0,0,0,7.833-9.028,9.735,9.735,0,0,0-3.027-8.306c-.189-.173-.4-.32-.508-.4l-3.968,3.979c1.172.865,2.476,1.728,3.662,2.731,1.142.966,1.105,1.81.029,2.84-3.325,3.182-7.308,4.066-11.735,3.274a1.351,1.351,0,0,0-1.465.424c-.695.788-1.477,1.5-2.219,2.245-.437.439-.869.882-1.419,1.443a11.048,11.048,0,0,0,2.233.679c1.922.145,3.856.135,5.782.248a3.1,3.1,0,0,1,1.408.462C6496.986-286.7,6497.9-286,6498.833-285.338Zm-12.805-12.038a12.645,12.645,0,0,0,3.869,2.538c.517.225.744-.04,1.063-.324s.3-.54.163-.943a5.023,5.023,0,0,1-.277-1.851,3.677,3.677,0,0,1,2.3-3.072A10.077,10.077,0,0,0,6486.028-297.376Zm9.628,3.3a10.722,10.722,0,0,0,7.1-3.4,9.217,9.217,0,0,0-4.158-2.795c-.219-.076-.634.234-.869.459-.127.123-.109.449-.081.674a10.774,10.774,0,0,1,.3,2.063A3.649,3.649,0,0,1,6495.656-294.08Zm.757-4.155-2.7,2.694a1.971,1.971,0,0,0,2.128-.448A2,2,0,0,0,6496.414-298.235Zm-4.045,1.336,2.667-2.683a1.976,1.976,0,0,0-2.108.487A2.02,2.02,0,0,0,6492.368-296.9Z" transform="translate(-6478.11 316.817)" fill="#023c7d"/>
  <path id="Trazado_16491" data-name="Trazado 16491" d="M6611.94-213.677a12.189,12.189,0,0,1,12.082,11.271,12.128,12.128,0,0,1-9.6,12.721,3.357,3.357,0,0,1-.939.15,3.784,3.784,0,0,0-2.572,1.021,33.771,33.771,0,0,1-3.14,2.026c-.987.558-1.564.161-1.479-.979a17.774,17.774,0,0,1,.366-2.464.73.73,0,0,0-.429-.974A12.05,12.05,0,0,1,6600-203.331a12.082,12.082,0,0,1,9.475-10.015C6610.282-213.522,6611.117-213.57,6611.94-213.677Zm7.305,4.514c-2.169-2.471-6.478-3.632-10.045-2.587a10.219,10.219,0,0,0-7.661,8.41,10.222,10.222,0,0,0,2.688,9.086l7.985-7.985c-.677-.488-.845-.473-1.395.175-.111.131-.211.27-.316.405-.293.377-.647.543-1.073.229a.657.657,0,0,1-.1-1.079,15.537,15.537,0,0,1,2.112-1.881,2.734,2.734,0,0,1,2.609-.236c.553.227.795.068,1.061-.393a3.251,3.251,0,0,0-3.218-1.149,4.825,4.825,0,0,0-3.2,2.269c-.257.4-.641.662-1.027.359a1.058,1.058,0,0,1-.278-.975c1.367-2.5,4.58-4.058,7.3-2.675a13.225,13.225,0,0,1,1.528,1.053Zm1.041,1.122c-1.027,1.037-2.039,2.03-3.005,3.064a.937.937,0,0,0-.095.763,7.532,7.532,0,0,1-4.308,9.014,4.033,4.033,0,0,1-4.443-.7l-2.884,2.9c.661.37,1.362.8,2.1,1.161a.982.982,0,0,1,.639,1.281c-.181.719-.29,1.456-.43,2.186,1.214-.649,2.251-1.415,3.329-2.12a2.547,2.547,0,0,1,1.206-.416,10.643,10.643,0,0,0,5.56-1.856C6622.977-196.176,6624.133-203.483,6620.286-208.041Zm-10.9,11.081a2.784,2.784,0,0,0,3.087.332,6.02,6.02,0,0,0,3.271-3.748,5.041,5.041,0,0,0,.089-3.037Z" transform="translate(-6574.447 240.046)" fill="#023c7d"/>
  <path id="Trazado_16492" data-name="Trazado 16492" d="M6640.149-326.943a29.2,29.2,0,0,1-3.235-2.024,5.778,5.778,0,0,1-2.062-4.013c-.262-2.653-.583-5.3-.713-7.965a6.674,6.674,0,0,1,6.792-7.075c3.965-.019,7.932.079,11.895-.027a6.909,6.909,0,0,1,7.172,8.126c-.459,2.425-.748,4.882-1.179,7.312a6.562,6.562,0,0,1-6.135,5.471c-1.855.109-3.718.1-5.577.1a2.286,2.286,0,0,0-1.537.518c-.915.734-1.87,1.42-2.826,2.1a11.074,11.074,0,0,1-1.438.879c-.865.435-1.4.093-1.358-.868C6639.989-325.334,6640.092-326.254,6640.149-326.943Zm5.856-1.563c.848,0,1.581.009,2.314,0,1.419-.021,2.842,0,4.257-.092a5.067,5.067,0,0,0,4.782-4.235c.48-2.646.925-5.3,1.231-7.973a5.033,5.033,0,0,0-2.319-4.852.533.533,0,0,0-.814.082c-3.419,3.435-6.853,6.856-10.264,10.3a.942.942,0,0,0-.168.733c.158.838.43,1.656.563,2.5C6645.771-330.891,6645.866-329.721,6646.005-328.506Zm-1.887-18c-1.365,0-2.69-.1-3.993.023-2.293.225-4.969,2.383-4.508,6.311.249,2.111.4,4.234.6,6.352a5.418,5.418,0,0,0,1.592,3.682l5.105-5.108c-.354-.265-.723-.576-1.125-.838-2.073-1.353-2.28-2.788-.689-4.66a32.168,32.168,0,0,0,2.045-2.582A5.631,5.631,0,0,0,6644.118-346.506Zm1.507.008a8.014,8.014,0,0,1-1.426,4.246c-.716.987-1.535,1.9-2.3,2.853a1.05,1.05,0,0,0,.216,1.746c.622.467,1.262.91,1.721,1.238l10.083-10.083Zm-1.743,12.866-4.667,4.534c.249.1.516.218.794.3a5.425,5.425,0,0,0,.786.167c.949.139,1.108.346.968,1.317-.089.61-.191,1.218-.316,2.014,1.076-.8,2-1.469,2.907-2.166a.639.639,0,0,0,.231-.479C6644.365-329.852,6644.118-331.759,6643.882-333.632Z" transform="translate(-6601.988 348.05)" fill="#023c7d"/>
  <path id="Trazado_16493" data-name="Trazado 16493" d="M6511.2-158.7a1.265,1.265,0,0,1-1.288-1.222,1.267,1.267,0,0,1,1.222-1.29,1.253,1.253,0,0,1,1.28,1.225A1.248,1.248,0,0,1,6511.2-158.7Z" transform="translate(-6502.144 197.879)" fill="#023c7d"/>
  <path id="Trazado_16494" data-name="Trazado 16494" d="M6694.2-282.278c.488,0,.979-.027,1.465.005a1.945,1.945,0,0,1,1.883,1.95,1.966,1.966,0,0,1-1.83,2.014c-.8.058-1.611.028-2.417.011a.683.683,0,0,1-.745-.73.671.671,0,0,1,.742-.724c.66-.011,1.319-.007,1.978-.008.384,0,.786-.019.805-.523.02-.525-.389-.539-.771-.54-.855,0-1.71,0-2.564,0-.519,0-.948-.154-.932-.771.015-.578.43-.7.919-.7s.977,0,1.465,0Z" transform="translate(-6648.35 295.197)" fill="#023c7d"/>
  <g id="Grupo_7577" data-name="Grupo 7577" transform="translate(0 21.412)">
    <path id="Trazado_16495" data-name="Trazado 16495" d="M6492.192-166.163a3.486,3.486,0,0,0-3-2.484,15.733,15.733,0,0,0-2.917-.188c-1.929.069-3.854.32-5.782.341a2.943,2.943,0,0,1-3.279-2.711c-.334-1.8-.488-3.63-.736-5.562,1.123,0,2.146,0,3.169,0,.5,0,.963-.108.965-.741s-.45-.733-.961-.732c-.978,0-1.958-.016-2.937.007a.638.638,0,0,1-.734-.519,6.235,6.235,0,0,0-2.451-3.208c-.282-.195-.577-.37-.856-.568-1.047-.748-1.149-1.4-.345-2.382.605-.738,1.256-1.438,1.862-2.175a10.18,10.18,0,0,0,2.352-7.571c-.156-1.924-.175-3.859-.235-5.79-.015-.52-.111-.964-.721-.983s-.763.428-.751.946a32.926,32.926,0,0,0,.132,4.1,10.483,10.483,0,0,1-3.061,9.725,9.743,9.743,0,0,0-1.078,1.3,2.518,2.518,0,0,0-.387,2.232,3.722,3.722,0,0,0,1.945,2.184,4.708,4.708,0,0,1,2.381,3.36c.319,1.977.545,3.968.838,5.949.429,2.9,1.955,4.462,4.549,4.609.973.055,1.955-.027,2.932-.068,1.683-.071,3.365-.207,5.049-.224a2.727,2.727,0,0,1,2.913,2.188c.527,2.031,1.286,5.175,1.8,7.21a1.014,1.014,0,0,0,1.033.859s.708-.049.461-1.019C6493.83-160.1,6492.692-164.528,6492.192-166.163Z" transform="translate(-6470.336 208.791)" fill="#023c7d"/>
    <path id="Trazado_16496" data-name="Trazado 16496" d="M6697.376-211.188c4.241-6.567,5.7-13.624,3.456-21.221a56.68,56.68,0,0,0-2.456-5.944c-.211-.5-.6-.754-1.115-.462-.535.3-.415.761-.149,1.2.113.189.222.38.322.577,3.188,6.318,4.016,12.828,1.509,19.576a36.768,36.768,0,0,1-5.385,9.216,12.266,12.266,0,0,0-2.295,8.661,110.91,110.91,0,0,0,2.3,11.1c.244,1.029.974,1,.974,1s.874-.012.606-.944a67.9,67.9,0,0,1-2.416-11.269,11.026,11.026,0,0,1,2.058-7.759C6695.69-208.665,6696.554-209.915,6697.376-211.188Z" transform="translate(-6647.867 238.938)" fill="#023c7d"/>
  </g>
</svg>
