<svg xmlns="http://www.w3.org/2000/svg" width="47.648" height="86.734" viewBox="0 0 47.648 86.734">
  <g id="Grupo_7583" data-name="Grupo 7583" transform="translate(-7294.857 451.489)">
    <path id="Trazado_16497" data-name="Trazado 16497" d="M7353.837-312.581a2.566,2.566,0,0,0-2.563,2.563,2.566,2.566,0,0,0,2.563,2.563,2.566,2.566,0,0,0,2.563-2.563A2.566,2.566,0,0,0,7353.837-312.581Z" transform="translate(-43.329 -106.682)" fill="#3a2c60"/>
    <path id="Trazado_16498" data-name="Trazado 16498" d="M7421.605-312.581a2.566,2.566,0,0,0-2.562,2.563,2.566,2.566,0,0,0,2.563,2.563,2.566,2.566,0,0,0,2.563-2.563A2.566,2.566,0,0,0,7421.605-312.581Z" transform="translate(-95.376 -106.682)" fill="#3a2c60"/>
    <path id="Trazado_16499" data-name="Trazado 16499" d="M7341.929-416.734v-7.585a23.032,23.032,0,0,0-5.616-15.075,23.051,23.051,0,0,0-13.226-7.584,6.625,6.625,0,0,1,.189-.775,13.359,13.359,0,0,1,.521-1.318c.386-.881.823-1.879-.046-2.314a1.014,1.014,0,0,0-.458-.1c-1.043,0-3.043,1.854-4.395,3.242-.8-.664-2.255-1.742-3.271-1.742a1.307,1.307,0,0,0-.728.2c-.458.3-.633.862-.22,2.807a23.051,23.051,0,0,0-13.205,7.564,23.03,23.03,0,0,0-5.633,15.095v6.858a6.112,6.112,0,0,0-.986,3.407c0,2.867,1.819,5.2,4.054,5.2a2.962,2.962,0,0,0,.435-.032,19.988,19.988,0,0,0,11.567,13.481v0a20.581,20.581,0,0,0,3.273,1.06l.091.018.1.02a.9.9,0,0,1,.324.846c-.03.759-.1,1.2-.992,1.478-6.816,2.14-11,6.729-12.262,13.784a37.437,37.437,0,0,0-.268,5.88c-.037,2.083-.026,4.167.018,6.25.022,1.033.884,1.631,1.691,1.134a1.821,1.821,0,0,0,.687-1.328c.061-3.037,0-6.077.04-9.115a14.614,14.614,0,0,1,5.471-11.52,13.377,13.377,0,0,1,5.52-2.779c.293,2.234,1.439,3.576,3.726,3.617,2.374.043,3.583-1.294,3.88-3.6a6.074,6.074,0,0,1,.917.235c.977.431,1.953.866,2.909,1.342.88.438,1.469.364,1.882-.315a1.158,1.158,0,0,0-.631-1.776,34.759,34.759,0,0,0-4.377-1.845c-.9-.292-.72-.86-.773-1.467a.7.7,0,0,1,.284-.731,20.7,20.7,0,0,0,4.031-1.182v0a20,20,0,0,0,2.19-1.094,20.021,20.021,0,0,0,9.376-12.386,3.051,3.051,0,0,0,.435.032c2.235,0,4.054-2.333,4.054-5.2A6.353,6.353,0,0,0,7341.929-416.734Zm-43.14,4.335.017.216c.022.284.047.542.075.785-.7-.031-1.479-1.156-1.479-2.655,0-1.4.673-2.47,1.335-2.634v2.916C7298.737-413.365,7298.753-412.932,7298.789-412.4Zm20.838,10.674a7.617,7.617,0,0,0,5.884-4.044,1.262,1.262,0,0,0,.046-.973,1.261,1.261,0,0,0-.654-.719,1.261,1.261,0,0,0-.543-.122,1.273,1.273,0,0,0-1.15.731,5,5,0,0,1-3.583,2.531v-2.09a3.73,3.73,0,0,0,2.455-3.5v-1.438a1.274,1.274,0,0,0-1.272-1.272,1.274,1.274,0,0,0-1.272,1.272v1.438a1.183,1.183,0,0,1-1.182,1.182,1.183,1.183,0,0,1-1.182-1.182v-1.438a1.274,1.274,0,0,0-1.272-1.272,1.274,1.274,0,0,0-1.272,1.272v1.438a3.731,3.731,0,0,0,2.454,3.5v1.893h-.04a8.9,8.9,0,0,0-4.477,1.53,1.275,1.275,0,0,0-.448,1.743,1.279,1.279,0,0,0,1.1.624,1.279,1.279,0,0,0,.647-.177,6.667,6.667,0,0,1,3.175-1.169h.046v5.52a17.5,17.5,0,0,1-15.555-14.433c-.075-.453-.134-.919-.175-1.381l-.011-.149c-.04-.492-.059-.937-.059-1.361v-4.287a31.048,31.048,0,0,0,3.066-3.654l.017-.024a.716.716,0,0,0,.016.609l.169.328.413.066h.055a7.334,7.334,0,0,0,3.385-2.248,15.553,15.553,0,0,0,1.134-1.433c-.062.134-.122.25-.172.348a1.528,1.528,0,0,0-.218.63,1.269,1.269,0,0,0-.368.372,1.276,1.276,0,0,0,.384,1.758l3.122,2a1.268,1.268,0,0,0,.688.2,1.269,1.269,0,0,0,1.071-.585,1.265,1.265,0,0,0,.172-.959,1.267,1.267,0,0,0-.556-.8l-2.3-1.476a12.776,12.776,0,0,0,2.658-.94,26.3,26.3,0,0,0,3.066-1.835v.735a5.347,5.347,0,0,1-.632.764c-.251.264-.512.536-.407.958a.741.741,0,0,0,.49.523.845.845,0,0,0,.27.041,1.947,1.947,0,0,0,.279-.025v9.639a1.273,1.273,0,0,0,1.272,1.272,1.273,1.273,0,0,0,1.272-1.272V-423.5a11.358,11.358,0,0,0,1.379-.709,13.975,13.975,0,0,0,1.867-1.388,21.108,21.108,0,0,1-1.251,2.246c-.781,1.287-.922,1.519-.75,1.925l.15.337.429.1h.078a10,10,0,0,0,2.249-.893,1.3,1.3,0,0,0,.132.241,1.263,1.263,0,0,0,.822.522l3.651.635a1.234,1.234,0,0,0,.224.02,1.269,1.269,0,0,0,1.252-1.054,1.263,1.263,0,0,0-.213-.952,1.259,1.259,0,0,0-.821-.52l-2.3-.4c.281-.177.546-.354.788-.528a28.512,28.512,0,0,0,4.752-4.623l3.965,4.307c.032.439.048.842.048,1.228v9.236c0,.425-.02.883-.06,1.364l-.011.142c-.042.474-.1.944-.177,1.4a17.385,17.385,0,0,1-16.2,14.466Zm18.928-10.459.017-.222c.035-.515.052-.949.052-1.366v-2.916c.662.164,1.335,1.237,1.335,2.635a3.672,3.672,0,0,1-.539,1.975,1.309,1.309,0,0,1-.941.68C7338.508-411.644,7338.533-411.9,7338.555-412.184Zm-18.924,19.936q0,.389,0,.779h-.013c0,.606.028,1.213-.007,1.817a1.127,1.127,0,0,1-1.208,1.2,1.114,1.114,0,0,1-1.2-1.2c-.032-1.182,0-2.366-.009-3.549a.569.569,0,0,1,.578-.655c.217.008.429.014.635.014.265,0,.524-.006.78-.015C7319.615-393.733,7319.628-393.323,7319.631-392.248Z" fill="#3a2c60"/>
    <path id="Trazado_16500" data-name="Trazado 16500" d="M7450.709-166.814c-.536-.819-1.162-1.038-1.8-.654-.709.426-.805,1.113-.221,2.024a15.159,15.159,0,0,1,2.375,8.465c-.015,2.89-.006,5.78,0,8.67,0,.987.388,1.472,1.161,1.506.821.037,1.249-.434,1.262-1.49.022-1.82.006-3.641.006-5.462h0c0-1.069-.009-2.139,0-3.208A17.266,17.266,0,0,0,7450.709-166.814Z" transform="translate(-117.848 -217.989)" fill="#3a2c60"/>
    <path id="Trazado_16501" data-name="Trazado 16501" d="M7347.471-123.423c-.008-1.01-.445-1.539-1.238-1.538-.757,0-1.231.515-1.238,1.46q-.03,4.023,0,8.047c.006.954.468,1.444,1.249,1.44s1.219-.5,1.229-1.449c.014-1.327,0-2.654,0-3.981S7347.481-122.1,7347.471-123.423Z" transform="translate(-38.494 -250.775)" fill="#3a2c60"/>
    <path id="Trazado_16502" data-name="Trazado 16502" d="M7438.227-124.965c-.794,0-1.221.528-1.229,1.547-.01,1.327,0,2.654,0,3.981,0,1.3-.007,2.6,0,3.895.007,1.013.437,1.53,1.242,1.526s1.234-.51,1.24-1.541q.021-3.938,0-7.876C7439.477-124.442,7439.018-124.969,7438.227-124.965Z" transform="translate(-109.161 -250.772)" fill="#3a2c60"/>
  </g>
</svg>
