<svg xmlns="http://www.w3.org/2000/svg" width="74" height="64.102" viewBox="0 0 74 64.102">
  <g id="Grupo_7584" data-name="Grupo 7584" transform="translate(-7582.96 453.861)">
    <path id="Trazado_16503" data-name="Trazado 16503" d="M7709.082-374.806a4.209,4.209,0,0,1,5.221-2.856l1.332.39a4.352,4.352,0,0,0-3.2-4.635l-.182-.049a6.807,6.807,0,0,1-4.35,2.2l-10.135.734-11.758-2.409a2.453,2.453,0,0,0-2.9,1.91,2.453,2.453,0,0,0,1.91,2.9l12.084,2.476a2.45,2.45,0,0,0,.66.044l10.7-.733-7.334,1.78s-2.725,9.579-2.819,9.953l-3.356,13.31c-.022.09-.041.181-.055.272l-2.464,16.02a2.943,2.943,0,0,0,2.462,3.357,2.943,2.943,0,0,0,3.356-2.462l2.443-15.882,2.629-10.431,1.493.4-.629,10.891a2.952,2.952,0,0,0,.14,1.081l4.693,14.4a2.944,2.944,0,0,0,3.711,1.887,2.943,2.943,0,0,0,1.887-3.71l-4.521-13.877.607-10.518,2.833-10.754-1.6-.47a4.208,4.208,0,0,1-2.856-5.221Z" transform="translate(-83.04 -59.649)" fill="#023c7d"/>
    <path id="Trazado_16504" data-name="Trazado 16504" d="M7765.04-383.4a6.769,6.769,0,0,1-3.558-2.616l-6.271,1.257,3.1.636Z" transform="translate(-142.892 -56.285)" fill="#023c7d"/>
    <path id="Trazado_16505" data-name="Trazado 16505" d="M7798.7-428.576a5.087,5.087,0,0,0,1.321.175,5.086,5.086,0,0,0,4.907-3.767,5.084,5.084,0,0,0-3.592-6.228,5.087,5.087,0,0,0-1.321-.175,5.086,5.086,0,0,0-4.907,3.767A5.083,5.083,0,0,0,7798.7-428.576Z" transform="translate(-175.839 -12.684)" fill="#023c7d"/>
    <path id="Trazado_16506" data-name="Trazado 16506" d="M7599.078-374.107a2.453,2.453,0,0,0-3.093-1.5l-7.179,2.422.469-2.008,6.149-2.074a4.2,4.2,0,0,1,4.02.741,4.4,4.4,0,0,1-1.172-4.042,4.28,4.28,0,0,1,.664-1.565,6.811,6.811,0,0,1-3.942,1.259,6.793,6.793,0,0,1-4.707-1.9l-1.877.475a4.611,4.611,0,0,0-3.365,3.448c-.683,3-1.719,7.558-2.019,8.841a2.454,2.454,0,0,0,3.172,2.882l11.293-3.809a2.506,2.506,0,0,0,1.586-3.173Z" transform="translate(0 -58.974)" fill="#023c7d"/>
    <path id="Trazado_16507" data-name="Trazado 16507" d="M7632.086-318.543c-.4-1.829-3.747-14.2-3.747-14.2l-1.6-6.111.468.687a2.455,2.455,0,0,0,4.48-1.38v-2.85l-5.752-1.179a4.428,4.428,0,0,1-1.83-.711,4.189,4.189,0,0,1,.969,1.588,4.205,4.205,0,0,1-2.641,5.329l-8.035,2.711,1.923,7.3.622,10.76-4.521,13.877a2.943,2.943,0,0,0,1.887,3.71,2.943,2.943,0,0,0,3.71-1.887l4.693-14.4a2.943,2.943,0,0,0,.14-1.081l-.64-11.077,1.458-.392,2.61,10.353-.386,15.618a2.943,2.943,0,0,0,2.944,3.016,2.944,2.944,0,0,0,2.941-2.871l.4-16.02a2.968,2.968,0,0,0-.089-.793Z" transform="translate(-24.318 -90.9)" fill="#023c7d"/>
    <path id="Trazado_16508" data-name="Trazado 16508" d="M7698.25-406.826l4.03.826v-1.946a2.453,2.453,0,0,0-2.453-2.453,2.453,2.453,0,0,0-2.453,2.453v1.032A4.313,4.313,0,0,1,7698.25-406.826Z" transform="translate(-94.912 -36.054)" fill="#023c7d"/>
    <path id="Trazado_16509" data-name="Trazado 16509" d="M7633.732-437.594a5.085,5.085,0,0,0-4.906-3.767,5.087,5.087,0,0,0-4.914,6.4,5.087,5.087,0,0,0,4.907,3.767A5.086,5.086,0,0,0,7633.732-437.594Z" transform="translate(-33.825 -10.37)" fill="#023c7d"/>
    <path id="Trazado_16510" data-name="Trazado 16510" d="M7874.241-393.439l-3.205-12.544c1.12-11.2,1.1-10.6,1.085-11.038l-1.207-18.628a3.639,3.639,0,0,0-3.873-3.387l-3.081.206a7.314,7.314,0,0,1-8.467-6.9l-2.248-6.479a2.458,2.458,0,0,0-3.127-1.516,2.458,2.458,0,0,0-1.516,3.127l3.275,9.439a2.458,2.458,0,0,0,1.031,1.286l4.817,2.972a3.619,3.619,0,0,0-.549,2.091l.341.1,5.564-.97-6.189,2.612-8.748-2.561a2.458,2.458,0,0,0-3.049,1.668,2.457,2.457,0,0,0,1.668,3.049l9.588,2.807A2.456,2.456,0,0,0,7858-428.2l7-2.952-6.314,4.565a2.443,2.443,0,0,1-.926.411l.821,10.062-2.667,7.931a2.945,2.945,0,0,0-.142.684l-1.269,14.536a2.949,2.949,0,0,0,2.681,3.194,2.949,2.949,0,0,0,3.194-2.681l1.238-14.186,3.331-9.9,1.246-.083-1.069,10.568a2.956,2.956,0,0,0,.077,1.027l3.334,13.051a2.949,2.949,0,0,0,3.587,2.127A2.95,2.95,0,0,0,7874.241-393.439Z" transform="translate(-217.373)" fill="#023c7d"/>
    <path id="Trazado_16511" data-name="Trazado 16511" d="M7916.64-433.163a5.386,5.386,0,0,0,5.368,5.027q.182,0,.365-.012a5.386,5.386,0,0,0,5.015-5.733,5.386,5.386,0,0,0-5.369-5.027q-.181,0-.364.012a5.386,5.386,0,0,0-5.015,5.733Z" transform="translate(-276.795 -12.405)" fill="#023c7d"/>
  </g>
</svg>
